<?xml version="1.0" encoding="UTF-8" standalone="no"?>
<!-- Created with Inkscape (http://www.inkscape.org/) -->

<svg
   width="210mm"
   height="297mm"
   viewBox="0 0 210 297"
   version="1.1"
   id="svg1"
   xml:space="preserve"
   inkscape:version="1.3 (0e150ed6c4, 2023-07-21)"
   sodipodi:docname="Logo.svg"
   xmlns:inkscape="http://www.inkscape.org/namespaces/inkscape"
   xmlns:sodipodi="http://sodipodi.sourceforge.net/DTD/sodipodi-0.dtd"
   xmlns="http://www.w3.org/2000/svg"
   xmlns:svg="http://www.w3.org/2000/svg"><sodipodi:namedview
     id="namedview1"
     pagecolor="#ffffff"
     bordercolor="#000000"
     borderopacity="0.25"
     inkscape:showpageshadow="2"
     inkscape:pageopacity="0.0"
     inkscape:pagecheckerboard="0"
     inkscape:deskcolor="#d1d1d1"
     inkscape:document-units="mm"
     inkscape:zoom="0.742507"
     inkscape:cx="329.96322"
     inkscape:cy="531.30812"
     inkscape:window-width="1920"
     inkscape:window-height="1017"
     inkscape:window-x="1912"
     inkscape:window-y="-8"
     inkscape:window-maximized="1"
     inkscape:current-layer="layer1" /><defs
     id="defs1" /><g
     inkscape:label="Layer 1"
     inkscape:groupmode="layer"
     id="layer1"><path
       style="fill:#000000;stroke-width:1.34952"
       d="m 152.98523,92.386547 c -1.4787,0.202717 -2.68989,1.772389 -3.96856,3.948522 -1.6604,2.825801 -1.26625,2.001793 -1.92449,3.120371 -0.48148,0.81821 -0.58116,1.23003 -1.63589,0.89906 -0.77886,-0.24443 -1.07464,-0.11686 -1.80656,0.7787 -0.61163,0.74849 -2.04013,1.19491 -2.93407,0.91694 -0.70011,-0.21773 -1.1128,-0.73805 -1.15565,-1.45711 -0.0613,-1.02855 -0.79876,-0.32082 -1.53504,1.47324 -0.54124,1.31876 -0.81052,1.58363 -1.51513,1.49031 -0.32325,-0.0429 -0.77227,-0.19958 -0.99784,-0.3484 l -0.41011,-0.27056 -0.24042,0.433 c -0.1322,0.23815 -0.32744,0.59637 -0.43387,0.79601 -0.35432,0.66475 -0.77579,0.82164 -1.5526,0.57786 -0.3831,-0.12038 -0.77831,-0.36721 -0.87835,-0.54891 -0.10001,-0.18188 -0.26288,-0.32618 -0.36167,-0.32104 -0.0989,0.005 -0.52359,0.52875 -0.94387,1.16355 -1.14003,1.72198 -2.58982,2.42077 -3.92202,1.89039 -0.8348,-0.33237 -1.17285,-0.41389 -1.3757,0.43546 -0.64785,2.71263 -2.63153,4.68704 -5.25304,7.28138 -0.14622,0.14448 -0.89373,0.69879 -1.07096,0.61637 -0.0879,-0.0408 -0.51524,0.20624 -0.94989,0.54902 -0.43469,0.34276 -1.23577,0.88596 -1.78016,1.20709 -0.5444,0.32112 -1.08943,0.69477 -1.21118,0.83031 -0.12173,0.13554 -0.449,0.39492 -0.72713,0.57638 -1.25492,0.81876 -2.03254,1.408 -2.54568,1.92898 -0.3049,0.30953 -0.9402,0.89917 -1.41184,1.31034 -0.4716,0.41116 -1.13849,1.03095 -1.48199,1.37733 -0.34346,0.34635 -0.89905,0.78979 -1.23463,0.98536 -0.98742,0.57548 -2.52241,1.63878 -2.74533,1.90163 -0.11349,0.13391 -0.58518,0.45858 -1.04819,0.72158 -1.07558,0.61099 -3.57382,2.22426 -3.79778,2.45248 -0.0942,0.096 -0.459197,0.28469 -0.811127,0.41944 -0.815553,0.31225 -2.293339,1.38974 -2.800477,2.04197 -0.40148,0.51628 -0.523405,0.7883 -2.002076,4.46667 -0.473513,1.17802 -1.05763,2.45589 -1.297986,2.83975 -0.366267,0.58485 -1.423164,2.42836 -2.070732,3.61191 -0.09206,0.16827 -0.15727,0.34373 -0.144847,0.38985 0.0124,0.0461 -0.278322,0.66207 -0.646056,1.36875 -0.772019,1.48356 -0.942474,1.86545 -1.792931,4.01665 -0.34403,0.87027 -0.605103,1.65806 -0.580163,1.75066 0.02497,0.0927 -0.07543,0.27456 -0.222669,0.40439 -0.147424,0.12983 -0.334133,0.5426 -0.415034,0.91727 -0.111681,0.51744 -0.258611,0.69987 -0.611139,0.75879 -0.255228,0.0427 -0.44392,0.15232 -0.419227,0.24399 0.0247,0.0917 -0.176958,0.15395 -0.447927,0.1388 -0.746762,-0.0421 -0.917044,-0.68597 -0.433935,-1.6419 0.214466,-0.42471 0.435543,-0.93674 0.491238,-1.13787 0.05572,-0.20106 0.384182,-0.87095 0.729937,-1.48861 0.345754,-0.6176 0.741434,-1.34946 0.879288,-1.62635 0.667988,-1.34183 2.112449,-4.38822 2.371754,-5.00215 0.160357,-0.37966 0.521003,-1.16975 0.801459,-1.75577 0.280438,-0.58601 0.707079,-1.66017 0.948071,-2.38701 0.241008,-0.72685 0.579137,-1.56811 0.751414,-1.86947 0.339973,-0.59463 0.66312,-1.66322 0.500431,-1.65475 -0.05548,0.003 -0.338405,0.20749 -0.628947,0.45467 -0.2905,0.24718 -0.612615,0.45382 -0.715812,0.45919 -0.103123,0.005 -0.360644,0.23414 -0.57211,0.5084 -0.211471,0.27424 -0.782177,0.7175 -1.268239,0.98496 -0.486056,0.26747 -0.863818,0.56028 -0.839452,0.65075 0.02438,0.0905 -0.118022,0.2253 -0.316335,0.2997 -0.198324,0.0744 -0.756226,0.48835 -1.239771,0.91983 -0.483547,0.43146 -0.931901,0.78721 -0.996322,0.79056 -0.125675,0.007 -1.300382,1.30052 -2.084621,2.29662 -0.264023,0.33531 -0.565536,0.587 -0.670082,0.55926 -0.10467,-0.0279 -0.476257,-0.0829 -0.826109,-0.12251 -0.618252,-0.07 -2.039001,-0.86191 -0.707011,-1.86702 0.294519,-0.22219 0.998976,-0.83595 1.5655,-1.36385 0.566517,-0.5279 1.482311,-1.25557 2.035079,-1.61705 1.100593,-0.71978 2.153339,-1.55789 2.57181,-2.04746 0.147603,-0.17278 0.693546,-0.50448 1.213207,-0.73723 0.519698,-0.23277 1.41621,-0.81656 1.992281,-1.29732 0.576052,-0.48078 1.143396,-0.88056 1.26073,-0.88842 0.616797,-0.0421 1.542449,-1.09228 1.855569,-2.1071 0.181375,-0.58784 0.444694,-1.28094 0.585158,-1.54026 0.229605,-0.42385 1.158133,-2.99356 2.462951,-6.81598 0.25806,-0.75606 0.78009,-2.26431 1.16007,-3.35159 0.616253,-1.76362 1.073233,-4.0105 0.847963,-4.16926 -0.19712,-0.13894 -4.909552,2.9463 -6.253351,4.09388 -1.44443,1.23343 -1.378146,1.20351 -1.993995,0.90073 -0.439625,-0.21614 -0.550458,-0.35578 -0.552791,-0.69646 -0.0021,-0.29602 -0.108497,-0.4836 -0.348432,-0.61436 -0.466464,-0.25409 -0.630783,-0.9589 -0.321462,-1.37901 0.138826,-0.18865 0.858403,-0.57602 1.599069,-0.86093 0.740622,-0.28492 1.847211,-0.87067 2.459057,-1.30168 0.611865,-0.43103 1.359429,-0.89874 1.661247,-1.03939 0.874403,-0.40743 2.825155,-1.53983 3.052255,-1.77182 0.11408,-0.11668 0.543613,-0.36233 0.954293,-0.54604 0.694107,-0.31045 0.777187,-0.43857 1.180387,-1.81968 0.23853,-0.81713 0.46423,-1.89701 0.50156,-2.39975 0.0374,-0.50273 0.12872,-1.02032 0.20309,-1.15024 0.16731,-0.29216 0.80367,-0.33991 1.15581,-0.0867 0.3791,0.27264 0.43494,0.63704 0.24187,1.57786 -0.0939,0.4576 -0.15594,0.90723 -0.13779,0.99912 0.0156,0.092 -0.0548,0.49443 -0.16191,0.89453 -0.10715,0.40012 -0.15598,0.72546 -0.10849,0.72299 0.0477,-0.002 0.30249,-0.16734 0.56664,-0.36643 0.26424,-0.19901 0.61838,-0.36938 0.78712,-0.37852 0.1687,-0.009 0.42423,-0.0924 0.5677,-0.18536 0.67567,-0.43723 4.17812,-1.8046 5.97221,-2.33153 0.4194,-0.12325 1.43223,-0.6012 2.25067,-1.06218 0.90612,-0.51041 1.73632,-0.85111 2.12293,-0.87122 0.76761,-0.0399 3.39654,-0.85316 4.56152,-1.41104 0.9611,-0.46026 2.53472,-0.68168 3.24764,-0.45702 0.42467,0.13374 0.73502,0.34245 1.7355,1.16667 0.49631,0.40886 1.51911,0.1022 2.37604,-0.71261 1.043,-0.99159 1.77355,-1.25013 2.62562,-0.92916 l 0.62876,0.23687 0.58317,-0.5112 c 1.50421,-1.3185 2.12543,-1.41763 2.93899,-0.46895 0.26858,0.31314 0.52893,0.56628 0.57864,0.56257 0.12014,-0.008 0.57243,-1.16545 0.52501,-1.34155 -0.0815,-0.30247 0.69956,-1.06289 1.04865,-1.02099 0.20063,0.0241 0.45755,0.0448 0.57109,0.0459 0.11382,0.002 0.33035,0.19906 0.4818,0.43969 l 0.27536,0.43753 0.22237,-0.60992 c 0.12228,-0.33549 0.18072,-0.76452 0.12982,-0.95344 -0.1094,-0.406151 0.64615,-1.155175 1.00886,-1.000173 0.13796,0.05892 0.45946,0.244068 0.71467,0.411402 0.27744,0.181918 0.5817,0.25792 0.75681,0.189011 0.16107,-0.06338 0.4169,-0.819197 1.03333,-1.593598 1.21318,-1.524073 2.06785,-1.669613 2.8955,-1.074375 0.49015,0.352472 0.82427,1.290271 0.57868,1.623971 -0.10776,0.146316 -0.003,0.313476 0.0393,0.200496 0.37757,-1.005788 0.60615,-1.464617 0.89595,-2.419993 0.16938,-0.558401 0.34039,-0.843482 0.3738,-0.914045 0.30218,-0.638267 0.4661,-0.663043 0.90257,-0.65563 0.25396,0.0029 0.7027,0.116053 1.00699,0.293212 l 0.5533,0.322174 0.81848,-0.857687 c 1.40109,-1.468229 2.7612,-2.332523 3.38789,-2.152884 0.21167,0.06076 0.85365,0.842009 0.93257,1.134974 0.008,0.03023 -0.18928,0.108017 -0.43881,0.172613 z m -10.6747,7.050613 c -0.1792,0.11717 -0.27655,0.24851 -0.21635,0.29179 0.0604,0.0433 0.256,-0.0173 0.43523,-0.13433 0.17919,-0.11717 0.27654,-0.2485 0.21635,-0.29177 -0.0602,-0.0433 -0.256,0.0173 -0.43522,0.13433 z m -13.36344,4.23964 c -0.23329,0.0121 -0.96265,0.88439 -0.90829,1.08623 0.0532,0.19742 0.55141,-0.0627 0.88957,-0.46468 0.33155,-0.39406 0.33889,-0.63821 0.0187,-0.62155 z m -6.87253,0.96208 c -0.52227,-0.0879 -1.89332,-0.3139 -3.71592,0.59279 -1.77814,0.5812 -3.4394,1.19616 -5.2444,1.7257 -2.06026,0.37183 -4.85168,1.88218 -7.42271,3.61609 -0.16431,0.11074 -0.61731,0.3452 -1.00678,0.52093 -1.88445,0.85018 -2.56817,1.39948 -3.03109,2.43508 -0.24877,0.55655 -0.43946,1.05961 -0.42374,1.11794 0.0643,0.23869 -1.11192,5.41149 -1.380517,6.07122 -0.0966,0.23712 -0.36311,1.12441 -0.59243,1.97183 -0.229303,0.84739 -0.550423,1.91818 -0.713553,2.3795 -0.54241,1.53392 -0.93581,3.0613 -0.81149,3.15068 0.15188,0.10922 0.91153,-0.63128 2.4971,-1.68791 4.00227,-2.66715 7.81045,-5.18579 11.46899,-8.04425 3.42843,-2.67863 6.88512,-4.35528 9.68149,-8.29807 1.56355,-2.20459 2.26152,-5.28797 0.69505,-5.55153 z m 20.1909,-7.037869 c -0.17919,0.117172 -0.27654,0.248516 -0.21636,0.291795 0.0602,0.04327 0.25602,-0.01732 0.43525,-0.134331 0.17917,-0.117171 0.27654,-0.248476 0.21634,-0.291774 -0.0602,-0.04327 -0.25599,0.01732 -0.43523,0.13433 z"
       id="path1"
       sodipodi:nodetypes="sssssssssscssssssssssssssssssssssssssssssssssccsssssssssssssssssscsssssscsssssssssssssssssssscssssssssssssscssssscscssssssssssssscssssssssssssssssssssssssssssssssss"
       inkscape:export-filename="Logo.png"
       inkscape:export-xdpi="96"
       inkscape:export-ydpi="96" /><text
       xml:space="preserve"
       style="font-style:normal;font-variant:normal;font-weight:normal;font-stretch:normal;font-size:26.2053px;line-height:1.2;font-family:'Linear Beam';-inkscape-font-specification:'Linear Beam';fill:#1a1a1a;stroke-width:0.696694"
       x="165.77657"
       y="178.48967"
       id="text1"
       transform="matrix(0.93993873,-0.43239128,-0.35515005,1.2272755,0,0)"><tspan
         sodipodi:role="line"
         id="tspan1"
         x="165.77657"
         y="178.48967"
         style="font-style:normal;font-variant:normal;font-weight:normal;font-stretch:normal;font-family:'Linear Beam';-inkscape-font-specification:'Linear Beam';fill:#1a1a1a;stroke-width:0.696694">DECK</tspan></text><text
       xml:space="preserve"
       style="font-style:normal;font-variant:normal;font-weight:normal;font-stretch:normal;font-size:9.42587px;line-height:1.2;font-family:'Linear Beam';-inkscape-font-specification:'Linear Beam';fill:#1a1a1a;stroke-width:0.250598"
       x="164.02719"
       y="232.79102"
       id="text2"
       transform="matrix(1.1992084,-0.51124501,-0.46169824,1.0307141,0,0)"><tspan
         sodipodi:role="line"
         id="tspan2"
         style="font-style:normal;font-variant:normal;font-weight:normal;font-stretch:normal;font-family:Arial;-inkscape-font-specification:Arial;stroke-width:0.250598"
         x="164.02719"
         y="232.79102">ESP</tspan></text><text
       xml:space="preserve"
       style="font-style:normal;font-variant:normal;font-weight:normal;font-stretch:normal;font-size:7.07136px;line-height:1.2;font-family:Arial;-inkscape-font-specification:Arial;fill:#1a1a1a;stroke-width:0.188"
       x="146.68877"
       y="199.37088"
       id="text3"
       transform="matrix(1.0160354,-0.45486617,-0.15715742,1.0545751,0,0)"><tspan
         sodipodi:role="line"
         id="tspan3"
         style="font-style:normal;font-variant:normal;font-weight:normal;font-stretch:normal;font-family:'Segoe Script';-inkscape-font-specification:'Segoe Script';stroke-width:0.188"
         x="146.68877"
         y="199.37088">by Artem.H</tspan></text><path
       style="fill:#000000;stroke-width:0.578292"
       d="m 98.127901,166.16707 c 0,-0.0385 -0.0631,-0.0701 -0.14011,-0.0701 -0.18532,0 -0.22405,-5.46037 -0.04,-5.64439 0.18402,-0.18403 5.644389,-0.1453 5.644389,0.04 0,0.077 0.0315,0.14011 0.07,0.14011 0.0454,0 0.07,0.9107 0.07,2.59201 0,1.68131 -0.0246,2.59202 -0.07,2.59202 -0.0385,0 -0.07,0.0496 -0.07,0.11008 0,0.30314 -0.0649,0.31025 -2.8322,0.31025 -1.707989,0 -2.632049,-0.0246 -2.632049,-0.0701 z m 4.943849,-0.59046 c 0.0826,-0.0826 0.10008,-0.49771 0.10008,-2.38185 0,-2.28178 0,-2.28178 -2.38186,-2.28178 -2.381849,0 -2.381849,0 -2.381849,2.38186 0,2.38185 0,2.38185 2.281769,2.38185 1.88414,0 2.29922,-0.0175 2.38186,-0.10008 z m 13.91832,0.41562 c -0.0482,-0.0547 -0.0876,-0.1796 -0.0876,-0.27756 0,-0.0979 -0.0315,-0.17809 -0.0701,-0.17809 -0.0385,0 -0.07,-0.1261 -0.07,-0.28021 0,-0.15412 -0.0315,-0.28023 -0.07,-0.28023 -0.0385,0 -0.0701,-0.12609 -0.0701,-0.28021 0,-0.15412 -0.0315,-0.28022 -0.07,-0.28022 -0.0385,0 -0.07,-0.1261 -0.07,-0.28022 0,-0.15412 -0.0315,-0.28021 -0.0701,-0.28021 -0.0385,0 -0.07,-0.12611 -0.07,-0.28022 0,-0.15412 -0.0315,-0.28022 -0.07,-0.28022 -0.0385,0 -0.0701,-0.1261 -0.0701,-0.28022 0,-0.15412 -0.0315,-0.28022 -0.07,-0.28022 -0.0385,0 -0.07,-0.0946 -0.07,-0.21016 0,-0.11559 -0.0315,-0.21016 -0.0701,-0.21016 -0.0385,0 -0.07,-0.1261 -0.07,-0.28022 0,-0.15412 -0.0315,-0.28022 -0.07,-0.28022 -0.0385,0 -0.0701,-0.1261 -0.0701,-0.28022 0,-0.15412 -0.0315,-0.28022 -0.07,-0.28022 -0.10749,0 -0.0831,-0.48731 0.03,-0.60046 0.20788,-0.20789 0.46036,-0.0333 0.46036,0.31842 0,0.26269 0.27,0.56226 0.50676,0.56226 0.0896,0 0.2083,0.0631 0.26384,0.14011 0.0555,0.0771 0.15708,0.14011 0.22563,0.14011 0.0686,0 0.12464,0.0315 0.12464,0.0701 0,0.0389 0.18681,0.07 0.42033,0.07 0.37362,0 0.42033,0.0156 0.42033,0.14011 0,0.0771 -0.0315,0.14011 -0.07,0.14011 -0.0385,0 -0.0701,0.063 -0.0701,0.14011 0,0.12454 -0.0467,0.1401 -0.42033,0.1401 -0.23351,0 -0.42033,-0.0311 -0.42033,-0.0701 0,-0.0385 -0.0561,-0.0701 -0.12464,-0.0701 -0.0686,0 -0.17009,-0.0631 -0.22563,-0.14011 -0.1043,-0.14471 -0.35027,-0.19391 -0.35027,-0.0701 0,0.0385 0.0315,0.0701 0.07,0.0701 0.0385,0 0.0701,0.12609 0.0701,0.28021 0,0.15412 0.0315,0.28022 0.07,0.28022 0.0385,0 0.07,0.1261 0.07,0.28022 0,0.15412 0.0315,0.28022 0.0701,0.28022 0.0385,0 0.07,0.1261 0.07,0.28022 0,0.15411 0.0315,0.28022 0.07,0.28022 0.0385,0 0.0701,0.12609 0.0701,0.28021 0,0.15412 0.0315,0.28022 0.07,0.28022 0.0385,0 0.0701,0.1261 0.0701,0.28022 0,0.15412 0.0315,0.28021 0.07,0.28021 0.0385,0 0.0701,0.0811 0.0701,0.18015 0,0.37781 0.0157,0.38029 2.41188,0.38029 2.21171,0 2.21171,0 2.21171,-0.21016 0,-0.11559 0.0315,-0.21017 0.0701,-0.21017 0.0385,0 0.0701,-0.12609 0.0701,-0.28021 0,-0.15413 0.0315,-0.28022 0.07,-0.28022 0.0385,0 0.0701,-0.1261 0.0701,-0.28022 0,-0.15412 0.0315,-0.28022 0.0701,-0.28022 0.0385,0 0.07,-0.12609 0.07,-0.28021 0,-0.15412 0.0315,-0.28022 0.07,-0.28022 0.0385,0 0.0701,-0.1261 0.0701,-0.28022 0,-0.15412 0.0315,-0.28022 0.07,-0.28022 0.0385,0 0.0701,-0.0946 0.0701,-0.21016 0,-0.11559 0.0315,-0.21017 0.07,-0.21017 0.0385,0 0.07,-0.12609 0.07,-0.28021 0,-0.26465 -0.0117,-0.28022 -0.21016,-0.28022 -0.11559,0 -0.21016,0.0315 -0.21016,0.0701 0,0.0385 -0.0561,0.0701 -0.12465,0.0701 -0.0686,0 -0.17008,0.063 -0.22562,0.14011 -0.10405,0.14435 -0.49039,0.19954 -0.49039,0.0701 0,-0.0385 0.0315,-0.0701 0.0701,-0.0701 0.0385,0 0.07,-0.0631 0.07,-0.14011 0,-0.0771 0.0315,-0.14011 0.0701,-0.14011 0.0385,0 0.0701,-0.0496 0.0701,-0.11009 0,-0.16537 0.17759,-0.31024 0.3803,-0.31024 0.0991,0 0.18014,-0.0315 0.18014,-0.0701 0,-0.0385 0.15762,-0.0701 0.35027,-0.0701 0.35028,0 0.35028,0 0.35028,-0.24837 0,-0.33355 0.29649,-0.65607 0.45626,-0.4963 0.11732,0.11732 0.14606,0.74467 0.0341,0.74467 -0.0385,0 -0.07,0.0946 -0.07,0.21016 0,0.1156 -0.0315,0.21017 -0.0701,0.21017 -0.0385,0 -0.07,0.15762 -0.07,0.35027 0,0.19265 -0.0315,0.35027 -0.07,0.35027 -0.0385,0 -0.0701,0.0946 -0.0701,0.21017 0,0.11559 -0.0315,0.21016 -0.0701,0.21016 -0.0385,0 -0.07,0.1261 -0.07,0.28022 0,0.15412 -0.0315,0.28022 -0.07,0.28022 -0.0385,0 -0.0701,0.1261 -0.0701,0.28022 0,0.15412 -0.0315,0.28021 -0.07,0.28021 -0.0385,0 -0.07,0.1261 -0.07,0.28022 0,0.15412 -0.0315,0.28022 -0.0701,0.28022 -0.0385,0 -0.07,0.12609 -0.07,0.28022 0,0.15412 -0.0315,0.28021 -0.0701,0.28021 -0.0385,0 -0.07,0.12611 -0.07,0.28023 0,0.15411 -0.0315,0.28021 -0.07,0.28021 -0.0385,0 -0.0701,0.0496 -0.0701,0.11009 0,0.30255 -0.0698,0.31038 -2.74463,0.30757 -2.10759,-0.002 -2.55952,-0.0197 -2.63205,-0.10212 z m -9.94773,-0.14011 c -0.0482,-0.0547 -0.0876,-0.1796 -0.0876,-0.27755 0,-0.0979 -0.0315,-0.17809 -0.07,-0.17809 -0.0385,0 -0.0701,-0.12611 -0.0701,-0.28023 0,-0.15411 -0.0315,-0.28021 -0.0701,-0.28021 -0.0385,0 -0.07,-0.1261 -0.07,-0.28022 0,-0.15412 -0.0315,-0.28022 -0.07,-0.28022 -0.0385,0 -0.0701,-0.0946 -0.0701,-0.21016 0,-0.11559 -0.0315,-0.21016 -0.07,-0.21016 -0.0385,0 -0.07,-0.12611 -0.07,-0.28022 0,-0.15412 -0.0315,-0.28022 -0.0701,-0.28022 -0.0385,0 -0.07,-0.1261 -0.07,-0.28022 0,-0.15412 -0.0315,-0.28022 -0.07,-0.28022 -0.0385,0 -0.0701,-0.1261 -0.0701,-0.28022 0,-0.15412 -0.0315,-0.28021 -0.07,-0.28021 -0.0385,0 -0.07,-0.1261 -0.07,-0.28022 0,-0.15412 -0.0315,-0.28022 -0.0701,-0.28022 -0.0385,0 -0.07,-0.1261 -0.07,-0.28022 0,-0.15412 -0.0315,-0.28022 -0.07,-0.28022 -0.0385,0 -0.0701,-0.12609 -0.0701,-0.28021 0,-0.25427 0.0167,-0.28022 0.18014,-0.28022 0.22981,0 0.38029,0.15048 0.38029,0.38029 0,0.0991 0.0315,0.18014 0.07,0.18014 0.0385,0 0.0701,0.0631 0.0701,0.14011 0,0.10897 0.0467,0.14011 0.21017,0.14011 0.11559,0 0.21016,0.0315 0.21016,0.0701 0,0.0385 0.0561,0.0701 0.12464,0.0701 0.0686,0 0.17009,0.0631 0.22563,0.14011 0.14973,0.20774 1.11126,0.20774 1.26098,0 0.0555,-0.0771 0.15708,-0.14011 0.22563,-0.14011 0.0686,0 0.12464,-0.0315 0.12464,-0.0701 0,-0.0385 0.0946,-0.0701 0.21017,-0.0701 0.11559,0 0.21016,-0.0315 0.21016,-0.07 0,-0.0385 0.1261,-0.0701 0.28022,-0.0701 0.15412,0 0.28022,0.0315 0.28022,0.0701 0,0.0385 0.0946,0.07 0.21016,0.07 0.11559,0 0.21016,0.0315 0.21016,0.0701 0,0.0385 0.0561,0.0701 0.12465,0.0701 0.0686,0 0.17009,0.0631 0.22563,0.14011 0.14972,0.20774 1.11125,0.20774 1.26098,0 0.0555,-0.0771 0.15707,-0.14011 0.22563,-0.14011 0.0686,0 0.12464,-0.0315 0.12464,-0.0701 0,-0.0385 0.0946,-0.0701 0.21016,-0.0701 0.11559,0 0.21017,-0.0315 0.21017,-0.07 0,-0.0385 0.1261,-0.0701 0.28021,-0.0701 0.27462,0 0.28022,-0.005 0.28022,-0.25019 0,-0.29524 0.13098,-0.45035 0.3803,-0.45035 0.16946,0 0.18014,0.0208 0.18014,0.35027 0,0.19265 -0.0315,0.35027 -0.07,0.35027 -0.0385,0 -0.07,0.1261 -0.07,0.28022 0,0.15412 -0.0315,0.28022 -0.0701,0.28022 -0.0385,0 -0.0701,0.1261 -0.0701,0.28022 0,0.15412 -0.0315,0.28022 -0.07,0.28022 -0.0385,0 -0.0701,0.12609 -0.0701,0.28021 0,0.15412 -0.0315,0.28022 -0.07,0.28022 -0.0385,0 -0.07,0.0946 -0.07,0.21016 0,0.11559 -0.0315,0.21017 -0.0701,0.21017 -0.0385,0 -0.07,0.1261 -0.07,0.28022 0,0.15411 -0.0315,0.28022 -0.07,0.28022 -0.0385,0 -0.0701,0.12609 -0.0701,0.28021 0,0.15412 -0.0315,0.28022 -0.07,0.28022 -0.0385,0 -0.0701,0.1261 -0.0701,0.28022 0,0.15412 -0.0315,0.28021 -0.07,0.28021 -0.0385,0 -0.0701,0.12611 -0.0701,0.28023 0,0.15411 -0.0315,0.28021 -0.0701,0.28021 -0.0385,0 -0.07,0.0496 -0.07,0.11009 0,0.30255 -0.0698,0.31037 -2.74463,0.30757 -2.10759,-0.002 -2.55952,-0.0197 -2.63205,-0.10212 z m 4.95635,-0.66581 c 0,-0.11559 0.0315,-0.21017 0.0701,-0.21017 0.0385,0 0.07,-0.12609 0.07,-0.28021 0,-0.15412 0.0315,-0.28022 0.0701,-0.28022 0.0385,0 0.07,-0.1261 0.07,-0.28022 0,-0.15412 0.0315,-0.28021 0.0701,-0.28021 0.0385,0 0.07,-0.12611 0.07,-0.28022 0,-0.15412 0.0315,-0.28022 0.0701,-0.28022 0.0385,0 0.07,-0.1261 0.07,-0.28022 0,-0.15412 0.0315,-0.28022 0.0701,-0.28022 0.0385,0 0.07,-0.0946 0.07,-0.21016 0,-0.11559 0.0315,-0.21016 0.0701,-0.21016 0.0385,0 0.07,-0.1261 0.07,-0.28022 0,-0.23352 -0.0233,-0.28022 -0.14011,-0.28022 -0.0771,0 -0.14011,0.0315 -0.14011,0.0701 0,0.0385 -0.0631,0.07 -0.14011,0.07 -0.0771,0 -0.1401,0.0315 -0.1401,0.0701 0,0.0385 -0.0631,0.0701 -0.14011,0.0701 -0.0771,0 -0.14011,0.0315 -0.14011,0.07 0,0.0385 -0.0631,0.0701 -0.14011,0.0701 -0.0771,0 -0.14011,0.0315 -0.14011,0.0701 0,0.0409 -0.23352,0.0701 -0.56044,0.0701 -0.32692,0 -0.56043,-0.0292 -0.56043,-0.0701 0,-0.0385 -0.0631,-0.0701 -0.14011,-0.0701 -0.0771,0 -0.14011,-0.0315 -0.14011,-0.0701 0,-0.0385 -0.0631,-0.07 -0.14011,-0.07 -0.0771,0 -0.14011,-0.0315 -0.14011,-0.0701 0,-0.0385 -0.0631,-0.0701 -0.14011,-0.0701 -0.0771,0 -0.14011,-0.0315 -0.14011,-0.07 0,-0.0385 -0.12609,-0.0701 -0.28021,-0.0701 -0.15412,0 -0.28022,0.0315 -0.28022,0.0701 0,0.0385 -0.0561,0.07 -0.12465,0.07 -0.0686,0 -0.17008,0.0631 -0.22562,0.14011 -0.0555,0.0771 -0.15708,0.14011 -0.22563,0.14011 -0.0686,0 -0.12465,0.0315 -0.12465,0.0701 0,0.0415 -0.25686,0.0701 -0.63049,0.0701 -0.37362,0 -0.63049,-0.0286 -0.63049,-0.0701 0,-0.0385 -0.0561,-0.0701 -0.12464,-0.0701 -0.0686,0 -0.17009,-0.0631 -0.22563,-0.14011 -0.0555,-0.0771 -0.15708,-0.14011 -0.22563,-0.14011 -0.0779,0 -0.12464,0.0525 -0.12464,0.14011 0,0.0771 0.0315,0.14011 0.0701,0.14011 0.0385,0 0.07,0.12609 0.07,0.28021 0,0.15412 0.0315,0.28022 0.07,0.28022 0.0385,0 0.0701,0.1261 0.0701,0.28022 0,0.15412 0.0315,0.28022 0.07,0.28022 0.0385,0 0.07,0.1261 0.07,0.28022 0,0.15411 0.0315,0.28022 0.0701,0.28022 0.0385,0 0.0701,0.0946 0.0701,0.21016 0,0.11559 0.0315,0.21016 0.07,0.21016 0.0385,0 0.0701,0.15763 0.0701,0.35027 0,0.19265 0.0315,0.35027 0.0701,0.35027 0.0385,0 0.07,0.0946 0.07,0.21017 0,0.21017 0,0.21017 2.3118,0.21017 2.31179,0 2.31179,0 2.31179,-0.21017 z m -3.50272,-0.28022 c 0,-0.0385 -0.0631,-0.0701 -0.14011,-0.0701 -0.0934,0 -0.14011,-0.0467 -0.14011,-0.14011 0,-0.0771 -0.0315,-0.14011 -0.07,-0.14011 -0.0385,0 -0.0701,-0.063 -0.0701,-0.14011 0,-0.10897 0.0467,-0.14011 0.21016,-0.14011 0.16346,0 0.21017,0.0311 0.21017,0.14011 0,0.11676 0.0467,0.14011 0.28021,0.14011 0.26465,0 0.28022,-0.0117 0.28022,-0.21016 0,-0.14436 -0.0345,-0.21017 -0.11008,-0.21017 -0.20523,0 -0.33715,-0.19327 -0.21517,-0.31524 0.0578,-0.0578 0.15462,-0.10508 0.21517,-0.10508 0.14013,0 0.14234,-0.18792 0.004,-0.32642 -0.0949,-0.095 -0.12772,-0.0833 -0.30833,0.11008 -0.2871,0.30735 -0.42609,0.28651 -0.42609,-0.0639 0,-0.23352 0.0233,-0.28022 0.14011,-0.28022 0.0771,0 0.14011,-0.0315 0.14011,-0.0701 0,-0.15546 0.63094,-0.076 0.80881,0.1019 0.16935,0.16935 0.2386,0.5286 0.1019,0.5286 -0.0385,0 -0.0701,0.063 -0.0701,0.14011 0,0.0771 0.0315,0.1401 0.0701,0.1401 0.15547,0 0.076,0.63094 -0.1019,0.80881 -0.17787,0.17788 -0.80881,0.25737 -0.80881,0.1019 z m 1.4186,-0.10686 c -0.102,-0.10894 -0.15762,-0.25576 -0.15762,-0.41604 0,-0.13624 -0.0315,-0.2477 -0.0701,-0.2477 -0.0385,0 -0.07,-0.0946 -0.07,-0.21016 0,-0.11559 0.0315,-0.21016 0.07,-0.21016 0.0385,0 0.0701,-0.0803 0.0701,-0.17833 0,-0.281 0.29122,-0.52222 0.63049,-0.52222 0.3039,0 0.63049,0.23422 0.63049,0.45217 0,0.0596 0.0315,0.10827 0.0701,0.10827 0.0389,0 0.07,0.18681 0.07,0.42032 0,0.23352 -0.0311,0.42033 -0.07,0.42033 -0.0385,0 -0.0701,0.0487 -0.0701,0.10827 0,0.41139 -0.7911,0.60875 -1.10336,0.27525 z m 0.68303,-0.45357 c 0,-0.11559 0.0315,-0.21017 0.07,-0.21017 0.0385,0 0.0701,-0.0946 0.0701,-0.21016 0,-0.11559 -0.0315,-0.21016 -0.0701,-0.21016 -0.0385,0 -0.07,-0.0631 -0.07,-0.14011 0,-0.10897 -0.0467,-0.14011 -0.21016,-0.14011 -0.18548,0 -0.21017,0.024 -0.21017,0.20432 0,0.11238 -0.0394,0.22272 -0.0876,0.24519 -0.07,0.0327 -0.07,0.049 0,0.0817 0.0482,0.0225 0.0876,0.16424 0.0876,0.31525 0,0.25816 0.0124,0.27438 0.21017,0.27438 0.18681,0 0.21016,-0.0234 0.21016,-0.21016 z m 0.5079,-1.0155 c -0.11834,-0.13441 -0.11091,-0.51237 0.0125,-0.63579 0.23495,-0.23496 0.74057,-0.0654 0.74057,0.24838 0,0.34491 -0.54407,0.6248 -0.75308,0.38741 z m 16.02496,2.44843 c 0,-0.1966 0.28194,-0.52222 0.45217,-0.52222 0.0596,0 0.10826,-0.0315 0.10826,-0.0701 0,-0.0385 0.0561,-0.0701 0.12465,-0.0701 0.0686,0 0.17009,-0.063 0.22562,-0.14011 0.0556,-0.077 0.15708,-0.1401 0.22564,-0.1401 0.0685,0 0.12464,-0.0315 0.12464,-0.0701 0,-0.0385 0.0561,-0.07 0.12464,-0.07 0.0686,0 0.17009,-0.0631 0.22563,-0.14011 0.0555,-0.0771 0.15707,-0.14011 0.22563,-0.14011 0.0686,0 0.12465,-0.0315 0.12465,-0.0701 0,-0.0385 0.0561,-0.0701 0.12463,-0.0701 0.0686,0 0.17009,-0.0631 0.22564,-0.14011 0.0555,-0.0771 0.15707,-0.14011 0.22562,-0.14011 0.0686,0 0.12465,-0.0315 0.12465,-0.07 0,-0.0385 0.0496,-0.0701 0.11008,-0.0701 0.14158,0 0.31024,-0.16866 0.31024,-0.31025 0,-0.0634 -0.0594,-0.11008 -0.1401,-0.11008 -0.0771,0 -0.14011,-0.0315 -0.14011,-0.0701 0,-0.0385 -0.063,-0.0701 -0.14011,-0.0701 -0.0771,0 -0.14011,-0.0315 -0.14011,-0.0701 0,-0.0385 -0.0561,-0.07 -0.12465,-0.07 -0.0686,0 -0.17008,-0.0631 -0.22562,-0.14011 -0.0556,-0.0771 -0.15708,-0.14011 -0.22563,-0.14011 -0.0686,0 -0.12464,-0.0315 -0.12464,-0.07 0,-0.0385 -0.0561,-0.0701 -0.12465,-0.0701 -0.0686,0 -0.17009,-0.0631 -0.22563,-0.14011 -0.0555,-0.0771 -0.15011,-0.14011 -0.21016,-0.14011 -0.06,0 -0.15462,-0.0631 -0.21017,-0.1401 -0.0555,-0.0771 -0.15707,-0.14011 -0.22562,-0.14011 -0.0686,0 -0.12465,-0.0315 -0.12465,-0.0701 0,-0.0385 -0.0631,-0.07 -0.14011,-0.07 -0.0771,0 -0.14011,-0.0315 -0.14011,-0.0701 0,-0.0385 -0.0496,-0.0701 -0.11008,-0.0701 -0.16537,0 -0.31024,-0.17759 -0.31024,-0.3803 0,-0.16346 0.026,-0.18014 0.28022,-0.18014 0.15412,0 0.28021,0.0315 0.28021,0.0701 0,0.0385 0.0561,0.0701 0.12465,0.0701 0.0686,0 0.17009,0.0631 0.22562,0.14011 0.0556,0.0771 0.15708,0.14011 0.22564,0.14011 0.0685,0 0.12464,0.0315 0.12464,0.0701 0,0.0385 0.0561,0.07 0.12464,0.07 0.0686,0 0.17009,0.0631 0.22563,0.14011 0.0555,0.0771 0.15707,0.14011 0.22563,0.14011 0.0686,0 0.12465,0.0315 0.12465,0.0701 0,0.0385 0.0561,0.0701 0.12463,0.0701 0.0686,0 0.17009,0.0631 0.22564,0.1401 0.0555,0.0771 0.15707,0.14011 0.22562,0.14011 0.0686,0 0.12465,0.0315 0.12465,0.0701 0,0.0385 0.0561,0.0701 0.12464,0.0701 0.0686,0 0.17009,0.0631 0.22563,0.14011 0.0555,0.0771 0.15707,0.14011 0.22563,0.14011 0.0685,0 0.12464,0.0315 0.12464,0.07 0,0.0385 0.0604,0.0701 0.13427,0.0701 0.0738,0 0.15266,0.0394 0.17514,0.0876 0.0327,0.07 0.049,0.07 0.0817,0 0.0225,-0.0482 0.10129,-0.0876 0.17514,-0.0876 0.0739,0 0.13427,-0.0315 0.13427,-0.0701 0,-0.0385 0.0561,-0.07 0.12464,-0.07 0.0686,0 0.17009,-0.0631 0.22563,-0.14011 0.0555,-0.0771 0.15708,-0.14011 0.22563,-0.14011 0.0686,0 0.12464,-0.0315 0.12464,-0.0701 0,-0.0385 0.0561,-0.0701 0.12465,-0.0701 0.0686,0 0.17008,-0.0631 0.22562,-0.14011 0.0556,-0.0771 0.15708,-0.1401 0.22564,-0.1401 0.0686,0 0.12464,-0.0315 0.12464,-0.0701 0,-0.0385 0.0561,-0.0701 0.12464,-0.0701 0.0686,0 0.17009,-0.0631 0.22563,-0.14011 0.0555,-0.0771 0.15707,-0.14011 0.22563,-0.14011 0.0686,0 0.12464,-0.0315 0.12464,-0.07 0,-0.0385 0.0561,-0.0701 0.12465,-0.0701 0.0686,0 0.17009,-0.0631 0.22563,-0.14011 0.0555,-0.0771 0.15707,-0.14011 0.22562,-0.14011 0.0686,0 0.12465,-0.0315 0.12465,-0.0701 0,-0.0385 0.0604,-0.0701 0.13427,-0.0701 0.0738,0 0.14731,-0.0391 0.16325,-0.0869 0.0442,-0.13253 0.26292,0.11465 0.26292,0.2971 0,0.17635 -0.15405,0.35028 -0.31025,0.35028 -0.0605,0 -0.11008,0.0315 -0.11008,0.0701 0,0.0385 -0.0561,0.0701 -0.12464,0.0701 -0.0686,0 -0.17009,0.063 -0.22564,0.14011 -0.0555,0.077 -0.15707,0.14011 -0.22562,0.14011 -0.0686,0 -0.12465,0.0315 -0.12465,0.0701 0,0.0385 -0.0561,0.0701 -0.12464,0.0701 -0.0686,0 -0.17009,0.0631 -0.22563,0.14011 -0.0555,0.0771 -0.15707,0.14011 -0.22563,0.14011 -0.0686,0 -0.12464,0.0315 -0.12464,0.0701 0,0.0385 -0.0561,0.07 -0.12465,0.07 -0.0686,0 -0.17008,0.0631 -0.22563,0.14011 -0.0555,0.0771 -0.15707,0.14011 -0.22562,0.14011 -0.0686,0 -0.12465,0.0315 -0.12465,0.07 0,0.0385 -0.063,0.0701 -0.14011,0.0701 -0.0771,0 -0.14011,0.0315 -0.14011,0.0701 0,0.0385 -0.063,0.0701 -0.1401,0.0701 -0.0807,0 -0.14011,0.0467 -0.14011,0.11008 0,0.14159 0.16866,0.31025 0.31024,0.31025 0.0605,0 0.11008,0.0315 0.11008,0.0701 0,0.0385 0.0631,0.07 0.14011,0.07 0.0771,0 0.14011,0.0315 0.14011,0.0701 0,0.0385 0.0561,0.0701 0.12464,0.0701 0.0686,0 0.17009,0.0631 0.22563,0.14011 0.0555,0.0771 0.15012,0.14011 0.21017,0.14011 0.06,0 0.15462,0.0631 0.21016,0.14011 0.0555,0.0771 0.15707,0.14011 0.22563,0.14011 0.0686,0 0.12464,0.0315 0.12464,0.07 0,0.0385 0.0561,0.0701 0.12465,0.0701 0.0686,0 0.17009,0.0631 0.22563,0.1401 0.0555,0.0771 0.15707,0.14011 0.22562,0.14011 0.0686,0 0.12465,0.0315 0.12465,0.0701 0,0.0385 0.0487,0.0701 0.10826,0.0701 0.17024,0 0.45218,0.32562 0.45218,0.52222 0,0.15143 -0.0317,0.17832 -0.21017,0.17832 -0.11559,0 -0.21016,-0.0315 -0.21016,-0.0701 0,-0.0385 -0.0631,-0.0701 -0.14011,-0.0701 -0.0771,0 -0.14011,-0.0315 -0.14011,-0.0701 0,-0.0385 -0.0561,-0.0701 -0.12465,-0.0701 -0.0686,0 -0.17008,-0.0631 -0.22562,-0.14011 -0.0555,-0.0771 -0.15012,-0.1401 -0.21017,-0.1401 -0.0601,0 -0.15462,-0.0631 -0.21016,-0.14011 -0.0555,-0.0771 -0.15707,-0.14012 -0.22563,-0.14012 -0.0686,0 -0.12464,-0.0315 -0.12464,-0.0701 0,-0.0385 -0.0561,-0.0701 -0.12465,-0.0701 -0.0686,0 -0.17008,-0.063 -0.22563,-0.1401 -0.0555,-0.0771 -0.15707,-0.14011 -0.22562,-0.14011 -0.0686,0 -0.12465,-0.0315 -0.12465,-0.0701 0,-0.0385 -0.0561,-0.0701 -0.12464,-0.0701 -0.0686,0 -0.17009,-0.063 -0.22563,-0.14011 -0.0555,-0.0771 -0.15708,-0.14011 -0.22563,-0.14011 -0.0686,0 -0.12464,-0.0315 -0.12464,-0.0701 0,-0.0385 -0.0631,-0.0701 -0.14011,-0.0701 -0.0771,0 -0.14011,-0.0315 -0.14011,-0.0701 0,-0.0385 -0.0946,-0.0701 -0.21016,-0.0701 -0.1156,0 -0.21017,0.0315 -0.21017,0.0701 0,0.0385 -0.0561,0.0701 -0.12464,0.0701 -0.0686,0 -0.17009,0.0631 -0.22563,0.14011 -0.0555,0.0771 -0.15707,0.14011 -0.22563,0.14011 -0.0686,0 -0.12464,0.0315 -0.12464,0.0701 0,0.0385 -0.063,0.0701 -0.14011,0.0701 -0.0771,0 -0.14011,0.0315 -0.14011,0.0701 0,0.0385 -0.0561,0.0701 -0.12465,0.0701 -0.0686,0 -0.17008,0.0631 -0.22562,0.14011 -0.0556,0.0771 -0.15708,0.1401 -0.22563,0.1401 -0.0686,0 -0.12464,0.0315 -0.12464,0.0701 0,0.0385 -0.0561,0.0701 -0.12465,0.0701 -0.0686,0 -0.17009,0.063 -0.22563,0.14012 -0.0555,0.077 -0.15707,0.14011 -0.22563,0.14011 -0.0686,0 -0.12464,0.0315 -0.12464,0.0701 0,0.0385 -0.0561,0.07 -0.12465,0.07 -0.0686,0 -0.17008,0.0631 -0.22562,0.14011 -0.0555,0.0771 -0.15708,0.14011 -0.22563,0.14011 -0.0686,0 -0.12465,0.0315 -0.12465,0.0701 0,0.0385 -0.0946,0.0701 -0.21016,0.0701 -0.17847,0 -0.21016,-0.0269 -0.21016,-0.17832 z m 20.96381,-0.20669 c -0.0482,-0.0547 -0.0876,-0.13272 -0.0876,-0.17337 0,-0.0952 1.30605,-1.40315 1.4011,-1.40315 0.0395,0 0.37133,-0.29948 0.73736,-0.66552 0.66553,-0.66551 0.66553,-0.66551 0,-1.33103 -0.36603,-0.36603 -0.69784,-0.66552 -0.73736,-0.66552 -0.0963,0 -1.4011,-1.3086 -1.4011,-1.40519 0,-0.0998 0.17865,-0.27612 0.27977,-0.27612 0.0438,0 0.23313,0.15763 0.42078,0.35028 0.18765,0.19264 0.37596,0.35027 0.41847,0.35027 0.0425,0 0.3586,0.28372 0.7024,0.63049 0.34381,0.34677 0.6599,0.63049 0.70241,0.63049 0.0425,0 0.23244,0.15928 0.42205,0.35396 0.34477,0.35395 0.34477,0.35395 0.97353,-0.28023 0.34582,-0.34879 0.6627,-0.63417 0.70419,-0.63417 0.0415,0 0.35674,-0.28372 0.70055,-0.63049 0.34381,-0.34677 0.67098,-0.63048 0.72704,-0.63048 0.056,0 0.11498,-0.0391 0.13092,-0.087 0.0437,-0.13111 0.26291,0.1137 0.26291,0.29363 0,0.14979 -0.70388,0.91418 -0.84182,0.91418 -0.0408,0 -0.35557,0.28373 -0.69938,0.63049 -0.34381,0.34678 -0.65927,0.6305 -0.70104,0.6305 -0.13185,0 -0.41983,0.33762 -0.41983,0.4922 0,0.15897 0.15087,0.34845 0.27744,0.34845 0.0425,0 0.42206,0.34677 0.84343,0.7706 0.42137,0.42383 0.79949,0.7706 0.84027,0.7706 0.13537,0 0.70093,0.62432 0.70093,0.77376 0,0.18015 -0.21916,0.42519 -0.26291,0.29394 -0.016,-0.0478 -0.0747,-0.0869 -0.13067,-0.0869 -0.0559,0 -0.41473,-0.31525 -0.79735,-0.70054 -0.38261,-0.3853 -0.72963,-0.70055 -0.77115,-0.70055 -0.0415,0 -0.32671,-0.25393 -0.63374,-0.56428 -0.55824,-0.56428 -0.55824,-0.56428 -0.90316,-0.21016 -0.18971,0.19476 -0.3797,0.35412 -0.42221,0.35412 -0.0425,0 -0.3586,0.28372 -0.70241,0.63049 -0.3438,0.34677 -0.65989,0.63048 -0.7024,0.63048 -0.0425,0 -0.23082,0.15763 -0.41847,0.35028 -0.35679,0.3663 -0.46755,0.41066 -0.61297,0.24548 z m -19.14239,-0.21546 c 0,-0.0822 0.20407,-0.24019 0.31024,-0.24019 0.0605,0 0.11008,-0.0315 0.11008,-0.0701 0,-0.0385 0.0631,-0.0701 0.14011,-0.0701 0.0771,0 0.14011,-0.0315 0.14011,-0.07 0,-0.044 0.44368,-0.0701 1.19093,-0.0701 0.74724,0 1.19092,0.0261 1.19092,0.0701 0,0.0385 0.0631,0.07 0.14011,0.07 0.0771,0 0.14011,0.0315 0.14011,0.0701 0,0.0385 0.0496,0.0701 0.11009,0.0701 0.10617,0 0.31024,0.158 0.31024,0.24019 0,0.022 -0.85117,0.04 -1.89147,0.04 -1.04031,0 -1.89147,-0.018 -1.89147,-0.04 z m 8.26643,-0.24019 c 0,-0.15411 0.0315,-0.28021 0.07,-0.28021 0.0385,0 0.07,-0.0631 0.07,-0.14011 0,-0.0771 0.0315,-0.14011 0.0701,-0.14011 0.0385,0 0.07,-0.063 0.07,-0.14011 0,-0.0771 0.0315,-0.14011 0.07,-0.14011 0.0385,0 0.0701,-0.0478 0.0701,-0.10621 0,-0.13841 1.01636,-1.15477 1.15476,-1.15477 0.0584,0 0.10622,-0.0315 0.10622,-0.0701 0,-0.0385 0.063,-0.0701 0.14011,-0.0701 0.0771,0 0.14011,-0.0315 0.14011,-0.07 0,-0.0385 0.12609,-0.0701 0.28021,-0.0701 0.15412,0 0.28022,-0.0315 0.28022,-0.0701 0,-0.0448 0.63049,-0.0701 1.75136,-0.0701 1.75137,0 1.75137,0 1.75137,-0.28021 0,-0.15413 -0.0315,-0.28022 -0.07,-0.28022 -0.0385,0 -0.0701,-0.1261 -0.0701,-0.28022 0,-0.15412 -0.0315,-0.28022 -0.0701,-0.28022 -0.0385,0 -0.07,-0.0811 -0.07,-0.18014 0,-0.36741 -0.0628,-0.3803 -1.85145,-0.3803 -1.65128,0 -1.65128,0 -1.65128,-0.18013 0,-0.3699 0.0537,-0.3803 1.96153,-0.3803 1.90789,0 1.96152,0.0104 1.96152,0.3803 0,0.0991 0.0315,0.18013 0.07,0.18013 0.0385,0 0.0701,0.1261 0.0701,0.28022 0,0.15412 0.0315,0.28022 0.0701,0.28022 0.0385,0 0.07,0.1261 0.07,0.28022 0,0.15412 0.0315,0.28022 0.0701,0.28022 0.0385,0 0.0701,0.12609 0.0701,0.28022 0,0.15412 0.0315,0.28021 0.07,0.28021 0.0385,0 0.0701,0.1261 0.0701,0.28022 0,0.15412 0.0315,0.28022 0.0701,0.28022 0.0385,0 0.07,0.1261 0.07,0.28022 0,0.15411 0.0315,0.28022 0.0701,0.28022 0.0385,0 0.0701,0.12609 0.0701,0.28021 0,0.15412 0.0315,0.28022 0.0701,0.28022 0.0385,0 0.0701,0.0946 0.0701,0.21016 0,0.11559 0.0315,0.21017 0.07,0.21017 0.0385,0 0.0701,0.15762 0.0701,0.35027 0,0.35028 0,0.35028 -3.64283,0.35028 -3.64284,0 -3.64284,0 -3.64284,-0.28023 z m 6.58512,-0.63049 c 0,-0.19265 -0.0315,-0.35027 -0.07,-0.35027 -0.0385,0 -0.0701,-0.0946 -0.0701,-0.21016 0,-0.11559 -0.0315,-0.21016 -0.0701,-0.21016 -0.0385,0 -0.07,-0.12611 -0.07,-0.28022 0,-0.28022 0,-0.28022 -1.89148,-0.28022 -1.21427,0 -1.89147,0.0251 -1.89147,0.07 0,0.0385 -0.0946,0.0701 -0.21016,0.0701 -0.11559,0 -0.21016,0.0315 -0.21016,0.0701 0,0.0385 -0.0561,0.0701 -0.12465,0.0701 -0.0686,0 -0.17009,0.0631 -0.22562,0.14011 -0.0556,0.0771 -0.14275,0.14011 -0.19379,0.14011 -0.12029,0 -0.43671,0.31642 -0.43671,0.4367 0,0.0511 -0.0631,0.13825 -0.14011,0.19379 -0.0771,0.0555 -0.14011,0.15707 -0.14011,0.22562 0,0.0686 -0.0315,0.12465 -0.0701,0.12465 -0.0385,0 -0.07,0.0315 -0.07,0.07 0,0.0456 1.02747,0.0701 2.94229,0.0701 2.94229,0 2.94229,0 2.94229,-0.35028 z m -4.25581,-0.17484 c -0.11834,-0.13441 -0.11091,-0.51237 0.0125,-0.63579 0.16126,-0.16126 0.60046,-0.13198 0.60046,0.04 0,0.0771 0.0315,0.14011 0.0701,0.14011 0.0385,0 0.07,0.063 0.07,0.14011 0,0.077 -0.0315,0.14011 -0.07,0.14011 -0.0385,0 -0.0701,0.0631 -0.0701,0.1401 0,0.17134 -0.4694,0.19839 -0.61297,0.0353 z m 1.26098,0 c -0.11835,-0.13441 -0.11091,-0.51237 0.0125,-0.63579 0.16126,-0.16126 0.60047,-0.13198 0.60047,0.04 0,0.0771 0.0315,0.14011 0.0701,0.14011 0.0385,0 0.0701,0.063 0.0701,0.14011 0,0.077 -0.0315,0.14011 -0.0701,0.14011 -0.0385,0 -0.0701,0.0631 -0.0701,0.1401 0,0.17134 -0.46941,0.19839 -0.61298,0.0353 z m 1.26098,0 c -0.11834,-0.13441 -0.11091,-0.51237 0.0125,-0.63579 0.16126,-0.16126 0.60047,-0.13198 0.60047,0.04 0,0.0771 0.0315,0.14011 0.0701,0.14011 0.0385,0 0.0701,0.063 0.0701,0.14011 0,0.077 -0.0315,0.14011 -0.0701,0.14011 -0.0385,0 -0.0701,0.0631 -0.0701,0.1401 0,0.17134 -0.46941,0.19839 -0.61298,0.0353 z m -14.23858,0.38501 c 0,-0.0771 0.0315,-0.14011 0.07,-0.14011 0.0385,0 0.07,-0.0561 0.07,-0.12465 0,-0.0685 0.0631,-0.17008 0.14011,-0.22562 0.0771,-0.0555 0.14011,-0.15708 0.14011,-0.22563 0,-0.0686 0.0315,-0.12464 0.0701,-0.12464 0.0385,0 0.07,-0.0561 0.07,-0.12465 0,-0.0686 0.0631,-0.17009 0.14011,-0.22563 0.0771,-0.0556 0.14011,-0.14356 0.14011,-0.1956 0,-0.11541 0.17051,-0.29478 0.28022,-0.29478 0.11586,0 0.28022,0.18196 0.28022,0.31024 0,0.0606 -0.0315,0.11009 -0.07,0.11009 -0.0385,0 -0.0701,0.0631 -0.0701,0.14011 0,0.0771 -0.0315,0.14011 -0.07,0.14011 -0.0385,0 -0.07,0.0561 -0.07,0.12464 0,0.0685 -0.0631,0.17008 -0.14011,0.22563 -0.0771,0.0555 -0.14012,0.15707 -0.14012,0.22562 0,0.0728 -0.0519,0.12465 -0.12464,0.12465 -0.0686,0 -0.17008,0.0631 -0.22563,0.14011 -0.0555,0.0771 -0.15707,0.14011 -0.22562,0.14011 -0.0686,0 -0.12465,0.0315 -0.12465,0.07 0,0.0385 -0.0315,0.0701 -0.07,0.0701 -0.0385,0 -0.0701,-0.0631 -0.0701,-0.14011 z m 5.88458,0.07 c 0,-0.0385 -0.0561,-0.07 -0.12465,-0.07 -0.0686,0 -0.17008,-0.0631 -0.22562,-0.14011 -0.0555,-0.0771 -0.15708,-0.14011 -0.22563,-0.14011 -0.0728,0 -0.12464,-0.0519 -0.12464,-0.12465 0,-0.0685 -0.0631,-0.17008 -0.14011,-0.22562 -0.0771,-0.0556 -0.14011,-0.15708 -0.14011,-0.22563 0,-0.0686 -0.0315,-0.12464 -0.0701,-0.12464 -0.0385,0 -0.07,-0.0631 -0.07,-0.14011 0,-0.0771 -0.0315,-0.14011 -0.0701,-0.14011 -0.10405,0 -0.0848,-0.20544 0.03,-0.32025 0.17569,-0.17569 0.60047,0.0734 0.60047,0.35209 0,0.0596 0.0315,0.10827 0.07,0.10827 0.0385,0 0.07,0.063 0.07,0.14011 0,0.077 0.0315,0.14011 0.0701,0.14011 0.0385,0 0.07,0.0561 0.07,0.12464 0,0.0685 0.0631,0.17009 0.14011,0.22563 0.0771,0.0555 0.14011,0.15707 0.14011,0.22562 0,0.0686 0.0315,0.12465 0.07,0.12465 0.0385,0 0.0701,0.0631 0.0701,0.14011 0,0.0771 -0.0315,0.14011 -0.0701,0.14011 -0.0385,0 -0.07,-0.0315 -0.07,-0.0701 z m -14.34365,-0.31495 c -0.10436,-0.11852 -0.11732,-0.45565 -0.0175,-0.45565 0.0385,0 0.0701,-0.063 0.0701,-0.1401 0,-0.0771 0.0315,-0.14011 0.07,-0.14011 0.0385,0 0.0701,-0.0946 0.0701,-0.21017 0,-0.11559 0.0315,-0.21016 0.07,-0.21016 0.0385,0 0.0701,-0.0946 0.0701,-0.21017 0,-0.11559 0.0315,-0.21016 0.07,-0.21016 0.0385,0 0.0701,-0.0631 0.0701,-0.14011 0,-0.0771 -0.0315,-0.14011 -0.0701,-0.14011 -0.0385,0 -0.07,0.0631 -0.07,0.14011 0,0.0771 -0.0315,0.14011 -0.0701,0.14011 -0.0385,0 -0.07,0.0631 -0.07,0.14011 0,0.0771 -0.0315,0.14011 -0.0701,0.14011 -0.0385,0 -0.07,0.0631 -0.07,0.14011 0,0.0771 -0.0315,0.14011 -0.0701,0.14011 -0.0385,0 -0.0701,0.0631 -0.0701,0.14011 0,0.0771 -0.0315,0.14011 -0.07,0.14011 -0.0385,0 -0.07,0.063 -0.07,0.14011 0,0.0771 -0.0315,0.1401 -0.0701,0.1401 -0.0385,0 -0.07,0.0496 -0.07,0.11009 0,0.16537 -0.17759,0.31024 -0.3803,0.31024 -0.16946,0 -0.18014,-0.0208 -0.18014,-0.35027 0,-0.19265 0.0315,-0.35027 0.0701,-0.35027 0.0385,0 0.07,-0.0631 0.07,-0.14011 0,-0.0771 0.0315,-0.14011 0.0701,-0.14011 0.0385,0 0.07,-0.0631 0.07,-0.14011 0,-0.0771 0.0315,-0.14011 0.07,-0.14011 0.0385,0 0.0701,-0.0631 0.0701,-0.14011 0,-0.0771 0.0315,-0.14011 0.0701,-0.14011 0.0385,0 0.07,-0.0631 0.07,-0.14011 0,-0.0771 0.0315,-0.14011 0.0701,-0.14011 0.0385,0 0.07,-0.0604 0.07,-0.13427 0,-0.0738 0.0394,-0.14834 0.0876,-0.16554 0.0482,-0.0172 0.0654,-0.0551 0.0384,-0.0842 -0.0586,-0.0631 -0.26604,0.12864 -0.26604,0.24586 0,0.0451 -0.0946,0.17032 -0.21016,0.2783 -0.11559,0.10798 -0.21017,0.24672 -0.21017,0.30833 0,0.0616 -0.0315,0.112 -0.07,0.112 -0.0385,0 -0.0701,0.0631 -0.0701,0.14011 0,0.0771 -0.0315,0.14011 -0.07,0.14011 -0.0385,0 -0.0701,0.0496 -0.0701,0.11008 0,0.27045 -0.40014,0.41049 -0.60046,0.21017 -0.11482,-0.11481 -0.13408,-0.32025 -0.03,-0.32025 0.0385,0 0.0701,-0.0631 0.0701,-0.14011 0,-0.0771 0.0315,-0.14011 0.07,-0.14011 0.0385,0 0.07,-0.0631 0.07,-0.14011 0,-0.0771 0.0315,-0.14011 0.0701,-0.14011 0.0385,0 0.07,-0.0631 0.07,-0.14011 0,-0.0771 0.0315,-0.14011 0.0701,-0.14011 0.0385,0 0.0701,-0.0561 0.0701,-0.12464 0,-0.0686 0.063,-0.17009 0.1401,-0.22563 0.0771,-0.0555 0.14011,-0.15707 0.14011,-0.22563 0,-0.0685 0.0315,-0.12464 0.0701,-0.12464 0.0385,0 0.07,-0.0561 0.07,-0.12465 0,-0.0685 0.0631,-0.17008 0.14011,-0.22563 0.0771,-0.0555 0.14011,-0.15707 0.14011,-0.22562 0,-0.0686 0.0315,-0.12465 0.0701,-0.12465 0.0385,0 0.0701,-0.063 0.0701,-0.14011 0,-0.0771 -0.0246,-0.14011 -0.0546,-0.14011 -0.03,0 -0.10003,0.0631 -0.15557,0.14011 -0.0555,0.0771 -0.15012,0.14011 -0.21017,0.14011 -0.06,0 -0.15462,0.0631 -0.21016,0.14011 -0.0555,0.0771 -0.15708,0.14011 -0.22563,0.14011 -0.0686,0 -0.12464,0.0315 -0.12464,0.07 0,0.10632 -0.34663,0.0837 -0.46036,-0.03 -0.13839,-0.13839 -0.13105,-0.46036 0.0105,-0.46036 0.0608,0 0.23173,-0.1261 0.37981,-0.28022 0.14807,-0.15412 0.30634,-0.28022 0.3517,-0.28022 0.0454,0 0.17081,-0.0946 0.27879,-0.21016 0.10797,-0.11559 0.23407,-0.21016 0.28021,-0.21016 0.0461,0 0.17225,-0.0946 0.28022,-0.21016 0.10798,-0.1156 0.24673,-0.21017 0.30833,-0.21017 0.0616,0 0.112,-0.0315 0.112,-0.0701 0,-0.0385 0.063,-0.0701 0.14011,-0.0701 0.0771,0 0.14011,-0.0315 0.14011,-0.0701 0,-0.0385 0.0802,-0.07 0.17832,-0.07 0.1966,0 0.52222,-0.28194 0.52222,-0.45217 0,-0.0595 0.0315,-0.10826 0.07,-0.10826 0.0385,0 0.07,-0.0496 0.07,-0.11009 0,-0.0606 0.045,-0.15512 0.10008,-0.21016 0.11481,-0.11482 0.32025,-0.13407 0.32025,-0.03 0,0.0385 0.063,0.0701 0.14011,0.0701 0.0771,0 0.14011,0.0315 0.14011,0.0701 0,0.0385 0.063,0.0701 0.14011,0.0701 0.0771,0 0.1401,0.0315 0.1401,0.0701 0,0.0385 0.0561,0.0701 0.12465,0.0701 0.0686,0 0.17009,0.0631 0.22563,0.14011 0.0555,0.0771 0.15707,0.1401 0.22563,0.1401 0.0686,0 0.12464,0.0315 0.12464,0.0701 0,0.0385 -0.0315,0.07 -0.0701,0.07 -0.0385,0 -0.07,0.0631 -0.07,0.14011 0,0.0771 -0.0315,0.14011 -0.0701,0.14011 -0.0385,0 -0.0701,0.0946 -0.0701,0.21016 0,0.1156 -0.0315,0.21017 -0.07,0.21017 -0.0385,0 -0.07,0.15762 -0.07,0.35027 0,0.19265 -0.0315,0.35027 -0.0701,0.35027 -0.0385,0 -0.07,0.1261 -0.07,0.28022 0,0.15412 -0.0315,0.28022 -0.0701,0.28022 -0.0385,0 -0.0701,0.0946 -0.0701,0.21016 0,0.1156 -0.0315,0.21017 -0.07,0.21017 -0.0385,0 -0.07,0.0946 -0.07,0.21016 0,0.11559 -0.0315,0.21017 -0.0701,0.21017 -0.0385,0 -0.07,0.063 -0.07,0.1401 0,0.0771 -0.0315,0.14011 -0.0701,0.14011 -0.0385,0 -0.07,0.0946 -0.07,0.21017 0,0.11558 -0.0315,0.21016 -0.0701,0.21016 -0.0385,0 -0.07,0.15762 -0.07,0.35027 0,0.19265 -0.0315,0.35028 -0.0701,0.35028 -0.0385,0 -0.07,0.11176 -0.07,0.24837 0,0.33355 -0.2965,0.65606 -0.45627,0.49629 -0.11888,-0.11888 -0.14842,-0.88478 -0.0341,-0.88478 0.0385,0 0.0701,-0.15499 0.0701,-0.34443 0,-0.21216 0.0336,-0.35645 0.0876,-0.37571 0.0482,-0.0172 0.0654,-0.0551 0.0384,-0.0842 -0.0815,-0.0877 -0.26604,0.15104 -0.26604,0.34402 0,0.0991 -0.0315,0.18014 -0.07,0.18014 -0.0385,0 -0.0701,0.1261 -0.0701,0.28021 0,0.15412 -0.0315,0.28023 -0.07,0.28023 -0.0385,0 -0.0701,0.0946 -0.0701,0.21016 0,0.11559 -0.0315,0.21016 -0.07,0.21016 -0.0385,0 -0.0701,0.0487 -0.0701,0.10827 0,0.28259 -0.44699,0.53591 -0.61297,0.34738 z m 28.07433,0.0348 c 0,-0.0385 -0.063,-0.0701 -0.14011,-0.0701 -0.13534,0 -0.14011,-0.0467 -0.14011,-1.37106 0,-1.42719 0.0285,-1.57123 0.31025,-1.57123 0.0605,0 0.11008,-0.0315 0.11008,-0.07 0,-0.0385 0.1261,-0.0701 0.28022,-0.0701 0.15412,0 0.28022,-0.0315 0.28022,-0.0701 0,-0.20248 0.77425,-0.0711 1.01812,0.1728 0.32416,0.32417 0.3322,0.31758 -0.38763,0.31758 -0.37363,0 -0.63049,0.0286 -0.63049,0.0701 0,0.0385 -0.0946,0.07 -0.21017,0.07 -0.21016,0 -0.21016,0 -0.21016,1.05082 0,0.65384 0.0265,1.05082 0.0701,1.05082 0.0385,0 0.0701,-0.0315 0.0701,-0.0701 0,-0.0385 0.1261,-0.07 0.28022,-0.07 0.15411,0 0.28022,-0.0315 0.28022,-0.0701 0,-0.0385 0.063,-0.07 0.1401,-0.07 0.0771,0 0.14011,-0.0315 0.14011,-0.0701 0,-0.0385 0.0485,-0.0701 0.10777,-0.0701 0.0593,0 0.39039,-0.28505 0.73581,-0.63344 0.62804,-0.63344 0.62804,-0.63344 0.80509,-0.45638 0.17054,0.17053 -0.64989,1.22993 -0.95248,1.22993 -0.0422,0 -0.19784,0.1261 -0.34592,0.28022 -0.17761,0.18485 -0.3307,0.28021 -0.44985,0.28021 -0.0994,0 -0.18063,0.0315 -0.18063,0.0701 0,0.0385 -0.12611,0.0701 -0.28022,0.0701 -0.15412,0 -0.28022,0.0315 -0.28022,0.0701 0,0.0385 -0.0946,0.07 -0.21017,0.07 -0.11559,0 -0.21016,-0.0315 -0.21016,-0.07 z m 3.22251,0 c 0,-0.0385 -0.0946,-0.0701 -0.21016,-0.0701 -0.14436,0 -0.21017,-0.0345 -0.21017,-0.11008 0,-0.1825 0.18543,-0.31024 0.45035,-0.31024 0.13761,0 0.2502,-0.0315 0.2502,-0.0701 0,-0.0385 0.0631,-0.07 0.1401,-0.07 0.0771,0 0.14011,-0.0315 0.14011,-0.0701 0,-0.0385 0.0604,-0.07 0.13428,-0.07 0.0738,0 0.147,-0.0382 0.16258,-0.085 0.0254,-0.0761 0.5438,0.36991 0.5438,0.46791 0,0.0205 -0.0876,0.0374 -0.1947,0.0374 -0.11433,0 -0.23638,0.0578 -0.29569,0.14011 -0.0703,0.0976 -0.18134,0.14011 -0.36573,0.14011 -0.14561,0 -0.26475,0.0315 -0.26475,0.0701 0,0.0385 -0.0631,0.0701 -0.14011,0.0701 -0.0771,0 -0.14011,-0.0315 -0.14011,-0.0701 z m 3.15245,-0.21017 c -0.0555,-0.0771 -0.15707,-0.1401 -0.22563,-0.1401 -0.0686,0 -0.12464,-0.0315 -0.12464,-0.0701 0,-0.0385 0.1261,-0.0701 0.28021,-0.0701 0.15412,0 0.28023,-0.0315 0.28023,-0.0701 0,-0.0385 0.17563,-0.07 0.3903,-0.07 0.57525,0 0.59046,-0.0297 0.59046,-1.1509 0,-0.95074 0,-0.95074 -0.28022,-0.95074 -0.15412,0 -0.28022,0.0315 -0.28022,0.0701 0,0.0385 -0.0631,0.07 -0.14011,0.07 -0.0771,0 -0.14011,0.0315 -0.14011,0.0701 0,0.0385 -0.063,0.07 -0.1401,0.07 -0.0771,0 -0.14012,0.0315 -0.14012,0.0701 0,0.0385 -0.0488,0.0701 -0.10846,0.0701 -0.0597,0 -0.32609,0.22067 -0.59208,0.49038 -0.50816,0.51527 -0.57852,0.55236 -0.74058,0.39031 -0.1617,-0.16171 -0.11593,-0.38933 0.12317,-0.61269 0.17,-0.15881 0.20098,-0.2223 0.12987,-0.26624 -0.072,-0.0445 -0.0481,-0.10302 0.10434,-0.25542 0.12512,-0.12512 0.20819,-0.1663 0.22624,-0.11214 0.0441,0.13244 0.25493,0.10113 0.36712,-0.0545 0.0555,-0.0771 0.15708,-0.14011 0.22563,-0.14011 0.0686,0 0.12464,-0.0315 0.12464,-0.0701 0,-0.0385 0.0631,-0.0701 0.14011,-0.0701 0.0771,0 0.14012,-0.0315 0.14012,-0.0701 0,-0.0385 0.0946,-0.0701 0.21016,-0.0701 0.11559,0 0.21016,-0.0315 0.21016,-0.0701 0,-0.04 0.21016,-0.0701 0.49038,-0.0701 0.49038,0 0.49038,0 0.49038,1.44112 0,1.56136 -0.0185,1.64128 -0.38029,1.64128 -0.0991,0 -0.18014,0.0315 -0.18014,0.07 0,0.14571 -0.9405,0.083 -1.05082,-0.07 z m -24.37603,-2.08191 c -0.0754,-0.085 -0.08,-0.12246 -0.0175,-0.14329 0.0466,-0.0155 0.0846,-0.0886 0.0846,-0.16248 0,-0.0738 0.0315,-0.13427 0.07,-0.13427 0.0385,0 0.0701,-0.0561 0.0701,-0.12464 0,-0.0686 0.063,-0.17009 0.14011,-0.22563 0.0771,-0.0555 0.14011,-0.15707 0.14011,-0.22563 0,-0.0686 0.0315,-0.12464 0.07,-0.12464 0.0385,0 0.07,-0.0561 0.07,-0.12465 0,-0.0686 0.0631,-0.17009 0.1401,-0.22563 0.0771,-0.0555 0.14011,-0.15707 0.14011,-0.22562 0,-0.0686 0.0315,-0.12465 0.07,-0.12465 0.0385,0 0.07,-0.0496 0.07,-0.11009 0,-0.15619 0.17393,-0.31023 0.35028,-0.31023 0.17635,0 0.35027,0.15404 0.35027,0.31023 0,0.0606 0.0315,0.11009 0.07,0.11009 0.0385,0 0.07,0.0561 0.07,0.12465 0,0.0686 0.0631,0.17009 0.14011,0.22562 0.0771,0.0555 0.14011,0.15708 0.14011,0.22563 0,0.0686 0.0315,0.12465 0.0701,0.12465 0.0385,0 0.07,0.0561 0.07,0.12464 0,0.0686 0.0631,0.17009 0.14011,0.22563 0.0771,0.0555 0.14011,0.15012 0.14011,0.21017 0,0.06 0.0631,0.15461 0.1401,0.21016 0.16511,0.11899 0.17871,0.25163 0.04,0.3903 -0.20033,0.20033 -0.60047,0.0603 -0.60047,-0.21016 0,-0.0606 -0.0315,-0.11009 -0.07,-0.11009 -0.0385,0 -0.0701,-0.0631 -0.0701,-0.14011 0,-0.0771 -0.0315,-0.1401 -0.07,-0.1401 -0.0385,0 -0.0701,-0.0561 -0.0701,-0.12465 0,-0.0686 -0.0631,-0.17009 -0.1401,-0.22563 -0.0771,-0.0555 -0.14011,-0.14356 -0.14011,-0.1956 0,-0.0521 -0.0473,-0.14191 -0.10508,-0.1997 -0.11773,-0.11773 -0.31525,0.007 -0.31525,0.1997 0,0.052 -0.0631,0.14006 -0.14011,0.1956 -0.0771,0.0555 -0.14011,0.15707 -0.14011,0.22563 0,0.0685 -0.0315,0.12465 -0.0701,0.12465 -0.0385,0 -0.07,0.0561 -0.07,0.12464 0,0.0685 -0.0631,0.17008 -0.14011,0.22563 -0.0771,0.0555 -0.14011,0.15707 -0.14011,0.22562 0,0.16264 -0.34417,0.16564 -0.48745,0.004 z"
       id="path3"
       sodipodi:nodetypes="ssssssssssssssssssssssssssssssssssssssssssssssssssssssssssssssssssssssssssssssssssssssssssssssssssssssssssssscsssssssssssssssssssssssssssssssssssssssssssssssssssssssssssssssssssscsssssssssssssssssssssssssssssssssssssssssssssssssssssssscsssssssssssssssssssssccsssssssssssssssssssssssssssssssssscssssssssssssssssscssssssssssssssscssssssssssssssscsssssssscssssssssssssssssssssssssssssssssssssssssssssssssssssssssssssssssssssssssssssssssssssssssssssssssssssssssssssssssssssssssssssssssssssssssssssssssssssssssssssssssssssssssssssssssssssssssssssssscsssssssssssssssssssssssssssssssssssssssssssssssssssssssssssssssssssssssssssssssssssssssssssssssssssssssssssssssssscssssssssssssssssssssssssssssssssssssssssssssssssssssssssssssssssssssssssssssssssssssssssssssssssssssssssssssssssssssssssssssssssssssssssssssssssssssssssssssssssssssssssscssssssssssssssssssssssssssssssssssssssscc" /><text
       xml:space="preserve"
       style="font-style:normal;font-variant:normal;font-weight:normal;font-stretch:normal;font-size:4.83219px;line-height:1.2;font-family:'Segoe Script';-inkscape-font-specification:'Segoe Script';fill:#1a1a1a;stroke-width:0.12847"
       x="101.77514"
       y="165.93402"
       id="text4"
       transform="scale(0.95957309,1.0421301)"><tspan
         sodipodi:role="line"
         id="tspan4"
         x="101.77514"
         y="165.93402"
         style="stroke-width:0.12847">90% natural FR4 7628</tspan></text><text
       xml:space="preserve"
       style="font-style:normal;font-variant:normal;font-weight:bold;font-stretch:normal;font-size:2.33688px;line-height:1.2;font-family:'Segoe Script';-inkscape-font-specification:'Segoe Script, Bold';font-variant-ligatures:normal;font-variant-caps:normal;font-variant-numeric:normal;font-variant-east-asian:normal;fill:#1a1a1a;stroke-width:0.0621285"
       x="138.05054"
       y="167.54477"
       id="text5"><tspan
         sodipodi:role="line"
         id="tspan5"
         x="138.05054"
         y="167.54477"
         style="font-style:normal;font-variant:normal;font-weight:bold;font-stretch:normal;font-size:2.33688px;font-family:'Segoe Script';-inkscape-font-specification:'Segoe Script, Bold';font-variant-ligatures:normal;font-variant-caps:normal;font-variant-numeric:normal;font-variant-east-asian:normal;stroke-width:0.0621285">180</tspan></text><text
       xml:space="preserve"
       style="font-style:normal;font-variant:normal;font-weight:bold;font-stretch:normal;font-size:1.01951px;line-height:1.2;font-family:'Segoe Script';-inkscape-font-specification:'Segoe Script, Bold';font-variant-ligatures:normal;font-variant-caps:normal;font-variant-numeric:normal;font-variant-east-asian:normal;fill:#1a1a1a;stroke-width:0.0820188"
       x="143.22786"
       y="166.2606"
       id="text6"><tspan
         sodipodi:role="line"
         id="tspan6"
         style="stroke-width:0.0820188"
         x="143.22786"
         y="166.2606">0</tspan></text></g></svg>
