%TF.GenerationSoftware,KiCad,Pcbnew,8.0.4*%
%TF.CreationDate,2025-02-12T19:06:00+01:00*%
%TF.ProjectId,SimpleLedController,53696d70-6c65-44c6-9564-436f6e74726f,A*%
%TF.SameCoordinates,Original*%
%TF.FileFunction,Soldermask,Bot*%
%TF.FilePolarity,Negative*%
%FSLAX46Y46*%
G04 Gerber Fmt 4.6, Leading zero omitted, Abs format (unit mm)*
G04 Created by KiCad (PCBNEW 8.0.4) date 2025-02-12 19:06:00*
%MOMM*%
%LPD*%
G01*
G04 APERTURE LIST*
%ADD10C,5.600000*%
%ADD11C,0.770000*%
%ADD12C,0.740000*%
%ADD13C,1.296000*%
%ADD14O,4.000000X2.000000*%
%ADD15O,2.000000X4.000000*%
%ADD16R,2.000000X4.500000*%
%ADD17O,3.960000X1.980000*%
%ADD18R,3.960000X1.980000*%
%ADD19O,2.100000X1.300000*%
%ADD20O,2.300000X1.300000*%
%ADD21C,0.600000*%
G04 APERTURE END LIST*
D10*
%TO.C,H1*%
X103000000Y-108317800D03*
%TD*%
D11*
%TO.C,U24*%
X172954251Y-99669612D03*
X172954251Y-98369612D03*
X172954251Y-97069612D03*
X171654251Y-99669612D03*
X171654251Y-98369612D03*
D12*
X171654251Y-97069612D03*
%TD*%
D13*
%TO.C,REF\u002A\u002A*%
X187274200Y-109524800D03*
%TD*%
D14*
%TO.C,J1*%
X110288600Y-104362000D03*
D15*
X107288600Y-99662000D03*
D16*
X113488600Y-99662000D03*
%TD*%
D13*
%TO.C,REF\u002A\u002A*%
X101041200Y-103073200D03*
%TD*%
D17*
%TO.C,J5*%
X183071941Y-99024714D03*
X183071941Y-104024714D03*
D18*
X183071941Y-109024714D03*
%TD*%
D19*
%TO.C,J3*%
X102125000Y-90772800D03*
D20*
X106325000Y-90772800D03*
D21*
X101505000Y-88442800D03*
X103505000Y-88442800D03*
X101505000Y-84442800D03*
X103505000Y-84442800D03*
D19*
X102125000Y-82112800D03*
D20*
X106325000Y-82112800D03*
D21*
X105805000Y-89332800D03*
X105805000Y-83552800D03*
%TD*%
D10*
%TO.C,H4*%
X103000000Y-65317800D03*
%TD*%
D17*
%TO.C,J14*%
X183061941Y-76474898D03*
D18*
X183061941Y-81474898D03*
%TD*%
D10*
%TO.C,H2*%
X158000000Y-65317800D03*
%TD*%
D13*
%TO.C,REF\u002A\u002A*%
X107467400Y-63703200D03*
%TD*%
D17*
%TO.C,J13*%
X183061941Y-65229990D03*
D18*
X183061941Y-70229990D03*
%TD*%
D17*
%TO.C,J12*%
X183061941Y-87719806D03*
D18*
X183061941Y-92719806D03*
%TD*%
D11*
%TO.C,U27*%
X172954251Y-71249000D03*
X172954251Y-69949000D03*
X172954251Y-68649000D03*
X171654251Y-71249000D03*
X171654251Y-69949000D03*
X171654251Y-68649000D03*
%TD*%
D10*
%TO.C,H3*%
X173000000Y-108317800D03*
%TD*%
D11*
%TO.C,U30*%
X172954251Y-85242520D03*
X172954251Y-83942520D03*
X172954251Y-82642520D03*
X171654251Y-85242520D03*
X171654251Y-83942520D03*
X171654251Y-82642520D03*
%TD*%
M02*
