%TF.GenerationSoftware,KiCad,Pcbnew,8.0.4*%
%TF.CreationDate,2025-02-12T19:06:00+01:00*%
%TF.ProjectId,SimpleLedController,53696d70-6c65-44c6-9564-436f6e74726f,A*%
%TF.SameCoordinates,Original*%
%TF.FileFunction,Legend,Top*%
%TF.FilePolarity,Positive*%
%FSLAX46Y46*%
G04 Gerber Fmt 4.6, Leading zero omitted, Abs format (unit mm)*
G04 Created by KiCad (PCBNEW 8.0.4) date 2025-02-12 19:06:00*
%MOMM*%
%LPD*%
G01*
G04 APERTURE LIST*
G04 Aperture macros list*
%AMRoundRect*
0 Rectangle with rounded corners*
0 $1 Rounding radius*
0 $2 $3 $4 $5 $6 $7 $8 $9 X,Y pos of 4 corners*
0 Add a 4 corners polygon primitive as box body*
4,1,4,$2,$3,$4,$5,$6,$7,$8,$9,$2,$3,0*
0 Add four circle primitives for the rounded corners*
1,1,$1+$1,$2,$3*
1,1,$1+$1,$4,$5*
1,1,$1+$1,$6,$7*
1,1,$1+$1,$8,$9*
0 Add four rect primitives between the rounded corners*
20,1,$1+$1,$2,$3,$4,$5,0*
20,1,$1+$1,$4,$5,$6,$7,0*
20,1,$1+$1,$6,$7,$8,$9,0*
20,1,$1+$1,$8,$9,$2,$3,0*%
G04 Aperture macros list end*
%ADD10C,0.100000*%
%ADD11C,0.200000*%
%ADD12C,0.160000*%
%ADD13C,0.175000*%
%ADD14C,0.125000*%
%ADD15C,0.120000*%
%ADD16C,0.150000*%
%ADD17RoundRect,0.135000X-0.135000X-0.185000X0.135000X-0.185000X0.135000X0.185000X-0.135000X0.185000X0*%
%ADD18RoundRect,0.140000X0.170000X-0.140000X0.170000X0.140000X-0.170000X0.140000X-0.170000X-0.140000X0*%
%ADD19R,1.000000X1.250000*%
%ADD20RoundRect,0.140000X-0.170000X0.140000X-0.170000X-0.140000X0.170000X-0.140000X0.170000X0.140000X0*%
%ADD21RoundRect,0.462500X-0.462500X-1.287500X0.462500X-1.287500X0.462500X1.287500X-0.462500X1.287500X0*%
%ADD22RoundRect,0.140000X0.140000X0.170000X-0.140000X0.170000X-0.140000X-0.170000X0.140000X-0.170000X0*%
%ADD23RoundRect,0.159000X-0.159000X-0.189000X0.159000X-0.189000X0.159000X0.189000X-0.159000X0.189000X0*%
%ADD24RoundRect,0.135000X-0.185000X0.135000X-0.185000X-0.135000X0.185000X-0.135000X0.185000X0.135000X0*%
%ADD25RoundRect,0.150000X-0.512500X-0.150000X0.512500X-0.150000X0.512500X0.150000X-0.512500X0.150000X0*%
%ADD26RoundRect,0.200000X0.450000X0.200000X-0.450000X0.200000X-0.450000X-0.200000X0.450000X-0.200000X0*%
%ADD27RoundRect,0.135000X0.185000X-0.135000X0.185000X0.135000X-0.185000X0.135000X-0.185000X-0.135000X0*%
%ADD28RoundRect,0.250000X-0.250000X-0.475000X0.250000X-0.475000X0.250000X0.475000X-0.250000X0.475000X0*%
%ADD29C,5.600000*%
%ADD30RoundRect,0.150000X-0.587500X-0.150000X0.587500X-0.150000X0.587500X0.150000X-0.587500X0.150000X0*%
%ADD31C,0.770000*%
%ADD32C,0.740000*%
%ADD33RoundRect,0.070000X-1.100000X-0.250000X1.100000X-0.250000X1.100000X0.250000X-1.100000X0.250000X0*%
%ADD34R,2.400000X3.100000*%
%ADD35RoundRect,0.159000X0.159000X0.189000X-0.159000X0.189000X-0.159000X-0.189000X0.159000X-0.189000X0*%
%ADD36RoundRect,0.135000X0.135000X0.185000X-0.135000X0.185000X-0.135000X-0.185000X0.135000X-0.185000X0*%
%ADD37RoundRect,0.266521X0.671479X-0.346479X0.671479X0.346479X-0.671479X0.346479X-0.671479X-0.346479X0*%
%ADD38C,1.296000*%
%ADD39RoundRect,0.250000X-0.475000X0.250000X-0.475000X-0.250000X0.475000X-0.250000X0.475000X0.250000X0*%
%ADD40RoundRect,0.266521X-0.671479X0.346479X-0.671479X-0.346479X0.671479X-0.346479X0.671479X0.346479X0*%
%ADD41RoundRect,0.266521X0.346479X0.671479X-0.346479X0.671479X-0.346479X-0.671479X0.346479X-0.671479X0*%
%ADD42RoundRect,0.159000X-0.189000X0.159000X-0.189000X-0.159000X0.189000X-0.159000X0.189000X0.159000X0*%
%ADD43RoundRect,0.159000X0.189000X-0.159000X0.189000X0.159000X-0.189000X0.159000X-0.189000X-0.159000X0*%
%ADD44RoundRect,0.150000X-0.150000X0.512500X-0.150000X-0.512500X0.150000X-0.512500X0.150000X0.512500X0*%
%ADD45RoundRect,0.150000X-0.825000X-0.150000X0.825000X-0.150000X0.825000X0.150000X-0.825000X0.150000X0*%
%ADD46RoundRect,0.140000X-0.140000X-0.170000X0.140000X-0.170000X0.140000X0.170000X-0.140000X0.170000X0*%
%ADD47R,2.500000X1.900000*%
%ADD48O,4.000000X2.000000*%
%ADD49O,2.000000X4.000000*%
%ADD50R,2.000000X4.500000*%
%ADD51O,3.960000X1.980000*%
%ADD52R,3.960000X1.980000*%
%ADD53RoundRect,0.100000X0.562500X0.100000X-0.562500X0.100000X-0.562500X-0.100000X0.562500X-0.100000X0*%
%ADD54RoundRect,0.150000X0.512500X0.150000X-0.512500X0.150000X-0.512500X-0.150000X0.512500X-0.150000X0*%
%ADD55RoundRect,0.225000X-0.375000X0.225000X-0.375000X-0.225000X0.375000X-0.225000X0.375000X0.225000X0*%
%ADD56RoundRect,0.267317X0.470683X-0.280683X0.470683X0.280683X-0.470683X0.280683X-0.470683X-0.280683X0*%
%ADD57RoundRect,0.225000X0.250000X-0.225000X0.250000X0.225000X-0.250000X0.225000X-0.250000X-0.225000X0*%
%ADD58C,0.600000*%
%ADD59R,3.900000X3.900000*%
%ADD60R,1.500000X0.900000*%
%ADD61R,0.900000X1.500000*%
%ADD62RoundRect,0.250000X1.500000X0.550000X-1.500000X0.550000X-1.500000X-0.550000X1.500000X-0.550000X0*%
%ADD63RoundRect,0.250000X-1.500000X-0.550000X1.500000X-0.550000X1.500000X0.550000X-1.500000X0.550000X0*%
%ADD64RoundRect,0.250000X0.250000X0.475000X-0.250000X0.475000X-0.250000X-0.475000X0.250000X-0.475000X0*%
%ADD65O,2.100000X1.300000*%
%ADD66O,2.300000X1.300000*%
%ADD67RoundRect,0.500000X-1.000000X2.000000X-1.000000X-2.000000X1.000000X-2.000000X1.000000X2.000000X0*%
%ADD68R,1.400000X0.500000*%
%ADD69R,1.400000X0.300000*%
%ADD70RoundRect,0.218750X0.218750X0.256250X-0.218750X0.256250X-0.218750X-0.256250X0.218750X-0.256250X0*%
%ADD71R,3.502000X2.613000*%
%ADD72R,0.802000X1.505000*%
%ADD73RoundRect,0.150000X0.587500X0.150000X-0.587500X0.150000X-0.587500X-0.150000X0.587500X-0.150000X0*%
%ADD74RoundRect,0.150000X0.150000X-0.650000X0.150000X0.650000X-0.150000X0.650000X-0.150000X-0.650000X0*%
%ADD75R,1.400000X1.200000*%
%ADD76RoundRect,0.239000X0.239000X0.274000X-0.239000X0.274000X-0.239000X-0.274000X0.239000X-0.274000X0*%
%ADD77RoundRect,0.250000X0.250000X1.150000X-0.250000X1.150000X-0.250000X-1.150000X0.250000X-1.150000X0*%
%ADD78RoundRect,0.150000X0.150000X0.700000X-0.150000X0.700000X-0.150000X-0.700000X0.150000X-0.700000X0*%
%ADD79RoundRect,0.218750X-0.218750X-0.256250X0.218750X-0.256250X0.218750X0.256250X-0.218750X0.256250X0*%
%ADD80R,1.250000X1.000000*%
%ADD81RoundRect,0.250000X0.475000X-0.250000X0.475000X0.250000X-0.475000X0.250000X-0.475000X-0.250000X0*%
%ADD82R,1.000000X2.510000*%
%ADD83R,1.200000X1.400000*%
%ADD84RoundRect,0.150000X-0.150000X0.725000X-0.150000X-0.725000X0.150000X-0.725000X0.150000X0.725000X0*%
%ADD85RoundRect,0.250000X-1.150000X0.250000X-1.150000X-0.250000X1.150000X-0.250000X1.150000X0.250000X0*%
%ADD86RoundRect,0.150000X-0.700000X0.150000X-0.700000X-0.150000X0.700000X-0.150000X0.700000X0.150000X0*%
%ADD87RoundRect,0.100000X-0.100000X0.637500X-0.100000X-0.637500X0.100000X-0.637500X0.100000X0.637500X0*%
G04 APERTURE END LIST*
D10*
X154381200Y-76479400D02*
X154203400Y-76479400D01*
X171500800Y-73964800D02*
X173075600Y-73964800D01*
X173075600Y-75539600D01*
X171500800Y-75539600D01*
X171500800Y-73964800D01*
X144983200Y-91846400D02*
X144983200Y-92481400D01*
X149504400Y-75438000D02*
X149504400Y-74650600D01*
X155270200Y-75590400D02*
X155270200Y-76149200D01*
X152260300Y-76479400D02*
X154216100Y-76479400D01*
X152247600Y-78257400D02*
X152247600Y-76479400D01*
X171500800Y-102565200D02*
X173075600Y-102565200D01*
X173075600Y-104140000D01*
X171500800Y-104140000D01*
X171500800Y-102565200D01*
X145618200Y-92481400D02*
X144983200Y-91846400D01*
X149809200Y-74650600D02*
X149529800Y-74371200D01*
X149504400Y-74650600D02*
X149809200Y-74650600D01*
X103301800Y-80848200D02*
X102006400Y-80848200D01*
X155892500Y-68021200D02*
X155892500Y-69253100D01*
X103301800Y-80848200D02*
X102920800Y-81127600D01*
X145618200Y-95758000D02*
X145618200Y-92481400D01*
X102006400Y-80848200D02*
X102438200Y-81153000D01*
X155892500Y-69253100D02*
X156171900Y-68973700D01*
X103301800Y-80848200D02*
X102895400Y-80619600D01*
X102438200Y-81153000D02*
X100609400Y-81153000D01*
X155270200Y-75590400D02*
X154381200Y-76479400D01*
X155270200Y-75590400D02*
X154635200Y-75590400D01*
X150393400Y-76695300D02*
X151968200Y-76695300D01*
X151968200Y-85966300D01*
X150393400Y-85966300D01*
X150393400Y-76695300D01*
X171500800Y-88011000D02*
X173075600Y-88011000D01*
X173075600Y-89585800D01*
X171500800Y-89585800D01*
X171500800Y-88011000D01*
D11*
X146346654Y-84080095D02*
X146346654Y-84727714D01*
X146346654Y-84727714D02*
X146384749Y-84803904D01*
X146384749Y-84803904D02*
X146422844Y-84842000D01*
X146422844Y-84842000D02*
X146499035Y-84880095D01*
X146499035Y-84880095D02*
X146651416Y-84880095D01*
X146651416Y-84880095D02*
X146727606Y-84842000D01*
X146727606Y-84842000D02*
X146765701Y-84803904D01*
X146765701Y-84803904D02*
X146803797Y-84727714D01*
X146803797Y-84727714D02*
X146803797Y-84080095D01*
X147146653Y-84842000D02*
X147260939Y-84880095D01*
X147260939Y-84880095D02*
X147451415Y-84880095D01*
X147451415Y-84880095D02*
X147527606Y-84842000D01*
X147527606Y-84842000D02*
X147565701Y-84803904D01*
X147565701Y-84803904D02*
X147603796Y-84727714D01*
X147603796Y-84727714D02*
X147603796Y-84651523D01*
X147603796Y-84651523D02*
X147565701Y-84575333D01*
X147565701Y-84575333D02*
X147527606Y-84537238D01*
X147527606Y-84537238D02*
X147451415Y-84499142D01*
X147451415Y-84499142D02*
X147299034Y-84461047D01*
X147299034Y-84461047D02*
X147222844Y-84422952D01*
X147222844Y-84422952D02*
X147184749Y-84384857D01*
X147184749Y-84384857D02*
X147146653Y-84308666D01*
X147146653Y-84308666D02*
X147146653Y-84232476D01*
X147146653Y-84232476D02*
X147184749Y-84156285D01*
X147184749Y-84156285D02*
X147222844Y-84118190D01*
X147222844Y-84118190D02*
X147299034Y-84080095D01*
X147299034Y-84080095D02*
X147489511Y-84080095D01*
X147489511Y-84080095D02*
X147603796Y-84118190D01*
X148403797Y-84880095D02*
X148137130Y-84499142D01*
X147946654Y-84880095D02*
X147946654Y-84080095D01*
X147946654Y-84080095D02*
X148251416Y-84080095D01*
X148251416Y-84080095D02*
X148327606Y-84118190D01*
X148327606Y-84118190D02*
X148365701Y-84156285D01*
X148365701Y-84156285D02*
X148403797Y-84232476D01*
X148403797Y-84232476D02*
X148403797Y-84346761D01*
X148403797Y-84346761D02*
X148365701Y-84422952D01*
X148365701Y-84422952D02*
X148327606Y-84461047D01*
X148327606Y-84461047D02*
X148251416Y-84499142D01*
X148251416Y-84499142D02*
X147946654Y-84499142D01*
X149165701Y-84880095D02*
X148708558Y-84880095D01*
X148937130Y-84880095D02*
X148937130Y-84080095D01*
X148937130Y-84080095D02*
X148860939Y-84194380D01*
X148860939Y-84194380D02*
X148784749Y-84270571D01*
X148784749Y-84270571D02*
X148708558Y-84308666D01*
X171886445Y-102829419D02*
X172505492Y-102829419D01*
X172505492Y-102829419D02*
X172172159Y-103210371D01*
X172172159Y-103210371D02*
X172315016Y-103210371D01*
X172315016Y-103210371D02*
X172410254Y-103257990D01*
X172410254Y-103257990D02*
X172457873Y-103305609D01*
X172457873Y-103305609D02*
X172505492Y-103400847D01*
X172505492Y-103400847D02*
X172505492Y-103638942D01*
X172505492Y-103638942D02*
X172457873Y-103734180D01*
X172457873Y-103734180D02*
X172410254Y-103781800D01*
X172410254Y-103781800D02*
X172315016Y-103829419D01*
X172315016Y-103829419D02*
X172029302Y-103829419D01*
X172029302Y-103829419D02*
X171934064Y-103781800D01*
X171934064Y-103781800D02*
X171886445Y-103734180D01*
D10*
X148935131Y-92313942D02*
X148877989Y-92285371D01*
X148877989Y-92285371D02*
X148792274Y-92285371D01*
X148792274Y-92285371D02*
X148706560Y-92313942D01*
X148706560Y-92313942D02*
X148649417Y-92371085D01*
X148649417Y-92371085D02*
X148620846Y-92428228D01*
X148620846Y-92428228D02*
X148592274Y-92542514D01*
X148592274Y-92542514D02*
X148592274Y-92628228D01*
X148592274Y-92628228D02*
X148620846Y-92742514D01*
X148620846Y-92742514D02*
X148649417Y-92799657D01*
X148649417Y-92799657D02*
X148706560Y-92856800D01*
X148706560Y-92856800D02*
X148792274Y-92885371D01*
X148792274Y-92885371D02*
X148849417Y-92885371D01*
X148849417Y-92885371D02*
X148935131Y-92856800D01*
X148935131Y-92856800D02*
X148963703Y-92828228D01*
X148963703Y-92828228D02*
X148963703Y-92628228D01*
X148963703Y-92628228D02*
X148849417Y-92628228D01*
X150020846Y-92828228D02*
X149992274Y-92856800D01*
X149992274Y-92856800D02*
X149906560Y-92885371D01*
X149906560Y-92885371D02*
X149849417Y-92885371D01*
X149849417Y-92885371D02*
X149763703Y-92856800D01*
X149763703Y-92856800D02*
X149706560Y-92799657D01*
X149706560Y-92799657D02*
X149677989Y-92742514D01*
X149677989Y-92742514D02*
X149649417Y-92628228D01*
X149649417Y-92628228D02*
X149649417Y-92542514D01*
X149649417Y-92542514D02*
X149677989Y-92428228D01*
X149677989Y-92428228D02*
X149706560Y-92371085D01*
X149706560Y-92371085D02*
X149763703Y-92313942D01*
X149763703Y-92313942D02*
X149849417Y-92285371D01*
X149849417Y-92285371D02*
X149906560Y-92285371D01*
X149906560Y-92285371D02*
X149992274Y-92313942D01*
X149992274Y-92313942D02*
X150020846Y-92342514D01*
X150277989Y-92885371D02*
X150277989Y-92285371D01*
X150620846Y-92885371D02*
X150363703Y-92542514D01*
X150620846Y-92285371D02*
X150277989Y-92628228D01*
X151335132Y-92885371D02*
X151335132Y-92285371D01*
X151335132Y-92285371D02*
X151535132Y-92713942D01*
X151535132Y-92713942D02*
X151735132Y-92285371D01*
X151735132Y-92285371D02*
X151735132Y-92885371D01*
X152020846Y-92885371D02*
X152020846Y-92285371D01*
X152763703Y-92885371D02*
X152763703Y-92285371D01*
X152763703Y-92285371D02*
X152963703Y-92713942D01*
X152963703Y-92713942D02*
X153163703Y-92285371D01*
X153163703Y-92285371D02*
X153163703Y-92885371D01*
X153563702Y-92285371D02*
X153677988Y-92285371D01*
X153677988Y-92285371D02*
X153735131Y-92313942D01*
X153735131Y-92313942D02*
X153792274Y-92371085D01*
X153792274Y-92371085D02*
X153820845Y-92485371D01*
X153820845Y-92485371D02*
X153820845Y-92685371D01*
X153820845Y-92685371D02*
X153792274Y-92799657D01*
X153792274Y-92799657D02*
X153735131Y-92856800D01*
X153735131Y-92856800D02*
X153677988Y-92885371D01*
X153677988Y-92885371D02*
X153563702Y-92885371D01*
X153563702Y-92885371D02*
X153506560Y-92856800D01*
X153506560Y-92856800D02*
X153449417Y-92799657D01*
X153449417Y-92799657D02*
X153420845Y-92685371D01*
X153420845Y-92685371D02*
X153420845Y-92485371D01*
X153420845Y-92485371D02*
X153449417Y-92371085D01*
X153449417Y-92371085D02*
X153506560Y-92313942D01*
X153506560Y-92313942D02*
X153563702Y-92285371D01*
X154877988Y-92828228D02*
X154849416Y-92856800D01*
X154849416Y-92856800D02*
X154763702Y-92885371D01*
X154763702Y-92885371D02*
X154706559Y-92885371D01*
X154706559Y-92885371D02*
X154620845Y-92856800D01*
X154620845Y-92856800D02*
X154563702Y-92799657D01*
X154563702Y-92799657D02*
X154535131Y-92742514D01*
X154535131Y-92742514D02*
X154506559Y-92628228D01*
X154506559Y-92628228D02*
X154506559Y-92542514D01*
X154506559Y-92542514D02*
X154535131Y-92428228D01*
X154535131Y-92428228D02*
X154563702Y-92371085D01*
X154563702Y-92371085D02*
X154620845Y-92313942D01*
X154620845Y-92313942D02*
X154706559Y-92285371D01*
X154706559Y-92285371D02*
X154763702Y-92285371D01*
X154763702Y-92285371D02*
X154849416Y-92313942D01*
X154849416Y-92313942D02*
X154877988Y-92342514D01*
X155106559Y-92856800D02*
X155192274Y-92885371D01*
X155192274Y-92885371D02*
X155335131Y-92885371D01*
X155335131Y-92885371D02*
X155392274Y-92856800D01*
X155392274Y-92856800D02*
X155420845Y-92828228D01*
X155420845Y-92828228D02*
X155449416Y-92771085D01*
X155449416Y-92771085D02*
X155449416Y-92713942D01*
X155449416Y-92713942D02*
X155420845Y-92656800D01*
X155420845Y-92656800D02*
X155392274Y-92628228D01*
X155392274Y-92628228D02*
X155335131Y-92599657D01*
X155335131Y-92599657D02*
X155220845Y-92571085D01*
X155220845Y-92571085D02*
X155163702Y-92542514D01*
X155163702Y-92542514D02*
X155135131Y-92513942D01*
X155135131Y-92513942D02*
X155106559Y-92456800D01*
X155106559Y-92456800D02*
X155106559Y-92399657D01*
X155106559Y-92399657D02*
X155135131Y-92342514D01*
X155135131Y-92342514D02*
X155163702Y-92313942D01*
X155163702Y-92313942D02*
X155220845Y-92285371D01*
X155220845Y-92285371D02*
X155363702Y-92285371D01*
X155363702Y-92285371D02*
X155449416Y-92313942D01*
X156106560Y-92285371D02*
X156477988Y-92285371D01*
X156477988Y-92285371D02*
X156277988Y-92513942D01*
X156277988Y-92513942D02*
X156363703Y-92513942D01*
X156363703Y-92513942D02*
X156420846Y-92542514D01*
X156420846Y-92542514D02*
X156449417Y-92571085D01*
X156449417Y-92571085D02*
X156477988Y-92628228D01*
X156477988Y-92628228D02*
X156477988Y-92771085D01*
X156477988Y-92771085D02*
X156449417Y-92828228D01*
X156449417Y-92828228D02*
X156420846Y-92856800D01*
X156420846Y-92856800D02*
X156363703Y-92885371D01*
X156363703Y-92885371D02*
X156192274Y-92885371D01*
X156192274Y-92885371D02*
X156135131Y-92856800D01*
X156135131Y-92856800D02*
X156106560Y-92828228D01*
X156677989Y-92485371D02*
X156820846Y-92885371D01*
X156820846Y-92885371D02*
X156963703Y-92485371D01*
X149460771Y-78175753D02*
X149946485Y-78175753D01*
X149946485Y-78175753D02*
X150003628Y-78147182D01*
X150003628Y-78147182D02*
X150032200Y-78118611D01*
X150032200Y-78118611D02*
X150060771Y-78061468D01*
X150060771Y-78061468D02*
X150060771Y-77947182D01*
X150060771Y-77947182D02*
X150032200Y-77890039D01*
X150032200Y-77890039D02*
X150003628Y-77861468D01*
X150003628Y-77861468D02*
X149946485Y-77832896D01*
X149946485Y-77832896D02*
X149460771Y-77832896D01*
X150117914Y-77690040D02*
X150117914Y-77232897D01*
X150060771Y-76804325D02*
X150060771Y-77090039D01*
X150060771Y-77090039D02*
X149460771Y-77090039D01*
X149746485Y-76604325D02*
X149746485Y-76404325D01*
X150060771Y-76318611D02*
X150060771Y-76604325D01*
X150060771Y-76604325D02*
X149460771Y-76604325D01*
X149460771Y-76604325D02*
X149460771Y-76318611D01*
X150060771Y-76061468D02*
X149460771Y-76061468D01*
X149460771Y-76061468D02*
X149460771Y-75918611D01*
X149460771Y-75918611D02*
X149489342Y-75832897D01*
X149489342Y-75832897D02*
X149546485Y-75775754D01*
X149546485Y-75775754D02*
X149603628Y-75747183D01*
X149603628Y-75747183D02*
X149717914Y-75718611D01*
X149717914Y-75718611D02*
X149803628Y-75718611D01*
X149803628Y-75718611D02*
X149917914Y-75747183D01*
X149917914Y-75747183D02*
X149975057Y-75775754D01*
X149975057Y-75775754D02*
X150032200Y-75832897D01*
X150032200Y-75832897D02*
X150060771Y-75918611D01*
X150060771Y-75918611D02*
X150060771Y-76061468D01*
D12*
X101025777Y-79535575D02*
X100944824Y-80183194D01*
X100944824Y-80183194D02*
X100973396Y-80259384D01*
X100973396Y-80259384D02*
X101006729Y-80297480D01*
X101006729Y-80297480D02*
X101078158Y-80335575D01*
X101078158Y-80335575D02*
X101230539Y-80335575D01*
X101230539Y-80335575D02*
X101311491Y-80297480D01*
X101311491Y-80297480D02*
X101354348Y-80259384D01*
X101354348Y-80259384D02*
X101401967Y-80183194D01*
X101401967Y-80183194D02*
X101482920Y-79535575D01*
X101730538Y-80297480D02*
X101840062Y-80335575D01*
X101840062Y-80335575D02*
X102030538Y-80335575D01*
X102030538Y-80335575D02*
X102111491Y-80297480D01*
X102111491Y-80297480D02*
X102154348Y-80259384D01*
X102154348Y-80259384D02*
X102201967Y-80183194D01*
X102201967Y-80183194D02*
X102211491Y-80107003D01*
X102211491Y-80107003D02*
X102182919Y-80030813D01*
X102182919Y-80030813D02*
X102149586Y-79992718D01*
X102149586Y-79992718D02*
X102078158Y-79954622D01*
X102078158Y-79954622D02*
X101930538Y-79916527D01*
X101930538Y-79916527D02*
X101859110Y-79878432D01*
X101859110Y-79878432D02*
X101825777Y-79840337D01*
X101825777Y-79840337D02*
X101797205Y-79764146D01*
X101797205Y-79764146D02*
X101806729Y-79687956D01*
X101806729Y-79687956D02*
X101854348Y-79611765D01*
X101854348Y-79611765D02*
X101897205Y-79573670D01*
X101897205Y-79573670D02*
X101978158Y-79535575D01*
X101978158Y-79535575D02*
X102168634Y-79535575D01*
X102168634Y-79535575D02*
X102278158Y-79573670D01*
X102844824Y-79916527D02*
X102954348Y-79954622D01*
X102954348Y-79954622D02*
X102987682Y-79992718D01*
X102987682Y-79992718D02*
X103016253Y-80068908D01*
X103016253Y-80068908D02*
X103001967Y-80183194D01*
X103001967Y-80183194D02*
X102954348Y-80259384D01*
X102954348Y-80259384D02*
X102911491Y-80297480D01*
X102911491Y-80297480D02*
X102830539Y-80335575D01*
X102830539Y-80335575D02*
X102525777Y-80335575D01*
X102525777Y-80335575D02*
X102625777Y-79535575D01*
X102625777Y-79535575D02*
X102892443Y-79535575D01*
X102892443Y-79535575D02*
X102963872Y-79573670D01*
X102963872Y-79573670D02*
X102997205Y-79611765D01*
X102997205Y-79611765D02*
X103025777Y-79687956D01*
X103025777Y-79687956D02*
X103016253Y-79764146D01*
X103016253Y-79764146D02*
X102968634Y-79840337D01*
X102968634Y-79840337D02*
X102925777Y-79878432D01*
X102925777Y-79878432D02*
X102844824Y-79916527D01*
X102844824Y-79916527D02*
X102578158Y-79916527D01*
X103935301Y-80335575D02*
X104035301Y-79535575D01*
X104035301Y-79535575D02*
X104340063Y-79535575D01*
X104340063Y-79535575D02*
X104411491Y-79573670D01*
X104411491Y-79573670D02*
X104444825Y-79611765D01*
X104444825Y-79611765D02*
X104473396Y-79687956D01*
X104473396Y-79687956D02*
X104459110Y-79802241D01*
X104459110Y-79802241D02*
X104411491Y-79878432D01*
X104411491Y-79878432D02*
X104368634Y-79916527D01*
X104368634Y-79916527D02*
X104287682Y-79954622D01*
X104287682Y-79954622D02*
X103982920Y-79954622D01*
X104735301Y-80335575D02*
X104835301Y-79535575D01*
X104835301Y-79535575D02*
X105025777Y-79535575D01*
X105025777Y-79535575D02*
X105135301Y-79573670D01*
X105135301Y-79573670D02*
X105201967Y-79649860D01*
X105201967Y-79649860D02*
X105230539Y-79726051D01*
X105230539Y-79726051D02*
X105249587Y-79878432D01*
X105249587Y-79878432D02*
X105235301Y-79992718D01*
X105235301Y-79992718D02*
X105178158Y-80145099D01*
X105178158Y-80145099D02*
X105130539Y-80221289D01*
X105130539Y-80221289D02*
X105044825Y-80297480D01*
X105044825Y-80297480D02*
X104925777Y-80335575D01*
X104925777Y-80335575D02*
X104735301Y-80335575D01*
D13*
X151615451Y-85327298D02*
X151663070Y-85227298D01*
X151663070Y-85227298D02*
X151663070Y-85060632D01*
X151663070Y-85060632D02*
X151615451Y-84993965D01*
X151615451Y-84993965D02*
X151567831Y-84960632D01*
X151567831Y-84960632D02*
X151472593Y-84927298D01*
X151472593Y-84927298D02*
X151377355Y-84927298D01*
X151377355Y-84927298D02*
X151282117Y-84960632D01*
X151282117Y-84960632D02*
X151234498Y-84993965D01*
X151234498Y-84993965D02*
X151186879Y-85060632D01*
X151186879Y-85060632D02*
X151139260Y-85193965D01*
X151139260Y-85193965D02*
X151091641Y-85260632D01*
X151091641Y-85260632D02*
X151044022Y-85293965D01*
X151044022Y-85293965D02*
X150948784Y-85327298D01*
X150948784Y-85327298D02*
X150853546Y-85327298D01*
X150853546Y-85327298D02*
X150758308Y-85293965D01*
X150758308Y-85293965D02*
X150710689Y-85260632D01*
X150710689Y-85260632D02*
X150663070Y-85193965D01*
X150663070Y-85193965D02*
X150663070Y-85027298D01*
X150663070Y-85027298D02*
X150710689Y-84927298D01*
X151377355Y-84660631D02*
X151377355Y-84327298D01*
X151663070Y-84727298D02*
X150663070Y-84493965D01*
X150663070Y-84493965D02*
X151663070Y-84260631D01*
X151139260Y-83793965D02*
X151139260Y-84027298D01*
X151663070Y-84027298D02*
X150663070Y-84027298D01*
X150663070Y-84027298D02*
X150663070Y-83693965D01*
X151139260Y-83427298D02*
X151139260Y-83193965D01*
X151663070Y-83093965D02*
X151663070Y-83427298D01*
X151663070Y-83427298D02*
X150663070Y-83427298D01*
X150663070Y-83427298D02*
X150663070Y-83093965D01*
X151663070Y-82260632D02*
X150663070Y-82260632D01*
X150663070Y-82260632D02*
X151377355Y-82027299D01*
X151377355Y-82027299D02*
X150663070Y-81793965D01*
X150663070Y-81793965D02*
X151663070Y-81793965D01*
X150663070Y-81327299D02*
X150663070Y-81193965D01*
X150663070Y-81193965D02*
X150710689Y-81127299D01*
X150710689Y-81127299D02*
X150805927Y-81060632D01*
X150805927Y-81060632D02*
X150996403Y-81027299D01*
X150996403Y-81027299D02*
X151329736Y-81027299D01*
X151329736Y-81027299D02*
X151520212Y-81060632D01*
X151520212Y-81060632D02*
X151615451Y-81127299D01*
X151615451Y-81127299D02*
X151663070Y-81193965D01*
X151663070Y-81193965D02*
X151663070Y-81327299D01*
X151663070Y-81327299D02*
X151615451Y-81393965D01*
X151615451Y-81393965D02*
X151520212Y-81460632D01*
X151520212Y-81460632D02*
X151329736Y-81493965D01*
X151329736Y-81493965D02*
X150996403Y-81493965D01*
X150996403Y-81493965D02*
X150805927Y-81460632D01*
X150805927Y-81460632D02*
X150710689Y-81393965D01*
X150710689Y-81393965D02*
X150663070Y-81327299D01*
X151663070Y-80727299D02*
X150663070Y-80727299D01*
X150663070Y-80727299D02*
X150663070Y-80560632D01*
X150663070Y-80560632D02*
X150710689Y-80460632D01*
X150710689Y-80460632D02*
X150805927Y-80393966D01*
X150805927Y-80393966D02*
X150901165Y-80360632D01*
X150901165Y-80360632D02*
X151091641Y-80327299D01*
X151091641Y-80327299D02*
X151234498Y-80327299D01*
X151234498Y-80327299D02*
X151424974Y-80360632D01*
X151424974Y-80360632D02*
X151520212Y-80393966D01*
X151520212Y-80393966D02*
X151615451Y-80460632D01*
X151615451Y-80460632D02*
X151663070Y-80560632D01*
X151663070Y-80560632D02*
X151663070Y-80727299D01*
X151139260Y-80027299D02*
X151139260Y-79793966D01*
X151663070Y-79693966D02*
X151663070Y-80027299D01*
X151663070Y-80027299D02*
X150663070Y-80027299D01*
X150663070Y-80027299D02*
X150663070Y-79693966D01*
X150663070Y-78727300D02*
X150663070Y-78593966D01*
X150663070Y-78593966D02*
X150710689Y-78527300D01*
X150710689Y-78527300D02*
X150805927Y-78460633D01*
X150805927Y-78460633D02*
X150996403Y-78427300D01*
X150996403Y-78427300D02*
X151329736Y-78427300D01*
X151329736Y-78427300D02*
X151520212Y-78460633D01*
X151520212Y-78460633D02*
X151615451Y-78527300D01*
X151615451Y-78527300D02*
X151663070Y-78593966D01*
X151663070Y-78593966D02*
X151663070Y-78727300D01*
X151663070Y-78727300D02*
X151615451Y-78793966D01*
X151615451Y-78793966D02*
X151520212Y-78860633D01*
X151520212Y-78860633D02*
X151329736Y-78893966D01*
X151329736Y-78893966D02*
X150996403Y-78893966D01*
X150996403Y-78893966D02*
X150805927Y-78860633D01*
X150805927Y-78860633D02*
X150710689Y-78793966D01*
X150710689Y-78793966D02*
X150663070Y-78727300D01*
X151139260Y-77893967D02*
X151139260Y-78127300D01*
X151663070Y-78127300D02*
X150663070Y-78127300D01*
X150663070Y-78127300D02*
X150663070Y-77793967D01*
X151139260Y-77293967D02*
X151139260Y-77527300D01*
X151663070Y-77527300D02*
X150663070Y-77527300D01*
X150663070Y-77527300D02*
X150663070Y-77193967D01*
D12*
X123395253Y-90317803D02*
X123776205Y-90317803D01*
X123290491Y-90546375D02*
X123657158Y-89746375D01*
X123657158Y-89746375D02*
X123823824Y-90546375D01*
X124090491Y-90546375D02*
X124157157Y-90013041D01*
X124138110Y-90165422D02*
X124185729Y-90089232D01*
X124185729Y-90089232D02*
X124228586Y-90051137D01*
X124228586Y-90051137D02*
X124309538Y-90013041D01*
X124309538Y-90013041D02*
X124385729Y-90013041D01*
X124538110Y-90013041D02*
X124842872Y-90013041D01*
X124685729Y-89746375D02*
X124600015Y-90432089D01*
X124600015Y-90432089D02*
X124628586Y-90508280D01*
X124628586Y-90508280D02*
X124700015Y-90546375D01*
X124700015Y-90546375D02*
X124776205Y-90546375D01*
X125352396Y-90508280D02*
X125271443Y-90546375D01*
X125271443Y-90546375D02*
X125119062Y-90546375D01*
X125119062Y-90546375D02*
X125047634Y-90508280D01*
X125047634Y-90508280D02*
X125019062Y-90432089D01*
X125019062Y-90432089D02*
X125057158Y-90127327D01*
X125057158Y-90127327D02*
X125104777Y-90051137D01*
X125104777Y-90051137D02*
X125185729Y-90013041D01*
X125185729Y-90013041D02*
X125338110Y-90013041D01*
X125338110Y-90013041D02*
X125409538Y-90051137D01*
X125409538Y-90051137D02*
X125438110Y-90127327D01*
X125438110Y-90127327D02*
X125428586Y-90203518D01*
X125428586Y-90203518D02*
X125038110Y-90279708D01*
X125728586Y-90546375D02*
X125795252Y-90013041D01*
X125785729Y-90089232D02*
X125828586Y-90051137D01*
X125828586Y-90051137D02*
X125909538Y-90013041D01*
X125909538Y-90013041D02*
X126023824Y-90013041D01*
X126023824Y-90013041D02*
X126095252Y-90051137D01*
X126095252Y-90051137D02*
X126123824Y-90127327D01*
X126123824Y-90127327D02*
X126071443Y-90546375D01*
X126123824Y-90127327D02*
X126171443Y-90051137D01*
X126171443Y-90051137D02*
X126252395Y-90013041D01*
X126252395Y-90013041D02*
X126366681Y-90013041D01*
X126366681Y-90013041D02*
X126438110Y-90051137D01*
X126438110Y-90051137D02*
X126466681Y-90127327D01*
X126466681Y-90127327D02*
X126414300Y-90546375D01*
X127404777Y-90546375D02*
X127504777Y-89746375D01*
X127457158Y-90127327D02*
X127914301Y-90127327D01*
X127861920Y-90546375D02*
X127961920Y-89746375D01*
X128252396Y-90470184D02*
X128285729Y-90508280D01*
X128285729Y-90508280D02*
X128242872Y-90546375D01*
X128242872Y-90546375D02*
X128209538Y-90508280D01*
X128209538Y-90508280D02*
X128252396Y-90470184D01*
X128252396Y-90470184D02*
X128242872Y-90546375D01*
D14*
X103918964Y-80625471D02*
X103804678Y-80625471D01*
X103804678Y-80625471D02*
X103743964Y-80654042D01*
X103743964Y-80654042D02*
X103711821Y-80682614D01*
X103711821Y-80682614D02*
X103643964Y-80768328D01*
X103643964Y-80768328D02*
X103601107Y-80882614D01*
X103601107Y-80882614D02*
X103572536Y-81111185D01*
X103572536Y-81111185D02*
X103593964Y-81168328D01*
X103593964Y-81168328D02*
X103618964Y-81196900D01*
X103618964Y-81196900D02*
X103672536Y-81225471D01*
X103672536Y-81225471D02*
X103786821Y-81225471D01*
X103786821Y-81225471D02*
X103847536Y-81196900D01*
X103847536Y-81196900D02*
X103879678Y-81168328D01*
X103879678Y-81168328D02*
X103915393Y-81111185D01*
X103915393Y-81111185D02*
X103933250Y-80968328D01*
X103933250Y-80968328D02*
X103911821Y-80911185D01*
X103911821Y-80911185D02*
X103886821Y-80882614D01*
X103886821Y-80882614D02*
X103833250Y-80854042D01*
X103833250Y-80854042D02*
X103718964Y-80854042D01*
X103718964Y-80854042D02*
X103658250Y-80882614D01*
X103658250Y-80882614D02*
X103626107Y-80911185D01*
X103626107Y-80911185D02*
X103590393Y-80968328D01*
X104347536Y-80625471D02*
X104404679Y-80625471D01*
X104404679Y-80625471D02*
X104458250Y-80654042D01*
X104458250Y-80654042D02*
X104483250Y-80682614D01*
X104483250Y-80682614D02*
X104504679Y-80739757D01*
X104504679Y-80739757D02*
X104518965Y-80854042D01*
X104518965Y-80854042D02*
X104501107Y-80996900D01*
X104501107Y-80996900D02*
X104458250Y-81111185D01*
X104458250Y-81111185D02*
X104422536Y-81168328D01*
X104422536Y-81168328D02*
X104390393Y-81196900D01*
X104390393Y-81196900D02*
X104329679Y-81225471D01*
X104329679Y-81225471D02*
X104272536Y-81225471D01*
X104272536Y-81225471D02*
X104218965Y-81196900D01*
X104218965Y-81196900D02*
X104193965Y-81168328D01*
X104193965Y-81168328D02*
X104172536Y-81111185D01*
X104172536Y-81111185D02*
X104158250Y-80996900D01*
X104158250Y-80996900D02*
X104176107Y-80854042D01*
X104176107Y-80854042D02*
X104218965Y-80739757D01*
X104218965Y-80739757D02*
X104254679Y-80682614D01*
X104254679Y-80682614D02*
X104286822Y-80654042D01*
X104286822Y-80654042D02*
X104347536Y-80625471D01*
X104747536Y-80625471D02*
X104815394Y-81225471D01*
X104815394Y-81225471D02*
X104983251Y-80796900D01*
X104983251Y-80796900D02*
X105043965Y-81225471D01*
X105043965Y-81225471D02*
X105261822Y-80625471D01*
D12*
X123406358Y-88933527D02*
X123673024Y-88933527D01*
X123734929Y-89352575D02*
X123353977Y-89352575D01*
X123353977Y-89352575D02*
X123453977Y-88552575D01*
X123453977Y-88552575D02*
X123834929Y-88552575D01*
X124044453Y-89314480D02*
X124153977Y-89352575D01*
X124153977Y-89352575D02*
X124344453Y-89352575D01*
X124344453Y-89352575D02*
X124425406Y-89314480D01*
X124425406Y-89314480D02*
X124468263Y-89276384D01*
X124468263Y-89276384D02*
X124515882Y-89200194D01*
X124515882Y-89200194D02*
X124525406Y-89124003D01*
X124525406Y-89124003D02*
X124496834Y-89047813D01*
X124496834Y-89047813D02*
X124463501Y-89009718D01*
X124463501Y-89009718D02*
X124392073Y-88971622D01*
X124392073Y-88971622D02*
X124244453Y-88933527D01*
X124244453Y-88933527D02*
X124173025Y-88895432D01*
X124173025Y-88895432D02*
X124139692Y-88857337D01*
X124139692Y-88857337D02*
X124111120Y-88781146D01*
X124111120Y-88781146D02*
X124120644Y-88704956D01*
X124120644Y-88704956D02*
X124168263Y-88628765D01*
X124168263Y-88628765D02*
X124211120Y-88590670D01*
X124211120Y-88590670D02*
X124292073Y-88552575D01*
X124292073Y-88552575D02*
X124482549Y-88552575D01*
X124482549Y-88552575D02*
X124592073Y-88590670D01*
X124839692Y-89352575D02*
X124939692Y-88552575D01*
X124939692Y-88552575D02*
X125244454Y-88552575D01*
X125244454Y-88552575D02*
X125315882Y-88590670D01*
X125315882Y-88590670D02*
X125349216Y-88628765D01*
X125349216Y-88628765D02*
X125377787Y-88704956D01*
X125377787Y-88704956D02*
X125363501Y-88819241D01*
X125363501Y-88819241D02*
X125315882Y-88895432D01*
X125315882Y-88895432D02*
X125273025Y-88933527D01*
X125273025Y-88933527D02*
X125192073Y-88971622D01*
X125192073Y-88971622D02*
X124887311Y-88971622D01*
X126249216Y-89352575D02*
X126349216Y-88552575D01*
X126349216Y-88552575D02*
X126653978Y-88552575D01*
X126653978Y-88552575D02*
X126725406Y-88590670D01*
X126725406Y-88590670D02*
X126758740Y-88628765D01*
X126758740Y-88628765D02*
X126787311Y-88704956D01*
X126787311Y-88704956D02*
X126773025Y-88819241D01*
X126773025Y-88819241D02*
X126725406Y-88895432D01*
X126725406Y-88895432D02*
X126682549Y-88933527D01*
X126682549Y-88933527D02*
X126601597Y-88971622D01*
X126601597Y-88971622D02*
X126296835Y-88971622D01*
X127163502Y-89352575D02*
X127092073Y-89314480D01*
X127092073Y-89314480D02*
X127058740Y-89276384D01*
X127058740Y-89276384D02*
X127030168Y-89200194D01*
X127030168Y-89200194D02*
X127058740Y-88971622D01*
X127058740Y-88971622D02*
X127106359Y-88895432D01*
X127106359Y-88895432D02*
X127149216Y-88857337D01*
X127149216Y-88857337D02*
X127230168Y-88819241D01*
X127230168Y-88819241D02*
X127344454Y-88819241D01*
X127344454Y-88819241D02*
X127415882Y-88857337D01*
X127415882Y-88857337D02*
X127449216Y-88895432D01*
X127449216Y-88895432D02*
X127477787Y-88971622D01*
X127477787Y-88971622D02*
X127449216Y-89200194D01*
X127449216Y-89200194D02*
X127401597Y-89276384D01*
X127401597Y-89276384D02*
X127358740Y-89314480D01*
X127358740Y-89314480D02*
X127277787Y-89352575D01*
X127277787Y-89352575D02*
X127163502Y-89352575D01*
X127763502Y-88819241D02*
X127849216Y-89352575D01*
X127849216Y-89352575D02*
X128049216Y-88971622D01*
X128049216Y-88971622D02*
X128153978Y-89352575D01*
X128153978Y-89352575D02*
X128373026Y-88819241D01*
X128920645Y-89314480D02*
X128839692Y-89352575D01*
X128839692Y-89352575D02*
X128687311Y-89352575D01*
X128687311Y-89352575D02*
X128615883Y-89314480D01*
X128615883Y-89314480D02*
X128587311Y-89238289D01*
X128587311Y-89238289D02*
X128625407Y-88933527D01*
X128625407Y-88933527D02*
X128673026Y-88857337D01*
X128673026Y-88857337D02*
X128753978Y-88819241D01*
X128753978Y-88819241D02*
X128906359Y-88819241D01*
X128906359Y-88819241D02*
X128977787Y-88857337D01*
X128977787Y-88857337D02*
X129006359Y-88933527D01*
X129006359Y-88933527D02*
X128996835Y-89009718D01*
X128996835Y-89009718D02*
X128606359Y-89085908D01*
X129296835Y-89352575D02*
X129363501Y-88819241D01*
X129344454Y-88971622D02*
X129392073Y-88895432D01*
X129392073Y-88895432D02*
X129434930Y-88857337D01*
X129434930Y-88857337D02*
X129515882Y-88819241D01*
X129515882Y-88819241D02*
X129592073Y-88819241D01*
X130401597Y-89352575D02*
X130501597Y-88552575D01*
X130501597Y-88552575D02*
X130692073Y-88552575D01*
X130692073Y-88552575D02*
X130801597Y-88590670D01*
X130801597Y-88590670D02*
X130868263Y-88666860D01*
X130868263Y-88666860D02*
X130896835Y-88743051D01*
X130896835Y-88743051D02*
X130915883Y-88895432D01*
X130915883Y-88895432D02*
X130901597Y-89009718D01*
X130901597Y-89009718D02*
X130844454Y-89162099D01*
X130844454Y-89162099D02*
X130796835Y-89238289D01*
X130796835Y-89238289D02*
X130711121Y-89314480D01*
X130711121Y-89314480D02*
X130592073Y-89352575D01*
X130592073Y-89352575D02*
X130401597Y-89352575D01*
X131511121Y-89314480D02*
X131430168Y-89352575D01*
X131430168Y-89352575D02*
X131277787Y-89352575D01*
X131277787Y-89352575D02*
X131206359Y-89314480D01*
X131206359Y-89314480D02*
X131177787Y-89238289D01*
X131177787Y-89238289D02*
X131215883Y-88933527D01*
X131215883Y-88933527D02*
X131263502Y-88857337D01*
X131263502Y-88857337D02*
X131344454Y-88819241D01*
X131344454Y-88819241D02*
X131496835Y-88819241D01*
X131496835Y-88819241D02*
X131568263Y-88857337D01*
X131568263Y-88857337D02*
X131596835Y-88933527D01*
X131596835Y-88933527D02*
X131587311Y-89009718D01*
X131587311Y-89009718D02*
X131196835Y-89085908D01*
X132234930Y-89314480D02*
X132153977Y-89352575D01*
X132153977Y-89352575D02*
X132001597Y-89352575D01*
X132001597Y-89352575D02*
X131930168Y-89314480D01*
X131930168Y-89314480D02*
X131896835Y-89276384D01*
X131896835Y-89276384D02*
X131868263Y-89200194D01*
X131868263Y-89200194D02*
X131896835Y-88971622D01*
X131896835Y-88971622D02*
X131944454Y-88895432D01*
X131944454Y-88895432D02*
X131987311Y-88857337D01*
X131987311Y-88857337D02*
X132068263Y-88819241D01*
X132068263Y-88819241D02*
X132220644Y-88819241D01*
X132220644Y-88819241D02*
X132292073Y-88857337D01*
X132573025Y-89352575D02*
X132673025Y-88552575D01*
X132687311Y-89047813D02*
X132877787Y-89352575D01*
X132944453Y-88819241D02*
X132601596Y-89124003D01*
D11*
X172622882Y-75229019D02*
X172051454Y-75229019D01*
X172337168Y-75229019D02*
X172337168Y-74229019D01*
X172337168Y-74229019D02*
X172241930Y-74371876D01*
X172241930Y-74371876D02*
X172146692Y-74467114D01*
X172146692Y-74467114D02*
X172051454Y-74514733D01*
D12*
X142396043Y-97010680D02*
X142510329Y-97048775D01*
X142510329Y-97048775D02*
X142700805Y-97048775D01*
X142700805Y-97048775D02*
X142776996Y-97010680D01*
X142776996Y-97010680D02*
X142815091Y-96972584D01*
X142815091Y-96972584D02*
X142853186Y-96896394D01*
X142853186Y-96896394D02*
X142853186Y-96820203D01*
X142853186Y-96820203D02*
X142815091Y-96744013D01*
X142815091Y-96744013D02*
X142776996Y-96705918D01*
X142776996Y-96705918D02*
X142700805Y-96667822D01*
X142700805Y-96667822D02*
X142548424Y-96629727D01*
X142548424Y-96629727D02*
X142472234Y-96591632D01*
X142472234Y-96591632D02*
X142434139Y-96553537D01*
X142434139Y-96553537D02*
X142396043Y-96477346D01*
X142396043Y-96477346D02*
X142396043Y-96401156D01*
X142396043Y-96401156D02*
X142434139Y-96324965D01*
X142434139Y-96324965D02*
X142472234Y-96286870D01*
X142472234Y-96286870D02*
X142548424Y-96248775D01*
X142548424Y-96248775D02*
X142738901Y-96248775D01*
X142738901Y-96248775D02*
X142853186Y-96286870D01*
X143196044Y-96629727D02*
X143462710Y-96629727D01*
X143576996Y-97048775D02*
X143196044Y-97048775D01*
X143196044Y-97048775D02*
X143196044Y-96248775D01*
X143196044Y-96248775D02*
X143576996Y-96248775D01*
X144376997Y-97048775D02*
X144110330Y-96667822D01*
X143919854Y-97048775D02*
X143919854Y-96248775D01*
X143919854Y-96248775D02*
X144224616Y-96248775D01*
X144224616Y-96248775D02*
X144300806Y-96286870D01*
X144300806Y-96286870D02*
X144338901Y-96324965D01*
X144338901Y-96324965D02*
X144376997Y-96401156D01*
X144376997Y-96401156D02*
X144376997Y-96515441D01*
X144376997Y-96515441D02*
X144338901Y-96591632D01*
X144338901Y-96591632D02*
X144300806Y-96629727D01*
X144300806Y-96629727D02*
X144224616Y-96667822D01*
X144224616Y-96667822D02*
X143919854Y-96667822D01*
X144605568Y-96248775D02*
X144872235Y-97048775D01*
X144872235Y-97048775D02*
X145138901Y-96248775D01*
X145557949Y-96248775D02*
X145710330Y-96248775D01*
X145710330Y-96248775D02*
X145786520Y-96286870D01*
X145786520Y-96286870D02*
X145862711Y-96363060D01*
X145862711Y-96363060D02*
X145900806Y-96515441D01*
X145900806Y-96515441D02*
X145900806Y-96782108D01*
X145900806Y-96782108D02*
X145862711Y-96934489D01*
X145862711Y-96934489D02*
X145786520Y-97010680D01*
X145786520Y-97010680D02*
X145710330Y-97048775D01*
X145710330Y-97048775D02*
X145557949Y-97048775D01*
X145557949Y-97048775D02*
X145481758Y-97010680D01*
X145481758Y-97010680D02*
X145405568Y-96934489D01*
X145405568Y-96934489D02*
X145367472Y-96782108D01*
X145367472Y-96782108D02*
X145367472Y-96515441D01*
X145367472Y-96515441D02*
X145405568Y-96363060D01*
X145405568Y-96363060D02*
X145481758Y-96286870D01*
X145481758Y-96286870D02*
X145557949Y-96248775D01*
D11*
X107113101Y-107315580D02*
X107065482Y-107363200D01*
X107065482Y-107363200D02*
X106922625Y-107410819D01*
X106922625Y-107410819D02*
X106827387Y-107410819D01*
X106827387Y-107410819D02*
X106684530Y-107363200D01*
X106684530Y-107363200D02*
X106589292Y-107267961D01*
X106589292Y-107267961D02*
X106541673Y-107172723D01*
X106541673Y-107172723D02*
X106494054Y-106982247D01*
X106494054Y-106982247D02*
X106494054Y-106839390D01*
X106494054Y-106839390D02*
X106541673Y-106648914D01*
X106541673Y-106648914D02*
X106589292Y-106553676D01*
X106589292Y-106553676D02*
X106684530Y-106458438D01*
X106684530Y-106458438D02*
X106827387Y-106410819D01*
X106827387Y-106410819D02*
X106922625Y-106410819D01*
X106922625Y-106410819D02*
X107065482Y-106458438D01*
X107065482Y-106458438D02*
X107113101Y-106506057D01*
X108303578Y-107410819D02*
X108303578Y-106410819D01*
X108303578Y-106410819D02*
X108684530Y-106410819D01*
X108684530Y-106410819D02*
X108779768Y-106458438D01*
X108779768Y-106458438D02*
X108827387Y-106506057D01*
X108827387Y-106506057D02*
X108875006Y-106601295D01*
X108875006Y-106601295D02*
X108875006Y-106744152D01*
X108875006Y-106744152D02*
X108827387Y-106839390D01*
X108827387Y-106839390D02*
X108779768Y-106887009D01*
X108779768Y-106887009D02*
X108684530Y-106934628D01*
X108684530Y-106934628D02*
X108303578Y-106934628D01*
X109494054Y-106410819D02*
X109684530Y-106410819D01*
X109684530Y-106410819D02*
X109779768Y-106458438D01*
X109779768Y-106458438D02*
X109875006Y-106553676D01*
X109875006Y-106553676D02*
X109922625Y-106744152D01*
X109922625Y-106744152D02*
X109922625Y-107077485D01*
X109922625Y-107077485D02*
X109875006Y-107267961D01*
X109875006Y-107267961D02*
X109779768Y-107363200D01*
X109779768Y-107363200D02*
X109684530Y-107410819D01*
X109684530Y-107410819D02*
X109494054Y-107410819D01*
X109494054Y-107410819D02*
X109398816Y-107363200D01*
X109398816Y-107363200D02*
X109303578Y-107267961D01*
X109303578Y-107267961D02*
X109255959Y-107077485D01*
X109255959Y-107077485D02*
X109255959Y-106744152D01*
X109255959Y-106744152D02*
X109303578Y-106553676D01*
X109303578Y-106553676D02*
X109398816Y-106458438D01*
X109398816Y-106458438D02*
X109494054Y-106410819D01*
X110303578Y-107363200D02*
X110446435Y-107410819D01*
X110446435Y-107410819D02*
X110684530Y-107410819D01*
X110684530Y-107410819D02*
X110779768Y-107363200D01*
X110779768Y-107363200D02*
X110827387Y-107315580D01*
X110827387Y-107315580D02*
X110875006Y-107220342D01*
X110875006Y-107220342D02*
X110875006Y-107125104D01*
X110875006Y-107125104D02*
X110827387Y-107029866D01*
X110827387Y-107029866D02*
X110779768Y-106982247D01*
X110779768Y-106982247D02*
X110684530Y-106934628D01*
X110684530Y-106934628D02*
X110494054Y-106887009D01*
X110494054Y-106887009D02*
X110398816Y-106839390D01*
X110398816Y-106839390D02*
X110351197Y-106791771D01*
X110351197Y-106791771D02*
X110303578Y-106696533D01*
X110303578Y-106696533D02*
X110303578Y-106601295D01*
X110303578Y-106601295D02*
X110351197Y-106506057D01*
X110351197Y-106506057D02*
X110398816Y-106458438D01*
X110398816Y-106458438D02*
X110494054Y-106410819D01*
X110494054Y-106410819D02*
X110732149Y-106410819D01*
X110732149Y-106410819D02*
X110875006Y-106458438D01*
D14*
X151646914Y-68250436D02*
X151732629Y-68279007D01*
X151732629Y-68279007D02*
X151875486Y-68279007D01*
X151875486Y-68279007D02*
X151932629Y-68250436D01*
X151932629Y-68250436D02*
X151961200Y-68221864D01*
X151961200Y-68221864D02*
X151989771Y-68164721D01*
X151989771Y-68164721D02*
X151989771Y-68107578D01*
X151989771Y-68107578D02*
X151961200Y-68050436D01*
X151961200Y-68050436D02*
X151932629Y-68021864D01*
X151932629Y-68021864D02*
X151875486Y-67993293D01*
X151875486Y-67993293D02*
X151761200Y-67964721D01*
X151761200Y-67964721D02*
X151704057Y-67936150D01*
X151704057Y-67936150D02*
X151675486Y-67907578D01*
X151675486Y-67907578D02*
X151646914Y-67850436D01*
X151646914Y-67850436D02*
X151646914Y-67793293D01*
X151646914Y-67793293D02*
X151675486Y-67736150D01*
X151675486Y-67736150D02*
X151704057Y-67707578D01*
X151704057Y-67707578D02*
X151761200Y-67679007D01*
X151761200Y-67679007D02*
X151904057Y-67679007D01*
X151904057Y-67679007D02*
X151989771Y-67707578D01*
X152218343Y-68107578D02*
X152504058Y-68107578D01*
X152161200Y-68279007D02*
X152361200Y-67679007D01*
X152361200Y-67679007D02*
X152561200Y-68279007D01*
X152961201Y-67964721D02*
X152761201Y-67964721D01*
X152761201Y-68279007D02*
X152761201Y-67679007D01*
X152761201Y-67679007D02*
X153046915Y-67679007D01*
X153275487Y-67964721D02*
X153475487Y-67964721D01*
X153561201Y-68279007D02*
X153275487Y-68279007D01*
X153275487Y-68279007D02*
X153275487Y-67679007D01*
X153275487Y-67679007D02*
X153561201Y-67679007D01*
X154389772Y-67679007D02*
X154504058Y-67679007D01*
X154504058Y-67679007D02*
X154561201Y-67707578D01*
X154561201Y-67707578D02*
X154618344Y-67764721D01*
X154618344Y-67764721D02*
X154646915Y-67879007D01*
X154646915Y-67879007D02*
X154646915Y-68079007D01*
X154646915Y-68079007D02*
X154618344Y-68193293D01*
X154618344Y-68193293D02*
X154561201Y-68250436D01*
X154561201Y-68250436D02*
X154504058Y-68279007D01*
X154504058Y-68279007D02*
X154389772Y-68279007D01*
X154389772Y-68279007D02*
X154332630Y-68250436D01*
X154332630Y-68250436D02*
X154275487Y-68193293D01*
X154275487Y-68193293D02*
X154246915Y-68079007D01*
X154246915Y-68079007D02*
X154246915Y-67879007D01*
X154246915Y-67879007D02*
X154275487Y-67764721D01*
X154275487Y-67764721D02*
X154332630Y-67707578D01*
X154332630Y-67707578D02*
X154389772Y-67679007D01*
X155104058Y-67964721D02*
X154904058Y-67964721D01*
X154904058Y-68279007D02*
X154904058Y-67679007D01*
X154904058Y-67679007D02*
X155189772Y-67679007D01*
X155618344Y-67964721D02*
X155418344Y-67964721D01*
X155418344Y-68279007D02*
X155418344Y-67679007D01*
X155418344Y-67679007D02*
X155704058Y-67679007D01*
X151675486Y-68644973D02*
X151675486Y-69130687D01*
X151675486Y-69130687D02*
X151704057Y-69187830D01*
X151704057Y-69187830D02*
X151732629Y-69216402D01*
X151732629Y-69216402D02*
X151789771Y-69244973D01*
X151789771Y-69244973D02*
X151904057Y-69244973D01*
X151904057Y-69244973D02*
X151961200Y-69216402D01*
X151961200Y-69216402D02*
X151989771Y-69187830D01*
X151989771Y-69187830D02*
X152018343Y-69130687D01*
X152018343Y-69130687D02*
X152018343Y-68644973D01*
X152275485Y-69216402D02*
X152361200Y-69244973D01*
X152361200Y-69244973D02*
X152504057Y-69244973D01*
X152504057Y-69244973D02*
X152561200Y-69216402D01*
X152561200Y-69216402D02*
X152589771Y-69187830D01*
X152589771Y-69187830D02*
X152618342Y-69130687D01*
X152618342Y-69130687D02*
X152618342Y-69073544D01*
X152618342Y-69073544D02*
X152589771Y-69016402D01*
X152589771Y-69016402D02*
X152561200Y-68987830D01*
X152561200Y-68987830D02*
X152504057Y-68959259D01*
X152504057Y-68959259D02*
X152389771Y-68930687D01*
X152389771Y-68930687D02*
X152332628Y-68902116D01*
X152332628Y-68902116D02*
X152304057Y-68873544D01*
X152304057Y-68873544D02*
X152275485Y-68816402D01*
X152275485Y-68816402D02*
X152275485Y-68759259D01*
X152275485Y-68759259D02*
X152304057Y-68702116D01*
X152304057Y-68702116D02*
X152332628Y-68673544D01*
X152332628Y-68673544D02*
X152389771Y-68644973D01*
X152389771Y-68644973D02*
X152532628Y-68644973D01*
X152532628Y-68644973D02*
X152618342Y-68673544D01*
X153218343Y-69244973D02*
X153018343Y-68959259D01*
X152875486Y-69244973D02*
X152875486Y-68644973D01*
X152875486Y-68644973D02*
X153104057Y-68644973D01*
X153104057Y-68644973D02*
X153161200Y-68673544D01*
X153161200Y-68673544D02*
X153189771Y-68702116D01*
X153189771Y-68702116D02*
X153218343Y-68759259D01*
X153218343Y-68759259D02*
X153218343Y-68844973D01*
X153218343Y-68844973D02*
X153189771Y-68902116D01*
X153189771Y-68902116D02*
X153161200Y-68930687D01*
X153161200Y-68930687D02*
X153104057Y-68959259D01*
X153104057Y-68959259D02*
X152875486Y-68959259D01*
X153904057Y-69216402D02*
X153989772Y-69244973D01*
X153989772Y-69244973D02*
X154132629Y-69244973D01*
X154132629Y-69244973D02*
X154189772Y-69216402D01*
X154189772Y-69216402D02*
X154218343Y-69187830D01*
X154218343Y-69187830D02*
X154246914Y-69130687D01*
X154246914Y-69130687D02*
X154246914Y-69073544D01*
X154246914Y-69073544D02*
X154218343Y-69016402D01*
X154218343Y-69016402D02*
X154189772Y-68987830D01*
X154189772Y-68987830D02*
X154132629Y-68959259D01*
X154132629Y-68959259D02*
X154018343Y-68930687D01*
X154018343Y-68930687D02*
X153961200Y-68902116D01*
X153961200Y-68902116D02*
X153932629Y-68873544D01*
X153932629Y-68873544D02*
X153904057Y-68816402D01*
X153904057Y-68816402D02*
X153904057Y-68759259D01*
X153904057Y-68759259D02*
X153932629Y-68702116D01*
X153932629Y-68702116D02*
X153961200Y-68673544D01*
X153961200Y-68673544D02*
X154018343Y-68644973D01*
X154018343Y-68644973D02*
X154161200Y-68644973D01*
X154161200Y-68644973D02*
X154246914Y-68673544D01*
X154446915Y-68644973D02*
X154589772Y-69244973D01*
X154589772Y-69244973D02*
X154704058Y-68816402D01*
X154704058Y-68816402D02*
X154818343Y-69244973D01*
X154818343Y-69244973D02*
X154961201Y-68644973D01*
D10*
X158226942Y-83271668D02*
X158198371Y-83328811D01*
X158198371Y-83328811D02*
X158198371Y-83414525D01*
X158198371Y-83414525D02*
X158226942Y-83500239D01*
X158226942Y-83500239D02*
X158284085Y-83557382D01*
X158284085Y-83557382D02*
X158341228Y-83585953D01*
X158341228Y-83585953D02*
X158455514Y-83614525D01*
X158455514Y-83614525D02*
X158541228Y-83614525D01*
X158541228Y-83614525D02*
X158655514Y-83585953D01*
X158655514Y-83585953D02*
X158712657Y-83557382D01*
X158712657Y-83557382D02*
X158769800Y-83500239D01*
X158769800Y-83500239D02*
X158798371Y-83414525D01*
X158798371Y-83414525D02*
X158798371Y-83357382D01*
X158798371Y-83357382D02*
X158769800Y-83271668D01*
X158769800Y-83271668D02*
X158741228Y-83243096D01*
X158741228Y-83243096D02*
X158541228Y-83243096D01*
X158541228Y-83243096D02*
X158541228Y-83357382D01*
X158798371Y-82528810D02*
X158198371Y-82528810D01*
X158198371Y-82528810D02*
X158198371Y-82385953D01*
X158198371Y-82385953D02*
X158226942Y-82300239D01*
X158226942Y-82300239D02*
X158284085Y-82243096D01*
X158284085Y-82243096D02*
X158341228Y-82214525D01*
X158341228Y-82214525D02*
X158455514Y-82185953D01*
X158455514Y-82185953D02*
X158541228Y-82185953D01*
X158541228Y-82185953D02*
X158655514Y-82214525D01*
X158655514Y-82214525D02*
X158712657Y-82243096D01*
X158712657Y-82243096D02*
X158769800Y-82300239D01*
X158769800Y-82300239D02*
X158798371Y-82385953D01*
X158798371Y-82385953D02*
X158798371Y-82528810D01*
X158626942Y-81957382D02*
X158626942Y-81671668D01*
X158798371Y-82014525D02*
X158198371Y-81814525D01*
X158198371Y-81814525D02*
X158798371Y-81614525D01*
X158741228Y-80614524D02*
X158769800Y-80643096D01*
X158769800Y-80643096D02*
X158798371Y-80728810D01*
X158798371Y-80728810D02*
X158798371Y-80785953D01*
X158798371Y-80785953D02*
X158769800Y-80871667D01*
X158769800Y-80871667D02*
X158712657Y-80928810D01*
X158712657Y-80928810D02*
X158655514Y-80957381D01*
X158655514Y-80957381D02*
X158541228Y-80985953D01*
X158541228Y-80985953D02*
X158455514Y-80985953D01*
X158455514Y-80985953D02*
X158341228Y-80957381D01*
X158341228Y-80957381D02*
X158284085Y-80928810D01*
X158284085Y-80928810D02*
X158226942Y-80871667D01*
X158226942Y-80871667D02*
X158198371Y-80785953D01*
X158198371Y-80785953D02*
X158198371Y-80728810D01*
X158198371Y-80728810D02*
X158226942Y-80643096D01*
X158226942Y-80643096D02*
X158255514Y-80614524D01*
X158798371Y-80071667D02*
X158798371Y-80357381D01*
X158798371Y-80357381D02*
X158198371Y-80357381D01*
X158198371Y-79471667D02*
X158198371Y-79100239D01*
X158198371Y-79100239D02*
X158426942Y-79300239D01*
X158426942Y-79300239D02*
X158426942Y-79214524D01*
X158426942Y-79214524D02*
X158455514Y-79157382D01*
X158455514Y-79157382D02*
X158484085Y-79128810D01*
X158484085Y-79128810D02*
X158541228Y-79100239D01*
X158541228Y-79100239D02*
X158684085Y-79100239D01*
X158684085Y-79100239D02*
X158741228Y-79128810D01*
X158741228Y-79128810D02*
X158769800Y-79157382D01*
X158769800Y-79157382D02*
X158798371Y-79214524D01*
X158798371Y-79214524D02*
X158798371Y-79385953D01*
X158798371Y-79385953D02*
X158769800Y-79443096D01*
X158769800Y-79443096D02*
X158741228Y-79471667D01*
X158198371Y-78928810D02*
X158798371Y-78728810D01*
X158798371Y-78728810D02*
X158198371Y-78528810D01*
D12*
X106467739Y-109146620D02*
X106467739Y-108613286D01*
X106467739Y-108689477D02*
X106505834Y-108651382D01*
X106505834Y-108651382D02*
X106582024Y-108613286D01*
X106582024Y-108613286D02*
X106696310Y-108613286D01*
X106696310Y-108613286D02*
X106772501Y-108651382D01*
X106772501Y-108651382D02*
X106810596Y-108727572D01*
X106810596Y-108727572D02*
X106810596Y-109146620D01*
X106810596Y-108727572D02*
X106848691Y-108651382D01*
X106848691Y-108651382D02*
X106924882Y-108613286D01*
X106924882Y-108613286D02*
X107039167Y-108613286D01*
X107039167Y-108613286D02*
X107115358Y-108651382D01*
X107115358Y-108651382D02*
X107153453Y-108727572D01*
X107153453Y-108727572D02*
X107153453Y-109146620D01*
X107534406Y-109146620D02*
X107534406Y-108613286D01*
X107534406Y-108346620D02*
X107496310Y-108384715D01*
X107496310Y-108384715D02*
X107534406Y-108422810D01*
X107534406Y-108422810D02*
X107572501Y-108384715D01*
X107572501Y-108384715D02*
X107534406Y-108346620D01*
X107534406Y-108346620D02*
X107534406Y-108422810D01*
X107915358Y-108613286D02*
X107915358Y-109146620D01*
X107915358Y-108689477D02*
X107953453Y-108651382D01*
X107953453Y-108651382D02*
X108029643Y-108613286D01*
X108029643Y-108613286D02*
X108143929Y-108613286D01*
X108143929Y-108613286D02*
X108220120Y-108651382D01*
X108220120Y-108651382D02*
X108258215Y-108727572D01*
X108258215Y-108727572D02*
X108258215Y-109146620D01*
X109667739Y-109146620D02*
X109210596Y-109146620D01*
X109439168Y-109146620D02*
X109439168Y-108346620D01*
X109439168Y-108346620D02*
X109362977Y-108460905D01*
X109362977Y-108460905D02*
X109286787Y-108537096D01*
X109286787Y-108537096D02*
X109210596Y-108575191D01*
X110391549Y-108346620D02*
X110010597Y-108346620D01*
X110010597Y-108346620D02*
X109972501Y-108727572D01*
X109972501Y-108727572D02*
X110010597Y-108689477D01*
X110010597Y-108689477D02*
X110086787Y-108651382D01*
X110086787Y-108651382D02*
X110277263Y-108651382D01*
X110277263Y-108651382D02*
X110353454Y-108689477D01*
X110353454Y-108689477D02*
X110391549Y-108727572D01*
X110391549Y-108727572D02*
X110429644Y-108803763D01*
X110429644Y-108803763D02*
X110429644Y-108994239D01*
X110429644Y-108994239D02*
X110391549Y-109070429D01*
X110391549Y-109070429D02*
X110353454Y-109108525D01*
X110353454Y-109108525D02*
X110277263Y-109146620D01*
X110277263Y-109146620D02*
X110086787Y-109146620D01*
X110086787Y-109146620D02*
X110010597Y-109108525D01*
X110010597Y-109108525D02*
X109972501Y-109070429D01*
X110658216Y-108346620D02*
X110924883Y-109146620D01*
X110924883Y-109146620D02*
X111191549Y-108346620D01*
X106467739Y-110434575D02*
X106467739Y-109901241D01*
X106467739Y-109977432D02*
X106505834Y-109939337D01*
X106505834Y-109939337D02*
X106582024Y-109901241D01*
X106582024Y-109901241D02*
X106696310Y-109901241D01*
X106696310Y-109901241D02*
X106772501Y-109939337D01*
X106772501Y-109939337D02*
X106810596Y-110015527D01*
X106810596Y-110015527D02*
X106810596Y-110434575D01*
X106810596Y-110015527D02*
X106848691Y-109939337D01*
X106848691Y-109939337D02*
X106924882Y-109901241D01*
X106924882Y-109901241D02*
X107039167Y-109901241D01*
X107039167Y-109901241D02*
X107115358Y-109939337D01*
X107115358Y-109939337D02*
X107153453Y-110015527D01*
X107153453Y-110015527D02*
X107153453Y-110434575D01*
X107877263Y-110434575D02*
X107877263Y-110015527D01*
X107877263Y-110015527D02*
X107839168Y-109939337D01*
X107839168Y-109939337D02*
X107762977Y-109901241D01*
X107762977Y-109901241D02*
X107610596Y-109901241D01*
X107610596Y-109901241D02*
X107534406Y-109939337D01*
X107877263Y-110396480D02*
X107801072Y-110434575D01*
X107801072Y-110434575D02*
X107610596Y-110434575D01*
X107610596Y-110434575D02*
X107534406Y-110396480D01*
X107534406Y-110396480D02*
X107496310Y-110320289D01*
X107496310Y-110320289D02*
X107496310Y-110244099D01*
X107496310Y-110244099D02*
X107534406Y-110167908D01*
X107534406Y-110167908D02*
X107610596Y-110129813D01*
X107610596Y-110129813D02*
X107801072Y-110129813D01*
X107801072Y-110129813D02*
X107877263Y-110091718D01*
X108182025Y-110434575D02*
X108601073Y-109901241D01*
X108182025Y-109901241D02*
X108601073Y-110434575D01*
X109477263Y-109710765D02*
X109515359Y-109672670D01*
X109515359Y-109672670D02*
X109591549Y-109634575D01*
X109591549Y-109634575D02*
X109782025Y-109634575D01*
X109782025Y-109634575D02*
X109858216Y-109672670D01*
X109858216Y-109672670D02*
X109896311Y-109710765D01*
X109896311Y-109710765D02*
X109934406Y-109786956D01*
X109934406Y-109786956D02*
X109934406Y-109863146D01*
X109934406Y-109863146D02*
X109896311Y-109977432D01*
X109896311Y-109977432D02*
X109439168Y-110434575D01*
X109439168Y-110434575D02*
X109934406Y-110434575D01*
X110620121Y-109634575D02*
X110467740Y-109634575D01*
X110467740Y-109634575D02*
X110391549Y-109672670D01*
X110391549Y-109672670D02*
X110353454Y-109710765D01*
X110353454Y-109710765D02*
X110277264Y-109825051D01*
X110277264Y-109825051D02*
X110239168Y-109977432D01*
X110239168Y-109977432D02*
X110239168Y-110282194D01*
X110239168Y-110282194D02*
X110277264Y-110358384D01*
X110277264Y-110358384D02*
X110315359Y-110396480D01*
X110315359Y-110396480D02*
X110391549Y-110434575D01*
X110391549Y-110434575D02*
X110543930Y-110434575D01*
X110543930Y-110434575D02*
X110620121Y-110396480D01*
X110620121Y-110396480D02*
X110658216Y-110358384D01*
X110658216Y-110358384D02*
X110696311Y-110282194D01*
X110696311Y-110282194D02*
X110696311Y-110091718D01*
X110696311Y-110091718D02*
X110658216Y-110015527D01*
X110658216Y-110015527D02*
X110620121Y-109977432D01*
X110620121Y-109977432D02*
X110543930Y-109939337D01*
X110543930Y-109939337D02*
X110391549Y-109939337D01*
X110391549Y-109939337D02*
X110315359Y-109977432D01*
X110315359Y-109977432D02*
X110277264Y-110015527D01*
X110277264Y-110015527D02*
X110239168Y-110091718D01*
X110924883Y-109634575D02*
X111191550Y-110434575D01*
X111191550Y-110434575D02*
X111458216Y-109634575D01*
D11*
X171934064Y-88370457D02*
X171981683Y-88322838D01*
X171981683Y-88322838D02*
X172076921Y-88275219D01*
X172076921Y-88275219D02*
X172315016Y-88275219D01*
X172315016Y-88275219D02*
X172410254Y-88322838D01*
X172410254Y-88322838D02*
X172457873Y-88370457D01*
X172457873Y-88370457D02*
X172505492Y-88465695D01*
X172505492Y-88465695D02*
X172505492Y-88560933D01*
X172505492Y-88560933D02*
X172457873Y-88703790D01*
X172457873Y-88703790D02*
X171886445Y-89275219D01*
X171886445Y-89275219D02*
X172505492Y-89275219D01*
D12*
X138992386Y-90114670D02*
X138916196Y-90076575D01*
X138916196Y-90076575D02*
X138801910Y-90076575D01*
X138801910Y-90076575D02*
X138687624Y-90114670D01*
X138687624Y-90114670D02*
X138611434Y-90190860D01*
X138611434Y-90190860D02*
X138573339Y-90267051D01*
X138573339Y-90267051D02*
X138535243Y-90419432D01*
X138535243Y-90419432D02*
X138535243Y-90533718D01*
X138535243Y-90533718D02*
X138573339Y-90686099D01*
X138573339Y-90686099D02*
X138611434Y-90762289D01*
X138611434Y-90762289D02*
X138687624Y-90838480D01*
X138687624Y-90838480D02*
X138801910Y-90876575D01*
X138801910Y-90876575D02*
X138878101Y-90876575D01*
X138878101Y-90876575D02*
X138992386Y-90838480D01*
X138992386Y-90838480D02*
X139030482Y-90800384D01*
X139030482Y-90800384D02*
X139030482Y-90533718D01*
X139030482Y-90533718D02*
X138878101Y-90533718D01*
D11*
X148632321Y-69264789D02*
X148746607Y-69302884D01*
X148746607Y-69302884D02*
X148784702Y-69340980D01*
X148784702Y-69340980D02*
X148822798Y-69417170D01*
X148822798Y-69417170D02*
X148822798Y-69531456D01*
X148822798Y-69531456D02*
X148784702Y-69607646D01*
X148784702Y-69607646D02*
X148746607Y-69645742D01*
X148746607Y-69645742D02*
X148670417Y-69683837D01*
X148670417Y-69683837D02*
X148365655Y-69683837D01*
X148365655Y-69683837D02*
X148365655Y-68883837D01*
X148365655Y-68883837D02*
X148632321Y-68883837D01*
X148632321Y-68883837D02*
X148708512Y-68921932D01*
X148708512Y-68921932D02*
X148746607Y-68960027D01*
X148746607Y-68960027D02*
X148784702Y-69036218D01*
X148784702Y-69036218D02*
X148784702Y-69112408D01*
X148784702Y-69112408D02*
X148746607Y-69188599D01*
X148746607Y-69188599D02*
X148708512Y-69226694D01*
X148708512Y-69226694D02*
X148632321Y-69264789D01*
X148632321Y-69264789D02*
X148365655Y-69264789D01*
X149318036Y-68883837D02*
X149470417Y-68883837D01*
X149470417Y-68883837D02*
X149546607Y-68921932D01*
X149546607Y-68921932D02*
X149622798Y-68998122D01*
X149622798Y-68998122D02*
X149660893Y-69150503D01*
X149660893Y-69150503D02*
X149660893Y-69417170D01*
X149660893Y-69417170D02*
X149622798Y-69569551D01*
X149622798Y-69569551D02*
X149546607Y-69645742D01*
X149546607Y-69645742D02*
X149470417Y-69683837D01*
X149470417Y-69683837D02*
X149318036Y-69683837D01*
X149318036Y-69683837D02*
X149241845Y-69645742D01*
X149241845Y-69645742D02*
X149165655Y-69569551D01*
X149165655Y-69569551D02*
X149127559Y-69417170D01*
X149127559Y-69417170D02*
X149127559Y-69150503D01*
X149127559Y-69150503D02*
X149165655Y-68998122D01*
X149165655Y-68998122D02*
X149241845Y-68921932D01*
X149241845Y-68921932D02*
X149318036Y-68883837D01*
X150156131Y-68883837D02*
X150308512Y-68883837D01*
X150308512Y-68883837D02*
X150384702Y-68921932D01*
X150384702Y-68921932D02*
X150460893Y-68998122D01*
X150460893Y-68998122D02*
X150498988Y-69150503D01*
X150498988Y-69150503D02*
X150498988Y-69417170D01*
X150498988Y-69417170D02*
X150460893Y-69569551D01*
X150460893Y-69569551D02*
X150384702Y-69645742D01*
X150384702Y-69645742D02*
X150308512Y-69683837D01*
X150308512Y-69683837D02*
X150156131Y-69683837D01*
X150156131Y-69683837D02*
X150079940Y-69645742D01*
X150079940Y-69645742D02*
X150003750Y-69569551D01*
X150003750Y-69569551D02*
X149965654Y-69417170D01*
X149965654Y-69417170D02*
X149965654Y-69150503D01*
X149965654Y-69150503D02*
X150003750Y-68998122D01*
X150003750Y-68998122D02*
X150079940Y-68921932D01*
X150079940Y-68921932D02*
X150156131Y-68883837D01*
X150727559Y-68883837D02*
X151184702Y-68883837D01*
X150956130Y-69683837D02*
X150956130Y-68883837D01*
D12*
X139284491Y-96248775D02*
X138903539Y-96248775D01*
X138903539Y-96248775D02*
X138865443Y-96629727D01*
X138865443Y-96629727D02*
X138903539Y-96591632D01*
X138903539Y-96591632D02*
X138979729Y-96553537D01*
X138979729Y-96553537D02*
X139170205Y-96553537D01*
X139170205Y-96553537D02*
X139246396Y-96591632D01*
X139246396Y-96591632D02*
X139284491Y-96629727D01*
X139284491Y-96629727D02*
X139322586Y-96705918D01*
X139322586Y-96705918D02*
X139322586Y-96896394D01*
X139322586Y-96896394D02*
X139284491Y-96972584D01*
X139284491Y-96972584D02*
X139246396Y-97010680D01*
X139246396Y-97010680D02*
X139170205Y-97048775D01*
X139170205Y-97048775D02*
X138979729Y-97048775D01*
X138979729Y-97048775D02*
X138903539Y-97010680D01*
X138903539Y-97010680D02*
X138865443Y-96972584D01*
X139551158Y-96248775D02*
X139817825Y-97048775D01*
X139817825Y-97048775D02*
X140084491Y-96248775D01*
D11*
X144543197Y-69665495D02*
X144276530Y-69284542D01*
X144086054Y-69665495D02*
X144086054Y-68865495D01*
X144086054Y-68865495D02*
X144390816Y-68865495D01*
X144390816Y-68865495D02*
X144467006Y-68903590D01*
X144467006Y-68903590D02*
X144505101Y-68941685D01*
X144505101Y-68941685D02*
X144543197Y-69017876D01*
X144543197Y-69017876D02*
X144543197Y-69132161D01*
X144543197Y-69132161D02*
X144505101Y-69208352D01*
X144505101Y-69208352D02*
X144467006Y-69246447D01*
X144467006Y-69246447D02*
X144390816Y-69284542D01*
X144390816Y-69284542D02*
X144086054Y-69284542D01*
X144847958Y-69627400D02*
X144962244Y-69665495D01*
X144962244Y-69665495D02*
X145152720Y-69665495D01*
X145152720Y-69665495D02*
X145228911Y-69627400D01*
X145228911Y-69627400D02*
X145267006Y-69589304D01*
X145267006Y-69589304D02*
X145305101Y-69513114D01*
X145305101Y-69513114D02*
X145305101Y-69436923D01*
X145305101Y-69436923D02*
X145267006Y-69360733D01*
X145267006Y-69360733D02*
X145228911Y-69322638D01*
X145228911Y-69322638D02*
X145152720Y-69284542D01*
X145152720Y-69284542D02*
X145000339Y-69246447D01*
X145000339Y-69246447D02*
X144924149Y-69208352D01*
X144924149Y-69208352D02*
X144886054Y-69170257D01*
X144886054Y-69170257D02*
X144847958Y-69094066D01*
X144847958Y-69094066D02*
X144847958Y-69017876D01*
X144847958Y-69017876D02*
X144886054Y-68941685D01*
X144886054Y-68941685D02*
X144924149Y-68903590D01*
X144924149Y-68903590D02*
X145000339Y-68865495D01*
X145000339Y-68865495D02*
X145190816Y-68865495D01*
X145190816Y-68865495D02*
X145305101Y-68903590D01*
X145533673Y-68865495D02*
X145990816Y-68865495D01*
X145762244Y-69665495D02*
X145762244Y-68865495D01*
D15*
%TO.C,R20*%
X132726959Y-100585000D02*
X133034241Y-100585000D01*
X132726959Y-99825000D02*
X133034241Y-99825000D01*
%TO.C,C87*%
X165844000Y-70470436D02*
X165844000Y-70254764D01*
X165124000Y-70470436D02*
X165124000Y-70254764D01*
%TO.C,SW4*%
X144852600Y-76481000D02*
X144852600Y-70081000D01*
X144852600Y-70081000D02*
X143652600Y-70081000D01*
X143652600Y-76481000D02*
X144852600Y-76481000D01*
X142052600Y-70081000D02*
X140852600Y-70081000D01*
X140852600Y-76481000D02*
X142052600Y-76481000D01*
X140852600Y-70081000D02*
X140852600Y-76481000D01*
%TO.C,C31*%
X111368133Y-80031164D02*
X111368133Y-80246836D01*
X110648133Y-80031164D02*
X110648133Y-80246836D01*
%TO.C,L3*%
X156198400Y-103668400D02*
X156198400Y-110508400D01*
X148658400Y-110508400D02*
X156198400Y-110508400D01*
X148658400Y-103668400D02*
X156198400Y-103668400D01*
X148658400Y-103668400D02*
X148658400Y-110508400D01*
X148278400Y-105488400D02*
X148278400Y-103608600D01*
%TO.C,C86*%
X170773436Y-73582202D02*
X170557764Y-73582202D01*
X170773436Y-72862202D02*
X170557764Y-72862202D01*
%TO.C,R48*%
X154166600Y-74651359D02*
X154166600Y-74958641D01*
X153406600Y-74651359D02*
X153406600Y-74958641D01*
%TO.C,U32*%
X159719100Y-83201000D02*
X159479100Y-82871000D01*
X159959100Y-82871000D01*
X159719100Y-83201000D01*
G36*
X159719100Y-83201000D02*
G01*
X159479100Y-82871000D01*
X159959100Y-82871000D01*
X159719100Y-83201000D01*
G37*
X161019100Y-86271000D02*
X161819100Y-86271000D01*
X161019100Y-86271000D02*
X160219100Y-86271000D01*
X161019100Y-83151000D02*
X161819100Y-83151000D01*
X161019100Y-83151000D02*
X160219100Y-83151000D01*
D16*
%TO.C,S1*%
X157816600Y-72753000D02*
G75*
G02*
X157756600Y-72753000I-30000J0D01*
G01*
X157756600Y-72753000D02*
G75*
G02*
X157816600Y-72753000I30000J0D01*
G01*
X157436600Y-73403000D02*
X157436600Y-69603000D01*
X157436600Y-69603000D02*
X151636600Y-69603000D01*
X156236600Y-72603000D02*
X152936600Y-72603000D01*
X156236600Y-71703000D02*
X156236600Y-72603000D01*
X156236600Y-71303000D02*
X152936600Y-71303000D01*
X156236600Y-70403000D02*
X156236600Y-71303000D01*
X156036600Y-72903000D02*
X153036600Y-72903000D01*
X155536600Y-72503000D02*
X155536600Y-71803000D01*
X155536600Y-71803000D02*
X154836600Y-71803000D01*
X155536600Y-71203000D02*
X155536600Y-70503000D01*
X155536600Y-70503000D02*
X154836600Y-70503000D01*
X154836600Y-72503000D02*
X155536600Y-72503000D01*
X154836600Y-71803000D02*
X154836600Y-72503000D01*
X154836600Y-71203000D02*
X155536600Y-71203000D01*
X154836600Y-70503000D02*
X154836600Y-71203000D01*
X153036600Y-72903000D02*
X153836600Y-73103000D01*
X152936600Y-72603000D02*
X152936600Y-71703000D01*
X152936600Y-71703000D02*
X156236600Y-71703000D01*
X152936600Y-71303000D02*
X152936600Y-70403000D01*
X152936600Y-70403000D02*
X156236600Y-70403000D01*
X151636600Y-73403000D02*
X157436600Y-73403000D01*
X151636600Y-69603000D02*
X151636600Y-73403000D01*
D15*
%TO.C,R13*%
X148968907Y-78514641D02*
X148968907Y-78207359D01*
X148208907Y-78514641D02*
X148208907Y-78207359D01*
%TO.C,C4*%
X116444348Y-95153000D02*
X116966852Y-95153000D01*
X116444348Y-93683000D02*
X116966852Y-93683000D01*
%TO.C,Q9*%
X116420000Y-107559203D02*
X116180000Y-107229203D01*
X116660000Y-107229203D01*
X116420000Y-107559203D01*
G36*
X116420000Y-107559203D02*
G01*
X116180000Y-107229203D01*
X116660000Y-107229203D01*
X116420000Y-107559203D01*
G37*
X117582500Y-110629203D02*
X118232500Y-110629203D01*
X117582500Y-110629203D02*
X116932500Y-110629203D01*
X117582500Y-107509203D02*
X118232500Y-107509203D01*
X117582500Y-107509203D02*
X116932500Y-107509203D01*
%TO.C,U25*%
X162513100Y-95586000D02*
X162273100Y-95256000D01*
X162753100Y-95256000D01*
X162513100Y-95586000D01*
G36*
X162513100Y-95586000D02*
G01*
X162273100Y-95256000D01*
X162753100Y-95256000D01*
X162513100Y-95586000D01*
G37*
X163813100Y-98656000D02*
X164613100Y-98656000D01*
X163813100Y-98656000D02*
X163013100Y-98656000D01*
X163813100Y-95536000D02*
X164613100Y-95536000D01*
X163813100Y-95536000D02*
X163013100Y-95536000D01*
%TO.C,R3*%
X119521153Y-94352223D02*
X119521153Y-94659505D01*
X118761153Y-94352223D02*
X118761153Y-94659505D01*
%TO.C,C92*%
X164046100Y-80412164D02*
X164046100Y-80627836D01*
X163326100Y-80412164D02*
X163326100Y-80627836D01*
%TO.C,U24*%
X169629251Y-95894612D02*
X169389251Y-95564612D01*
X169869251Y-95564612D01*
X169629251Y-95894612D01*
G36*
X169629251Y-95894612D02*
G01*
X169389251Y-95564612D01*
X169869251Y-95564612D01*
X169629251Y-95894612D01*
G37*
D16*
X170229251Y-100944612D02*
X174379251Y-100944612D01*
X170229251Y-95794612D02*
X174379251Y-95794612D01*
D15*
%TO.C,R19*%
X139485529Y-101669800D02*
X139178247Y-101669800D01*
X139485529Y-100909800D02*
X139178247Y-100909800D01*
%TO.C,R9*%
X146762959Y-79249000D02*
X147070241Y-79249000D01*
X146762959Y-78489000D02*
X147070241Y-78489000D01*
%TO.C,R1*%
X136637088Y-104296241D02*
X136637088Y-103988959D01*
X135877088Y-104296241D02*
X135877088Y-103988959D01*
%TO.C,C1*%
X105865600Y-78750836D02*
X105865600Y-78535164D01*
X105145600Y-78750836D02*
X105145600Y-78535164D01*
%TO.C,C54*%
X147829400Y-96856748D02*
X147829400Y-97379252D01*
X146359400Y-96856748D02*
X146359400Y-97379252D01*
%TO.C,Q4*%
X121878100Y-104603000D02*
X121638100Y-104273000D01*
X122118100Y-104273000D01*
X121878100Y-104603000D01*
G36*
X121878100Y-104603000D02*
G01*
X121638100Y-104273000D01*
X122118100Y-104273000D01*
X121878100Y-104603000D01*
G37*
X123040600Y-107673000D02*
X123690600Y-107673000D01*
X123040600Y-107673000D02*
X122390600Y-107673000D01*
X123040600Y-104553000D02*
X123690600Y-104553000D01*
X123040600Y-104553000D02*
X122390600Y-104553000D01*
%TO.C,R25*%
X153110600Y-94546641D02*
X153110600Y-94239359D01*
X152350600Y-94546641D02*
X152350600Y-94239359D01*
%TO.C,U2*%
X123356600Y-94573000D02*
X123026600Y-94333000D01*
X123356600Y-94093000D01*
X123356600Y-94573000D01*
G36*
X123356600Y-94573000D02*
G01*
X123026600Y-94333000D01*
X123356600Y-94093000D01*
X123356600Y-94573000D01*
G37*
X123076600Y-95633000D02*
X123076600Y-96433000D01*
X123076600Y-95633000D02*
X123076600Y-94833000D01*
X119956600Y-95633000D02*
X119956600Y-96433000D01*
X119956600Y-95633000D02*
X119956600Y-94833000D01*
%TO.C,U18*%
X113482600Y-70435000D02*
X113242600Y-70105000D01*
X113722600Y-70105000D01*
X113482600Y-70435000D01*
G36*
X113482600Y-70435000D02*
G01*
X113242600Y-70105000D01*
X113722600Y-70105000D01*
X113482600Y-70435000D01*
G37*
X116182600Y-80500000D02*
X118132600Y-80500000D01*
X116182600Y-80500000D02*
X114232600Y-80500000D01*
X116182600Y-70380000D02*
X118132600Y-70380000D01*
X116182600Y-70380000D02*
X114232600Y-70380000D01*
%TO.C,C55*%
X149066764Y-95231000D02*
X149282436Y-95231000D01*
X149066764Y-94511000D02*
X149282436Y-94511000D01*
%TO.C,R21*%
X151836959Y-103373000D02*
X152144241Y-103373000D01*
X151836959Y-102613000D02*
X152144241Y-102613000D01*
%TO.C,R17*%
X141708600Y-83848641D02*
X141708600Y-83541359D01*
X140948600Y-83848641D02*
X140948600Y-83541359D01*
%TO.C,L1*%
X131234600Y-97958000D02*
X131234600Y-92038000D01*
X131234600Y-97958000D02*
X129884600Y-97958000D01*
X131234600Y-92038000D02*
X129884600Y-92038000D01*
X125514600Y-97958000D02*
X126864600Y-97958000D01*
X125514600Y-97958000D02*
X125514600Y-92038000D01*
X125514600Y-92038000D02*
X126864600Y-92038000D01*
%TO.C,R43*%
X125009100Y-100559359D02*
X125009100Y-100866641D01*
X124249100Y-100559359D02*
X124249100Y-100866641D01*
%TO.C,J1*%
X114208600Y-104282000D02*
X114208600Y-102612000D01*
X114208600Y-96712000D02*
X114208600Y-95042000D01*
X114208600Y-95042000D02*
X99468600Y-95042000D01*
X112988600Y-104282000D02*
X114208600Y-104282000D01*
X99468600Y-104282000D02*
X107588600Y-104282000D01*
X99468600Y-95042000D02*
X99468600Y-104282000D01*
%TO.C,C53*%
X151052764Y-95228000D02*
X151268436Y-95228000D01*
X151052764Y-94508000D02*
X151268436Y-94508000D01*
%TO.C,J5*%
X189371941Y-111674714D02*
X189371941Y-96274714D01*
X189371941Y-96274714D02*
X188421941Y-96274714D01*
X188721941Y-95774714D02*
X186721941Y-95774714D01*
X188421941Y-96274714D02*
X188721941Y-95774714D01*
X186971941Y-96274714D02*
X181571941Y-96274714D01*
X186721941Y-95774714D02*
X186971941Y-96274714D01*
X181821941Y-95774714D02*
X176771941Y-95774714D01*
X181571941Y-96274714D02*
X181821941Y-95774714D01*
X176771941Y-111674714D02*
X189371941Y-111674714D01*
X176771941Y-95774714D02*
X176771941Y-111674714D01*
%TO.C,C12*%
X137822400Y-98527359D02*
X137822400Y-98834641D01*
X137062400Y-98527359D02*
X137062400Y-98834641D01*
%TO.C,C13*%
X150070600Y-79484836D02*
X150070600Y-79269164D01*
X149350600Y-79484836D02*
X149350600Y-79269164D01*
%TO.C,U7*%
X171723000Y-95670000D02*
X171243000Y-95670000D01*
X171483000Y-95340000D01*
X171723000Y-95670000D01*
G36*
X171723000Y-95670000D02*
G01*
X171243000Y-95670000D01*
X171483000Y-95340000D01*
X171723000Y-95670000D01*
G37*
X170183000Y-95415000D02*
X170983000Y-95415000D01*
X170183000Y-95415000D02*
X169383000Y-95415000D01*
X170183000Y-92295000D02*
X170983000Y-92295000D01*
X170183000Y-92295000D02*
X169383000Y-92295000D01*
%TO.C,U5*%
X140410300Y-105415800D02*
X139930300Y-105415800D01*
X140170300Y-105085800D01*
X140410300Y-105415800D01*
G36*
X140410300Y-105415800D02*
G01*
X139930300Y-105415800D01*
X140170300Y-105085800D01*
X140410300Y-105415800D01*
G37*
X138870300Y-105135800D02*
X139670300Y-105135800D01*
X138870300Y-105135800D02*
X138070300Y-105135800D01*
X138870300Y-102015800D02*
X139670300Y-102015800D01*
X138870300Y-102015800D02*
X138070300Y-102015800D01*
%TO.C,R15*%
X143126119Y-84746511D02*
X142818837Y-84746511D01*
X143126119Y-83986511D02*
X142818837Y-83986511D01*
%TO.C,U9*%
X171824600Y-67136202D02*
X171344600Y-67136202D01*
X171584600Y-66806202D01*
X171824600Y-67136202D01*
G36*
X171824600Y-67136202D02*
G01*
X171344600Y-67136202D01*
X171584600Y-66806202D01*
X171824600Y-67136202D01*
G37*
X170284600Y-66881202D02*
X171084600Y-66881202D01*
X170284600Y-66881202D02*
X169484600Y-66881202D01*
X170284600Y-63761202D02*
X171084600Y-63761202D01*
X170284600Y-63761202D02*
X169484600Y-63761202D01*
%TO.C,D4*%
X113880600Y-106355000D02*
X113880600Y-110365000D01*
X113880600Y-106355000D02*
X111880600Y-106355000D01*
X111880600Y-106355000D02*
X111880600Y-110365000D01*
%TO.C,C93*%
X165615400Y-84450764D02*
X165615400Y-84666436D01*
X164895400Y-84450764D02*
X164895400Y-84666436D01*
%TO.C,C90*%
X174014764Y-87611000D02*
X174230436Y-87611000D01*
X174014764Y-86891000D02*
X174230436Y-86891000D01*
%TO.C,U8*%
X144987200Y-86933100D02*
X144657200Y-86693100D01*
X144987200Y-86453100D01*
X144987200Y-86933100D01*
G36*
X144987200Y-86933100D02*
G01*
X144657200Y-86693100D01*
X144987200Y-86453100D01*
X144987200Y-86933100D01*
G37*
X144707200Y-87993100D02*
X144707200Y-88793100D01*
X144707200Y-87993100D02*
X144707200Y-87193100D01*
X141587200Y-87993100D02*
X141587200Y-88793100D01*
X141587200Y-87993100D02*
X141587200Y-87193100D01*
%TO.C,U29*%
X162562500Y-65421000D02*
X162322500Y-65091000D01*
X162802500Y-65091000D01*
X162562500Y-65421000D01*
G36*
X162562500Y-65421000D02*
G01*
X162322500Y-65091000D01*
X162802500Y-65091000D01*
X162562500Y-65421000D01*
G37*
X163862500Y-68491000D02*
X164662500Y-68491000D01*
X163862500Y-68491000D02*
X163062500Y-68491000D01*
X163862500Y-65371000D02*
X164662500Y-65371000D01*
X163862500Y-65371000D02*
X163062500Y-65371000D01*
%TO.C,SW1*%
X149170600Y-76481000D02*
X149170600Y-70081000D01*
X149170600Y-70081000D02*
X147970600Y-70081000D01*
X147970600Y-76481000D02*
X149170600Y-76481000D01*
X146370600Y-70081000D02*
X145170600Y-70081000D01*
X145170600Y-76481000D02*
X146370600Y-76481000D01*
X145170600Y-70081000D02*
X145170600Y-76481000D01*
%TO.C,C44*%
X121408764Y-103867000D02*
X121624436Y-103867000D01*
X121408764Y-103147000D02*
X121624436Y-103147000D01*
%TO.C,C33*%
X115930600Y-91181580D02*
X115930600Y-90900420D01*
X114910600Y-91181580D02*
X114910600Y-90900420D01*
%TO.C,C80*%
X173887764Y-101962000D02*
X174103436Y-101962000D01*
X173887764Y-101242000D02*
X174103436Y-101242000D01*
%TO.C,R18*%
X142952959Y-79184000D02*
X143260241Y-79184000D01*
X142952959Y-78424000D02*
X143260241Y-78424000D01*
%TO.C,C91*%
X170667936Y-87611000D02*
X170452264Y-87611000D01*
X170667936Y-86891000D02*
X170452264Y-86891000D01*
%TO.C,U22*%
X121262808Y-68807820D02*
X120762808Y-68807820D01*
X121262808Y-68307820D01*
X121262808Y-68807820D01*
G36*
X121262808Y-68807820D02*
G01*
X120762808Y-68807820D01*
X121262808Y-68307820D01*
X121262808Y-68807820D01*
G37*
X139662808Y-87782820D02*
X139662808Y-86782820D01*
X139662808Y-87782820D02*
X138162808Y-87782820D01*
X139662808Y-61932820D02*
X139662808Y-68132820D01*
X121262808Y-87782820D02*
X122762808Y-87782820D01*
X121262808Y-86782820D02*
X121262808Y-87782820D01*
X121262808Y-61932820D02*
X139662808Y-61932820D01*
X121262808Y-61932820D02*
X121262808Y-68132820D01*
%TO.C,C79*%
X167991100Y-108275500D02*
X167203600Y-108275500D01*
X167597350Y-108669250D02*
X167597350Y-107881750D01*
X166963600Y-108773563D02*
X166963600Y-107488000D01*
X166963600Y-108773563D02*
X165899163Y-109838000D01*
X166963600Y-104082437D02*
X166963600Y-105368000D01*
X166963600Y-104082437D02*
X165899163Y-103018000D01*
X165899163Y-109838000D02*
X160143600Y-109838000D01*
X165899163Y-103018000D02*
X160143600Y-103018000D01*
X160143600Y-109838000D02*
X160143600Y-107488000D01*
X160143600Y-103018000D02*
X160143600Y-105368000D01*
%TO.C,R22*%
X106787816Y-70333359D02*
X106787816Y-70640641D01*
X106027816Y-70333359D02*
X106027816Y-70640641D01*
%TO.C,C81*%
X170773436Y-102001612D02*
X170557764Y-102001612D01*
X170773436Y-101281612D02*
X170557764Y-101281612D01*
%TO.C,R28*%
X123902959Y-103887000D02*
X124210241Y-103887000D01*
X123902959Y-103127000D02*
X124210241Y-103127000D01*
%TO.C,C88*%
X164233164Y-65106600D02*
X164448836Y-65106600D01*
X164233164Y-64386600D02*
X164448836Y-64386600D01*
%TO.C,C3*%
X102882764Y-92945000D02*
X103098436Y-92945000D01*
X102882764Y-92225000D02*
X103098436Y-92225000D01*
%TO.C,R31*%
X153868959Y-103373000D02*
X154176241Y-103373000D01*
X153868959Y-102613000D02*
X154176241Y-102613000D01*
%TO.C,U10*%
X171712283Y-81179861D02*
X171232283Y-81179861D01*
X171472283Y-80849861D01*
X171712283Y-81179861D01*
G36*
X171712283Y-81179861D02*
G01*
X171232283Y-81179861D01*
X171472283Y-80849861D01*
X171712283Y-81179861D01*
G37*
X170172283Y-80924861D02*
X170972283Y-80924861D01*
X170172283Y-80924861D02*
X169372283Y-80924861D01*
X170172283Y-77804861D02*
X170972283Y-77804861D01*
X170172283Y-77804861D02*
X169372283Y-77804861D01*
%TO.C,C46*%
X154215600Y-101625836D02*
X154215600Y-101410164D01*
X153495600Y-101625836D02*
X153495600Y-101410164D01*
%TO.C,C29*%
X134324600Y-110473000D02*
X134324600Y-108123000D01*
X134324600Y-103653000D02*
X134324600Y-106003000D01*
X128569037Y-110473000D02*
X134324600Y-110473000D01*
X128569037Y-103653000D02*
X134324600Y-103653000D01*
X127504600Y-109408563D02*
X128569037Y-110473000D01*
X127504600Y-109408563D02*
X127504600Y-108123000D01*
X127504600Y-104717437D02*
X128569037Y-103653000D01*
X127504600Y-104717437D02*
X127504600Y-106003000D01*
X126870850Y-104821750D02*
X126870850Y-105609250D01*
X126477100Y-105215500D02*
X127264600Y-105215500D01*
%TO.C,R36*%
X111990600Y-72621359D02*
X111990600Y-72928641D01*
X111230600Y-72621359D02*
X111230600Y-72928641D01*
%TO.C,C45*%
X106080652Y-93828000D02*
X105558148Y-93828000D01*
X106080652Y-92358000D02*
X105558148Y-92358000D01*
%TO.C,R42*%
X120705100Y-104877359D02*
X120705100Y-105184641D01*
X119945100Y-104877359D02*
X119945100Y-105184641D01*
%TO.C,R39*%
X120705100Y-106909359D02*
X120705100Y-107216641D01*
X119945100Y-106909359D02*
X119945100Y-107216641D01*
%TO.C,D2*%
X123044256Y-99326914D02*
X123044256Y-97856914D01*
X123044256Y-97856914D02*
X120759256Y-97856914D01*
X120759256Y-99326914D02*
X123044256Y-99326914D01*
%TO.C,U20*%
X148151600Y-101435000D02*
X147821600Y-101675000D01*
X147821600Y-101195000D01*
X148151600Y-101435000D01*
G36*
X148151600Y-101435000D02*
G01*
X147821600Y-101675000D01*
X147821600Y-101195000D01*
X148151600Y-101435000D01*
G37*
D16*
X153301600Y-101010000D02*
X153301600Y-96860000D01*
X148151600Y-101010000D02*
X148151600Y-96860000D01*
D15*
%TO.C,Q10*%
X119030600Y-103315000D02*
X118550600Y-103315000D01*
X118790600Y-102985000D01*
X119030600Y-103315000D01*
G36*
X119030600Y-103315000D02*
G01*
X118550600Y-103315000D01*
X118790600Y-102985000D01*
X119030600Y-103315000D01*
G37*
X117628100Y-103035000D02*
X118278100Y-103035000D01*
X117628100Y-103035000D02*
X116978100Y-103035000D01*
X117628100Y-99915000D02*
X118278100Y-99915000D01*
X117628100Y-99915000D02*
X116978100Y-99915000D01*
%TO.C,Q7*%
X107829600Y-73006000D02*
X107589600Y-72676000D01*
X108069600Y-72676000D01*
X107829600Y-73006000D01*
G36*
X107829600Y-73006000D02*
G01*
X107589600Y-72676000D01*
X108069600Y-72676000D01*
X107829600Y-73006000D01*
G37*
X108992100Y-76076000D02*
X109642100Y-76076000D01*
X108992100Y-76076000D02*
X108342100Y-76076000D01*
X108992100Y-72956000D02*
X109642100Y-72956000D01*
X108992100Y-72956000D02*
X108342100Y-72956000D01*
%TO.C,U28*%
X161624100Y-68977000D02*
X161384100Y-68647000D01*
X161864100Y-68647000D01*
X161624100Y-68977000D01*
G36*
X161624100Y-68977000D02*
G01*
X161384100Y-68647000D01*
X161864100Y-68647000D01*
X161624100Y-68977000D01*
G37*
X162924100Y-72047000D02*
X163724100Y-72047000D01*
X162924100Y-72047000D02*
X162124100Y-72047000D01*
X162924100Y-68927000D02*
X163724100Y-68927000D01*
X162924100Y-68927000D02*
X162124100Y-68927000D01*
%TO.C,R35*%
X111990600Y-70434959D02*
X111990600Y-70742241D01*
X111230600Y-70434959D02*
X111230600Y-70742241D01*
%TO.C,U4*%
X108896600Y-92811500D02*
X108566600Y-93051500D01*
X108566600Y-92571500D01*
X108896600Y-92811500D01*
G36*
X108896600Y-92811500D02*
G01*
X108566600Y-93051500D01*
X108566600Y-92571500D01*
X108896600Y-92811500D01*
G37*
X111966600Y-91449000D02*
X111966600Y-92224000D01*
X111966600Y-91449000D02*
X111966600Y-90674000D01*
X108846600Y-91449000D02*
X108846600Y-92224000D01*
X108846600Y-91449000D02*
X108846600Y-90674000D01*
%TO.C,Q6*%
X107829600Y-69384000D02*
X107589600Y-69054000D01*
X108069600Y-69054000D01*
X107829600Y-69384000D01*
G36*
X107829600Y-69384000D02*
G01*
X107589600Y-69054000D01*
X108069600Y-69054000D01*
X107829600Y-69384000D01*
G37*
X108992100Y-72454000D02*
X109642100Y-72454000D01*
X108992100Y-72454000D02*
X108342100Y-72454000D01*
X108992100Y-69334000D02*
X109642100Y-69334000D01*
X108992100Y-69334000D02*
X108342100Y-69334000D01*
%TO.C,R16*%
X141708600Y-79814641D02*
X141708600Y-79507359D01*
X140948600Y-79814641D02*
X140948600Y-79507359D01*
%TO.C,C16*%
X145094036Y-84715400D02*
X144878364Y-84715400D01*
X145094036Y-83995400D02*
X144878364Y-83995400D01*
%TO.C,C2*%
X124137200Y-96635269D02*
X124137200Y-96850941D01*
X123417200Y-96635269D02*
X123417200Y-96850941D01*
%TO.C,R24*%
X154126600Y-94239359D02*
X154126600Y-94546641D01*
X153366600Y-94239359D02*
X153366600Y-94546641D01*
%TO.C,C50*%
X148812764Y-103359000D02*
X149028436Y-103359000D01*
X148812764Y-102639000D02*
X149028436Y-102639000D01*
%TO.C,L2*%
X146881000Y-109311800D02*
X145531000Y-109311800D01*
X146881000Y-103391800D02*
X146881000Y-109311800D01*
X146881000Y-103391800D02*
X145531000Y-103391800D01*
X141161000Y-109311800D02*
X142511000Y-109311800D01*
X141161000Y-103391800D02*
X142511000Y-103391800D01*
X141161000Y-103391800D02*
X141161000Y-109311800D01*
%TO.C,R6*%
X102184241Y-78573000D02*
X101876959Y-78573000D01*
X102184241Y-77813000D02*
X101876959Y-77813000D01*
%TO.C,Y2*%
X118754600Y-92482400D02*
X122754600Y-92482400D01*
X118754600Y-89182400D02*
X118754600Y-92482400D01*
%TO.C,R23*%
X106798447Y-72874900D02*
X106798447Y-72567618D01*
X106038447Y-72874900D02*
X106038447Y-72567618D01*
%TO.C,R4*%
X100910600Y-78489359D02*
X100910600Y-78796641D01*
X100150600Y-78489359D02*
X100150600Y-78796641D01*
%TO.C,C83*%
X166834600Y-99131964D02*
X166834600Y-99347636D01*
X166114600Y-99131964D02*
X166114600Y-99347636D01*
D16*
%TO.C,D3*%
X153006600Y-75281000D02*
X153006600Y-73821000D01*
X153006600Y-73821000D02*
X150716600Y-73821000D01*
X150716600Y-75281000D02*
X153006600Y-75281000D01*
D15*
%TO.C,C85*%
X173859764Y-73582202D02*
X174075436Y-73582202D01*
X173859764Y-72862202D02*
X174075436Y-72862202D01*
%TO.C,C84*%
X167991100Y-77668500D02*
X167203600Y-77668500D01*
X167597350Y-78062250D02*
X167597350Y-77274750D01*
X166963600Y-78166563D02*
X166963600Y-76881000D01*
X166963600Y-78166563D02*
X165899163Y-79231000D01*
X166963600Y-73475437D02*
X166963600Y-74761000D01*
X166963600Y-73475437D02*
X165899163Y-72411000D01*
X165899163Y-79231000D02*
X160143600Y-79231000D01*
X165899163Y-72411000D02*
X160143600Y-72411000D01*
X160143600Y-79231000D02*
X160143600Y-76881000D01*
X160143600Y-72411000D02*
X160143600Y-74761000D01*
%TO.C,Q3*%
X119058300Y-99366700D02*
X118578300Y-99366700D01*
X118818300Y-99036700D01*
X119058300Y-99366700D01*
G36*
X119058300Y-99366700D02*
G01*
X118578300Y-99366700D01*
X118818300Y-99036700D01*
X119058300Y-99366700D01*
G37*
X117655800Y-99086700D02*
X118305800Y-99086700D01*
X117655800Y-99086700D02*
X117005800Y-99086700D01*
X117655800Y-95966700D02*
X118305800Y-95966700D01*
X117655800Y-95966700D02*
X117005800Y-95966700D01*
%TO.C,C30*%
X111368133Y-78314436D02*
X111368133Y-78098764D01*
X110648133Y-78314436D02*
X110648133Y-78098764D01*
%TO.C,J6*%
X158167400Y-89099200D02*
X158167400Y-87499200D01*
X158167400Y-87499200D02*
X156367400Y-87499200D01*
X156897400Y-91969200D02*
X148467400Y-91969200D01*
X156367400Y-87499200D02*
X156367400Y-86559200D01*
X147197400Y-89099200D02*
X147197400Y-87499200D01*
X147197400Y-87499200D02*
X148997400Y-87499200D01*
%TO.C,D1*%
X156872600Y-73816000D02*
X154587600Y-73816000D01*
X154587600Y-75286000D02*
X156872600Y-75286000D01*
X154587600Y-73816000D02*
X154587600Y-75286000D01*
%TO.C,SW3*%
X148592600Y-83663000D02*
X148592600Y-82463000D01*
X148592600Y-80863000D02*
X148592600Y-79663000D01*
X148592600Y-79663000D02*
X142192600Y-79663000D01*
X142192600Y-83663000D02*
X148592600Y-83663000D01*
X142192600Y-82463000D02*
X142192600Y-83663000D01*
X142192600Y-79663000D02*
X142192600Y-80863000D01*
%TO.C,J14*%
X189361941Y-84124898D02*
X189361941Y-73774898D01*
X189361941Y-73774898D02*
X188411941Y-73774898D01*
X188661941Y-73274898D02*
X186761941Y-73274898D01*
X188411941Y-73774898D02*
X188661941Y-73274898D01*
X186961941Y-73774898D02*
X181561941Y-73774898D01*
X186761941Y-73274898D02*
X186711941Y-73274898D01*
X186711941Y-73274898D02*
X186961941Y-73774898D01*
X181861941Y-73274898D02*
X176761941Y-73274898D01*
X181561941Y-73774898D02*
X181861941Y-73274898D01*
X176761941Y-84124898D02*
X189361941Y-84124898D01*
X176761941Y-73274898D02*
X176761941Y-84124898D01*
%TO.C,R5*%
X103844959Y-78573000D02*
X104152241Y-78573000D01*
X103844959Y-77813000D02*
X104152241Y-77813000D01*
%TO.C,C43*%
X114123600Y-91510252D02*
X114123600Y-90987748D01*
X112653600Y-91510252D02*
X112653600Y-90987748D01*
%TO.C,U6*%
X132101055Y-96387663D02*
X131861055Y-96057663D01*
X132341055Y-96057663D01*
X132101055Y-96387663D01*
G36*
X132101055Y-96387663D02*
G01*
X131861055Y-96057663D01*
X132341055Y-96057663D01*
X132101055Y-96387663D01*
G37*
X133401055Y-99457663D02*
X134201055Y-99457663D01*
X133401055Y-99457663D02*
X132601055Y-99457663D01*
X133401055Y-96337663D02*
X134201055Y-96337663D01*
X133401055Y-96337663D02*
X132601055Y-96337663D01*
%TO.C,J4*%
X145198600Y-95623000D02*
X142088600Y-95623000D01*
X145198600Y-92963000D02*
X145198600Y-95623000D01*
X145198600Y-92963000D02*
X144628600Y-92963000D01*
X144628600Y-92963000D02*
X144628600Y-91443000D01*
X143108600Y-92963000D02*
X139548600Y-92963000D01*
X140568600Y-95623000D02*
X137458600Y-95623000D01*
X138028600Y-95623000D02*
X137458600Y-95623000D01*
X137458600Y-92963000D02*
X137458600Y-95623000D01*
%TO.C,J13*%
X189361941Y-72879990D02*
X189361941Y-62529990D01*
X189361941Y-62529990D02*
X188411941Y-62529990D01*
X188661941Y-62029990D02*
X186761941Y-62029990D01*
X188411941Y-62529990D02*
X188661941Y-62029990D01*
X186961941Y-62529990D02*
X181561941Y-62529990D01*
X186761941Y-62029990D02*
X186711941Y-62029990D01*
X186711941Y-62029990D02*
X186961941Y-62529990D01*
X181861941Y-62029990D02*
X176761941Y-62029990D01*
X181561941Y-62529990D02*
X181861941Y-62029990D01*
X176761941Y-72879990D02*
X189361941Y-72879990D01*
X176761941Y-62029990D02*
X176761941Y-72879990D01*
%TO.C,U1*%
X123443100Y-103061000D02*
X122963100Y-103061000D01*
X123203100Y-102731000D01*
X123443100Y-103061000D01*
G36*
X123443100Y-103061000D02*
G01*
X122963100Y-103061000D01*
X123203100Y-102731000D01*
X123443100Y-103061000D01*
G37*
X121903100Y-102781000D02*
X122703100Y-102781000D01*
X121903100Y-102781000D02*
X121103100Y-102781000D01*
X121903100Y-99661000D02*
X122703100Y-99661000D01*
X121903100Y-99661000D02*
X121103100Y-99661000D01*
%TO.C,R41*%
X120707100Y-109502641D02*
X120707100Y-109195359D01*
X119947100Y-109502641D02*
X119947100Y-109195359D01*
%TO.C,C17*%
X141688600Y-77519164D02*
X141688600Y-77734836D01*
X140968600Y-77519164D02*
X140968600Y-77734836D01*
%TO.C,J12*%
X189361941Y-95369806D02*
X189361941Y-85019806D01*
X189361941Y-85019806D02*
X188411941Y-85019806D01*
X188661941Y-84519806D02*
X186761941Y-84519806D01*
X188411941Y-85019806D02*
X188661941Y-84519806D01*
X186961941Y-85019806D02*
X181561941Y-85019806D01*
X186761941Y-84519806D02*
X186711941Y-84519806D01*
X186711941Y-84519806D02*
X186961941Y-85019806D01*
X181861941Y-84519806D02*
X176761941Y-84519806D01*
X181561941Y-85019806D02*
X181861941Y-84519806D01*
X176761941Y-95369806D02*
X189361941Y-95369806D01*
X176761941Y-84519806D02*
X176761941Y-95369806D01*
%TO.C,R40*%
X115292600Y-107415359D02*
X115292600Y-107722641D01*
X114532600Y-107415359D02*
X114532600Y-107722641D01*
%TO.C,C15*%
X145862800Y-89246536D02*
X145862800Y-89030864D01*
X145142800Y-89246536D02*
X145142800Y-89030864D01*
%TO.C,U27*%
X169629251Y-67474000D02*
X169389251Y-67144000D01*
X169869251Y-67144000D01*
X169629251Y-67474000D01*
G36*
X169629251Y-67474000D02*
G01*
X169389251Y-67144000D01*
X169869251Y-67144000D01*
X169629251Y-67474000D01*
G37*
D16*
X170229251Y-72524000D02*
X174379251Y-72524000D01*
X170229251Y-67374000D02*
X174379251Y-67374000D01*
D15*
%TO.C,Y1*%
X110133400Y-80968600D02*
X110133400Y-76968600D01*
X106833400Y-80968600D02*
X110133400Y-80968600D01*
%TO.C,U26*%
X162513100Y-99208000D02*
X162273100Y-98878000D01*
X162753100Y-98878000D01*
X162513100Y-99208000D01*
G36*
X162513100Y-99208000D02*
G01*
X162273100Y-98878000D01*
X162753100Y-98878000D01*
X162513100Y-99208000D01*
G37*
X163813100Y-102278000D02*
X164613100Y-102278000D01*
X163813100Y-102278000D02*
X163013100Y-102278000D01*
X163813100Y-99158000D02*
X164613100Y-99158000D01*
X163813100Y-99158000D02*
X163013100Y-99158000D01*
%TO.C,Q5*%
X119000948Y-107113693D02*
X118520948Y-107113693D01*
X118760948Y-106783693D01*
X119000948Y-107113693D01*
G36*
X119000948Y-107113693D02*
G01*
X118520948Y-107113693D01*
X118760948Y-106783693D01*
X119000948Y-107113693D01*
G37*
X117598448Y-106833693D02*
X118248448Y-106833693D01*
X117598448Y-106833693D02*
X116948448Y-106833693D01*
X117598448Y-103713693D02*
X118248448Y-103713693D01*
X117598448Y-103713693D02*
X116948448Y-103713693D01*
%TO.C,U19*%
X119993600Y-82759000D02*
X119663600Y-82519000D01*
X119993600Y-82279000D01*
X119993600Y-82759000D01*
G36*
X119993600Y-82759000D02*
G01*
X119663600Y-82519000D01*
X119993600Y-82279000D01*
X119993600Y-82759000D01*
G37*
X119718600Y-85219000D02*
X119718600Y-87169000D01*
X119718600Y-85219000D02*
X119718600Y-83269000D01*
X109598600Y-85219000D02*
X109598600Y-87169000D01*
X109598600Y-85219000D02*
X109598600Y-83269000D01*
%TO.C,R7*%
X124156959Y-99061000D02*
X124464241Y-99061000D01*
X124156959Y-98301000D02*
X124464241Y-98301000D01*
%TO.C,U31*%
X159719100Y-79772000D02*
X159479100Y-79442000D01*
X159959100Y-79442000D01*
X159719100Y-79772000D01*
G36*
X159719100Y-79772000D02*
G01*
X159479100Y-79442000D01*
X159959100Y-79442000D01*
X159719100Y-79772000D01*
G37*
X161019100Y-82842000D02*
X161819100Y-82842000D01*
X161019100Y-82842000D02*
X160219100Y-82842000D01*
X161019100Y-79722000D02*
X161819100Y-79722000D01*
X161019100Y-79722000D02*
X160219100Y-79722000D01*
%TO.C,R47*%
X158484600Y-74649359D02*
X158484600Y-74956641D01*
X157724600Y-74649359D02*
X157724600Y-74956641D01*
%TO.C,C82*%
X165058436Y-95104000D02*
X164842764Y-95104000D01*
X165058436Y-94384000D02*
X164842764Y-94384000D01*
%TO.C,U30*%
X169629251Y-81467520D02*
X169389251Y-81137520D01*
X169869251Y-81137520D01*
X169629251Y-81467520D01*
G36*
X169629251Y-81467520D02*
G01*
X169389251Y-81137520D01*
X169869251Y-81137520D01*
X169629251Y-81467520D01*
G37*
D16*
X170229251Y-86517520D02*
X174379251Y-86517520D01*
X170229251Y-81367520D02*
X174379251Y-81367520D01*
D15*
%TO.C,R44*%
X115292600Y-109575359D02*
X115292600Y-109882641D01*
X114532600Y-109575359D02*
X114532600Y-109882641D01*
%TO.C,C89*%
X167991100Y-92273500D02*
X167203600Y-92273500D01*
X167597350Y-92667250D02*
X167597350Y-91879750D01*
X166963600Y-92771563D02*
X166963600Y-91486000D01*
X166963600Y-92771563D02*
X165899163Y-93836000D01*
X166963600Y-88080437D02*
X166963600Y-89366000D01*
X166963600Y-88080437D02*
X165899163Y-87016000D01*
X165899163Y-93836000D02*
X160143600Y-93836000D01*
X165899163Y-87016000D02*
X160143600Y-87016000D01*
X160143600Y-93836000D02*
X160143600Y-91486000D01*
X160143600Y-87016000D02*
X160143600Y-89366000D01*
%TO.C,R10*%
X136882600Y-96495359D02*
X136882600Y-96802641D01*
X136122600Y-96495359D02*
X136122600Y-96802641D01*
%TO.C,C32*%
X117708600Y-91179580D02*
X117708600Y-90898420D01*
X116688600Y-91179580D02*
X116688600Y-90898420D01*
%TO.C,C11*%
X138914600Y-98527359D02*
X138914600Y-98834641D01*
X138154600Y-98527359D02*
X138154600Y-98834641D01*
%TO.C,J2*%
X157908600Y-78190000D02*
X157908600Y-84120000D01*
X155038600Y-85390000D02*
X153438600Y-85390000D01*
X155038600Y-76920000D02*
X153438600Y-76920000D01*
X153438600Y-85390000D02*
X153438600Y-83590000D01*
X153438600Y-78720000D02*
X152498600Y-78720000D01*
X153438600Y-76920000D02*
X153438600Y-78720000D01*
%TO.C,U3*%
X105249600Y-69675000D02*
X105009600Y-69345000D01*
X105489600Y-69345000D01*
X105249600Y-69675000D01*
G36*
X105249600Y-69675000D02*
G01*
X105009600Y-69345000D01*
X105489600Y-69345000D01*
X105249600Y-69675000D01*
G37*
X105709600Y-73535000D02*
X105709600Y-75735000D01*
X105709600Y-73535000D02*
X105709600Y-71335000D01*
X100239600Y-73535000D02*
X100239600Y-75735000D01*
X100239600Y-73535000D02*
X100239600Y-71335000D01*
%TD*%
%LPC*%
D17*
%TO.C,R20*%
X133390600Y-100205000D03*
X132370600Y-100205000D03*
%TD*%
D18*
%TO.C,C87*%
X165484000Y-69882600D03*
X165484000Y-70842600D03*
%TD*%
D19*
%TO.C,SW4*%
X142852600Y-69406000D03*
X142852600Y-77156000D03*
%TD*%
D20*
%TO.C,C31*%
X111008133Y-80619000D03*
X111008133Y-79659000D03*
%TD*%
D21*
%TO.C,L3*%
X155203400Y-107088400D03*
X149653400Y-107088400D03*
%TD*%
D22*
%TO.C,C86*%
X170185600Y-73222202D03*
X171145600Y-73222202D03*
%TD*%
D23*
%TO.C,R34*%
X173834117Y-94812000D03*
X172834117Y-94812000D03*
%TD*%
D24*
%TO.C,R48*%
X153786600Y-75315000D03*
X153786600Y-74295000D03*
%TD*%
D25*
%TO.C,U32*%
X162156600Y-83761000D03*
X162156600Y-85661000D03*
X159881600Y-85661000D03*
X159881600Y-84711000D03*
X159881600Y-83761000D03*
%TD*%
D26*
%TO.C,S1*%
X150536600Y-72143000D03*
X150536600Y-70873000D03*
X158536600Y-70863000D03*
X158536600Y-72133000D03*
%TD*%
D27*
%TO.C,R13*%
X148588907Y-77851000D03*
X148588907Y-78871000D03*
%TD*%
D28*
%TO.C,C4*%
X117655600Y-94418000D03*
X115755600Y-94418000D03*
%TD*%
D29*
%TO.C,H1*%
X103000000Y-108317800D03*
%TD*%
D30*
%TO.C,Q9*%
X118520000Y-109069203D03*
X116645000Y-110019203D03*
X116645000Y-108119203D03*
%TD*%
D25*
%TO.C,U25*%
X164950600Y-96146000D03*
X164950600Y-98046000D03*
X162675600Y-98046000D03*
X162675600Y-97096000D03*
X162675600Y-96146000D03*
%TD*%
D24*
%TO.C,R3*%
X119141153Y-95015864D03*
X119141153Y-93995864D03*
%TD*%
D20*
%TO.C,C92*%
X163686100Y-81000000D03*
X163686100Y-80040000D03*
%TD*%
D23*
%TO.C,R45*%
X173959600Y-91569000D03*
X172959600Y-91569000D03*
%TD*%
D31*
%TO.C,U24*%
X172954251Y-99669612D03*
X172954251Y-98369612D03*
X172954251Y-97069612D03*
X171654251Y-99669612D03*
X171654251Y-98369612D03*
D32*
X171654251Y-97069612D03*
D33*
X175179251Y-96464612D03*
X175179251Y-97734612D03*
X175179251Y-99004612D03*
X175179251Y-100274612D03*
X169429251Y-100274612D03*
X169429251Y-99004612D03*
X169429251Y-97734612D03*
X169429251Y-96464612D03*
D34*
X172304251Y-98369612D03*
%TD*%
D35*
%TO.C,R27*%
X163815600Y-63756000D03*
X164815600Y-63756000D03*
%TD*%
D36*
%TO.C,R19*%
X138821888Y-101289800D03*
X139841888Y-101289800D03*
%TD*%
D17*
%TO.C,R9*%
X147426600Y-78869000D03*
X146406600Y-78869000D03*
%TD*%
D37*
%TO.C,C57*%
X139761800Y-107175800D03*
X139761800Y-110135800D03*
%TD*%
D27*
%TO.C,R1*%
X136257088Y-103632600D03*
X136257088Y-104652600D03*
%TD*%
D38*
%TO.C,REF\u002A\u002A*%
X187274200Y-109524800D03*
%TD*%
D18*
%TO.C,C1*%
X105505600Y-78163000D03*
X105505600Y-79123000D03*
%TD*%
D39*
%TO.C,C54*%
X147094400Y-98068000D03*
X147094400Y-96168000D03*
%TD*%
D40*
%TO.C,C7*%
X144513888Y-102220800D03*
X144513888Y-99260800D03*
%TD*%
D41*
%TO.C,C59*%
X155275600Y-96568000D03*
X158235600Y-96568000D03*
%TD*%
D30*
%TO.C,Q4*%
X123978100Y-106113000D03*
X122103100Y-107063000D03*
X122103100Y-105163000D03*
%TD*%
D27*
%TO.C,R25*%
X152730600Y-93883000D03*
X152730600Y-94903000D03*
%TD*%
D42*
%TO.C,R54*%
X167389000Y-95683800D03*
X167389000Y-94683800D03*
%TD*%
D43*
%TO.C,C27*%
X173069083Y-64068799D03*
X173069083Y-65068797D03*
%TD*%
D44*
%TO.C,U2*%
X122466600Y-96770500D03*
X121516600Y-96770500D03*
X120566600Y-96770500D03*
X120566600Y-94495500D03*
X121516600Y-94495500D03*
X122466600Y-94495500D03*
%TD*%
D45*
%TO.C,U18*%
X118657600Y-70995000D03*
X118657600Y-72265000D03*
X118657600Y-73535000D03*
X118657600Y-74805000D03*
X118657600Y-76075000D03*
X118657600Y-77345000D03*
X118657600Y-78615000D03*
X118657600Y-79885000D03*
X113707600Y-79885000D03*
X113707600Y-78615000D03*
X113707600Y-77345000D03*
X113707600Y-76075000D03*
X113707600Y-74805000D03*
X113707600Y-73535000D03*
X113707600Y-72265000D03*
X113707600Y-70995000D03*
%TD*%
D40*
%TO.C,C39*%
X132517555Y-93999663D03*
X132517555Y-91039663D03*
%TD*%
D46*
%TO.C,C55*%
X149654600Y-94871000D03*
X148694600Y-94871000D03*
%TD*%
D17*
%TO.C,R21*%
X152500600Y-102993000D03*
X151480600Y-102993000D03*
%TD*%
D27*
%TO.C,R17*%
X141328600Y-83185000D03*
X141328600Y-84205000D03*
%TD*%
D47*
%TO.C,L1*%
X128374600Y-92948000D03*
X128374600Y-97048000D03*
%TD*%
D37*
%TO.C,C51*%
X127419555Y-99391221D03*
X127419555Y-102351221D03*
%TD*%
D24*
%TO.C,R43*%
X124629100Y-101223000D03*
X124629100Y-100203000D03*
%TD*%
D48*
%TO.C,J1*%
X110288600Y-104362000D03*
D49*
X107288600Y-99662000D03*
D50*
X113488600Y-99662000D03*
%TD*%
D46*
%TO.C,C53*%
X151640600Y-94868000D03*
X150680600Y-94868000D03*
%TD*%
D38*
%TO.C,REF\u002A\u002A*%
X101041200Y-103073200D03*
%TD*%
D35*
%TO.C,R55*%
X166482600Y-62740000D03*
X167482600Y-62740000D03*
%TD*%
D51*
%TO.C,J5*%
X183071941Y-99024714D03*
X183071941Y-104024714D03*
D52*
X183071941Y-109024714D03*
%TD*%
D24*
%TO.C,C12*%
X137442400Y-99191000D03*
X137442400Y-98171000D03*
%TD*%
D18*
%TO.C,C13*%
X149710600Y-78897000D03*
X149710600Y-79857000D03*
%TD*%
D23*
%TO.C,R32*%
X167482600Y-63705200D03*
X166482600Y-63705200D03*
%TD*%
D53*
%TO.C,U7*%
X169045500Y-94830000D03*
X169045500Y-94180000D03*
X169045500Y-93530000D03*
X169045500Y-92880000D03*
X171320500Y-92880000D03*
X171320500Y-93530000D03*
X171320500Y-94180000D03*
X171320500Y-94830000D03*
%TD*%
D23*
%TO.C,R46*%
X173967600Y-62994000D03*
X172967600Y-62994000D03*
%TD*%
D54*
%TO.C,U5*%
X137732800Y-104525800D03*
X137732800Y-103575800D03*
X137732800Y-102625800D03*
X140007800Y-102625800D03*
X140007800Y-103575800D03*
X140007800Y-104525800D03*
%TD*%
D36*
%TO.C,R15*%
X142462478Y-84366511D03*
X143482478Y-84366511D03*
%TD*%
D43*
%TO.C,C28*%
X173281800Y-78115000D03*
X173281800Y-79115000D03*
%TD*%
D53*
%TO.C,U9*%
X169147100Y-66296202D03*
X169147100Y-65646202D03*
X169147100Y-64996202D03*
X169147100Y-64346202D03*
X171422100Y-64346202D03*
X171422100Y-64996202D03*
X171422100Y-65646202D03*
X171422100Y-66296202D03*
%TD*%
D55*
%TO.C,D4*%
X112880600Y-110365000D03*
X112880600Y-107065000D03*
%TD*%
D20*
%TO.C,C93*%
X165255400Y-85038600D03*
X165255400Y-84078600D03*
%TD*%
D46*
%TO.C,C90*%
X174602600Y-87251000D03*
X173642600Y-87251000D03*
%TD*%
D56*
%TO.C,R51*%
X175364600Y-62973000D03*
X175364600Y-64793000D03*
%TD*%
D44*
%TO.C,U8*%
X144097200Y-89130600D03*
X142197200Y-89130600D03*
X142197200Y-86855600D03*
X143147200Y-86855600D03*
X144097200Y-86855600D03*
%TD*%
D25*
%TO.C,U29*%
X165000000Y-65981000D03*
X165000000Y-67881000D03*
X162725000Y-67881000D03*
X162725000Y-66931000D03*
X162725000Y-65981000D03*
%TD*%
D19*
%TO.C,SW1*%
X147170600Y-69406000D03*
X147170600Y-77156000D03*
%TD*%
D46*
%TO.C,C44*%
X121996600Y-103507000D03*
X121036600Y-103507000D03*
%TD*%
D57*
%TO.C,C33*%
X115420600Y-90266000D03*
X115420600Y-91816000D03*
%TD*%
D43*
%TO.C,R26*%
X136257088Y-101610600D03*
X136257088Y-102610600D03*
%TD*%
D46*
%TO.C,C80*%
X174475600Y-101602000D03*
X173515600Y-101602000D03*
%TD*%
D17*
%TO.C,R18*%
X143616600Y-78804000D03*
X142596600Y-78804000D03*
%TD*%
D22*
%TO.C,C91*%
X170080100Y-87251000D03*
X171040100Y-87251000D03*
%TD*%
D58*
%TO.C,U22*%
X130362808Y-77992820D03*
X130362808Y-76592820D03*
X129662808Y-78692820D03*
X129662808Y-77292820D03*
X129662808Y-75892820D03*
X128962808Y-77992820D03*
D59*
X128962808Y-77292820D03*
D58*
X128962808Y-76592820D03*
X128262808Y-78692820D03*
X128262808Y-77292820D03*
X128262808Y-75892820D03*
X127562808Y-77992820D03*
X127562808Y-76592820D03*
D60*
X139212808Y-69572820D03*
X139212808Y-70842820D03*
X139212808Y-72112820D03*
X139212808Y-73382820D03*
X139212808Y-74652820D03*
X139212808Y-75922820D03*
X139212808Y-77192820D03*
X139212808Y-78462820D03*
X139212808Y-79732820D03*
X139212808Y-81002820D03*
X139212808Y-82272820D03*
X139212808Y-83542820D03*
X139212808Y-84812820D03*
X139212808Y-86082820D03*
D61*
X137447808Y-87332820D03*
X136177808Y-87332820D03*
X134907808Y-87332820D03*
X133637808Y-87332820D03*
X132367808Y-87332820D03*
X131097808Y-87332820D03*
X129827808Y-87332820D03*
X128557808Y-87332820D03*
X127287808Y-87332820D03*
X126017808Y-87332820D03*
X124747808Y-87332820D03*
X123477808Y-87332820D03*
D60*
X121712808Y-86082820D03*
X121712808Y-84812820D03*
X121712808Y-83542820D03*
X121712808Y-82272820D03*
X121712808Y-81002820D03*
X121712808Y-79732820D03*
X121712808Y-78462820D03*
X121712808Y-77192820D03*
X121712808Y-75922820D03*
X121712808Y-74652820D03*
X121712808Y-73382820D03*
X121712808Y-72112820D03*
X121712808Y-70842820D03*
X121712808Y-69572820D03*
%TD*%
D56*
%TO.C,R50*%
X175447057Y-91167000D03*
X175447057Y-92987000D03*
%TD*%
D43*
%TO.C,R57*%
X166220600Y-82118000D03*
X166220600Y-83118000D03*
%TD*%
D62*
%TO.C,C79*%
X160753600Y-106428000D03*
X166353600Y-106428000D03*
%TD*%
D37*
%TO.C,C8*%
X129880600Y-99413000D03*
X129880600Y-102373000D03*
%TD*%
D24*
%TO.C,R22*%
X106407816Y-70997000D03*
X106407816Y-69977000D03*
%TD*%
D22*
%TO.C,C81*%
X170185600Y-101641612D03*
X171145600Y-101641612D03*
%TD*%
D23*
%TO.C,R49*%
X173959600Y-77091000D03*
X172959600Y-77091000D03*
%TD*%
D17*
%TO.C,R28*%
X124566600Y-103507000D03*
X123546600Y-103507000D03*
%TD*%
D41*
%TO.C,C49*%
X155275600Y-98918000D03*
X158235600Y-98918000D03*
%TD*%
D35*
%TO.C,C23*%
X170300600Y-91569000D03*
X171300600Y-91569000D03*
%TD*%
%TO.C,C40*%
X134478600Y-95633000D03*
X135478600Y-95633000D03*
%TD*%
D40*
%TO.C,C9*%
X142131888Y-102220800D03*
X142131888Y-99260800D03*
%TD*%
D46*
%TO.C,C88*%
X164821000Y-64746600D03*
X163861000Y-64746600D03*
%TD*%
D23*
%TO.C,R37*%
X173824600Y-66169000D03*
X172824600Y-66169000D03*
%TD*%
D46*
%TO.C,C3*%
X103470600Y-92585000D03*
X102510600Y-92585000D03*
%TD*%
D17*
%TO.C,R31*%
X154532600Y-102993000D03*
X153512600Y-102993000D03*
%TD*%
D53*
%TO.C,U10*%
X169034783Y-80339861D03*
X169034783Y-79689861D03*
X169034783Y-79039861D03*
X169034783Y-78389861D03*
X171309783Y-78389861D03*
X171309783Y-79039861D03*
X171309783Y-79689861D03*
X171309783Y-80339861D03*
%TD*%
D23*
%TO.C,C25*%
X171823000Y-76581000D03*
X170823000Y-76581000D03*
%TD*%
D18*
%TO.C,C46*%
X153855600Y-101038000D03*
X153855600Y-101998000D03*
%TD*%
D63*
%TO.C,C29*%
X133714600Y-107063000D03*
X128114600Y-107063000D03*
%TD*%
D24*
%TO.C,R36*%
X111610600Y-73285000D03*
X111610600Y-72265000D03*
%TD*%
D56*
%TO.C,R52*%
X175447057Y-76816000D03*
X175447057Y-78636000D03*
%TD*%
D64*
%TO.C,C45*%
X104869400Y-93093000D03*
X106769400Y-93093000D03*
%TD*%
D24*
%TO.C,R42*%
X120325100Y-105541000D03*
X120325100Y-104521000D03*
%TD*%
%TO.C,R39*%
X120325100Y-107573000D03*
X120325100Y-106553000D03*
%TD*%
D65*
%TO.C,J3*%
X102125000Y-90772800D03*
D66*
X106325000Y-90772800D03*
D58*
X101505000Y-88442800D03*
X103505000Y-88442800D03*
D67*
X102505000Y-86442800D03*
D58*
X101505000Y-84442800D03*
X103505000Y-84442800D03*
D65*
X102125000Y-82112800D03*
D66*
X106325000Y-82112800D03*
D68*
X107005000Y-83242800D03*
X107005000Y-84042800D03*
D69*
X107005000Y-84692800D03*
X107005000Y-85692800D03*
X107005000Y-87192800D03*
X107005000Y-88192800D03*
D68*
X107005000Y-89642800D03*
X107005000Y-88842800D03*
D69*
X107005000Y-87692800D03*
X107005000Y-86692800D03*
X107005000Y-86192800D03*
X107005000Y-85192800D03*
D58*
X105805000Y-89332800D03*
X105805000Y-83552800D03*
%TD*%
D42*
%TO.C,R58*%
X166220600Y-81094450D03*
X166220600Y-80094450D03*
%TD*%
D23*
%TO.C,R12*%
X159354600Y-73027000D03*
X158354600Y-73027000D03*
%TD*%
D70*
%TO.C,D2*%
X120771756Y-98591914D03*
X122346756Y-98591914D03*
%TD*%
D71*
%TO.C,U20*%
X150726600Y-98935000D03*
D72*
X148821600Y-96437500D03*
X150091600Y-96437500D03*
X151361600Y-96437500D03*
X152631600Y-96437500D03*
X152631600Y-101432500D03*
X151361600Y-101432500D03*
X150091600Y-101432500D03*
X148821600Y-101432500D03*
%TD*%
D73*
%TO.C,Q10*%
X116690600Y-101475000D03*
X118565600Y-100525000D03*
X118565600Y-102425000D03*
%TD*%
D43*
%TO.C,R53*%
X167389000Y-96707800D03*
X167389000Y-97707800D03*
%TD*%
D29*
%TO.C,H4*%
X103000000Y-65317800D03*
%TD*%
D30*
%TO.C,Q7*%
X109929600Y-74516000D03*
X108054600Y-75466000D03*
X108054600Y-73566000D03*
%TD*%
D25*
%TO.C,U28*%
X164061600Y-69537000D03*
X164061600Y-71437000D03*
X161786600Y-71437000D03*
X161786600Y-70487000D03*
X161786600Y-69537000D03*
%TD*%
D24*
%TO.C,R35*%
X111610600Y-71098600D03*
X111610600Y-70078600D03*
%TD*%
D74*
%TO.C,U4*%
X109456600Y-90299000D03*
X110406600Y-90299000D03*
X111356600Y-90299000D03*
X111356600Y-92599000D03*
X110406600Y-92599000D03*
X109456600Y-92599000D03*
%TD*%
D23*
%TO.C,C5*%
X126410800Y-91264200D03*
X125410800Y-91264200D03*
%TD*%
D30*
%TO.C,Q6*%
X109929600Y-70894000D03*
X108054600Y-71844000D03*
X108054600Y-69944000D03*
%TD*%
D27*
%TO.C,R16*%
X141328600Y-79151000D03*
X141328600Y-80171000D03*
%TD*%
D35*
%TO.C,C24*%
X170089400Y-63146400D03*
X171089400Y-63146400D03*
%TD*%
D43*
%TO.C,C22*%
X116436600Y-68717000D03*
X116436600Y-69717000D03*
%TD*%
D42*
%TO.C,R11*%
X135994600Y-99225663D03*
X135994600Y-98225663D03*
%TD*%
D22*
%TO.C,C16*%
X144506200Y-84355400D03*
X145466200Y-84355400D03*
%TD*%
D20*
%TO.C,C2*%
X123777200Y-97223105D03*
X123777200Y-96263105D03*
%TD*%
D43*
%TO.C,C18*%
X117452600Y-68725000D03*
X117452600Y-69725000D03*
%TD*%
D41*
%TO.C,C60*%
X155275600Y-94218000D03*
X158235600Y-94218000D03*
%TD*%
D42*
%TO.C,R33*%
X165204600Y-83118000D03*
X165204600Y-82118000D03*
%TD*%
D24*
%TO.C,R24*%
X153746600Y-94903000D03*
X153746600Y-93883000D03*
%TD*%
D46*
%TO.C,C50*%
X149400600Y-102999000D03*
X148440600Y-102999000D03*
%TD*%
D47*
%TO.C,L2*%
X144021000Y-108401800D03*
X144021000Y-104301800D03*
%TD*%
D36*
%TO.C,R6*%
X101520600Y-78193000D03*
X102540600Y-78193000D03*
%TD*%
D75*
%TO.C,Y2*%
X119654600Y-89982400D03*
X121854600Y-89982400D03*
X121854600Y-91682400D03*
X119654600Y-91682400D03*
%TD*%
D27*
%TO.C,R23*%
X106418447Y-72211259D03*
X106418447Y-73231259D03*
%TD*%
D24*
%TO.C,R4*%
X100530600Y-79153000D03*
X100530600Y-78133000D03*
%TD*%
D20*
%TO.C,C83*%
X166474600Y-99719800D03*
X166474600Y-98759800D03*
%TD*%
D76*
%TO.C,D3*%
X150726600Y-74551000D03*
X152306600Y-74551000D03*
%TD*%
D41*
%TO.C,C48*%
X155275600Y-101268000D03*
X158235600Y-101268000D03*
%TD*%
D23*
%TO.C,C6*%
X137409000Y-105843800D03*
X136409000Y-105843800D03*
%TD*%
D46*
%TO.C,C85*%
X174447600Y-73222202D03*
X173487600Y-73222202D03*
%TD*%
D62*
%TO.C,C84*%
X160753600Y-75821000D03*
X166353600Y-75821000D03*
%TD*%
D73*
%TO.C,Q3*%
X116718300Y-97526700D03*
X118593300Y-96576700D03*
X118593300Y-98476700D03*
%TD*%
D40*
%TO.C,C10*%
X135054800Y-93999663D03*
X135054800Y-91039663D03*
%TD*%
D18*
%TO.C,C30*%
X111008133Y-77726600D03*
X111008133Y-78686600D03*
%TD*%
D23*
%TO.C,R38*%
X173834117Y-80093000D03*
X172834117Y-80093000D03*
%TD*%
D43*
%TO.C,C21*%
X111610600Y-74297000D03*
X111610600Y-75297000D03*
%TD*%
D42*
%TO.C,C58*%
X135537400Y-109595000D03*
X135537400Y-108595000D03*
%TD*%
D43*
%TO.C,R2*%
X166373000Y-94683800D03*
X166373000Y-95683800D03*
%TD*%
D77*
%TO.C,J6*%
X147707400Y-90759200D03*
X157657400Y-90759200D03*
D78*
X149557400Y-87409200D03*
X150807400Y-87409200D03*
X152057400Y-87409200D03*
X153307400Y-87409200D03*
X154557400Y-87409200D03*
X155807400Y-87409200D03*
%TD*%
D79*
%TO.C,D1*%
X156860100Y-74551000D03*
X155285100Y-74551000D03*
%TD*%
D43*
%TO.C,R29*%
X165204600Y-80086450D03*
X165204600Y-81086450D03*
%TD*%
D80*
%TO.C,SW3*%
X149267600Y-81663000D03*
X141517600Y-81663000D03*
%TD*%
D51*
%TO.C,J14*%
X183061941Y-76474898D03*
D52*
X183061941Y-81474898D03*
%TD*%
D29*
%TO.C,H2*%
X158000000Y-65317800D03*
%TD*%
D38*
%TO.C,REF\u002A\u002A*%
X107467400Y-63703200D03*
%TD*%
D17*
%TO.C,R5*%
X104508600Y-78193000D03*
X103488600Y-78193000D03*
%TD*%
D81*
%TO.C,C43*%
X113388600Y-90299000D03*
X113388600Y-92199000D03*
%TD*%
D25*
%TO.C,U6*%
X134538555Y-96947663D03*
X134538555Y-97897663D03*
X134538555Y-98847663D03*
X132263555Y-98847663D03*
X132263555Y-97897663D03*
X132263555Y-96947663D03*
%TD*%
D82*
%TO.C,J4*%
X138788600Y-92638000D03*
X141328600Y-95948000D03*
X143868600Y-92638000D03*
%TD*%
D35*
%TO.C,R59*%
X100450600Y-92585000D03*
X101450600Y-92585000D03*
%TD*%
D51*
%TO.C,J13*%
X183061941Y-65229990D03*
D52*
X183061941Y-70229990D03*
%TD*%
D54*
%TO.C,U1*%
X120765600Y-102171000D03*
X120765600Y-101221000D03*
X120765600Y-100271000D03*
X123040600Y-100271000D03*
X123040600Y-101221000D03*
X123040600Y-102171000D03*
%TD*%
D27*
%TO.C,R41*%
X120327100Y-108839000D03*
X120327100Y-109859000D03*
%TD*%
D20*
%TO.C,C17*%
X141328600Y-78107000D03*
X141328600Y-77147000D03*
%TD*%
D51*
%TO.C,J12*%
X183061941Y-87719806D03*
D52*
X183061941Y-92719806D03*
%TD*%
D24*
%TO.C,R40*%
X114912600Y-108079000D03*
X114912600Y-107059000D03*
%TD*%
D18*
%TO.C,C15*%
X145502800Y-88658700D03*
X145502800Y-89618700D03*
%TD*%
D31*
%TO.C,U27*%
X172954251Y-71249000D03*
X172954251Y-69949000D03*
X172954251Y-68649000D03*
X171654251Y-71249000D03*
X171654251Y-69949000D03*
X171654251Y-68649000D03*
D33*
X175179251Y-68044000D03*
X175179251Y-69314000D03*
X175179251Y-70584000D03*
X175179251Y-71854000D03*
X169429251Y-71854000D03*
X169429251Y-70584000D03*
X169429251Y-69314000D03*
X169429251Y-68044000D03*
D34*
X172304251Y-69949000D03*
%TD*%
D29*
%TO.C,H3*%
X173000000Y-108317800D03*
%TD*%
D83*
%TO.C,Y1*%
X107633400Y-80068600D03*
X107633400Y-77868600D03*
X109333400Y-77868600D03*
X109333400Y-80068600D03*
%TD*%
D23*
%TO.C,R56*%
X164823600Y-62740000D03*
X163823600Y-62740000D03*
%TD*%
D25*
%TO.C,U26*%
X164950600Y-99768000D03*
X164950600Y-101668000D03*
X162675600Y-101668000D03*
X162675600Y-100718000D03*
X162675600Y-99768000D03*
%TD*%
D73*
%TO.C,Q5*%
X116660948Y-105273693D03*
X118535948Y-104323693D03*
X118535948Y-106223693D03*
%TD*%
D84*
%TO.C,U19*%
X119103600Y-87794000D03*
X117833600Y-87794000D03*
X116563600Y-87794000D03*
X115293600Y-87794000D03*
X114023600Y-87794000D03*
X112753600Y-87794000D03*
X111483600Y-87794000D03*
X110213600Y-87794000D03*
X110213600Y-82644000D03*
X111483600Y-82644000D03*
X112753600Y-82644000D03*
X114023600Y-82644000D03*
X115293600Y-82644000D03*
X116563600Y-82644000D03*
X117833600Y-82644000D03*
X119103600Y-82644000D03*
%TD*%
D17*
%TO.C,R7*%
X124820600Y-98681000D03*
X123800600Y-98681000D03*
%TD*%
D25*
%TO.C,U31*%
X162156600Y-80332000D03*
X162156600Y-82232000D03*
X159881600Y-82232000D03*
X159881600Y-81282000D03*
X159881600Y-80332000D03*
%TD*%
D24*
%TO.C,R47*%
X158104600Y-75313000D03*
X158104600Y-74293000D03*
%TD*%
D42*
%TO.C,R30*%
X166373000Y-97707800D03*
X166373000Y-96707800D03*
%TD*%
D37*
%TO.C,C52*%
X137133550Y-107175800D03*
X137133550Y-110135800D03*
%TD*%
D43*
%TO.C,C26*%
X173332600Y-92720000D03*
X173332600Y-93720000D03*
%TD*%
D22*
%TO.C,C82*%
X164470600Y-94744000D03*
X165430600Y-94744000D03*
%TD*%
D31*
%TO.C,U30*%
X172954251Y-85242520D03*
X172954251Y-83942520D03*
X172954251Y-82642520D03*
X171654251Y-85242520D03*
X171654251Y-83942520D03*
X171654251Y-82642520D03*
D33*
X175179251Y-82037520D03*
X175179251Y-83307520D03*
X175179251Y-84577520D03*
X175179251Y-85847520D03*
X169429251Y-85847520D03*
X169429251Y-84577520D03*
X169429251Y-83307520D03*
X169429251Y-82037520D03*
D34*
X172304251Y-83942520D03*
%TD*%
D24*
%TO.C,R44*%
X114912600Y-110239000D03*
X114912600Y-109219000D03*
%TD*%
D35*
%TO.C,R8*%
X151254600Y-75821000D03*
X152254600Y-75821000D03*
%TD*%
D62*
%TO.C,C89*%
X160753600Y-90426000D03*
X166353600Y-90426000D03*
%TD*%
D43*
%TO.C,C19*%
X118468600Y-68725000D03*
X118468600Y-69725000D03*
%TD*%
D24*
%TO.C,R10*%
X136502600Y-97159000D03*
X136502600Y-96139000D03*
%TD*%
D57*
%TO.C,C32*%
X117198600Y-90264000D03*
X117198600Y-91814000D03*
%TD*%
D24*
%TO.C,C11*%
X138534600Y-99191000D03*
X138534600Y-98171000D03*
%TD*%
D43*
%TO.C,C20*%
X119484600Y-68733000D03*
X119484600Y-69733000D03*
%TD*%
D85*
%TO.C,J2*%
X156698600Y-84880000D03*
X156698600Y-77430000D03*
D86*
X153348600Y-83030000D03*
X153348600Y-81780000D03*
X153348600Y-80530000D03*
X153348600Y-79280000D03*
%TD*%
D87*
%TO.C,U3*%
X105249600Y-76397500D03*
X104599600Y-76397500D03*
X103949600Y-76397500D03*
X103299600Y-76397500D03*
X102649600Y-76397500D03*
X101999600Y-76397500D03*
X101349600Y-76397500D03*
X100699600Y-76397500D03*
X100699600Y-70672500D03*
X101349600Y-70672500D03*
X101999600Y-70672500D03*
X102649600Y-70672500D03*
X103299600Y-70672500D03*
X103949600Y-70672500D03*
X104599600Y-70672500D03*
X105249600Y-70672500D03*
%TD*%
%LPD*%
M02*
