%TF.GenerationSoftware,KiCad,Pcbnew,8.0.4*%
%TF.CreationDate,2025-02-12T15:13:01+01:00*%
%TF.ProjectId,SimpleLedController,53696d70-6c65-44c6-9564-436f6e74726f,A*%
%TF.SameCoordinates,Original*%
%TF.FileFunction,Other,Comment*%
%FSLAX46Y46*%
G04 Gerber Fmt 4.6, Leading zero omitted, Abs format (unit mm)*
G04 Created by KiCad (PCBNEW 8.0.4) date 2025-02-12 15:13:01*
%MOMM*%
%LPD*%
G01*
G04 APERTURE LIST*
%ADD10C,0.150000*%
G04 APERTURE END LIST*
D10*
X118319950Y-56830258D02*
X118319950Y-54830258D01*
X119462807Y-56830258D02*
X118605664Y-55687400D01*
X119462807Y-54830258D02*
X118319950Y-55973115D01*
X120319950Y-55782639D02*
X120986617Y-55782639D01*
X121272331Y-56830258D02*
X120319950Y-56830258D01*
X120319950Y-56830258D02*
X120319950Y-54830258D01*
X120319950Y-54830258D02*
X121272331Y-54830258D01*
X122129474Y-55782639D02*
X122796141Y-55782639D01*
X123081855Y-56830258D02*
X122129474Y-56830258D01*
X122129474Y-56830258D02*
X122129474Y-54830258D01*
X122129474Y-54830258D02*
X123081855Y-54830258D01*
X123938998Y-56830258D02*
X123938998Y-54830258D01*
X123938998Y-54830258D02*
X124700903Y-54830258D01*
X124700903Y-54830258D02*
X124891379Y-54925496D01*
X124891379Y-54925496D02*
X124986617Y-55020734D01*
X124986617Y-55020734D02*
X125081855Y-55211210D01*
X125081855Y-55211210D02*
X125081855Y-55496924D01*
X125081855Y-55496924D02*
X124986617Y-55687400D01*
X124986617Y-55687400D02*
X124891379Y-55782639D01*
X124891379Y-55782639D02*
X124700903Y-55877877D01*
X124700903Y-55877877D02*
X123938998Y-55877877D01*
X125938998Y-56068353D02*
X127462808Y-56068353D01*
X128796140Y-54830258D02*
X129177093Y-54830258D01*
X129177093Y-54830258D02*
X129367569Y-54925496D01*
X129367569Y-54925496D02*
X129558045Y-55115972D01*
X129558045Y-55115972D02*
X129653283Y-55496924D01*
X129653283Y-55496924D02*
X129653283Y-56163591D01*
X129653283Y-56163591D02*
X129558045Y-56544543D01*
X129558045Y-56544543D02*
X129367569Y-56735020D01*
X129367569Y-56735020D02*
X129177093Y-56830258D01*
X129177093Y-56830258D02*
X128796140Y-56830258D01*
X128796140Y-56830258D02*
X128605664Y-56735020D01*
X128605664Y-56735020D02*
X128415188Y-56544543D01*
X128415188Y-56544543D02*
X128319950Y-56163591D01*
X128319950Y-56163591D02*
X128319950Y-55496924D01*
X128319950Y-55496924D02*
X128415188Y-55115972D01*
X128415188Y-55115972D02*
X128605664Y-54925496D01*
X128605664Y-54925496D02*
X128796140Y-54830258D01*
X130510426Y-54830258D02*
X130510426Y-56449305D01*
X130510426Y-56449305D02*
X130605664Y-56639781D01*
X130605664Y-56639781D02*
X130700902Y-56735020D01*
X130700902Y-56735020D02*
X130891378Y-56830258D01*
X130891378Y-56830258D02*
X131272331Y-56830258D01*
X131272331Y-56830258D02*
X131462807Y-56735020D01*
X131462807Y-56735020D02*
X131558045Y-56639781D01*
X131558045Y-56639781D02*
X131653283Y-56449305D01*
X131653283Y-56449305D02*
X131653283Y-54830258D01*
X132319950Y-54830258D02*
X133462807Y-54830258D01*
X132891378Y-56830258D02*
X132891378Y-54830258D01*
X135462808Y-54830258D02*
X136796141Y-54830258D01*
X136796141Y-54830258D02*
X135462808Y-56830258D01*
X135462808Y-56830258D02*
X136796141Y-56830258D01*
X137938998Y-54830258D02*
X138319951Y-54830258D01*
X138319951Y-54830258D02*
X138510427Y-54925496D01*
X138510427Y-54925496D02*
X138700903Y-55115972D01*
X138700903Y-55115972D02*
X138796141Y-55496924D01*
X138796141Y-55496924D02*
X138796141Y-56163591D01*
X138796141Y-56163591D02*
X138700903Y-56544543D01*
X138700903Y-56544543D02*
X138510427Y-56735020D01*
X138510427Y-56735020D02*
X138319951Y-56830258D01*
X138319951Y-56830258D02*
X137938998Y-56830258D01*
X137938998Y-56830258D02*
X137748522Y-56735020D01*
X137748522Y-56735020D02*
X137558046Y-56544543D01*
X137558046Y-56544543D02*
X137462808Y-56163591D01*
X137462808Y-56163591D02*
X137462808Y-55496924D01*
X137462808Y-55496924D02*
X137558046Y-55115972D01*
X137558046Y-55115972D02*
X137748522Y-54925496D01*
X137748522Y-54925496D02*
X137938998Y-54830258D01*
X139653284Y-56830258D02*
X139653284Y-54830258D01*
X139653284Y-54830258D02*
X140796141Y-56830258D01*
X140796141Y-56830258D02*
X140796141Y-54830258D01*
X141748522Y-55782639D02*
X142415189Y-55782639D01*
X142700903Y-56830258D02*
X141748522Y-56830258D01*
X141748522Y-56830258D02*
X141748522Y-54830258D01*
X141748522Y-54830258D02*
X142700903Y-54830258D01*
X127650903Y-65561924D02*
X128127093Y-65561924D01*
X127555665Y-65847639D02*
X127888998Y-64847639D01*
X127888998Y-64847639D02*
X128222331Y-65847639D01*
X128555665Y-65180972D02*
X128555665Y-65847639D01*
X128555665Y-65276210D02*
X128603284Y-65228591D01*
X128603284Y-65228591D02*
X128698522Y-65180972D01*
X128698522Y-65180972D02*
X128841379Y-65180972D01*
X128841379Y-65180972D02*
X128936617Y-65228591D01*
X128936617Y-65228591D02*
X128984236Y-65323829D01*
X128984236Y-65323829D02*
X128984236Y-65847639D01*
X129317570Y-65180972D02*
X129698522Y-65180972D01*
X129460427Y-64847639D02*
X129460427Y-65704781D01*
X129460427Y-65704781D02*
X129508046Y-65800020D01*
X129508046Y-65800020D02*
X129603284Y-65847639D01*
X129603284Y-65847639D02*
X129698522Y-65847639D01*
X130412808Y-65800020D02*
X130317570Y-65847639D01*
X130317570Y-65847639D02*
X130127094Y-65847639D01*
X130127094Y-65847639D02*
X130031856Y-65800020D01*
X130031856Y-65800020D02*
X129984237Y-65704781D01*
X129984237Y-65704781D02*
X129984237Y-65323829D01*
X129984237Y-65323829D02*
X130031856Y-65228591D01*
X130031856Y-65228591D02*
X130127094Y-65180972D01*
X130127094Y-65180972D02*
X130317570Y-65180972D01*
X130317570Y-65180972D02*
X130412808Y-65228591D01*
X130412808Y-65228591D02*
X130460427Y-65323829D01*
X130460427Y-65323829D02*
X130460427Y-65419067D01*
X130460427Y-65419067D02*
X129984237Y-65514305D01*
X130888999Y-65180972D02*
X130888999Y-65847639D01*
X130888999Y-65276210D02*
X130936618Y-65228591D01*
X130936618Y-65228591D02*
X131031856Y-65180972D01*
X131031856Y-65180972D02*
X131174713Y-65180972D01*
X131174713Y-65180972D02*
X131269951Y-65228591D01*
X131269951Y-65228591D02*
X131317570Y-65323829D01*
X131317570Y-65323829D02*
X131317570Y-65847639D01*
X131793761Y-65180972D02*
X131793761Y-65847639D01*
X131793761Y-65276210D02*
X131841380Y-65228591D01*
X131841380Y-65228591D02*
X131936618Y-65180972D01*
X131936618Y-65180972D02*
X132079475Y-65180972D01*
X132079475Y-65180972D02*
X132174713Y-65228591D01*
X132174713Y-65228591D02*
X132222332Y-65323829D01*
X132222332Y-65323829D02*
X132222332Y-65847639D01*
X133127094Y-65847639D02*
X133127094Y-65323829D01*
X133127094Y-65323829D02*
X133079475Y-65228591D01*
X133079475Y-65228591D02*
X132984237Y-65180972D01*
X132984237Y-65180972D02*
X132793761Y-65180972D01*
X132793761Y-65180972D02*
X132698523Y-65228591D01*
X133127094Y-65800020D02*
X133031856Y-65847639D01*
X133031856Y-65847639D02*
X132793761Y-65847639D01*
X132793761Y-65847639D02*
X132698523Y-65800020D01*
X132698523Y-65800020D02*
X132650904Y-65704781D01*
X132650904Y-65704781D02*
X132650904Y-65609543D01*
X132650904Y-65609543D02*
X132698523Y-65514305D01*
X132698523Y-65514305D02*
X132793761Y-65466686D01*
X132793761Y-65466686D02*
X133031856Y-65466686D01*
X133031856Y-65466686D02*
X133127094Y-65419067D01*
%TO.C,H1*%
X105800000Y-108317800D02*
G75*
G02*
X100200000Y-108317800I-2800000J0D01*
G01*
X100200000Y-108317800D02*
G75*
G02*
X105800000Y-108317800I2800000J0D01*
G01*
%TO.C,H4*%
X105800000Y-65317800D02*
G75*
G02*
X100200000Y-65317800I-2800000J0D01*
G01*
X100200000Y-65317800D02*
G75*
G02*
X105800000Y-65317800I2800000J0D01*
G01*
%TO.C,H2*%
X160800000Y-65317800D02*
G75*
G02*
X155200000Y-65317800I-2800000J0D01*
G01*
X155200000Y-65317800D02*
G75*
G02*
X160800000Y-65317800I2800000J0D01*
G01*
%TO.C,H3*%
X175800000Y-108317800D02*
G75*
G02*
X170200000Y-108317800I-2800000J0D01*
G01*
X170200000Y-108317800D02*
G75*
G02*
X175800000Y-108317800I2800000J0D01*
G01*
%TD*%
M02*
