%TF.GenerationSoftware,KiCad,Pcbnew,8.0.4*%
%TF.CreationDate,2025-02-12T15:13:01+01:00*%
%TF.ProjectId,SimpleLedController,53696d70-6c65-44c6-9564-436f6e74726f,A*%
%TF.SameCoordinates,Original*%
%TF.FileFunction,Copper,L4,Bot*%
%TF.FilePolarity,Positive*%
%FSLAX46Y46*%
G04 Gerber Fmt 4.6, Leading zero omitted, Abs format (unit mm)*
G04 Created by KiCad (PCBNEW 8.0.4) date 2025-02-12 15:13:01*
%MOMM*%
%LPD*%
G01*
G04 APERTURE LIST*
%TA.AperFunction,ComponentPad*%
%ADD10C,5.600000*%
%TD*%
%TA.AperFunction,ComponentPad*%
%ADD11C,0.600000*%
%TD*%
%TA.AperFunction,ComponentPad*%
%ADD12C,0.630000*%
%TD*%
%TA.AperFunction,SMDPad,CuDef*%
%ADD13R,2.600000X3.300000*%
%TD*%
%TA.AperFunction,ComponentPad*%
%ADD14R,2.000000X4.500000*%
%TD*%
%TA.AperFunction,ComponentPad*%
%ADD15O,2.000000X4.000000*%
%TD*%
%TA.AperFunction,ComponentPad*%
%ADD16O,4.000000X2.000000*%
%TD*%
%TA.AperFunction,ComponentPad*%
%ADD17R,3.960000X1.980000*%
%TD*%
%TA.AperFunction,ComponentPad*%
%ADD18O,3.960000X1.980000*%
%TD*%
%TA.AperFunction,HeatsinkPad*%
%ADD19C,0.600000*%
%TD*%
%TA.AperFunction,ComponentPad*%
%ADD20O,2.300000X1.300000*%
%TD*%
%TA.AperFunction,ComponentPad*%
%ADD21O,2.100000X1.300000*%
%TD*%
%TA.AperFunction,ViaPad*%
%ADD22C,0.600000*%
%TD*%
%TA.AperFunction,Conductor*%
%ADD23C,0.200000*%
%TD*%
%TA.AperFunction,Conductor*%
%ADD24C,0.300000*%
%TD*%
%TA.AperFunction,Conductor*%
%ADD25C,0.150000*%
%TD*%
G04 APERTURE END LIST*
D10*
%TO.P,H1,1,1*%
%TO.N,GND*%
X103000000Y-108317800D03*
%TD*%
D11*
%TO.P,U24,9,GND*%
%TO.N,GND*%
X171654251Y-97069612D03*
D12*
X171654251Y-98369612D03*
X171654251Y-99669612D03*
D13*
X172304251Y-98369612D03*
D12*
X172954251Y-97069612D03*
X172954251Y-98369612D03*
X172954251Y-99669612D03*
%TD*%
D14*
%TO.P,J1,1*%
%TO.N,/USB_PD/UVP-OVP/Vin*%
X113488600Y-99662000D03*
D15*
%TO.P,J1,2*%
%TO.N,GND*%
X107288600Y-99662000D03*
D16*
%TO.P,J1,3*%
%TO.N,N/C*%
X110288600Y-104362000D03*
%TD*%
D17*
%TO.P,J5,1,Pin_1*%
%TO.N,+12V*%
X183071941Y-109024714D03*
D18*
%TO.P,J5,2,Pin_2*%
%TO.N,/MCU/5V WS2812 and Servo/5V Data{slash}PWM*%
X183071941Y-104024714D03*
%TO.P,J5,3,Pin_3*%
%TO.N,GND*%
X183071941Y-99024714D03*
%TD*%
D19*
%TO.P,U22,41,GND*%
%TO.N,GND*%
X127562808Y-76592820D03*
X127562808Y-77992820D03*
X128262808Y-75892820D03*
X128262808Y-77292820D03*
X128262808Y-78692820D03*
X128962808Y-76592820D03*
X128962808Y-77992820D03*
X129662808Y-75892820D03*
X129662808Y-77292820D03*
X129662808Y-78692820D03*
X130362808Y-76592820D03*
X130362808Y-77992820D03*
%TD*%
D20*
%TO.P,J3,S1,SHIELD*%
%TO.N,Net-(J3-SHIELD)*%
X106325000Y-82112800D03*
D21*
X102125000Y-82112800D03*
D11*
X103505000Y-84442800D03*
X101505000Y-84442800D03*
X103505000Y-88442800D03*
X101505000Y-88442800D03*
D20*
X106325000Y-90772800D03*
D21*
X102125000Y-90772800D03*
%TD*%
D10*
%TO.P,H4,1,1*%
%TO.N,unconnected-(H4-Pad1)*%
X103000000Y-65317800D03*
%TD*%
D17*
%TO.P,J14,1,Pin_1*%
%TO.N,Net-(J14-Pin_1)*%
X183061941Y-81474898D03*
D18*
%TO.P,J14,2,Pin_2*%
%TO.N,Net-(J14-Pin_2)*%
X183061941Y-76474898D03*
%TD*%
D10*
%TO.P,H2,1,1*%
%TO.N,unconnected-(H2-Pad1)*%
X158000000Y-65317800D03*
%TD*%
D17*
%TO.P,J13,1,Pin_1*%
%TO.N,Net-(J13-Pin_1)*%
X183061941Y-70229990D03*
D18*
%TO.P,J13,2,Pin_2*%
%TO.N,Net-(J13-Pin_2)*%
X183061941Y-65229990D03*
%TD*%
D17*
%TO.P,J12,1,Pin_1*%
%TO.N,Net-(J12-Pin_1)*%
X183061941Y-92719806D03*
D18*
%TO.P,J12,2,Pin_2*%
%TO.N,Net-(J12-Pin_2)*%
X183061941Y-87719806D03*
%TD*%
D12*
%TO.P,U27,9,GND*%
%TO.N,GND*%
X171654251Y-68649000D03*
X171654251Y-69949000D03*
X171654251Y-71249000D03*
D13*
X172304251Y-69949000D03*
D12*
X172954251Y-68649000D03*
X172954251Y-69949000D03*
X172954251Y-71249000D03*
%TD*%
D10*
%TO.P,H3,1,1*%
%TO.N,unconnected-(H3-Pad1)*%
X173000000Y-108317800D03*
%TD*%
D12*
%TO.P,U30,9,GND*%
%TO.N,GND*%
X171654251Y-82642520D03*
X171654251Y-83942520D03*
X171654251Y-85242520D03*
D13*
X172304251Y-83942520D03*
D12*
X172954251Y-82642520D03*
X172954251Y-83942520D03*
X172954251Y-85242520D03*
%TD*%
D22*
%TO.N,+12V*%
X174091600Y-88493600D03*
%TO.N,+3V3*%
X120269000Y-70764400D03*
%TO.N,Net-(U24-ISEN)*%
X174701200Y-94386400D03*
%TO.N,+12V*%
X177088800Y-102260400D03*
X159667400Y-100609400D03*
X159664400Y-101752400D03*
X159667400Y-98298000D03*
X159664400Y-99441000D03*
%TO.N,+5V*%
X131902200Y-89763600D03*
%TO.N,Net-(U24-ISEN)*%
X178714400Y-96215200D03*
%TO.N,+12V*%
X176199800Y-73304400D03*
%TO.N,Net-(U30-ISEN)*%
X176555400Y-80594200D03*
X178943000Y-82626200D03*
%TO.N,Net-(U27-ISEN)*%
X178866800Y-68554600D03*
X174802800Y-66090800D03*
%TO.N,GND*%
X142739533Y-100990400D03*
X141554200Y-100990400D03*
%TO.N,/USB_PD/VBUS*%
X144957800Y-97866200D03*
X144068800Y-97866200D03*
X143129000Y-97891600D03*
X146558000Y-93751400D03*
X147497800Y-93726000D03*
X146583400Y-94691200D03*
X147523200Y-94665800D03*
%TO.N,+12V*%
X155778200Y-92549200D03*
%TO.N,GND*%
X156413200Y-101854000D03*
X156413200Y-100689226D03*
X156413200Y-99524455D03*
X156413200Y-98359684D03*
X156413200Y-94865371D03*
X156413200Y-93700600D03*
X143924866Y-100990400D03*
X145110200Y-100990400D03*
X132308600Y-92837000D03*
X177396600Y-63474600D03*
X109245400Y-81483200D03*
X156413200Y-96030142D03*
X140360400Y-106121200D03*
X103482600Y-94337600D03*
X133451600Y-92837000D03*
X127358600Y-100459000D03*
X140480600Y-92093000D03*
X146111614Y-111000000D03*
X120446800Y-68656200D03*
X148440600Y-68709000D03*
X172720000Y-101600000D03*
X114303000Y-91188000D03*
X141252400Y-86819200D03*
X108256600Y-90805000D03*
X139880600Y-92693000D03*
X102644400Y-72112600D03*
X174421800Y-89382600D03*
X106429000Y-78234000D03*
X117681200Y-95607600D03*
X139344400Y-106121200D03*
X164503750Y-83110800D03*
X165430200Y-93970400D03*
X161390684Y-111000000D03*
X108161496Y-89933104D03*
X132816600Y-95885000D03*
X176301400Y-75793600D03*
X134493000Y-92811600D03*
X160518300Y-92102400D03*
X138534600Y-100306600D03*
X159845200Y-86463600D03*
X159032400Y-88698800D03*
X115420600Y-92966000D03*
X121607185Y-87595634D03*
X168354200Y-63578200D03*
X104879600Y-94337600D03*
X132410200Y-109169200D03*
X116665200Y-110898400D03*
X101526800Y-79021400D03*
X159354435Y-73680235D03*
X161521600Y-98046000D03*
X156413200Y-97194913D03*
X120983200Y-92966000D03*
X139776200Y-108331000D03*
X153862000Y-98894900D03*
X151564800Y-83034600D03*
X171808600Y-87251000D03*
X117198600Y-92966000D03*
X156806963Y-111000000D03*
X124968000Y-95402400D03*
X159261000Y-92102400D03*
X176453800Y-63474600D03*
X158092600Y-75897200D03*
X144122600Y-68709000D03*
X145494200Y-90451400D03*
X161547000Y-88698800D03*
X133553200Y-109169200D03*
X153774600Y-76075000D03*
X162537600Y-63756000D03*
X148567600Y-87403400D03*
X163375800Y-105005600D03*
X100434600Y-94337600D03*
X162918600Y-111000000D03*
X139750800Y-105359200D03*
X126596600Y-100459000D03*
X175818800Y-75107800D03*
X110416800Y-94337600D03*
X174917100Y-90170000D03*
X160289700Y-88698800D03*
X155279056Y-111000000D03*
X151615600Y-93855000D03*
X108204000Y-82321400D03*
X148437600Y-99441000D03*
X175945800Y-90170000D03*
X159692800Y-77546200D03*
X118637200Y-89283000D03*
X151564800Y-76608400D03*
X144583707Y-111000000D03*
X160756600Y-77546200D03*
X135486600Y-101602000D03*
X143055800Y-111000000D03*
X147142200Y-99441000D03*
X124615400Y-102084600D03*
X137137600Y-108331000D03*
X106429000Y-79908400D03*
X129136600Y-100459000D03*
X153873200Y-97967800D03*
X147624800Y-109829600D03*
X161848800Y-77546200D03*
X159862777Y-111000000D03*
X139880600Y-91493000D03*
X122140132Y-68656200D03*
X124968000Y-92354400D03*
X128120600Y-100459000D03*
X131724400Y-95885000D03*
X162885535Y-71454865D03*
X121948400Y-92966000D03*
X172824600Y-87251000D03*
X122986800Y-68656200D03*
X170441398Y-64996202D03*
X131800600Y-111023400D03*
X111051800Y-76583000D03*
X161848800Y-74144600D03*
X161775600Y-92102400D03*
X140480600Y-93293000D03*
X108204000Y-81483200D03*
X152223242Y-111000000D03*
X124968000Y-93878400D03*
X121928100Y-101221000D03*
X110493000Y-81129600D03*
X165204600Y-79300800D03*
X114912600Y-110898400D03*
X121538369Y-95608000D03*
X133400800Y-111023400D03*
X177396600Y-62654000D03*
X109245400Y-82321400D03*
X113693400Y-70233000D03*
X108204000Y-83210400D03*
X165478500Y-71655400D03*
X108256600Y-91668600D03*
X149167428Y-111000000D03*
X175450500Y-89382600D03*
X109578600Y-76583000D03*
X129898600Y-100459000D03*
X137769600Y-69429800D03*
X145316400Y-85320600D03*
X149710600Y-93855000D03*
X152834800Y-68709000D03*
X150695335Y-111000000D03*
X130660600Y-100459000D03*
X139725400Y-68554600D03*
X172182241Y-91804105D03*
X104498600Y-78996000D03*
X108229400Y-92481400D03*
X112414759Y-74199554D03*
X174117000Y-75793600D03*
X147639521Y-111000000D03*
X161531565Y-101830235D03*
X159870600Y-82961001D03*
X160756600Y-74154200D03*
X114557000Y-68656200D03*
X109245400Y-83210400D03*
X171935600Y-73222202D03*
X171907200Y-101600000D03*
X138379200Y-68580000D03*
X141328600Y-76497200D03*
X169395600Y-91073603D03*
X175260000Y-75742800D03*
X137442400Y-100332000D03*
X161239200Y-68224400D03*
X176453800Y-62654000D03*
X134213600Y-111023400D03*
X177393600Y-64312800D03*
X148440600Y-98348800D03*
X158334870Y-111000000D03*
X112906000Y-109323600D03*
X163375800Y-107825000D03*
X172697600Y-73222202D03*
X150726600Y-79834200D03*
X174599600Y-75107800D03*
X153850800Y-99822000D03*
X133375400Y-95173800D03*
X165712600Y-98935000D03*
X132588000Y-111023400D03*
X135610600Y-92811600D03*
X135994600Y-100332000D03*
X121293466Y-68656200D03*
X172542200Y-75996800D03*
X173888400Y-90170000D03*
X132334000Y-95173800D03*
X124968000Y-96926400D03*
X170172283Y-79364861D03*
X140716000Y-105359200D03*
X163680600Y-79275400D03*
X163375800Y-106415300D03*
X115420600Y-68656200D03*
X113693400Y-68656200D03*
%TO.N,+5V*%
X135216800Y-89763600D03*
X144097200Y-90451400D03*
X112779000Y-86362000D03*
X133057600Y-89763600D03*
X136296400Y-89763600D03*
X134137200Y-89763600D03*
%TO.N,+3V3*%
X143487600Y-85279400D03*
X166220600Y-83949000D03*
X170815000Y-77419200D03*
X137744200Y-111074200D03*
X168354200Y-62740000D03*
X136448800Y-111074200D03*
X156898800Y-87378000D03*
X116332000Y-70764400D03*
X165636400Y-64772000D03*
X139166600Y-111054000D03*
X135588200Y-104650000D03*
X169421000Y-101652800D03*
X148999400Y-72163400D03*
X165735000Y-87985600D03*
X145316400Y-87082800D03*
X164668200Y-87985600D03*
X145316400Y-78843600D03*
X170132200Y-72468200D03*
X166246000Y-79005200D03*
X165478500Y-69039200D03*
X168659000Y-72468200D03*
X169395600Y-72468200D03*
X166474600Y-100535200D03*
X171300600Y-90857800D03*
X171935600Y-63146400D03*
X135534400Y-110617000D03*
X115468400Y-70764400D03*
X168659000Y-101678200D03*
X142363100Y-79791178D03*
X163452000Y-83771200D03*
X170081400Y-88063800D03*
X140360400Y-111054000D03*
X162537600Y-62765400D03*
X165230000Y-85828600D03*
X115468400Y-69850000D03*
X151564800Y-79250000D03*
X167354000Y-93575600D03*
X162156600Y-81078800D03*
X117170200Y-70764400D03*
%TO.N,/MCU/Buttons/Buttons.BTN1*%
X123218400Y-78538800D03*
X145316400Y-79656400D03*
%TO.N,/USB_PD/UVP-OVP/Vin*%
X113058400Y-104142000D03*
X114125200Y-104142000D03*
X114633200Y-104650000D03*
X122075400Y-106072400D03*
X113591800Y-104650000D03*
X120322800Y-110644400D03*
X116411200Y-106555000D03*
X122776600Y-103532400D03*
X120145000Y-103507000D03*
%TO.N,Net-(Q3-S)*%
X115595400Y-99009200D03*
X109474000Y-84861400D03*
X105279000Y-88692800D03*
X109626400Y-84074000D03*
X116382800Y-99009200D03*
X123802600Y-97842800D03*
X117170200Y-99009200D03*
X116814600Y-98298000D03*
X104724200Y-88138000D03*
X113414000Y-93067600D03*
X104216200Y-89585800D03*
X115976400Y-98298000D03*
X119766869Y-95039167D03*
X105079800Y-89611200D03*
X108740400Y-84050600D03*
X108661200Y-84861400D03*
%TO.N,/MCU/ESP32S3/I2C1.SDA*%
X163807600Y-74752200D03*
X124117000Y-76887800D03*
%TO.N,+12V*%
X169595800Y-75615800D03*
X175361600Y-102260400D03*
X176631600Y-73964800D03*
X175765000Y-101572600D03*
X168808400Y-74777600D03*
X169595800Y-74752200D03*
X169395600Y-90273600D03*
X159664400Y-94716600D03*
X168024000Y-104192800D03*
X165771866Y-105000000D03*
X169395600Y-89486200D03*
X174828200Y-88087200D03*
X164645800Y-105000000D03*
X175539400Y-88468200D03*
X176022000Y-87782400D03*
X164645800Y-104192800D03*
X168808400Y-75615800D03*
X176225200Y-102260400D03*
X168808400Y-76454000D03*
X168608200Y-90273600D03*
X176682400Y-101574600D03*
X168608200Y-89511600D03*
X166897932Y-104192800D03*
X175742600Y-73990200D03*
X175272700Y-73304400D03*
X174828200Y-73990200D03*
X165771866Y-104192800D03*
X168024000Y-105000000D03*
X166897932Y-105000000D03*
X169595800Y-76428600D03*
X159664400Y-97104200D03*
X159667400Y-93624400D03*
X159667400Y-95961200D03*
X175463200Y-87096600D03*
%TO.N,/MCU/ESP32S3/I2C1.SCL*%
X163680600Y-77776800D03*
X136629600Y-75770200D03*
%TO.N,/MCU/5V WS2812 and Servo/5V Data{slash}PWM*%
X145011600Y-93042200D03*
X170386200Y-104142000D03*
%TO.N,/MCU/CH340 prog/UART_PROG.RST*%
X111610600Y-69267800D03*
X120348200Y-72087200D03*
%TO.N,/MCU/CH340 prog/UART_PROG.BOOT*%
X110518400Y-72265000D03*
X139220400Y-87413000D03*
%TO.N,/USB_PD/VBUS*%
X128240366Y-104573800D03*
X148085000Y-96979200D03*
X127702733Y-105308400D03*
X106784600Y-94337600D03*
X119100600Y-99618800D03*
X128811866Y-105308400D03*
X129921000Y-105308400D03*
X118036800Y-99644200D03*
X118113000Y-97385600D03*
X132305600Y-102844600D03*
X104651000Y-72112600D03*
X143179800Y-95326200D03*
X150743591Y-103022400D03*
X126593600Y-105308400D03*
X104651000Y-74855800D03*
X131495800Y-102362000D03*
X131495800Y-103200200D03*
X118062200Y-101322600D03*
X131448000Y-101551200D03*
X129387600Y-104573800D03*
X119100600Y-101295200D03*
X120091200Y-99491800D03*
X119049800Y-97383600D03*
X121056400Y-99466400D03*
X132257800Y-101195600D03*
X119862600Y-96951800D03*
X132280200Y-101981000D03*
X100510800Y-79961200D03*
X118795800Y-95785400D03*
X127093133Y-104573800D03*
X119786400Y-95935800D03*
X105537000Y-79908400D03*
X145008600Y-95300800D03*
%TO.N,/MCU/ESP32S3/I2C2.SDA*%
X155920900Y-80494600D03*
X123218400Y-75871800D03*
%TO.N,/MCU/ESP32S3/VSPI.CS*%
X154536600Y-84457000D03*
X128603200Y-82552000D03*
%TO.N,/MCU/ESP32S3/Hbridge2.IN1*%
X167960600Y-85217000D03*
X133632400Y-88493000D03*
%TO.N,/MCU/ESP32S3/VSPI.MISO*%
X131439533Y-84660200D03*
X148262800Y-85473000D03*
%TO.N,/MCU/ESP32S3/I2C2.SCL*%
X120297400Y-75871800D03*
X151564800Y-80494600D03*
%TO.N,/MCU/CH340 prog/UART_PROG.TX*%
X116182600Y-74551000D03*
X132413200Y-74551000D03*
%TO.N,/MCU/ESP32S3/Hbridge1.IN1*%
X136972500Y-71947500D03*
X167989000Y-70639400D03*
%TO.N,/MCU/ESP32S3/Hbridge3.IN2*%
X140489673Y-85533400D03*
X132819600Y-84660200D03*
X162690000Y-94972600D03*
X141557200Y-90451400D03*
%TO.N,/MCU/ESP32S3/Hbridge2.IN2*%
X157457600Y-83212400D03*
X137112200Y-84660200D03*
%TO.N,/MCU/ESP32S3/VSPI.MOSI*%
X128603200Y-84660200D03*
X151564800Y-84304600D03*
%TO.N,/MCU/ESP32S3/Hbridge3.IN1*%
X145316400Y-83466400D03*
X154028600Y-89486200D03*
X168044332Y-99539532D03*
X134275866Y-84660200D03*
%TO.N,/MCU/CH340 prog/UART_PROG.RX*%
X115217400Y-73535000D03*
X135359600Y-73382820D03*
%TO.N,/MCU/ESP32S3/VSPI.SCK*%
X150828200Y-89486200D03*
X129898600Y-88521000D03*
%TO.N,/MCU/ESP32S3/Hbridge1.IN2*%
X133708600Y-71604600D03*
X159921400Y-70156800D03*
%TO.N,/MCU/POWER SECTION/DRV1/IN22*%
X164934100Y-67066900D03*
X167989000Y-69318600D03*
%TO.N,/MCU/POWER SECTION/DRV2/IN22*%
X162156600Y-84787200D03*
X167960600Y-83921600D03*
%TO.N,Net-(U9-A0)*%
X167834865Y-65911265D03*
X165636400Y-62740000D03*
%TO.N,Net-(U10-A0)*%
X164503750Y-81086450D03*
X169341800Y-81105972D03*
%TO.N,Net-(U9-A1)*%
X168118588Y-67058000D03*
X165636400Y-63724385D03*
%TO.N,Net-(U10-A1)*%
X164503750Y-82120200D03*
X168224200Y-81127600D03*
%TO.N,Net-(U24-ISEN)*%
X178638200Y-97053400D03*
X175031400Y-95123000D03*
X175844200Y-95148400D03*
X177012600Y-97612200D03*
X177800000Y-97764600D03*
X177850800Y-97002600D03*
X176301400Y-94386400D03*
X175488600Y-94386400D03*
%TO.N,Net-(U27-ISEN)*%
X176809400Y-69291200D03*
X175641000Y-66090800D03*
X175209200Y-66827400D03*
X178451932Y-69291200D03*
X177630666Y-69291200D03*
X179324000Y-69545200D03*
X176098200Y-66827400D03*
X176504600Y-66090800D03*
%TO.N,Net-(U30-ISEN)*%
X176784000Y-83362800D03*
X178384200Y-83362800D03*
X176174400Y-79883000D03*
X179247800Y-83362800D03*
X177546000Y-83362800D03*
X175107600Y-79883000D03*
X174574200Y-80568800D03*
X175590200Y-80568800D03*
%TO.N,/USB_PD/VBUS*%
X144119600Y-95300800D03*
%TO.N,GND*%
X153751149Y-111000000D03*
%TD*%
D23*
%TO.N,Net-(U9-A1)*%
X165789985Y-63724385D02*
X165712600Y-63647000D01*
X166674800Y-64058800D02*
X166340385Y-63724385D01*
X166340385Y-63724385D02*
X165789985Y-63724385D01*
X166674800Y-66369200D02*
X166674800Y-64058800D01*
X167363600Y-67058000D02*
X166674800Y-66369200D01*
X168074800Y-67058000D02*
X167363600Y-67058000D01*
%TO.N,/MCU/ESP32S3/VSPI.SCK*%
X131191000Y-90779600D02*
X129898600Y-89487200D01*
X137520600Y-90779600D02*
X131191000Y-90779600D01*
X129898600Y-89487200D02*
X129898600Y-88521000D01*
X138712400Y-89587800D02*
X137520600Y-90779600D01*
X150660000Y-89587800D02*
X138712400Y-89587800D01*
X150828200Y-89419600D02*
X150660000Y-89587800D01*
%TO.N,Net-(Q3-S)*%
X116892800Y-98350800D02*
X116814600Y-98272600D01*
X120475200Y-98350800D02*
X116892800Y-98350800D01*
%TO.N,/USB_PD/VBUS*%
X149634400Y-96979200D02*
X148085000Y-96979200D01*
X150752000Y-98096800D02*
X149634400Y-96979200D01*
X150752000Y-103013991D02*
X150752000Y-98096800D01*
X150743591Y-103022400D02*
X150752000Y-103013991D01*
%TO.N,Net-(J3-SHIELD)*%
X106611175Y-90778838D02*
X102411175Y-90778838D01*
X106611175Y-82118838D02*
X102411175Y-82118838D01*
%TO.N,+3V3*%
X167354000Y-93575600D02*
X167709600Y-93931200D01*
X167709600Y-93931200D02*
X168557400Y-93931200D01*
X166474600Y-100535200D02*
X168557400Y-100535200D01*
%TO.N,/MCU/Buttons/Buttons.BTN1*%
X143538400Y-78691200D02*
X135740600Y-78691200D01*
X134343600Y-80088200D02*
X124031200Y-80088200D01*
X135740600Y-78691200D02*
X134343600Y-80088200D01*
X144503600Y-79656400D02*
X143538400Y-78691200D01*
X145316400Y-79656400D02*
X144503600Y-79656400D01*
X123218400Y-79275400D02*
X123218400Y-78538800D01*
X124031200Y-80088200D02*
X123218400Y-79275400D01*
%TO.N,Net-(Q3-S)*%
X123294600Y-98350800D02*
X120475200Y-98350800D01*
X120500600Y-95772898D02*
X120500600Y-98325400D01*
X123802600Y-97842800D02*
X123294600Y-98350800D01*
X119766869Y-95039167D02*
X120500600Y-95772898D01*
X120500600Y-98325400D02*
X120475200Y-98350800D01*
%TO.N,/MCU/ESP32S3/I2C1.SDA*%
X125711980Y-75292820D02*
X124117000Y-76887800D01*
X163805600Y-74754200D02*
X135327314Y-74754200D01*
X134158914Y-75922600D02*
X130541117Y-75922600D01*
X129911337Y-75292820D02*
X125711980Y-75292820D01*
X163807600Y-74752200D02*
X163805600Y-74754200D01*
X130541117Y-75922600D02*
X129911337Y-75292820D01*
X135327314Y-74754200D02*
X134158914Y-75922600D01*
%TO.N,/MCU/ESP32S3/I2C1.SCL*%
X157102000Y-77167200D02*
X157610000Y-76659200D01*
X162613800Y-76659200D02*
X163731400Y-77776800D01*
X152631600Y-75897200D02*
X153901600Y-77167200D01*
X153901600Y-77167200D02*
X157102000Y-77167200D01*
X136782000Y-75897200D02*
X152631600Y-75897200D01*
X157610000Y-76659200D02*
X162613800Y-76659200D01*
X136655000Y-75770200D02*
X136782000Y-75897200D01*
D24*
%TO.N,/MCU/5V WS2812 and Servo/5V Data{slash}PWM*%
X150802800Y-93093000D02*
X145062400Y-93093000D01*
X157330600Y-91899200D02*
X151996600Y-91899200D01*
X151996600Y-91899200D02*
X150802800Y-93093000D01*
X158549800Y-93118400D02*
X157330600Y-91899200D01*
X158549800Y-101881400D02*
X158549800Y-93118400D01*
X160175400Y-103507000D02*
X158549800Y-101881400D01*
X169751200Y-103507000D02*
X160175400Y-103507000D01*
X170386200Y-104142000D02*
X169751200Y-103507000D01*
X145062400Y-93093000D02*
X145011600Y-93042200D01*
D23*
%TO.N,/MCU/CH340 prog/UART_PROG.RST*%
X112321800Y-72087200D02*
X120348200Y-72087200D01*
X111610600Y-69267800D02*
X111610600Y-71376000D01*
X111610600Y-71376000D02*
X112321800Y-72087200D01*
%TO.N,/MCU/CH340 prog/UART_PROG.BOOT*%
X116843000Y-77700600D02*
X115293600Y-76151200D01*
X116843000Y-83491800D02*
X116843000Y-77700600D01*
X139220400Y-87413000D02*
X138880600Y-87073200D01*
X129898600Y-85904800D02*
X119256000Y-85904800D01*
X131067000Y-87073200D02*
X129898600Y-85904800D01*
X115293600Y-76151200D02*
X112169400Y-76151200D01*
X110518400Y-74500200D02*
X110518400Y-72265000D01*
X138880600Y-87073200D02*
X131067000Y-87073200D01*
X119256000Y-85904800D02*
X116843000Y-83491800D01*
X112169400Y-76151200D02*
X110518400Y-74500200D01*
%TO.N,/MCU/ESP32S3/I2C2.SDA*%
X149075600Y-78259400D02*
X148237400Y-77421200D01*
X154396900Y-80431100D02*
X152225200Y-78259400D01*
X125377400Y-79326200D02*
X123243800Y-77192600D01*
X148237400Y-77421200D02*
X133429200Y-77421200D01*
X152225200Y-78259400D02*
X149075600Y-78259400D01*
X131524200Y-79326200D02*
X125377400Y-79326200D01*
X123243800Y-77192600D02*
X123243800Y-75998800D01*
X123243800Y-75998800D02*
X123396200Y-75846400D01*
X133429200Y-77421200D02*
X131524200Y-79326200D01*
X155920900Y-80431100D02*
X154396900Y-80431100D01*
%TO.N,/MCU/ESP32S3/VSPI.CS*%
X129390600Y-81663000D02*
X152657000Y-81663000D01*
X128501600Y-82552000D02*
X129390600Y-81663000D01*
X152657000Y-81663000D02*
X154536600Y-83542600D01*
X154536600Y-83542600D02*
X154536600Y-84457000D01*
%TO.N,/MCU/ESP32S3/Hbridge2.IN1*%
X133685800Y-88546400D02*
X133632400Y-88493000D01*
X167960600Y-85217000D02*
X166079000Y-87098600D01*
X166079000Y-87098600D02*
X158676800Y-87098600D01*
X158676800Y-87098600D02*
X157229000Y-88546400D01*
X157229000Y-88546400D02*
X133685800Y-88546400D01*
%TO.N,/MCU/ESP32S3/VSPI.MISO*%
X131930600Y-86158800D02*
X131439533Y-85667733D01*
X148262800Y-85473000D02*
X147577000Y-86158800D01*
X131439533Y-85667733D02*
X131439533Y-84660200D01*
X147577000Y-86158800D02*
X131930600Y-86158800D01*
%TO.N,/MCU/ESP32S3/I2C2.SCL*%
X151564800Y-80494600D02*
X151183800Y-80875600D01*
X122329400Y-80875600D02*
X120297400Y-78843600D01*
X120297400Y-78843600D02*
X120297400Y-75871800D01*
X151183800Y-80875600D02*
X122329400Y-80875600D01*
%TO.N,/MCU/CH340 prog/UART_PROG.TX*%
X132362400Y-74601800D02*
X132413200Y-74551000D01*
X116233400Y-74601800D02*
X132362400Y-74601800D01*
X116182600Y-74551000D02*
X116233400Y-74601800D01*
%TO.N,/MCU/ESP32S3/Hbridge1.IN1*%
X150040800Y-73357200D02*
X150879000Y-72519000D01*
X167989000Y-71487200D02*
X167989000Y-70639400D01*
X150879000Y-72519000D02*
X166957200Y-72519000D01*
X138382200Y-73357200D02*
X150040800Y-73357200D01*
X136972500Y-71947500D02*
X138382200Y-73357200D01*
X166957200Y-72519000D02*
X167989000Y-71487200D01*
%TO.N,/MCU/ESP32S3/Hbridge3.IN2*%
X140429273Y-85473000D02*
X140489673Y-85533400D01*
X141557200Y-90451400D02*
X142157200Y-91051400D01*
X163347400Y-94315200D02*
X162690000Y-94972600D01*
X163347400Y-91922600D02*
X163347400Y-94315200D01*
X133632400Y-85473000D02*
X140429273Y-85473000D01*
X162476200Y-91051400D02*
X163347400Y-91922600D01*
X132819600Y-84660200D02*
X133632400Y-85473000D01*
X142157200Y-91051400D02*
X162476200Y-91051400D01*
%TO.N,/MCU/ESP32S3/Hbridge2.IN2*%
X137112200Y-84660200D02*
X137417000Y-84355400D01*
X149075600Y-84355400D02*
X150091600Y-85371400D01*
X157432200Y-83237800D02*
X157457600Y-83212400D01*
X157432200Y-84939600D02*
X157432200Y-83237800D01*
X157000400Y-85371400D02*
X157432200Y-84939600D01*
X137417000Y-84355400D02*
X149075600Y-84355400D01*
X150091600Y-85371400D02*
X157000400Y-85371400D01*
%TO.N,/MCU/ESP32S3/VSPI.MOSI*%
X130736800Y-82552000D02*
X128628600Y-84660200D01*
X128628600Y-84660200D02*
X128628600Y-84711000D01*
X151387000Y-84304600D02*
X151387000Y-84126800D01*
X151387000Y-84126800D02*
X149812200Y-82552000D01*
X149812200Y-82552000D02*
X130736800Y-82552000D01*
%TO.N,/MCU/ESP32S3/Hbridge3.IN1*%
X166754000Y-98249200D02*
X168044332Y-99539532D01*
X154028600Y-89486200D02*
X154079400Y-89435400D01*
X134750000Y-83466400D02*
X134275866Y-83940534D01*
X145316400Y-83466400D02*
X134750000Y-83466400D01*
X154079400Y-89435400D02*
X163426600Y-89435400D01*
X166754000Y-92762800D02*
X166754000Y-98249200D01*
X134275866Y-83940534D02*
X134275866Y-84660200D01*
X163426600Y-89435400D02*
X166754000Y-92762800D01*
%TO.N,/MCU/CH340 prog/UART_PROG.RX*%
X115293600Y-73458800D02*
X115217400Y-73535000D01*
X135283620Y-73458800D02*
X115293600Y-73458800D01*
X135359600Y-73382820D02*
X135283620Y-73458800D01*
%TO.N,/MCU/ESP32S3/Hbridge1.IN2*%
X159921400Y-70156800D02*
X159769000Y-70004400D01*
X159769000Y-70029800D02*
X135283400Y-70029800D01*
X135283400Y-70029800D02*
X133708600Y-71604600D01*
%TO.N,/MCU/POWER SECTION/DRV1/IN22*%
X167287400Y-69318600D02*
X167989000Y-69318600D01*
X164934100Y-67066900D02*
X165035700Y-67066900D01*
X165035700Y-67066900D02*
X167287400Y-69318600D01*
%TO.N,/MCU/POWER SECTION/DRV2/IN22*%
X167797400Y-83921600D02*
X166931800Y-84787200D01*
X166931800Y-84787200D02*
X162156600Y-84787200D01*
X167960600Y-83921600D02*
X167797400Y-83921600D01*
%TO.N,Net-(U9-A0)*%
X167834865Y-65911265D02*
X167834865Y-64100265D01*
X166474600Y-62740000D02*
X165560200Y-62740000D01*
X167834865Y-64100265D02*
X166474600Y-62740000D01*
%TO.N,Net-(U10-A0)*%
X165992000Y-79580200D02*
X164503750Y-81068450D01*
D25*
X168709800Y-79580200D02*
X165992000Y-79580200D01*
X169341800Y-80212200D02*
X168709800Y-79580200D01*
X169341800Y-81105972D02*
X169341800Y-80212200D01*
D23*
X164503750Y-81068450D02*
X164503750Y-81086450D01*
%TO.N,Net-(U10-A1)*%
X168224200Y-81127600D02*
X167010000Y-81127600D01*
X167010000Y-81127600D02*
X166017400Y-82120200D01*
X166017400Y-82120200D02*
X164518800Y-82120200D01*
%TD*%
%TA.AperFunction,Conductor*%
%TO.N,+3V3*%
G36*
X170046277Y-67890485D02*
G01*
X170066919Y-67907119D01*
X170467432Y-68307632D01*
X170500917Y-68368955D01*
X170503751Y-68395313D01*
X170503751Y-71646870D01*
X170503752Y-71646876D01*
X170510159Y-71706481D01*
X170514823Y-71718985D01*
X170530782Y-71761774D01*
X170538600Y-71805106D01*
X170538600Y-72722200D01*
X171110963Y-73294563D01*
X171144448Y-73355886D01*
X171146502Y-73368360D01*
X171150230Y-73401449D01*
X171150231Y-73401454D01*
X171209810Y-73571723D01*
X171209811Y-73571724D01*
X171305784Y-73724464D01*
X171433338Y-73852018D01*
X171586078Y-73947991D01*
X171756345Y-74007570D01*
X171789439Y-74011298D01*
X171853850Y-74038362D01*
X171863237Y-74046837D01*
X171899281Y-74082881D01*
X171932766Y-74144204D01*
X171935600Y-74170562D01*
X171935600Y-75422036D01*
X171916049Y-75488617D01*
X171916089Y-75488642D01*
X171916001Y-75488781D01*
X171915915Y-75489075D01*
X171915119Y-75490185D01*
X171816411Y-75647276D01*
X171756831Y-75817545D01*
X171756830Y-75817550D01*
X171736635Y-75996796D01*
X171736635Y-75996803D01*
X171756830Y-76176049D01*
X171756831Y-76176054D01*
X171816411Y-76346323D01*
X171916089Y-76504958D01*
X171913561Y-76506545D01*
X171934953Y-76558913D01*
X171935600Y-76571563D01*
X171935600Y-80036838D01*
X171915915Y-80103877D01*
X171899281Y-80124519D01*
X170818000Y-81205799D01*
X170818000Y-81744672D01*
X170798315Y-81811711D01*
X170768312Y-81843938D01*
X170646703Y-81934975D01*
X170560457Y-82050184D01*
X170560453Y-82050191D01*
X170510159Y-82185037D01*
X170503752Y-82244636D01*
X170503751Y-82244655D01*
X170503751Y-85640390D01*
X170503752Y-85640396D01*
X170510159Y-85700003D01*
X170560453Y-85834848D01*
X170560457Y-85834855D01*
X170629609Y-85927229D01*
X170646705Y-85950066D01*
X170736143Y-86017019D01*
X170768311Y-86041100D01*
X170810182Y-86097034D01*
X170818000Y-86140367D01*
X170818000Y-87936800D01*
X171696081Y-88814881D01*
X171729566Y-88876204D01*
X171732400Y-88902562D01*
X171732400Y-91072818D01*
X171712715Y-91139857D01*
X171684076Y-91168259D01*
X171685423Y-91169948D01*
X171679976Y-91174291D01*
X171552425Y-91301842D01*
X171456452Y-91454581D01*
X171396872Y-91624850D01*
X171396871Y-91624855D01*
X171376676Y-91804101D01*
X171376676Y-91804108D01*
X171396871Y-91983354D01*
X171396872Y-91983359D01*
X171456452Y-92153628D01*
X171552425Y-92306367D01*
X171679978Y-92433920D01*
X171685425Y-92438264D01*
X171683463Y-92440723D01*
X171720586Y-92482567D01*
X171732400Y-92535391D01*
X171732400Y-93676638D01*
X171712715Y-93743677D01*
X171696081Y-93764319D01*
X170487800Y-94972599D01*
X170487800Y-96064238D01*
X170468115Y-96131277D01*
X170464642Y-96135585D01*
X170462400Y-96141000D01*
X170462400Y-102113000D01*
X170442715Y-102180039D01*
X170389911Y-102225794D01*
X170338400Y-102237000D01*
X168376600Y-102237000D01*
X168309561Y-102217315D01*
X168263806Y-102164511D01*
X168252600Y-102113000D01*
X168252600Y-100402730D01*
X168272285Y-100335691D01*
X168325089Y-100289936D01*
X168335637Y-100285691D01*
X168393854Y-100265321D01*
X168546594Y-100169348D01*
X168674148Y-100041794D01*
X168770121Y-99889054D01*
X168829700Y-99718787D01*
X168844352Y-99588747D01*
X168849897Y-99539535D01*
X168849897Y-99539528D01*
X168829701Y-99360282D01*
X168829700Y-99360277D01*
X168770120Y-99190008D01*
X168674147Y-99037269D01*
X168546594Y-98909716D01*
X168393852Y-98813741D01*
X168335644Y-98793373D01*
X168278869Y-98752651D01*
X168253122Y-98687698D01*
X168252600Y-98676332D01*
X168252600Y-93601562D01*
X168272285Y-93534523D01*
X168288919Y-93513881D01*
X169308481Y-92494319D01*
X169369804Y-92460834D01*
X169396162Y-92458000D01*
X170132200Y-92458000D01*
X170284600Y-92305600D01*
X170284600Y-89232200D01*
X169929000Y-88876600D01*
X169927232Y-88874832D01*
X169903270Y-88860697D01*
X169897861Y-88856383D01*
X169745123Y-88760411D01*
X169574854Y-88700831D01*
X169574849Y-88700830D01*
X169395604Y-88680635D01*
X169395596Y-88680635D01*
X169216350Y-88700830D01*
X169216337Y-88700833D01*
X169046078Y-88760410D01*
X169046077Y-88760410D01*
X169039064Y-88764817D01*
X168971827Y-88783812D01*
X168932144Y-88776860D01*
X168787462Y-88726233D01*
X168787449Y-88726230D01*
X168608204Y-88706035D01*
X168608196Y-88706035D01*
X168428950Y-88726230D01*
X168428945Y-88726231D01*
X168258676Y-88785811D01*
X168144436Y-88857594D01*
X168078464Y-88876600D01*
X164439600Y-88876600D01*
X164372561Y-88856915D01*
X164326806Y-88804111D01*
X164315600Y-88752600D01*
X164315600Y-87823100D01*
X164335285Y-87756061D01*
X164388089Y-87710306D01*
X164439600Y-87699100D01*
X165992331Y-87699100D01*
X165992347Y-87699101D01*
X165999943Y-87699101D01*
X166158054Y-87699101D01*
X166158057Y-87699101D01*
X166310785Y-87658177D01*
X166360904Y-87629239D01*
X166447716Y-87579120D01*
X166559520Y-87467316D01*
X166559520Y-87467314D01*
X166569728Y-87457107D01*
X166569730Y-87457104D01*
X166739515Y-87287319D01*
X166800838Y-87253834D01*
X166827196Y-87251000D01*
X169141600Y-87251000D01*
X169141600Y-82027736D01*
X169161285Y-81960697D01*
X169214089Y-81914942D01*
X169279484Y-81904516D01*
X169341797Y-81911537D01*
X169341800Y-81911537D01*
X169341804Y-81911537D01*
X169521049Y-81891341D01*
X169521052Y-81891340D01*
X169521055Y-81891340D01*
X169691322Y-81831761D01*
X169844062Y-81735788D01*
X169971616Y-81608234D01*
X170067589Y-81455494D01*
X170127168Y-81285227D01*
X170129368Y-81265705D01*
X170147365Y-81105975D01*
X170147365Y-81105968D01*
X170127169Y-80926722D01*
X170127168Y-80926717D01*
X170068441Y-80758886D01*
X170067589Y-80756450D01*
X169971616Y-80603710D01*
X169953619Y-80585713D01*
X169920134Y-80524390D01*
X169917300Y-80498032D01*
X169917300Y-80481461D01*
X169936985Y-80414422D01*
X169953614Y-80393785D01*
X170146891Y-80200508D01*
X170208210Y-80167026D01*
X170220679Y-80164973D01*
X170287919Y-80157396D01*
X170351532Y-80150230D01*
X170351535Y-80150229D01*
X170351538Y-80150229D01*
X170521805Y-80090650D01*
X170674545Y-79994677D01*
X170802099Y-79867123D01*
X170898072Y-79714383D01*
X170957651Y-79544116D01*
X170957652Y-79544110D01*
X170977848Y-79364864D01*
X170977848Y-79364857D01*
X170957652Y-79185611D01*
X170957651Y-79185606D01*
X170926347Y-79096145D01*
X170898072Y-79015339D01*
X170802099Y-78862599D01*
X170674545Y-78735045D01*
X170674543Y-78735043D01*
X170596627Y-78686085D01*
X170550337Y-78633750D01*
X170538600Y-78581092D01*
X170538600Y-74525600D01*
X170132200Y-74119200D01*
X170128719Y-74119200D01*
X170062747Y-74100194D01*
X169945323Y-74026411D01*
X169775054Y-73966831D01*
X169775049Y-73966830D01*
X169595804Y-73946635D01*
X169595796Y-73946635D01*
X169416550Y-73966830D01*
X169416537Y-73966833D01*
X169246278Y-74026410D01*
X169246277Y-74026410D01*
X169239264Y-74030817D01*
X169172027Y-74049812D01*
X169132344Y-74042860D01*
X168987662Y-73992233D01*
X168987650Y-73992230D01*
X168832170Y-73974712D01*
X168767756Y-73947645D01*
X168758373Y-73939173D01*
X168365119Y-73545919D01*
X168331634Y-73484596D01*
X168328800Y-73458238D01*
X168328800Y-72047998D01*
X168348485Y-71980959D01*
X168365119Y-71960317D01*
X168406936Y-71918500D01*
X168469520Y-71855916D01*
X168548577Y-71718984D01*
X168589501Y-71566257D01*
X168589501Y-71408142D01*
X168589501Y-71400547D01*
X168589500Y-71400529D01*
X168589500Y-71221812D01*
X168609185Y-71154773D01*
X168616555Y-71144497D01*
X168618810Y-71141667D01*
X168618816Y-71141662D01*
X168714789Y-70988922D01*
X168774368Y-70818655D01*
X168794565Y-70639400D01*
X168774368Y-70460145D01*
X168714789Y-70289878D01*
X168618816Y-70137138D01*
X168548359Y-70066681D01*
X168514874Y-70005358D01*
X168519858Y-69935666D01*
X168548359Y-69891319D01*
X168561501Y-69878177D01*
X168618816Y-69820862D01*
X168714789Y-69668122D01*
X168774368Y-69497855D01*
X168794565Y-69318600D01*
X168774368Y-69139345D01*
X168714789Y-68969078D01*
X168618816Y-68816338D01*
X168491262Y-68688784D01*
X168386827Y-68623163D01*
X168340537Y-68570829D01*
X168328800Y-68518170D01*
X168328800Y-68430162D01*
X168348485Y-68363123D01*
X168365119Y-68342481D01*
X168800481Y-67907119D01*
X168861804Y-67873634D01*
X168888162Y-67870800D01*
X169979238Y-67870800D01*
X170046277Y-67890485D01*
G37*
%TD.AperFunction*%
%TD*%
%TA.AperFunction,Conductor*%
%TO.N,Net-(J3-SHIELD)*%
G36*
X107397879Y-81682685D02*
G01*
X107443634Y-81735489D01*
X107447882Y-81746046D01*
X107478211Y-81832723D01*
X107480477Y-81836329D01*
X107481228Y-81838989D01*
X107481231Y-81838994D01*
X107481230Y-81838994D01*
X107499477Y-81903566D01*
X107480477Y-81968271D01*
X107478209Y-81971878D01*
X107418633Y-82142137D01*
X107418630Y-82142150D01*
X107398435Y-82321396D01*
X107398435Y-82321403D01*
X107418630Y-82500649D01*
X107418633Y-82500662D01*
X107478209Y-82670919D01*
X107496437Y-82699930D01*
X107515436Y-82767167D01*
X107496437Y-82831870D01*
X107478209Y-82860880D01*
X107418633Y-83031137D01*
X107418630Y-83031150D01*
X107398435Y-83210396D01*
X107398435Y-83210403D01*
X107418630Y-83389649D01*
X107418631Y-83389654D01*
X107478211Y-83559923D01*
X107574184Y-83712662D01*
X107701740Y-83840218D01*
X107742571Y-83865873D01*
X107788863Y-83918207D01*
X107800600Y-83970867D01*
X107800600Y-89145928D01*
X107780915Y-89212967D01*
X107742573Y-89250921D01*
X107659237Y-89303285D01*
X107659235Y-89303286D01*
X107531680Y-89430841D01*
X107435707Y-89583580D01*
X107376127Y-89753849D01*
X107376126Y-89753854D01*
X107355931Y-89933100D01*
X107355931Y-89933107D01*
X107376126Y-90112353D01*
X107376127Y-90112358D01*
X107435707Y-90282627D01*
X107503871Y-90391109D01*
X107522871Y-90458346D01*
X107515919Y-90498035D01*
X107471232Y-90625742D01*
X107471230Y-90625750D01*
X107451035Y-90804996D01*
X107451035Y-90805003D01*
X107471230Y-90984249D01*
X107471232Y-90984257D01*
X107484805Y-91023046D01*
X107488366Y-91092825D01*
X107453637Y-91153452D01*
X107391644Y-91185679D01*
X107367763Y-91188000D01*
X100170100Y-91188000D01*
X100103061Y-91168315D01*
X100057306Y-91115511D01*
X100046100Y-91064000D01*
X100046100Y-89585796D01*
X103410635Y-89585796D01*
X103410635Y-89585803D01*
X103430830Y-89765049D01*
X103430831Y-89765054D01*
X103490411Y-89935323D01*
X103586384Y-90088062D01*
X103713938Y-90215616D01*
X103754362Y-90241016D01*
X103861871Y-90308569D01*
X103866678Y-90311589D01*
X104036945Y-90371168D01*
X104036950Y-90371169D01*
X104216196Y-90391365D01*
X104216200Y-90391365D01*
X104216204Y-90391365D01*
X104395449Y-90371169D01*
X104395452Y-90371168D01*
X104395455Y-90371168D01*
X104565722Y-90311589D01*
X104565723Y-90311587D01*
X104565729Y-90311586D01*
X104571995Y-90308569D01*
X104573098Y-90310859D01*
X104629026Y-90295043D01*
X104693761Y-90314044D01*
X104730275Y-90336988D01*
X104900545Y-90396568D01*
X104900550Y-90396569D01*
X105079796Y-90416765D01*
X105079800Y-90416765D01*
X105079804Y-90416765D01*
X105259049Y-90396569D01*
X105259052Y-90396568D01*
X105259055Y-90396568D01*
X105429322Y-90336989D01*
X105582062Y-90241016D01*
X105709616Y-90113462D01*
X105805589Y-89960722D01*
X105865168Y-89790455D01*
X105865168Y-89790449D01*
X105866360Y-89787045D01*
X105907081Y-89730269D01*
X105951313Y-89708223D01*
X105959587Y-89706007D01*
X106050913Y-89653280D01*
X106125480Y-89578713D01*
X106178207Y-89487387D01*
X106205500Y-89385527D01*
X106205500Y-89280073D01*
X106178207Y-89178213D01*
X106125480Y-89086887D01*
X106079615Y-89041022D01*
X106046130Y-88979699D01*
X106050254Y-88912387D01*
X106064368Y-88872055D01*
X106065725Y-88860011D01*
X106084565Y-88692803D01*
X106084565Y-88692796D01*
X106064369Y-88513550D01*
X106064368Y-88513545D01*
X106004788Y-88343276D01*
X105908815Y-88190537D01*
X105781262Y-88062984D01*
X105628524Y-87967012D01*
X105628523Y-87967011D01*
X105552629Y-87940454D01*
X105495853Y-87899732D01*
X105476546Y-87864374D01*
X105449989Y-87788478D01*
X105354016Y-87635738D01*
X105226462Y-87508184D01*
X105073723Y-87412211D01*
X104903454Y-87352631D01*
X104903449Y-87352630D01*
X104724204Y-87332435D01*
X104724196Y-87332435D01*
X104544950Y-87352630D01*
X104544945Y-87352631D01*
X104374676Y-87412211D01*
X104221937Y-87508184D01*
X104094384Y-87635737D01*
X103998411Y-87788476D01*
X103938831Y-87958745D01*
X103938830Y-87958750D01*
X103918635Y-88137996D01*
X103918635Y-88138003D01*
X103938830Y-88317249D01*
X103938831Y-88317254D01*
X103998411Y-88487522D01*
X104083807Y-88623429D01*
X104102807Y-88690664D01*
X104082440Y-88757500D01*
X104029172Y-88802714D01*
X104019768Y-88806441D01*
X103866680Y-88860009D01*
X103713937Y-88955984D01*
X103586384Y-89083537D01*
X103490411Y-89236276D01*
X103430831Y-89406545D01*
X103430830Y-89406550D01*
X103410635Y-89585796D01*
X100046100Y-89585796D01*
X100046100Y-83500073D01*
X105404500Y-83500073D01*
X105404500Y-83605526D01*
X105431793Y-83707386D01*
X105431794Y-83707389D01*
X105445922Y-83731859D01*
X105484520Y-83798713D01*
X105559087Y-83873280D01*
X105650413Y-83926007D01*
X105752273Y-83953300D01*
X105752275Y-83953300D01*
X105857725Y-83953300D01*
X105857727Y-83953300D01*
X105959587Y-83926007D01*
X106050913Y-83873280D01*
X106125480Y-83798713D01*
X106178207Y-83707387D01*
X106205500Y-83605527D01*
X106205500Y-83500073D01*
X106178207Y-83398213D01*
X106125480Y-83306887D01*
X106050913Y-83232320D01*
X105959587Y-83179593D01*
X105857727Y-83152300D01*
X105752273Y-83152300D01*
X105650413Y-83179593D01*
X105650410Y-83179594D01*
X105559085Y-83232321D01*
X105484521Y-83306885D01*
X105431794Y-83398210D01*
X105431793Y-83398213D01*
X105404500Y-83500073D01*
X100046100Y-83500073D01*
X100046100Y-81787000D01*
X100065785Y-81719961D01*
X100118589Y-81674206D01*
X100170100Y-81663000D01*
X107330840Y-81663000D01*
X107397879Y-81682685D01*
G37*
%TD.AperFunction*%
%TD*%
%TA.AperFunction,Conductor*%
%TO.N,GND*%
G36*
X171363099Y-62374185D02*
G01*
X171408854Y-62426989D01*
X171418798Y-62496147D01*
X171389773Y-62559703D01*
X171383741Y-62566181D01*
X171305784Y-62644137D01*
X171209811Y-62796876D01*
X171150231Y-62967145D01*
X171150230Y-62967150D01*
X171130035Y-63146396D01*
X171130035Y-63146403D01*
X171150230Y-63325649D01*
X171150231Y-63325654D01*
X171209811Y-63495923D01*
X171305784Y-63648662D01*
X171433338Y-63776216D01*
X171586078Y-63872189D01*
X171756345Y-63931768D01*
X171756350Y-63931769D01*
X171935596Y-63951965D01*
X171935600Y-63951965D01*
X171935604Y-63951965D01*
X172114849Y-63931769D01*
X172114852Y-63931768D01*
X172114855Y-63931768D01*
X172285122Y-63872189D01*
X172437862Y-63776216D01*
X172565416Y-63648662D01*
X172661389Y-63495922D01*
X172720968Y-63325655D01*
X172741165Y-63146400D01*
X172720968Y-62967145D01*
X172661389Y-62796878D01*
X172565416Y-62644138D01*
X172487459Y-62566181D01*
X172453974Y-62504858D01*
X172458958Y-62435166D01*
X172500830Y-62379233D01*
X172566294Y-62354816D01*
X172575140Y-62354500D01*
X188921100Y-62354500D01*
X188988139Y-62374185D01*
X189033894Y-62426989D01*
X189045100Y-62478500D01*
X189045100Y-111229500D01*
X189025415Y-111296539D01*
X188972611Y-111342294D01*
X188921100Y-111353500D01*
X174803088Y-111353500D01*
X174736049Y-111333815D01*
X174690294Y-111281011D01*
X174680350Y-111211853D01*
X174709375Y-111148297D01*
X174739156Y-111123251D01*
X174854919Y-111053600D01*
X175139837Y-110837011D01*
X175399668Y-110590886D01*
X175631365Y-110318111D01*
X175832211Y-110021885D01*
X175999853Y-109705680D01*
X176132324Y-109373203D01*
X176228071Y-109028352D01*
X176285972Y-108675171D01*
X176305348Y-108317800D01*
X176287404Y-107986849D01*
X180591441Y-107986849D01*
X180591441Y-110062584D01*
X180591442Y-110062590D01*
X180597849Y-110122197D01*
X180648143Y-110257042D01*
X180648147Y-110257049D01*
X180734393Y-110372258D01*
X180734396Y-110372261D01*
X180849605Y-110458507D01*
X180849612Y-110458511D01*
X180984458Y-110508805D01*
X180984457Y-110508805D01*
X180991385Y-110509549D01*
X181044068Y-110515214D01*
X185099813Y-110515213D01*
X185159424Y-110508805D01*
X185294272Y-110458510D01*
X185409487Y-110372260D01*
X185495737Y-110257045D01*
X185546032Y-110122197D01*
X185552441Y-110062587D01*
X185552441Y-110042200D01*
X186274200Y-110042200D01*
X188274200Y-110042200D01*
X188274200Y-108042200D01*
X186274200Y-108042200D01*
X186274200Y-110042200D01*
X185552441Y-110042200D01*
X185552440Y-107986842D01*
X185546032Y-107927231D01*
X185495737Y-107792383D01*
X185495736Y-107792382D01*
X185495734Y-107792378D01*
X185409488Y-107677169D01*
X185409485Y-107677166D01*
X185294276Y-107590920D01*
X185294269Y-107590916D01*
X185159423Y-107540622D01*
X185159424Y-107540622D01*
X185099824Y-107534215D01*
X185099822Y-107534214D01*
X185099814Y-107534214D01*
X185099805Y-107534214D01*
X181044070Y-107534214D01*
X181044064Y-107534215D01*
X180984457Y-107540622D01*
X180849612Y-107590916D01*
X180849605Y-107590920D01*
X180734396Y-107677166D01*
X180734393Y-107677169D01*
X180648147Y-107792378D01*
X180648143Y-107792385D01*
X180597849Y-107927231D01*
X180594280Y-107960431D01*
X180591442Y-107986837D01*
X180591441Y-107986849D01*
X176287404Y-107986849D01*
X176285972Y-107960429D01*
X176280529Y-107927231D01*
X176228073Y-107607260D01*
X176228072Y-107607259D01*
X176228071Y-107607248D01*
X176132324Y-107262397D01*
X175999853Y-106929920D01*
X175832211Y-106613715D01*
X175631365Y-106317489D01*
X175631361Y-106317484D01*
X175631358Y-106317480D01*
X175399668Y-106044714D01*
X175139837Y-105798589D01*
X175139830Y-105798583D01*
X175139827Y-105798581D01*
X175072245Y-105747207D01*
X174854919Y-105582000D01*
X174548253Y-105397485D01*
X174548252Y-105397484D01*
X174548248Y-105397482D01*
X174548244Y-105397480D01*
X174223447Y-105247214D01*
X174223441Y-105247211D01*
X174223435Y-105247209D01*
X174053854Y-105190070D01*
X173884273Y-105132931D01*
X173534744Y-105055994D01*
X173178949Y-105017300D01*
X173178948Y-105017300D01*
X172821052Y-105017300D01*
X172821050Y-105017300D01*
X172465255Y-105055994D01*
X172115726Y-105132931D01*
X171859970Y-105219106D01*
X171776565Y-105247209D01*
X171776563Y-105247210D01*
X171776552Y-105247214D01*
X171451755Y-105397480D01*
X171451751Y-105397482D01*
X171256080Y-105515214D01*
X171145081Y-105582000D01*
X171056768Y-105649133D01*
X170860172Y-105798581D01*
X170860165Y-105798586D01*
X170860163Y-105798589D01*
X170747872Y-105904956D01*
X170685667Y-105936767D01*
X170616136Y-105929897D01*
X170561357Y-105886526D01*
X170538722Y-105820424D01*
X170538600Y-105814931D01*
X170538600Y-105024748D01*
X170558285Y-104957709D01*
X170611089Y-104911954D01*
X170621646Y-104907706D01*
X170643143Y-104900183D01*
X170735722Y-104867789D01*
X170888462Y-104771816D01*
X171016016Y-104644262D01*
X171111989Y-104491522D01*
X171171568Y-104321255D01*
X171191765Y-104142000D01*
X171171568Y-103962745D01*
X171152205Y-103907409D01*
X180591441Y-103907409D01*
X180591441Y-104142018D01*
X180628142Y-104373741D01*
X180700638Y-104596864D01*
X180700640Y-104596867D01*
X180789781Y-104771816D01*
X180807153Y-104805909D01*
X180945045Y-104995703D01*
X180945049Y-104995708D01*
X181110946Y-105161605D01*
X181110951Y-105161609D01*
X181276499Y-105281885D01*
X181300749Y-105299504D01*
X181493037Y-105397480D01*
X181509790Y-105406016D01*
X181621351Y-105442264D01*
X181732915Y-105478513D01*
X181964636Y-105515214D01*
X181964637Y-105515214D01*
X184179245Y-105515214D01*
X184179246Y-105515214D01*
X184410967Y-105478513D01*
X184634094Y-105406015D01*
X184843133Y-105299504D01*
X185032937Y-105161604D01*
X185198831Y-104995710D01*
X185336731Y-104805906D01*
X185443242Y-104596867D01*
X185515740Y-104373740D01*
X185552441Y-104142019D01*
X185552441Y-103907409D01*
X185515740Y-103675688D01*
X185443242Y-103452561D01*
X185336731Y-103243522D01*
X185226885Y-103092331D01*
X185198836Y-103053724D01*
X185198832Y-103053719D01*
X185032935Y-102887822D01*
X185032930Y-102887818D01*
X184843136Y-102749926D01*
X184843135Y-102749925D01*
X184843133Y-102749924D01*
X184716916Y-102685613D01*
X184634091Y-102643411D01*
X184410968Y-102570915D01*
X184268478Y-102548347D01*
X184179246Y-102534214D01*
X181964636Y-102534214D01*
X181887395Y-102546447D01*
X181732913Y-102570915D01*
X181509790Y-102643411D01*
X181300745Y-102749926D01*
X181110951Y-102887818D01*
X181110946Y-102887822D01*
X180945049Y-103053719D01*
X180945045Y-103053724D01*
X180807153Y-103243518D01*
X180700638Y-103452563D01*
X180628142Y-103675686D01*
X180591441Y-103907409D01*
X171152205Y-103907409D01*
X171111989Y-103792478D01*
X171016016Y-103639738D01*
X170888462Y-103512184D01*
X170778247Y-103442931D01*
X170735721Y-103416210D01*
X170621646Y-103376294D01*
X170564870Y-103335572D01*
X170539122Y-103270619D01*
X170538600Y-103259252D01*
X170538600Y-102792719D01*
X170558285Y-102725680D01*
X170595561Y-102688403D01*
X170599900Y-102685614D01*
X170599904Y-102685613D01*
X170720943Y-102607825D01*
X170773747Y-102562070D01*
X170867967Y-102453336D01*
X170927738Y-102322459D01*
X170945962Y-102260396D01*
X174556035Y-102260396D01*
X174556035Y-102260403D01*
X174576230Y-102439649D01*
X174576231Y-102439654D01*
X174635811Y-102609923D01*
X174711856Y-102730947D01*
X174731784Y-102762662D01*
X174859338Y-102890216D01*
X175012078Y-102986189D01*
X175182345Y-103045768D01*
X175182350Y-103045769D01*
X175361596Y-103065965D01*
X175361600Y-103065965D01*
X175361604Y-103065965D01*
X175540849Y-103045769D01*
X175540852Y-103045768D01*
X175540855Y-103045768D01*
X175711122Y-102986189D01*
X175727427Y-102975943D01*
X175794663Y-102956943D01*
X175859372Y-102975943D01*
X175875676Y-102986188D01*
X175875678Y-102986189D01*
X176045945Y-103045768D01*
X176045950Y-103045769D01*
X176225196Y-103065965D01*
X176225200Y-103065965D01*
X176225204Y-103065965D01*
X176404449Y-103045769D01*
X176404452Y-103045768D01*
X176404455Y-103045768D01*
X176574722Y-102986189D01*
X176591027Y-102975943D01*
X176658263Y-102956943D01*
X176722972Y-102975943D01*
X176739276Y-102986188D01*
X176739278Y-102986189D01*
X176909545Y-103045768D01*
X176909550Y-103045769D01*
X177088796Y-103065965D01*
X177088800Y-103065965D01*
X177088804Y-103065965D01*
X177268049Y-103045769D01*
X177268052Y-103045768D01*
X177268055Y-103045768D01*
X177438322Y-102986189D01*
X177591062Y-102890216D01*
X177718616Y-102762662D01*
X177814589Y-102609922D01*
X177874168Y-102439655D01*
X177894365Y-102260400D01*
X177893803Y-102255416D01*
X177874169Y-102081150D01*
X177874168Y-102081145D01*
X177814588Y-101910876D01*
X177718615Y-101758137D01*
X177591061Y-101630583D01*
X177537460Y-101596903D01*
X177491169Y-101544568D01*
X177480212Y-101505791D01*
X177467769Y-101395350D01*
X177467768Y-101395345D01*
X177408188Y-101225076D01*
X177312215Y-101072337D01*
X177184662Y-100944784D01*
X177031923Y-100848811D01*
X176861654Y-100789231D01*
X176861649Y-100789230D01*
X176682404Y-100769035D01*
X176682396Y-100769035D01*
X176503150Y-100789230D01*
X176503137Y-100789233D01*
X176332882Y-100848808D01*
X176291262Y-100874960D01*
X176224025Y-100893959D01*
X176159318Y-100874958D01*
X176114524Y-100846811D01*
X175944254Y-100787231D01*
X175944249Y-100787230D01*
X175765004Y-100767035D01*
X175764996Y-100767035D01*
X175585750Y-100787230D01*
X175585745Y-100787231D01*
X175415476Y-100846811D01*
X175262737Y-100942784D01*
X175135184Y-101070337D01*
X175039210Y-101223078D01*
X174979630Y-101393350D01*
X174966715Y-101507975D01*
X174939648Y-101572389D01*
X174909469Y-101599084D01*
X174859336Y-101630585D01*
X174731784Y-101758137D01*
X174635811Y-101910876D01*
X174576231Y-102081145D01*
X174576230Y-102081150D01*
X174556035Y-102260396D01*
X170945962Y-102260396D01*
X170947423Y-102255420D01*
X170947424Y-102255416D01*
X170967900Y-102113000D01*
X170967900Y-96241250D01*
X170972423Y-96209803D01*
X170972214Y-96209762D01*
X170972339Y-96209123D01*
X170972214Y-96209092D01*
X170972819Y-96206669D01*
X170972823Y-96206658D01*
X170972824Y-96206654D01*
X170993300Y-96064238D01*
X170993300Y-95233346D01*
X171012985Y-95166307D01*
X171029619Y-95145665D01*
X171760922Y-94414363D01*
X173716100Y-94414363D01*
X173716100Y-95708640D01*
X173718997Y-95762688D01*
X173718997Y-95762689D01*
X173721829Y-95789022D01*
X173721832Y-95789049D01*
X173730485Y-95842445D01*
X173730485Y-95842447D01*
X173760808Y-95923743D01*
X173780768Y-95977257D01*
X173814253Y-96038580D01*
X173900477Y-96153761D01*
X173900481Y-96153765D01*
X173900486Y-96153771D01*
X175188813Y-97442097D01*
X176367839Y-98621123D01*
X176367855Y-98621137D01*
X176367862Y-98621144D01*
X176408080Y-98657271D01*
X176408092Y-98657281D01*
X176408100Y-98657288D01*
X176428742Y-98673922D01*
X176472626Y-98705567D01*
X176603503Y-98765338D01*
X176670542Y-98785023D01*
X176670546Y-98785024D01*
X176812962Y-98805500D01*
X176812965Y-98805500D01*
X178361240Y-98805500D01*
X178371386Y-98804955D01*
X178415278Y-98802603D01*
X178415286Y-98802602D01*
X178415288Y-98802602D01*
X178415289Y-98802602D01*
X178422282Y-98801849D01*
X178441636Y-98799769D01*
X178441646Y-98799767D01*
X178441649Y-98799767D01*
X178451248Y-98798211D01*
X178495048Y-98791114D01*
X178629857Y-98740832D01*
X178691180Y-98707347D01*
X178806361Y-98621123D01*
X179749723Y-97677761D01*
X179785888Y-97637500D01*
X179802522Y-97616858D01*
X179834167Y-97572974D01*
X179893938Y-97442097D01*
X179913623Y-97375058D01*
X179913624Y-97375054D01*
X179934100Y-97232638D01*
X179934100Y-96192362D01*
X179931203Y-96138322D01*
X179928369Y-96111964D01*
X179919714Y-96058552D01*
X179869432Y-95923743D01*
X179835947Y-95862420D01*
X179749723Y-95747239D01*
X179749718Y-95747234D01*
X179749713Y-95747228D01*
X177155376Y-93152892D01*
X177155370Y-93152886D01*
X177155361Y-93152877D01*
X177155337Y-93152855D01*
X177115119Y-93116728D01*
X177115107Y-93116718D01*
X177094456Y-93100076D01*
X177050574Y-93068433D01*
X176919700Y-93008663D01*
X176852655Y-92988976D01*
X176805182Y-92982150D01*
X176710238Y-92968500D01*
X175161962Y-92968500D01*
X175161960Y-92968500D01*
X175107911Y-92971397D01*
X175107910Y-92971397D01*
X175081577Y-92974229D01*
X175081550Y-92974232D01*
X175028154Y-92982885D01*
X175028152Y-92982885D01*
X174893347Y-93033166D01*
X174832022Y-93066651D01*
X174716840Y-93152876D01*
X174716828Y-93152886D01*
X173900492Y-93969223D01*
X173900455Y-93969262D01*
X173864328Y-94009480D01*
X173864318Y-94009492D01*
X173847676Y-94030143D01*
X173816033Y-94074025D01*
X173756263Y-94204899D01*
X173736576Y-94271944D01*
X173716100Y-94414363D01*
X171760922Y-94414363D01*
X172053523Y-94121762D01*
X172089688Y-94081500D01*
X172106322Y-94060858D01*
X172137967Y-94016974D01*
X172197738Y-93886097D01*
X172217423Y-93819058D01*
X172217424Y-93819054D01*
X172237900Y-93676638D01*
X172237900Y-92535391D01*
X172235728Y-92515735D01*
X172225715Y-92425075D01*
X172225714Y-92425071D01*
X172225713Y-92425062D01*
X172213899Y-92372238D01*
X172213896Y-92372229D01*
X172177921Y-92267217D01*
X172150938Y-92226291D01*
X172098723Y-92147093D01*
X172068666Y-92113214D01*
X172063781Y-92102839D01*
X172037420Y-92076478D01*
X171960018Y-91999076D01*
X171942710Y-91977371D01*
X171922207Y-91944741D01*
X171910159Y-91919724D01*
X171897431Y-91883350D01*
X171891252Y-91856280D01*
X171886937Y-91817975D01*
X171886938Y-91790216D01*
X171891251Y-91751934D01*
X171897427Y-91724866D01*
X171910160Y-91688478D01*
X171913308Y-91681941D01*
X180581441Y-91681941D01*
X180581441Y-93757676D01*
X180581442Y-93757682D01*
X180587849Y-93817289D01*
X180638143Y-93952134D01*
X180638147Y-93952141D01*
X180724393Y-94067350D01*
X180724396Y-94067353D01*
X180839605Y-94153599D01*
X180839612Y-94153603D01*
X180974458Y-94203897D01*
X180974457Y-94203897D01*
X180981385Y-94204641D01*
X181034068Y-94210306D01*
X185089813Y-94210305D01*
X185149424Y-94203897D01*
X185284272Y-94153602D01*
X185399487Y-94067352D01*
X185485737Y-93952137D01*
X185536032Y-93817289D01*
X185542441Y-93757679D01*
X185542440Y-91681934D01*
X185536032Y-91622323D01*
X185499203Y-91523580D01*
X185485738Y-91487477D01*
X185485734Y-91487470D01*
X185399488Y-91372261D01*
X185399485Y-91372258D01*
X185284276Y-91286012D01*
X185284269Y-91286008D01*
X185149423Y-91235714D01*
X185149424Y-91235714D01*
X185089824Y-91229307D01*
X185089822Y-91229306D01*
X185089814Y-91229306D01*
X185089805Y-91229306D01*
X181034070Y-91229306D01*
X181034064Y-91229307D01*
X180974457Y-91235714D01*
X180839612Y-91286008D01*
X180839605Y-91286012D01*
X180724396Y-91372258D01*
X180724393Y-91372261D01*
X180638147Y-91487470D01*
X180638143Y-91487477D01*
X180587849Y-91622323D01*
X180586934Y-91630839D01*
X180581442Y-91681929D01*
X180581441Y-91681941D01*
X171913308Y-91681941D01*
X171922202Y-91663472D01*
X171942711Y-91630832D01*
X171960015Y-91609134D01*
X172037418Y-91531733D01*
X172037417Y-91531732D01*
X172042059Y-91527091D01*
X172045718Y-91523580D01*
X172053643Y-91516278D01*
X172053649Y-91516269D01*
X172056343Y-91513193D01*
X172061965Y-91507185D01*
X172063633Y-91505516D01*
X172066682Y-91501531D01*
X172066538Y-91501415D01*
X172077818Y-91487477D01*
X172137967Y-91413154D01*
X172197738Y-91282277D01*
X172217423Y-91215238D01*
X172217424Y-91215234D01*
X172237900Y-91072818D01*
X172237900Y-88902562D01*
X172235003Y-88848522D01*
X172234422Y-88843122D01*
X172232170Y-88822177D01*
X172232167Y-88822150D01*
X172223514Y-88768754D01*
X172223514Y-88768752D01*
X172173232Y-88633943D01*
X172139747Y-88572620D01*
X172080590Y-88493596D01*
X173286035Y-88493596D01*
X173286035Y-88493603D01*
X173306230Y-88672849D01*
X173306231Y-88672854D01*
X173365811Y-88843123D01*
X173445824Y-88970462D01*
X173461784Y-88995862D01*
X173589338Y-89123416D01*
X173669212Y-89173604D01*
X173727622Y-89210306D01*
X173742078Y-89219389D01*
X173839756Y-89253568D01*
X173912345Y-89278968D01*
X173912350Y-89278969D01*
X174091596Y-89299165D01*
X174091600Y-89299165D01*
X174091604Y-89299165D01*
X174270849Y-89278969D01*
X174270852Y-89278968D01*
X174270855Y-89278968D01*
X174441122Y-89219389D01*
X174593862Y-89123416D01*
X174721416Y-88995862D01*
X174721419Y-88995856D01*
X174725759Y-88990416D01*
X174726848Y-88991284D01*
X174773412Y-88950082D01*
X174842463Y-88939419D01*
X174906317Y-88967781D01*
X174913775Y-88974653D01*
X175037138Y-89098016D01*
X175189878Y-89193989D01*
X175360145Y-89253568D01*
X175360150Y-89253569D01*
X175539396Y-89273765D01*
X175539400Y-89273765D01*
X175539404Y-89273765D01*
X175718649Y-89253569D01*
X175718652Y-89253568D01*
X175718655Y-89253568D01*
X175888922Y-89193989D01*
X176041662Y-89098016D01*
X176169216Y-88970462D01*
X176265189Y-88817722D01*
X176324768Y-88647455D01*
X176331406Y-88588531D01*
X176358471Y-88524122D01*
X176388649Y-88497427D01*
X176524262Y-88412216D01*
X176651816Y-88284662D01*
X176747789Y-88131922D01*
X176807368Y-87961655D01*
X176807369Y-87961649D01*
X176827565Y-87782403D01*
X176827565Y-87782396D01*
X176807369Y-87603150D01*
X176807368Y-87603145D01*
X176807143Y-87602501D01*
X180581441Y-87602501D01*
X180581441Y-87837110D01*
X180618142Y-88068833D01*
X180690638Y-88291956D01*
X180743895Y-88396478D01*
X180795329Y-88497423D01*
X180797153Y-88501001D01*
X180935045Y-88690795D01*
X180935049Y-88690800D01*
X181100946Y-88856697D01*
X181100951Y-88856701D01*
X181214804Y-88939419D01*
X181290749Y-88994596D01*
X181493720Y-89098015D01*
X181499790Y-89101108D01*
X181611351Y-89137356D01*
X181722915Y-89173605D01*
X181954636Y-89210306D01*
X181954637Y-89210306D01*
X184169245Y-89210306D01*
X184169246Y-89210306D01*
X184400967Y-89173605D01*
X184624094Y-89101107D01*
X184833133Y-88994596D01*
X185022937Y-88856696D01*
X185188831Y-88690802D01*
X185326731Y-88500998D01*
X185433242Y-88291959D01*
X185505740Y-88068832D01*
X185542441Y-87837111D01*
X185542441Y-87602501D01*
X185505740Y-87370780D01*
X185451925Y-87205153D01*
X185433243Y-87147655D01*
X185433242Y-87147653D01*
X185326731Y-86938614D01*
X185233410Y-86810168D01*
X185188836Y-86748816D01*
X185188832Y-86748811D01*
X185022935Y-86582914D01*
X185022930Y-86582910D01*
X184833136Y-86445018D01*
X184833135Y-86445017D01*
X184833133Y-86445016D01*
X184687498Y-86370811D01*
X184624091Y-86338503D01*
X184400968Y-86266007D01*
X184285106Y-86247656D01*
X184169246Y-86229306D01*
X181954636Y-86229306D01*
X181877395Y-86241539D01*
X181722913Y-86266007D01*
X181499790Y-86338503D01*
X181290745Y-86445018D01*
X181100951Y-86582910D01*
X181100946Y-86582914D01*
X180935049Y-86748811D01*
X180935045Y-86748816D01*
X180797153Y-86938610D01*
X180690638Y-87147655D01*
X180618142Y-87370778D01*
X180581441Y-87602501D01*
X176807143Y-87602501D01*
X176747788Y-87432876D01*
X176702882Y-87361409D01*
X176651816Y-87280138D01*
X176524262Y-87152584D01*
X176516414Y-87147653D01*
X176371524Y-87056612D01*
X176371525Y-87056612D01*
X176333396Y-87043270D01*
X176276621Y-87002547D01*
X176251132Y-86940111D01*
X176248568Y-86917345D01*
X176188989Y-86747078D01*
X176093016Y-86594338D01*
X175965462Y-86466784D01*
X175930822Y-86445018D01*
X175812723Y-86370811D01*
X175642454Y-86311231D01*
X175642449Y-86311230D01*
X175463204Y-86291035D01*
X175463196Y-86291035D01*
X175283950Y-86311230D01*
X175283945Y-86311231D01*
X175113676Y-86370811D01*
X174960937Y-86466784D01*
X174833384Y-86594337D01*
X174737411Y-86747076D01*
X174677831Y-86917345D01*
X174677830Y-86917350D01*
X174657635Y-87096596D01*
X174657635Y-87096605D01*
X174668479Y-87192858D01*
X174656424Y-87261680D01*
X174609074Y-87313058D01*
X174586214Y-87323781D01*
X174478680Y-87361409D01*
X174325937Y-87457384D01*
X174198386Y-87584935D01*
X174198381Y-87584942D01*
X174168572Y-87632381D01*
X174116237Y-87678671D01*
X174077464Y-87689627D01*
X173912349Y-87708230D01*
X173912345Y-87708231D01*
X173742076Y-87767811D01*
X173589337Y-87863784D01*
X173461784Y-87991337D01*
X173365811Y-88144076D01*
X173306231Y-88314345D01*
X173306230Y-88314350D01*
X173286035Y-88493596D01*
X172080590Y-88493596D01*
X172053523Y-88457439D01*
X172053518Y-88457434D01*
X172053513Y-88457428D01*
X171359819Y-87763734D01*
X171326334Y-87702411D01*
X171323500Y-87676053D01*
X171323500Y-86140362D01*
X171315469Y-86050624D01*
X171315469Y-86050622D01*
X171307651Y-86007285D01*
X171283812Y-85920386D01*
X171283811Y-85920385D01*
X171283811Y-85920383D01*
X171214858Y-85794102D01*
X171214857Y-85794100D01*
X171214855Y-85794097D01*
X171172992Y-85738174D01*
X171172978Y-85738158D01*
X171071258Y-85636436D01*
X171071252Y-85636431D01*
X171071249Y-85636428D01*
X171058937Y-85627211D01*
X171017068Y-85571276D01*
X171009251Y-85527946D01*
X171009251Y-82357090D01*
X171028936Y-82290051D01*
X171058939Y-82257824D01*
X171071250Y-82248609D01*
X171138293Y-82188386D01*
X171168296Y-82156159D01*
X171223567Y-82085008D01*
X171283338Y-81954131D01*
X171303023Y-81887092D01*
X171303024Y-81887088D01*
X171323500Y-81744672D01*
X171323500Y-81466546D01*
X171343185Y-81399507D01*
X171359819Y-81378865D01*
X171632712Y-81105972D01*
X172256723Y-80481962D01*
X172292888Y-80441700D01*
X172309522Y-80421058D01*
X172341167Y-80377174D01*
X172400938Y-80246297D01*
X172417362Y-80190363D01*
X173716100Y-80190363D01*
X173716100Y-81484640D01*
X173718997Y-81538688D01*
X173718997Y-81538689D01*
X173721829Y-81565022D01*
X173721832Y-81565049D01*
X173730485Y-81618445D01*
X173730485Y-81618447D01*
X173756204Y-81687400D01*
X173780768Y-81753257D01*
X173814253Y-81814580D01*
X173900477Y-81929761D01*
X173900481Y-81929765D01*
X173900486Y-81929771D01*
X175360351Y-83389635D01*
X176367839Y-84397123D01*
X176367855Y-84397137D01*
X176367862Y-84397144D01*
X176408080Y-84433271D01*
X176408092Y-84433281D01*
X176408100Y-84433288D01*
X176428742Y-84449922D01*
X176472626Y-84481567D01*
X176603503Y-84541338D01*
X176670542Y-84561023D01*
X176670546Y-84561024D01*
X176812962Y-84581500D01*
X176812965Y-84581500D01*
X178869240Y-84581500D01*
X178879386Y-84580955D01*
X178923278Y-84578603D01*
X178923286Y-84578602D01*
X178923288Y-84578602D01*
X178923289Y-84578602D01*
X178930282Y-84577849D01*
X178949636Y-84575769D01*
X178949646Y-84575767D01*
X178949649Y-84575767D01*
X178959248Y-84574211D01*
X179003048Y-84567114D01*
X179137857Y-84516832D01*
X179199180Y-84483347D01*
X179314361Y-84397123D01*
X179656258Y-84055225D01*
X179677953Y-84037924D01*
X179750062Y-83992616D01*
X179877616Y-83865062D01*
X179973589Y-83712322D01*
X179985998Y-83676854D01*
X179990247Y-83666296D01*
X180020938Y-83599096D01*
X180040623Y-83532057D01*
X180040624Y-83532054D01*
X180061100Y-83389638D01*
X180061100Y-82095362D01*
X180058203Y-82041322D01*
X180055369Y-82014964D01*
X180046714Y-81961552D01*
X179996432Y-81826743D01*
X179962947Y-81765420D01*
X179876723Y-81650239D01*
X179876718Y-81650234D01*
X179876713Y-81650228D01*
X178663518Y-80437033D01*
X180581441Y-80437033D01*
X180581441Y-82512768D01*
X180581442Y-82512774D01*
X180587849Y-82572381D01*
X180638143Y-82707226D01*
X180638147Y-82707233D01*
X180724393Y-82822442D01*
X180724396Y-82822445D01*
X180839605Y-82908691D01*
X180839612Y-82908695D01*
X180974458Y-82958989D01*
X180974457Y-82958989D01*
X180981385Y-82959733D01*
X181034068Y-82965398D01*
X185089813Y-82965397D01*
X185149424Y-82958989D01*
X185284272Y-82908694D01*
X185399487Y-82822444D01*
X185485737Y-82707229D01*
X185536032Y-82572381D01*
X185542441Y-82512771D01*
X185542440Y-80437026D01*
X185536032Y-80377415D01*
X185511451Y-80311511D01*
X185485738Y-80242569D01*
X185485734Y-80242562D01*
X185399488Y-80127353D01*
X185399485Y-80127350D01*
X185284276Y-80041104D01*
X185284269Y-80041100D01*
X185149423Y-79990806D01*
X185149424Y-79990806D01*
X185089824Y-79984399D01*
X185089822Y-79984398D01*
X185089814Y-79984398D01*
X185089805Y-79984398D01*
X181034070Y-79984398D01*
X181034064Y-79984399D01*
X180974457Y-79990806D01*
X180839612Y-80041100D01*
X180839605Y-80041104D01*
X180724396Y-80127350D01*
X180724393Y-80127353D01*
X180638147Y-80242562D01*
X180638143Y-80242569D01*
X180587849Y-80377415D01*
X180581442Y-80437014D01*
X180581442Y-80437021D01*
X180581441Y-80437033D01*
X178663518Y-80437033D01*
X177155376Y-78928892D01*
X177155370Y-78928886D01*
X177155361Y-78928877D01*
X177155337Y-78928855D01*
X177115119Y-78892728D01*
X177115107Y-78892718D01*
X177094456Y-78876076D01*
X177050574Y-78844433D01*
X176919700Y-78784663D01*
X176852655Y-78764976D01*
X176805182Y-78758150D01*
X176710238Y-78744500D01*
X175161962Y-78744500D01*
X175161960Y-78744500D01*
X175107911Y-78747397D01*
X175107910Y-78747397D01*
X175081577Y-78750229D01*
X175081550Y-78750232D01*
X175028154Y-78758885D01*
X175028152Y-78758885D01*
X174893347Y-78809166D01*
X174832022Y-78842651D01*
X174716840Y-78928876D01*
X174716828Y-78928886D01*
X173900492Y-79745223D01*
X173900455Y-79745262D01*
X173864328Y-79785480D01*
X173864318Y-79785492D01*
X173847676Y-79806143D01*
X173816033Y-79850025D01*
X173756263Y-79980899D01*
X173738585Y-80041104D01*
X173736577Y-80047942D01*
X173736576Y-80047946D01*
X173717697Y-80179258D01*
X173716100Y-80190363D01*
X172417362Y-80190363D01*
X172420623Y-80179258D01*
X172420624Y-80179254D01*
X172441100Y-80036838D01*
X172441100Y-76571563D01*
X172440440Y-76545742D01*
X172439793Y-76533092D01*
X172437815Y-76507337D01*
X172402915Y-76367754D01*
X172398764Y-76357593D01*
X180581441Y-76357593D01*
X180581441Y-76592202D01*
X180618142Y-76823925D01*
X180690638Y-77047048D01*
X180797153Y-77256093D01*
X180935045Y-77445887D01*
X180935049Y-77445892D01*
X181100946Y-77611789D01*
X181100951Y-77611793D01*
X181266499Y-77732069D01*
X181290749Y-77749688D01*
X181499788Y-77856199D01*
X181499790Y-77856200D01*
X181611351Y-77892448D01*
X181722915Y-77928697D01*
X181954636Y-77965398D01*
X181954637Y-77965398D01*
X184169245Y-77965398D01*
X184169246Y-77965398D01*
X184400967Y-77928697D01*
X184624094Y-77856199D01*
X184833133Y-77749688D01*
X185022937Y-77611788D01*
X185188831Y-77445894D01*
X185326731Y-77256090D01*
X185433242Y-77047051D01*
X185505740Y-76823924D01*
X185542441Y-76592203D01*
X185542441Y-76357593D01*
X185505740Y-76125872D01*
X185459289Y-75982911D01*
X185433243Y-75902747D01*
X185415535Y-75867994D01*
X185326731Y-75693706D01*
X185232823Y-75564452D01*
X185188836Y-75503908D01*
X185188832Y-75503903D01*
X185022935Y-75338006D01*
X185022930Y-75338002D01*
X184833136Y-75200110D01*
X184833135Y-75200109D01*
X184833133Y-75200108D01*
X184728613Y-75146852D01*
X184624091Y-75093595D01*
X184400968Y-75021099D01*
X184285106Y-75002748D01*
X184169246Y-74984398D01*
X181954636Y-74984398D01*
X181877395Y-74996631D01*
X181722913Y-75021099D01*
X181499790Y-75093595D01*
X181290745Y-75200110D01*
X181100951Y-75338002D01*
X181100946Y-75338006D01*
X180935049Y-75503903D01*
X180935045Y-75503908D01*
X180797153Y-75693702D01*
X180690638Y-75902747D01*
X180618142Y-76125870D01*
X180581441Y-76357593D01*
X172398764Y-76357593D01*
X172371227Y-76290181D01*
X172370026Y-76289203D01*
X172358929Y-76269365D01*
X172344107Y-76236014D01*
X172344105Y-76236011D01*
X172344103Y-76236006D01*
X172282166Y-76137437D01*
X172270118Y-76112419D01*
X172257390Y-76076045D01*
X172251211Y-76048975D01*
X172246896Y-76010670D01*
X172246897Y-75982911D01*
X172251210Y-75944629D01*
X172257388Y-75917558D01*
X172270117Y-75881178D01*
X172282162Y-75856167D01*
X172339321Y-75765201D01*
X172341690Y-75761577D01*
X172341842Y-75761352D01*
X172341834Y-75761347D01*
X172342133Y-75760837D01*
X172344117Y-75757570D01*
X172358414Y-75734820D01*
X172366554Y-75715245D01*
X172378517Y-75692824D01*
X172380831Y-75684555D01*
X172389367Y-75670896D01*
X172401070Y-75631039D01*
X172401071Y-75631040D01*
X172420622Y-75564459D01*
X172420624Y-75564452D01*
X172441100Y-75422036D01*
X172441100Y-74170562D01*
X172438203Y-74116522D01*
X172435369Y-74090164D01*
X172426714Y-74036752D01*
X172409349Y-73990196D01*
X174022635Y-73990196D01*
X174022635Y-73990203D01*
X174042830Y-74169449D01*
X174042831Y-74169454D01*
X174102411Y-74339723D01*
X174182424Y-74467062D01*
X174198384Y-74492462D01*
X174325938Y-74620016D01*
X174399220Y-74666062D01*
X174438252Y-74690588D01*
X174478678Y-74715989D01*
X174576356Y-74750168D01*
X174648945Y-74775568D01*
X174648950Y-74775569D01*
X174828196Y-74795765D01*
X174828200Y-74795765D01*
X174828204Y-74795765D01*
X175007449Y-74775569D01*
X175007452Y-74775568D01*
X175007455Y-74775568D01*
X175177722Y-74715989D01*
X175219427Y-74689784D01*
X175286664Y-74670783D01*
X175351373Y-74689784D01*
X175393075Y-74715988D01*
X175563345Y-74775568D01*
X175563350Y-74775569D01*
X175742596Y-74795765D01*
X175742600Y-74795765D01*
X175742604Y-74795765D01*
X175921849Y-74775569D01*
X175921852Y-74775568D01*
X175921855Y-74775568D01*
X176092122Y-74715989D01*
X176141342Y-74685061D01*
X176208574Y-74666062D01*
X176273285Y-74685064D01*
X176282079Y-74690590D01*
X176452337Y-74750166D01*
X176452343Y-74750167D01*
X176452345Y-74750168D01*
X176452346Y-74750168D01*
X176452350Y-74750169D01*
X176631596Y-74770365D01*
X176631600Y-74770365D01*
X176631604Y-74770365D01*
X176810849Y-74750169D01*
X176810852Y-74750168D01*
X176810855Y-74750168D01*
X176981122Y-74690589D01*
X177133862Y-74594616D01*
X177261416Y-74467062D01*
X177357389Y-74314322D01*
X177416968Y-74144055D01*
X177416969Y-74144049D01*
X177437165Y-73964803D01*
X177437165Y-73964796D01*
X177416969Y-73785550D01*
X177416968Y-73785545D01*
X177395936Y-73725439D01*
X177357389Y-73615278D01*
X177261416Y-73462538D01*
X177133862Y-73334984D01*
X177133860Y-73334982D01*
X177049844Y-73282191D01*
X177003554Y-73229856D01*
X176992597Y-73191080D01*
X176985169Y-73125150D01*
X176985168Y-73125145D01*
X176925588Y-72954876D01*
X176829615Y-72802137D01*
X176702062Y-72674584D01*
X176549323Y-72578611D01*
X176379054Y-72519031D01*
X176379049Y-72519030D01*
X176199804Y-72498835D01*
X176199796Y-72498835D01*
X176020550Y-72519030D01*
X176020537Y-72519033D01*
X175850282Y-72578608D01*
X175802221Y-72608807D01*
X175734984Y-72627806D01*
X175670279Y-72608807D01*
X175622217Y-72578608D01*
X175451962Y-72519033D01*
X175451949Y-72519030D01*
X175272704Y-72498835D01*
X175272696Y-72498835D01*
X175093450Y-72519030D01*
X175093445Y-72519031D01*
X174923176Y-72578611D01*
X174770437Y-72674584D01*
X174642884Y-72802137D01*
X174546910Y-72954878D01*
X174487330Y-73125150D01*
X174477789Y-73209830D01*
X174450722Y-73274243D01*
X174420542Y-73300938D01*
X174325941Y-73360381D01*
X174325939Y-73360382D01*
X174198384Y-73487937D01*
X174102411Y-73640676D01*
X174042831Y-73810945D01*
X174042830Y-73810950D01*
X174022635Y-73990196D01*
X172409349Y-73990196D01*
X172376432Y-73901943D01*
X172342947Y-73840620D01*
X172256723Y-73725439D01*
X172256718Y-73725434D01*
X172256714Y-73725429D01*
X172220697Y-73689413D01*
X172220679Y-73689395D01*
X172201988Y-73671633D01*
X172192601Y-73663158D01*
X172192590Y-73663148D01*
X172173031Y-73646375D01*
X172049668Y-73572330D01*
X172049666Y-73572329D01*
X171985255Y-73545265D01*
X171985254Y-73545265D01*
X171984721Y-73545041D01*
X171981887Y-73544387D01*
X171913414Y-73526539D01*
X171903736Y-73523590D01*
X171819980Y-73494283D01*
X171794962Y-73482234D01*
X171762332Y-73461731D01*
X171740623Y-73444419D01*
X171713382Y-73417178D01*
X171696069Y-73395468D01*
X171675566Y-73362837D01*
X171663518Y-73337821D01*
X171648683Y-73295425D01*
X171643548Y-73275305D01*
X171643528Y-73275309D01*
X171643463Y-73274972D01*
X171643372Y-73274615D01*
X171643231Y-73273755D01*
X171638396Y-73248434D01*
X171588114Y-73113625D01*
X171554629Y-73052302D01*
X171468405Y-72937121D01*
X171468400Y-72937116D01*
X171468395Y-72937110D01*
X171080419Y-72549134D01*
X171046934Y-72487811D01*
X171044100Y-72461453D01*
X171044100Y-71805101D01*
X171036070Y-71715373D01*
X171036068Y-71715357D01*
X171036068Y-71715352D01*
X171028250Y-71672020D01*
X171028247Y-71672009D01*
X171013669Y-71618867D01*
X171009251Y-71586063D01*
X171009251Y-68395310D01*
X171006353Y-68341262D01*
X171006353Y-68341261D01*
X171003521Y-68314928D01*
X171003518Y-68314901D01*
X170994865Y-68261505D01*
X170994865Y-68261503D01*
X170944584Y-68126698D01*
X170944583Y-68126694D01*
X170911098Y-68065371D01*
X170824874Y-67950190D01*
X170824869Y-67950185D01*
X170824864Y-67950179D01*
X170574919Y-67700234D01*
X170541434Y-67638911D01*
X170538600Y-67612553D01*
X170538600Y-65966363D01*
X173843100Y-65966363D01*
X173843100Y-67260640D01*
X173845997Y-67314688D01*
X173845997Y-67314689D01*
X173848829Y-67341022D01*
X173848832Y-67341049D01*
X173857485Y-67394445D01*
X173857485Y-67394447D01*
X173870734Y-67429968D01*
X173907768Y-67529257D01*
X173941253Y-67590580D01*
X174027477Y-67705761D01*
X174027481Y-67705765D01*
X174027486Y-67705771D01*
X175279788Y-68958072D01*
X176494839Y-70173123D01*
X176494855Y-70173137D01*
X176494862Y-70173144D01*
X176535080Y-70209271D01*
X176535092Y-70209281D01*
X176535100Y-70209288D01*
X176555742Y-70225922D01*
X176599626Y-70257567D01*
X176730503Y-70317338D01*
X176797542Y-70337023D01*
X176797546Y-70337024D01*
X176939962Y-70357500D01*
X176939965Y-70357500D01*
X178996240Y-70357500D01*
X179006386Y-70356955D01*
X179050278Y-70354603D01*
X179050286Y-70354602D01*
X179050288Y-70354602D01*
X179050289Y-70354602D01*
X179057282Y-70353849D01*
X179076636Y-70351769D01*
X179076655Y-70351766D01*
X179130039Y-70343116D01*
X179130042Y-70343114D01*
X179130048Y-70343114D01*
X179131509Y-70342568D01*
X179132624Y-70342431D01*
X179135939Y-70341554D01*
X179136059Y-70342008D01*
X179188740Y-70335524D01*
X179306988Y-70348848D01*
X179323999Y-70350765D01*
X179324000Y-70350765D01*
X179324003Y-70350765D01*
X179503249Y-70330569D01*
X179503252Y-70330568D01*
X179503255Y-70330568D01*
X179673522Y-70270989D01*
X179826262Y-70175016D01*
X179953816Y-70047462D01*
X180049789Y-69894722D01*
X180109368Y-69724455D01*
X180116364Y-69662366D01*
X180129565Y-69545203D01*
X180129565Y-69545196D01*
X180109368Y-69365947D01*
X180109368Y-69365945D01*
X180081484Y-69286256D01*
X180068058Y-69247886D01*
X180061100Y-69206932D01*
X180061100Y-69192125D01*
X180581441Y-69192125D01*
X180581441Y-71267860D01*
X180581442Y-71267866D01*
X180587849Y-71327473D01*
X180638143Y-71462318D01*
X180638147Y-71462325D01*
X180724393Y-71577534D01*
X180724396Y-71577537D01*
X180839605Y-71663783D01*
X180839612Y-71663787D01*
X180974458Y-71714081D01*
X180974457Y-71714081D01*
X180981385Y-71714825D01*
X181034068Y-71720490D01*
X185089813Y-71720489D01*
X185149424Y-71714081D01*
X185284272Y-71663786D01*
X185399487Y-71577536D01*
X185485737Y-71462321D01*
X185536032Y-71327473D01*
X185542441Y-71267863D01*
X185542440Y-69192118D01*
X185536032Y-69132507D01*
X185485737Y-68997659D01*
X185485736Y-68997658D01*
X185485734Y-68997654D01*
X185399488Y-68882445D01*
X185399485Y-68882442D01*
X185284276Y-68796196D01*
X185284269Y-68796192D01*
X185149423Y-68745898D01*
X185149424Y-68745898D01*
X185089824Y-68739491D01*
X185089822Y-68739490D01*
X185089814Y-68739490D01*
X185089805Y-68739490D01*
X181034070Y-68739490D01*
X181034064Y-68739491D01*
X180974457Y-68745898D01*
X180839612Y-68796192D01*
X180839605Y-68796196D01*
X180724396Y-68882442D01*
X180724393Y-68882445D01*
X180638147Y-68997654D01*
X180638143Y-68997661D01*
X180587849Y-69132507D01*
X180581691Y-69189793D01*
X180581442Y-69192113D01*
X180581441Y-69192125D01*
X180061100Y-69192125D01*
X180061100Y-67744359D01*
X180059031Y-67705771D01*
X180058203Y-67690322D01*
X180055369Y-67663964D01*
X180046714Y-67610552D01*
X179996432Y-67475743D01*
X179962947Y-67414420D01*
X179876723Y-67299239D01*
X179876718Y-67299234D01*
X179876713Y-67299228D01*
X177690169Y-65112685D01*
X180581441Y-65112685D01*
X180581441Y-65347294D01*
X180618142Y-65579017D01*
X180690638Y-65802140D01*
X180797153Y-66011185D01*
X180935045Y-66200979D01*
X180935049Y-66200984D01*
X181100946Y-66366881D01*
X181100951Y-66366885D01*
X181266499Y-66487161D01*
X181290749Y-66504780D01*
X181499788Y-66611291D01*
X181499790Y-66611292D01*
X181611351Y-66647540D01*
X181722915Y-66683789D01*
X181954636Y-66720490D01*
X181954637Y-66720490D01*
X184169245Y-66720490D01*
X184169246Y-66720490D01*
X184400967Y-66683789D01*
X184624094Y-66611291D01*
X184833133Y-66504780D01*
X185022937Y-66366880D01*
X185188831Y-66200986D01*
X185326731Y-66011182D01*
X185433242Y-65802143D01*
X185505740Y-65579016D01*
X185542441Y-65347295D01*
X185542441Y-65112685D01*
X185505740Y-64880964D01*
X185436781Y-64668728D01*
X185433243Y-64657839D01*
X185430307Y-64652076D01*
X185326731Y-64448798D01*
X185309112Y-64424548D01*
X185188836Y-64259000D01*
X185188832Y-64258995D01*
X185022935Y-64093098D01*
X185022930Y-64093094D01*
X184833136Y-63955202D01*
X184833135Y-63955201D01*
X184833133Y-63955200D01*
X184728613Y-63901944D01*
X184624091Y-63848687D01*
X184400968Y-63776191D01*
X184285106Y-63757840D01*
X184169246Y-63739490D01*
X181954636Y-63739490D01*
X181877395Y-63751723D01*
X181722913Y-63776191D01*
X181499790Y-63848687D01*
X181290745Y-63955202D01*
X181100951Y-64093094D01*
X181100946Y-64093098D01*
X180935049Y-64258995D01*
X180935045Y-64259000D01*
X180797153Y-64448794D01*
X180690638Y-64657839D01*
X180618142Y-64880962D01*
X180581441Y-65112685D01*
X177690169Y-65112685D01*
X177282376Y-64704892D01*
X177282370Y-64704886D01*
X177282361Y-64704877D01*
X177282337Y-64704855D01*
X177242119Y-64668728D01*
X177242107Y-64668718D01*
X177221456Y-64652076D01*
X177177574Y-64620433D01*
X177046700Y-64560663D01*
X176979655Y-64540976D01*
X176932182Y-64534150D01*
X176837238Y-64520500D01*
X175288962Y-64520500D01*
X175288960Y-64520500D01*
X175234911Y-64523397D01*
X175234910Y-64523397D01*
X175208577Y-64526229D01*
X175208550Y-64526232D01*
X175155154Y-64534885D01*
X175155152Y-64534885D01*
X175020347Y-64585166D01*
X174959022Y-64618651D01*
X174843840Y-64704876D01*
X174843828Y-64704886D01*
X174027492Y-65521223D01*
X174027455Y-65521262D01*
X173991328Y-65561480D01*
X173991318Y-65561492D01*
X173974676Y-65582143D01*
X173943033Y-65626025D01*
X173883263Y-65756899D01*
X173863576Y-65823944D01*
X173843100Y-65966363D01*
X170538600Y-65966363D01*
X170538600Y-62478500D01*
X170558285Y-62411461D01*
X170611089Y-62365706D01*
X170662600Y-62354500D01*
X171296060Y-62354500D01*
X171363099Y-62374185D01*
G37*
%TD.AperFunction*%
%TD*%
%TA.AperFunction,Conductor*%
%TO.N,Net-(U30-ISEN)*%
G36*
X176777277Y-79269685D02*
G01*
X176797919Y-79286319D01*
X179519281Y-82007681D01*
X179552766Y-82069004D01*
X179555600Y-82095362D01*
X179555600Y-83389638D01*
X179535915Y-83456677D01*
X179519281Y-83477319D01*
X178956919Y-84039681D01*
X178895596Y-84073166D01*
X178869238Y-84076000D01*
X176812962Y-84076000D01*
X176745923Y-84056315D01*
X176725281Y-84039681D01*
X174257919Y-81572319D01*
X174224434Y-81510996D01*
X174221600Y-81484638D01*
X174221600Y-80190362D01*
X174241285Y-80123323D01*
X174257919Y-80102681D01*
X175074281Y-79286319D01*
X175135604Y-79252834D01*
X175161962Y-79250000D01*
X176710238Y-79250000D01*
X176777277Y-79269685D01*
G37*
%TD.AperFunction*%
%TD*%
%TA.AperFunction,Conductor*%
%TO.N,Net-(U27-ISEN)*%
G36*
X176904277Y-65045685D02*
G01*
X176924919Y-65062319D01*
X179519281Y-67656681D01*
X179552766Y-67718004D01*
X179555600Y-67744362D01*
X179555600Y-69292638D01*
X179535915Y-69359677D01*
X179519281Y-69380319D01*
X179083919Y-69815681D01*
X179022596Y-69849166D01*
X178996238Y-69852000D01*
X176939962Y-69852000D01*
X176872923Y-69832315D01*
X176852281Y-69815681D01*
X174384919Y-67348319D01*
X174351434Y-67286996D01*
X174348600Y-67260638D01*
X174348600Y-65966362D01*
X174368285Y-65899323D01*
X174384919Y-65878681D01*
X175201281Y-65062319D01*
X175262604Y-65028834D01*
X175288962Y-65026000D01*
X176837238Y-65026000D01*
X176904277Y-65045685D01*
G37*
%TD.AperFunction*%
%TD*%
%TA.AperFunction,Conductor*%
%TO.N,Net-(U24-ISEN)*%
G36*
X176777277Y-93493685D02*
G01*
X176797919Y-93510319D01*
X179392281Y-96104681D01*
X179425766Y-96166004D01*
X179428600Y-96192362D01*
X179428600Y-97232638D01*
X179408915Y-97299677D01*
X179392281Y-97320319D01*
X178448919Y-98263681D01*
X178387596Y-98297166D01*
X178361238Y-98300000D01*
X176812962Y-98300000D01*
X176745923Y-98280315D01*
X176725281Y-98263681D01*
X174257919Y-95796319D01*
X174224434Y-95734996D01*
X174221600Y-95708638D01*
X174221600Y-94414362D01*
X174241285Y-94347323D01*
X174257919Y-94326681D01*
X175074281Y-93510319D01*
X175135604Y-93476834D01*
X175161962Y-93474000D01*
X176710238Y-93474000D01*
X176777277Y-93493685D01*
G37*
%TD.AperFunction*%
%TD*%
%TA.AperFunction,Conductor*%
%TO.N,/USB_PD/UVP-OVP/Vin*%
G36*
X125015639Y-103044085D02*
G01*
X125061394Y-103096889D01*
X125072600Y-103148400D01*
X125072600Y-111229500D01*
X125052915Y-111296539D01*
X125000111Y-111342294D01*
X124948600Y-111353500D01*
X117528808Y-111353500D01*
X117461769Y-111333815D01*
X117416014Y-111281011D01*
X117406070Y-111211853D01*
X117411766Y-111188545D01*
X117450568Y-111077654D01*
X117450569Y-111077649D01*
X117470765Y-110898403D01*
X117470765Y-110898396D01*
X117450569Y-110719150D01*
X117450568Y-110719145D01*
X117444324Y-110701302D01*
X117390989Y-110548878D01*
X117295016Y-110396138D01*
X117167462Y-110268584D01*
X117014723Y-110172611D01*
X116844454Y-110113031D01*
X116844449Y-110113030D01*
X116665204Y-110092835D01*
X116665196Y-110092835D01*
X116485950Y-110113030D01*
X116485945Y-110113031D01*
X116315676Y-110172611D01*
X116162937Y-110268584D01*
X116035384Y-110396137D01*
X115939409Y-110548880D01*
X115905941Y-110644526D01*
X115865220Y-110701302D01*
X115800267Y-110727049D01*
X115731705Y-110713593D01*
X115681302Y-110665205D01*
X115671859Y-110644526D01*
X115638390Y-110548880D01*
X115638389Y-110548878D01*
X115542416Y-110396138D01*
X115414862Y-110268584D01*
X115262123Y-110172611D01*
X115091854Y-110113031D01*
X115091849Y-110113030D01*
X114912604Y-110092835D01*
X114912596Y-110092835D01*
X114733350Y-110113030D01*
X114733345Y-110113031D01*
X114563076Y-110172611D01*
X114410337Y-110268584D01*
X114282784Y-110396137D01*
X114186811Y-110548876D01*
X114127231Y-110719145D01*
X114127230Y-110719150D01*
X114107035Y-110898396D01*
X114107035Y-110898403D01*
X114127230Y-111077649D01*
X114127231Y-111077654D01*
X114166034Y-111188545D01*
X114169595Y-111258324D01*
X114134866Y-111318952D01*
X114072873Y-111351179D01*
X114048992Y-111353500D01*
X112750600Y-111353500D01*
X112683561Y-111333815D01*
X112637806Y-111281011D01*
X112626600Y-111229500D01*
X112626600Y-110236440D01*
X112646285Y-110169401D01*
X112699089Y-110123646D01*
X112764483Y-110113220D01*
X112802583Y-110117512D01*
X112905997Y-110129165D01*
X112906000Y-110129165D01*
X112906004Y-110129165D01*
X113085249Y-110108969D01*
X113085252Y-110108968D01*
X113085255Y-110108968D01*
X113255522Y-110049389D01*
X113408262Y-109953416D01*
X113535816Y-109825862D01*
X113631789Y-109673122D01*
X113691368Y-109502855D01*
X113711565Y-109323600D01*
X113691368Y-109144345D01*
X113631789Y-108974078D01*
X113535816Y-108821338D01*
X113408262Y-108693784D01*
X113255523Y-108597811D01*
X113085254Y-108538231D01*
X113085249Y-108538230D01*
X112906004Y-108518035D01*
X112905996Y-108518035D01*
X112764483Y-108533979D01*
X112695661Y-108521924D01*
X112644282Y-108474575D01*
X112626600Y-108410759D01*
X112626600Y-105070932D01*
X112640116Y-105014637D01*
X112679164Y-104938001D01*
X112679165Y-104937997D01*
X112679168Y-104937992D01*
X112752153Y-104713368D01*
X112789100Y-104480097D01*
X112789100Y-104243902D01*
X112752153Y-104010631D01*
X112679165Y-103786000D01*
X112640115Y-103709360D01*
X112626600Y-103653066D01*
X112626600Y-103148400D01*
X112646285Y-103081361D01*
X112699089Y-103035606D01*
X112750600Y-103024400D01*
X124948600Y-103024400D01*
X125015639Y-103044085D01*
G37*
%TD.AperFunction*%
%TD*%
M02*
