M48
; DRILL file {KiCad 8.0.4} date 2025-02-12T03:18:48+0100
; FORMAT={-:-/ absolute / inch / decimal}
; #@! TF.CreationDate,2025-02-12T03:18:48+01:00
; #@! TF.GenerationSoftware,Kicad,Pcbnew,8.0.4
; #@! TF.FileFunction,Plated,1,4,PTH
FMAT,2
INCH
; #@! TA.AperFunction,Plated,PTH,ComponentDrill
T1C0.0079
; #@! TA.AperFunction,Plated,PTH,ViaDrill
T2C0.0118
; #@! TA.AperFunction,Plated,PTH,ComponentDrill
T3C0.0118
; #@! TA.AperFunction,Plated,PTH,ComponentDrill
T4C0.0130
; #@! TA.AperFunction,Plated,PTH,ComponentDrill
T5C0.0394
; #@! TA.AperFunction,Plated,PTH,ComponentDrill
T6C0.0520
; #@! TA.AperFunction,Plated,PTH,ComponentDrill
T7C0.1260
%
G90
G05
T1
X5.0222Y-3.0155
X5.0222Y-3.0706
X5.0497Y-2.9879
X5.0497Y-3.043
X5.0497Y-3.0981
X5.0773Y-3.0155
X5.0773Y-3.0706
X5.1048Y-2.9879
X5.1048Y-3.043
X5.1048Y-3.0981
X5.1324Y-3.0155
X5.1324Y-3.0706
T2
X3.9541Y-3.7141
X3.9571Y-3.1481
X3.9971Y-3.1111
X4.0411Y-2.8391
X4.0741Y-3.7141
X4.101Y-3.517
X4.1141Y-3.1101
X4.1144Y-3.495
X4.1201Y-2.8391
X4.1201Y-2.9471
X4.127Y-3.517
X4.1291Y-3.7141
X4.14Y-3.495
X4.155Y-3.146
X4.1901Y-3.0801
X4.1901Y-3.146
X4.2041Y-3.7141
X4.2583Y-3.5407
X4.261Y-3.633
X4.2621Y-3.567
X4.2621Y-3.601
X4.2741Y-3.2251
X4.2741Y-3.2501
X4.2741Y-3.2751
X4.2811Y-3.3091
X4.2811Y-3.3361
X4.2991Y-3.2251
X4.2991Y-3.2501
X4.2991Y-3.2751
X4.3091Y-3.3091
X4.3091Y-3.3361
X4.3141Y-3.0151
X4.3471Y-3.7141
X4.3501Y-3.1941
X4.3511Y-2.8451
X4.3721Y-3.0151
X4.3941Y-2.7271
X4.4258Y-2.9212
X4.4401Y-3.4001
X4.4451Y-4.3041
X4.4511Y-4.1001
X4.4651Y-3.6641
X4.4721Y-4.1201
X4.4761Y-2.7051
X4.4761Y-2.7651
X4.4931Y-4.1001
X4.5001Y-3.5901
X4.5101Y-2.7051
X4.5131Y-4.1201
X4.5241Y-4.3661
X4.5361Y-2.8951
X4.5441Y-2.7051
X4.5441Y-2.7381
X4.5441Y-2.7651
X4.5441Y-2.7911
X4.5441Y-3.6601
X4.5511Y-3.8721
X4.5511Y-3.8981
X4.5736Y-2.7911
X4.5741Y-2.9351
X4.5771Y-3.8721
X4.5771Y-3.8981
X4.5831Y-4.1951
X4.5931Y-4.3661
X4.6031Y-2.7911
X4.6031Y-3.8721
X4.6031Y-3.8981
X4.6141Y-3.6601
X4.6331Y-3.7641
X4.6471Y-3.9261
X4.6481Y-3.9891
X4.6501Y-3.8341
X4.6708Y-3.5151
X4.6711Y-3.7711
X4.6736Y-3.9261
X4.6746Y-3.9891
X4.6751Y-3.8341
X4.7001Y-3.7711
X4.7001Y-3.8341
X4.7001Y-3.9261
X4.7011Y-3.9891
X4.7152Y-3.7417
X4.7301Y-4.0751
X4.7341Y-2.7051
X4.7361Y-2.9871
X4.7371Y-4.3561
X4.7381Y-2.8381
X4.7631Y-3.6601
X4.7675Y-2.7051
X4.785Y-3.7641
X4.7877Y-3.4486
X4.8003Y-3.9851
X4.8008Y-2.7051
X4.8011Y-3.6601
X4.8061Y-4.1761
X4.8337Y-4.0761
X4.8341Y-2.7051
X4.8511Y-2.9871
X4.8511Y-3.0921
X4.8741Y-3.8521
X4.8865Y-3.0271
X4.9061Y-4.0191
X4.9181Y-3.6321
X4.9181Y-3.6621
X4.9181Y-3.6921
X4.9181Y-3.7221
X4.9181Y-3.7521
X4.9181Y-3.7821
X4.9181Y-3.8121
X4.9181Y-3.8421
X4.9841Y-3.9551
X4.9951Y-4.1231
X5.0101Y-4.1461
X5.0141Y-3.9551
X5.0221Y-3.5641
X5.0231Y-4.1221
X5.0371Y-4.1461
X5.0441Y-3.5891
X5.0441Y-3.9551
X5.0501Y-4.1231
X5.0631Y-3.2501
X5.0631Y-3.3331
X5.0641Y-3.5651
X5.0651Y-4.1461
X5.0781Y-4.1221
X5.0841Y-3.5891
X5.0841Y-3.9551
X5.0921Y-4.1461
X5.1051Y-3.5631
X5.1141Y-3.4851
X5.1141Y-3.9551
X5.1251Y-3.5871
X5.1441Y-3.9551
X5.1451Y-3.5631
X5.1748Y-3.3331
X5.1751Y-3.9981
X5.1751Y-4.0531
X5.1761Y-4.0261
X5.1811Y-3.7441
X5.1811Y-3.7701
X5.1911Y-4.3711
X5.1991Y-3.9841
X5.1991Y-4.0111
X5.1991Y-4.0391
X5.2071Y-3.7441
X5.2071Y-3.7701
X5.2111Y-4.2821
X5.2115Y-3.5322
X5.2131Y-2.9351
X5.2171Y-4.3711
X5.2191Y-3.6551
X5.2251Y-4.3071
X5.2291Y-3.3331
X5.2351Y-3.7441
X5.2351Y-3.7701
X5.2391Y-4.2821
X5.2441Y-4.3711
X5.2491Y-3.6551
X5.2531Y-4.3071
X5.2535Y-3.5332
X5.2611Y-3.484
X5.2641Y-2.8191
X5.2681Y-4.2821
X5.2701Y-4.3711
X5.2865Y-3.3331
X5.2945Y-3.5312
X5.2981Y-3.6541
X5.3281Y-3.6541
X5.3291Y-2.8891
X5.3341Y-4.0001
X5.3341Y-4.3711
X5.3345Y-3.5312
X5.3381Y-4.1201
X5.3541Y-3.9501
X5.3601Y-4.3711
X5.3791Y-2.9831
X5.3861Y-4.3711
X5.3926Y-2.8326
X5.3981Y-3.3331
X5.3991Y-4.2601
X5.4111Y-3.9501
X5.4121Y-4.3711
X5.4241Y-2.7051
X5.4371Y-4.3711
X5.4541Y-2.7051
X5.4541Y-3.9491
X5.4631Y-4.3711
X5.4811Y-3.4415
X5.4841Y-2.7051
X5.4891Y-4.3711
X5.4941Y-4.1741
X5.4947Y-4.1491
X5.4991Y-4.2601
X5.5071Y-3.6021
X5.5071Y-3.6493
X5.5071Y-3.9111
X5.5071Y-3.9371
X5.5151Y-4.3711
X5.5195Y-4.1741
X5.5201Y-4.1491
X5.5307Y-3.6257
X5.5307Y-3.673
X5.5311Y-3.3675
X5.5311Y-3.8971
X5.5311Y-3.9241
X5.5311Y-3.9501
X5.5401Y-4.3711
X5.5451Y-4.1741
X5.5457Y-4.1491
X5.5611Y-3.4181
X5.5641Y-3.0117
X5.5661Y-4.3711
X5.5691Y-3.9701
X5.5731Y-3.5611
X5.5941Y-3.9701
X5.6048Y-3.1414
X5.6191Y-3.9701
X5.6321Y-4.3701
X5.6331Y-3.7861
X5.6351Y-3.8341
X5.6441Y-3.9701
X5.6461Y-3.7621
X5.6481Y-3.8101
X5.6491Y-3.3575
X5.6581Y-4.3701
X5.6601Y-3.7861
X5.6621Y-3.8341
X5.6691Y-3.9701
X5.6731Y-3.5611
X5.6731Y-3.7631
X5.6741Y-2.7051
X5.6751Y-3.8111
X5.6851Y-4.3701
X5.6881Y-3.7861
X5.6901Y-3.8341
X5.6941Y-3.9701
X5.7011Y-3.7621
X5.7031Y-3.8101
X5.7091Y-3.6631
X5.7111Y-4.3701
X5.7151Y-3.7861
X5.7171Y-3.8341
X5.7191Y-3.9701
X5.7211Y-3.1041
X5.7211Y-3.1361
X5.7211Y-3.2861
X5.7211Y-3.3591
X5.7211Y-3.4285
X5.7281Y-3.5611
X5.7371Y-4.3701
X5.7411Y-3.7171
X5.7551Y-3.7411
X5.7641Y-3.9101
X5.7641Y-3.9401
X5.7641Y-4.3701
X5.7691Y-3.7171
X5.7841Y-3.7401
X5.7971Y-3.7161
X5.8041Y-3.9101
X5.8041Y-3.9401
X5.8111Y-3.7401
X5.8111Y-4.3241
X5.8111Y-4.3702
X5.8301Y-3.8181
X5.8371Y-3.3651
X5.8441Y-2.7051
X5.8441Y-3.8651
X5.8441Y-3.8951
X5.8441Y-3.9251
X5.8491Y-3.4411
X5.8621Y-4.3702
X5.8661Y-2.8411
X5.8881Y-4.3701
X5.8941Y-3.6951
X5.9141Y-4.3701
X5.9341Y-3.1431
X5.9348Y-4.0408
X5.9381Y-3.5231
X5.9401Y-4.3701
X5.9661Y-4.3702
X5.9671Y-3.0161
X5.9671Y-3.1201
X5.9671Y-3.1691
X5.9671Y-3.2691
X5.9671Y-3.3191
X5.9691Y-3.6951
X5.9921Y-4.3701
X6.0141Y-3.6601
X6.0171Y-2.7051
X6.0181Y-4.3701
X6.0241Y-3.8601
X6.0241Y-3.8901
X6.0241Y-3.9201
X6.0441Y-4.3701
X6.0531Y-3.6711
X6.0541Y-2.9951
X6.0541Y-3.8601
X6.0541Y-3.8901
X6.0541Y-3.9201
X6.0641Y-3.5231
X6.0701Y-4.3702
X6.0841Y-3.3251
X6.0961Y-4.3701
X6.1221Y-4.3701
X6.1386Y-3.1691
X6.1481Y-4.3701
X6.1541Y-3.6851
X6.1541Y-3.7151
X6.1541Y-3.7451
X6.1541Y-3.7751
X6.1541Y-3.8051
X6.1541Y-3.8351
X6.1541Y-3.8651
X6.1541Y-3.8951
X6.1541Y-3.9251
X6.1541Y-3.9551
X6.1541Y-3.9851
X6.1541Y-4.0151
X6.1771Y-3.4401
X6.1971Y-3.6761
X6.1991Y-3.2761
X6.2241Y-2.9881
X6.2581Y-4.3701
X6.2611Y-3.4921
X6.2701Y-3.6261
X6.2738Y-2.9008
X6.2841Y-4.3701
X6.2861Y-3.6751
X6.2861Y-3.7091
X6.2861Y-3.7411
X6.2861Y-3.7751
X6.2861Y-3.8071
X6.2861Y-3.8411
X6.2861Y-3.8731
X6.2861Y-3.9071
X6.2861Y-3.9411
X6.2861Y-3.9751
X6.2861Y-4.0071
X6.2871Y-3.0521
X6.2931Y-3.4041
X6.2941Y-3.2662
X6.2941Y-3.4921
X6.2961Y-2.7621
X6.3031Y-3.6261
X6.3101Y-4.3701
X6.3201Y-3.0521
X6.3231Y-2.9191
X6.3271Y-3.4921
X6.3361Y-3.6261
X6.3361Y-4.3702
X6.348Y-2.686
X6.3531Y-2.9191
X6.3531Y-3.0521
X6.3591Y-3.8601
X6.3595Y-4.0091
X6.3601Y-3.4921
X6.3621Y-4.3701
X6.3691Y-3.6261
X6.3831Y-2.9191
X6.3841Y-3.1921
X6.3841Y-3.3381
X6.3861Y-3.0521
X6.3881Y-4.3701
X6.3991Y-2.4711
X6.3991Y-2.5101
X6.4051Y-3.7391
X6.4134Y-2.8178
X6.4141Y-4.3701
X6.4321Y-4.1341
X6.4321Y-4.1618
X6.4321Y-4.1896
X6.4321Y-4.2173
X6.4321Y-4.2451
X6.4351Y-3.2981
X6.4441Y-3.0621
X6.4441Y-3.1211
X6.4491Y-2.943
X6.4765Y-3.1924
X6.4765Y-3.2331
X6.4765Y-3.2721
X6.477Y-3.464
X6.4821Y-4.1041
X6.4821Y-4.1341
X6.4935Y-2.6404
X6.5041Y-3.1221
X6.5051Y-3.3791
X6.507Y-3.464
X6.513Y-3.6996
X6.5131Y-4.1031
X6.5131Y-4.1341
X6.5149Y-2.7181
X6.5149Y-2.8211
X6.5211Y-2.4701
X6.5211Y-2.5088
X6.5211Y-2.5501
X6.5241Y-3.8951
X6.5371Y-3.464
X6.5441Y-3.3051
X6.5451Y-3.1104
X6.5541Y-3.9581
X6.5841Y-4.1031
X6.5841Y-4.1331
X6.5887Y-3.6841
X6.6076Y-3.8358
X6.6077Y-2.5949
X6.6126Y-3.304
X6.6126Y-3.355
X6.6137Y-2.7291
X6.6137Y-2.7811
X6.6151Y-4.1021
X6.6151Y-4.1331
X6.6159Y-3.9189
X6.6188Y-2.6401
X6.623Y-3.194
X6.6281Y-2.4701
X6.6281Y-2.5031
X6.6381Y-3.5241
X6.6381Y-3.5541
X6.6401Y-2.8531
X6.6401Y-4.0031
X6.646Y-2.944
X6.646Y-2.977
X6.646Y-3.01
X6.667Y-3.1931
X6.6691Y-2.8531
X6.6691Y-3.5231
X6.6691Y-3.5541
X6.6691Y-3.5856
X6.6701Y-2.8811
X6.6701Y-4.0021
X6.677Y-2.943
X6.677Y-2.977
X6.677Y-3.009
X6.6961Y-3.4671
X6.6981Y-2.8531
X6.6997Y-3.1246
X6.7081Y-4.1001
X6.7103Y-2.5589
X6.725Y-3.048
X6.736Y-3.965
X6.7381Y-2.6691
X6.7381Y-2.8391
X6.7391Y-3.7881
X6.7441Y-3.5771
X6.7641Y-3.4351
X6.767Y-3.965
X6.768Y-4.0
X6.7681Y-2.6691
X6.7681Y-2.8391
X6.7691Y-2.4861
X6.7691Y-2.8828
X6.7691Y-3.7881
X6.7788Y-3.6143
X6.7836Y-3.3048
X6.793Y-2.992
X6.7981Y-2.6691
X6.7981Y-2.8391
X6.7991Y-2.8828
X6.7991Y-3.7881
X6.8Y-3.965
X6.8Y-4.0
X6.8041Y-3.4351
X6.8281Y-2.6691
X6.8281Y-2.8391
X6.8291Y-3.7881
X6.832Y-3.965
X6.8741Y-3.1571
X6.8751Y-3.7291
X6.8791Y-2.6171
X6.8791Y-2.9851
X6.8791Y-3.5251
X6.8791Y-3.5551
X6.8911Y-3.7071
X6.8941Y-2.5921
X6.8941Y-3.1321
X6.9031Y-2.8771
X6.9031Y-2.9041
X6.9041Y-2.9851
X6.9041Y-3.4291
X6.9041Y-3.4561
X6.9041Y-3.5251
X6.9041Y-3.5551
X6.9041Y-3.9961
X6.9041Y-4.0261
X6.9091Y-2.6171
X6.9091Y-3.1571
X6.9091Y-3.7291
X6.9241Y-2.5921
X6.9264Y-3.1321
X6.9271Y-3.7071
X6.9291Y-2.9851
X6.9291Y-3.5251
X6.9291Y-3.5551
X6.9311Y-2.8771
X6.9311Y-2.9041
X6.9321Y-3.4291
X6.9321Y-3.4561
X6.9351Y-3.9951
X6.9351Y-4.0261
X6.9541Y-2.4667
X6.9541Y-2.4951
X6.9541Y-3.2801
X6.9551Y-2.9851
X6.9551Y-3.0151
X6.9559Y-3.8462
X6.9641Y-2.7281
X6.9741Y-2.5251
X6.9835Y-3.8462
X6.9841Y-2.4667
X6.9841Y-2.4951
X6.9841Y-3.2801
X6.9941Y-2.7281
X7.011Y-3.8383
X7.0141Y-3.2801
X7.0241Y-2.7281
X7.0307Y-3.8186
X7.0441Y-3.2801
X7.0541Y-2.7281
T3
X3.9963Y-3.3245
X3.9963Y-3.482
X4.075Y-3.3245
X4.075Y-3.482
X6.758Y-3.8216
T4
X6.758Y-2.7027
X6.758Y-2.7539
X6.758Y-2.8051
X6.758Y-3.2536
X6.758Y-3.3048
X6.758Y-3.356
X6.758Y-3.8728
X6.758Y-3.924
X6.8092Y-2.7027
X6.8092Y-2.7539
X6.8092Y-2.8051
X6.8092Y-3.2536
X6.8092Y-3.3048
X6.8092Y-3.356
X6.8092Y-3.8216
X6.8092Y-3.8728
X6.8092Y-3.924
T6
X7.2072Y-2.5681
X7.2072Y-2.765
X7.2072Y-3.0108
X7.2072Y-3.2077
X7.2072Y-3.4535
X7.2072Y-3.6504
X7.2076Y-3.8986
X7.2076Y-4.0955
X7.2076Y-4.2923
T7
X4.0551Y-2.5716
X4.0551Y-4.2645
X6.2205Y-2.5716
X6.811Y-4.2645
T5
G00X4.0266Y-3.2328
M15
G01X4.0148Y-3.2328
M16
G05
G00X4.0266Y-3.5737
M15
G01X4.0148Y-3.5737
M16
G05
G00X4.1978Y-3.2328
M15
G01X4.1742Y-3.2328
M16
G05
G00X4.1978Y-3.5737
M15
G01X4.1742Y-3.5737
M16
G05
G00X4.224Y-3.8843
M15
G01X4.224Y-3.9631
M16
G05
G00X4.3027Y-4.1087
M15
G01X4.3814Y-4.1087
M16
G05
G00X4.4681Y-3.8745
M15
G01X4.4681Y-3.9729
M16
G05
M30
