%TF.GenerationSoftware,KiCad,Pcbnew,8.0.4*%
%TF.CreationDate,2025-02-12T03:18:48+01:00*%
%TF.ProjectId,SimpleLedController,53696d70-6c65-44c6-9564-436f6e74726f,A*%
%TF.SameCoordinates,Original*%
%TF.FileFunction,Copper,L4,Bot*%
%TF.FilePolarity,Positive*%
%FSLAX46Y46*%
G04 Gerber Fmt 4.6, Leading zero omitted, Abs format (unit mm)*
G04 Created by KiCad (PCBNEW 8.0.4) date 2025-02-12 03:18:48*
%MOMM*%
%LPD*%
G01*
G04 APERTURE LIST*
%TA.AperFunction,ComponentPad*%
%ADD10C,5.600000*%
%TD*%
%TA.AperFunction,ComponentPad*%
%ADD11C,0.600000*%
%TD*%
%TA.AperFunction,ComponentPad*%
%ADD12C,0.630000*%
%TD*%
%TA.AperFunction,SMDPad,CuDef*%
%ADD13R,2.600000X3.300000*%
%TD*%
%TA.AperFunction,ComponentPad*%
%ADD14R,2.000000X4.500000*%
%TD*%
%TA.AperFunction,ComponentPad*%
%ADD15O,2.000000X4.000000*%
%TD*%
%TA.AperFunction,ComponentPad*%
%ADD16O,4.000000X2.000000*%
%TD*%
%TA.AperFunction,ComponentPad*%
%ADD17R,3.960000X1.980000*%
%TD*%
%TA.AperFunction,ComponentPad*%
%ADD18O,3.960000X1.980000*%
%TD*%
%TA.AperFunction,HeatsinkPad*%
%ADD19C,0.600000*%
%TD*%
%TA.AperFunction,ComponentPad*%
%ADD20O,2.300000X1.300000*%
%TD*%
%TA.AperFunction,ComponentPad*%
%ADD21O,2.100000X1.300000*%
%TD*%
%TA.AperFunction,ViaPad*%
%ADD22C,0.600000*%
%TD*%
%TA.AperFunction,Conductor*%
%ADD23C,0.200000*%
%TD*%
%TA.AperFunction,Conductor*%
%ADD24C,0.150000*%
%TD*%
%TA.AperFunction,Conductor*%
%ADD25C,0.300000*%
%TD*%
G04 APERTURE END LIST*
D10*
%TO.P,H1,1,1*%
%TO.N,GND*%
X103000000Y-108317800D03*
%TD*%
D11*
%TO.P,U24,9,GND*%
%TO.N,GND*%
X171654251Y-97069612D03*
D12*
X171654251Y-98369612D03*
X171654251Y-99669612D03*
D13*
X172304251Y-98369612D03*
D12*
X172954251Y-97069612D03*
X172954251Y-98369612D03*
X172954251Y-99669612D03*
%TD*%
D14*
%TO.P,J1,1*%
%TO.N,/USB_PD/UVP-OVP/Vin*%
X113488600Y-99662000D03*
D15*
%TO.P,J1,2*%
%TO.N,GND*%
X107288600Y-99662000D03*
D16*
%TO.P,J1,3*%
%TO.N,N/C*%
X110288600Y-104362000D03*
%TD*%
D17*
%TO.P,J5,1,Pin_1*%
%TO.N,+12V*%
X183071941Y-109024714D03*
D18*
%TO.P,J5,2,Pin_2*%
%TO.N,/MCU/5V WS2812 and Servo/5V Data{slash}PWM*%
X183071941Y-104024714D03*
%TO.P,J5,3,Pin_3*%
%TO.N,GND*%
X183071941Y-99024714D03*
%TD*%
D19*
%TO.P,U22,41,GND*%
%TO.N,GND*%
X127562808Y-76592820D03*
X127562808Y-77992820D03*
X128262808Y-75892820D03*
X128262808Y-77292820D03*
X128262808Y-78692820D03*
X128962808Y-76592820D03*
X128962808Y-77992820D03*
X129662808Y-75892820D03*
X129662808Y-77292820D03*
X129662808Y-78692820D03*
X130362808Y-76592820D03*
X130362808Y-77992820D03*
%TD*%
D20*
%TO.P,J3,S1,SHIELD*%
%TO.N,Net-(J3-SHIELD)*%
X106325000Y-82112800D03*
D21*
X102125000Y-82112800D03*
D11*
X103505000Y-84442800D03*
X101505000Y-84442800D03*
X103505000Y-88442800D03*
X101505000Y-88442800D03*
D20*
X106325000Y-90772800D03*
D21*
X102125000Y-90772800D03*
%TD*%
D10*
%TO.P,H4,1,1*%
%TO.N,unconnected-(H4-Pad1)*%
X103000000Y-65317800D03*
%TD*%
D17*
%TO.P,J14,1,Pin_1*%
%TO.N,Net-(J14-Pin_1)*%
X183061941Y-81474898D03*
D18*
%TO.P,J14,2,Pin_2*%
%TO.N,Net-(J14-Pin_2)*%
X183061941Y-76474898D03*
%TD*%
D10*
%TO.P,H2,1,1*%
%TO.N,unconnected-(H2-Pad1)*%
X158000000Y-65317800D03*
%TD*%
D17*
%TO.P,J13,1,Pin_1*%
%TO.N,Net-(J13-Pin_1)*%
X183061941Y-70229990D03*
D18*
%TO.P,J13,2,Pin_2*%
%TO.N,Net-(J13-Pin_2)*%
X183061941Y-65229990D03*
%TD*%
D17*
%TO.P,J12,1,Pin_1*%
%TO.N,Net-(J12-Pin_1)*%
X183061941Y-92719806D03*
D18*
%TO.P,J12,2,Pin_2*%
%TO.N,Net-(J12-Pin_2)*%
X183061941Y-87719806D03*
%TD*%
D12*
%TO.P,U27,9,GND*%
%TO.N,GND*%
X171654251Y-68649000D03*
X171654251Y-69949000D03*
X171654251Y-71249000D03*
D13*
X172304251Y-69949000D03*
D12*
X172954251Y-68649000D03*
X172954251Y-69949000D03*
X172954251Y-71249000D03*
%TD*%
D10*
%TO.P,H3,1,1*%
%TO.N,unconnected-(H3-Pad1)*%
X173000000Y-108317800D03*
%TD*%
D12*
%TO.P,U30,9,GND*%
%TO.N,GND*%
X171654251Y-82642520D03*
X171654251Y-83942520D03*
X171654251Y-85242520D03*
D13*
X172304251Y-83942520D03*
D12*
X172954251Y-82642520D03*
X172954251Y-83942520D03*
X172954251Y-85242520D03*
%TD*%
D22*
%TO.N,GND*%
X132565600Y-92839000D03*
X177396600Y-63375000D03*
X109197600Y-81917000D03*
X156314600Y-95887000D03*
X124920200Y-93016800D03*
X140846000Y-106021600D03*
X172720000Y-100711000D03*
X163375800Y-105710450D03*
X103482600Y-94337600D03*
X159870600Y-88698800D03*
X133327600Y-92839000D03*
X127358600Y-100459000D03*
X140480600Y-92093000D03*
X145722800Y-111000000D03*
X120246600Y-68709000D03*
X148440600Y-68709000D03*
X173532800Y-100711000D03*
X172720000Y-101600000D03*
X114303000Y-91188000D03*
X141252400Y-86819200D03*
X108256600Y-90601800D03*
X156314600Y-93601000D03*
X139880600Y-92693000D03*
X171094400Y-100711000D03*
X148440600Y-99697000D03*
X150879000Y-111000000D03*
X102644400Y-72112600D03*
X175364600Y-89537000D03*
X146408600Y-111000000D03*
X106429000Y-78234000D03*
X172672200Y-72112600D03*
X117681200Y-95607600D03*
X139550600Y-106021600D03*
X164503750Y-83110800D03*
X165430200Y-93970400D03*
X161597800Y-111000000D03*
X108161496Y-89933104D03*
X132972000Y-95760000D03*
X176660000Y-76583000D03*
X153012600Y-99570000D03*
X134572200Y-92813600D03*
X154841400Y-111000000D03*
X160937400Y-92102400D03*
X140211000Y-105386600D03*
X156314600Y-99697000D03*
X138534600Y-100306600D03*
X156314600Y-101221000D03*
X159845200Y-86463600D03*
X159032400Y-88698800D03*
X115420600Y-92966000D03*
X160937400Y-111003200D03*
X146408600Y-99316000D03*
X121607185Y-87595634D03*
X168354200Y-63578200D03*
X172304251Y-83942520D03*
X104879600Y-94337600D03*
X132362400Y-108764800D03*
X160531000Y-77522800D03*
X116665200Y-110898400D03*
X101526800Y-79021400D03*
X159354435Y-73680235D03*
X161521600Y-98046000D03*
X156314600Y-97411000D03*
X120983200Y-92966000D03*
X174729600Y-89537000D03*
X139677600Y-108206000D03*
X153774600Y-98808000D03*
X151564800Y-83034600D03*
X171808600Y-87251000D03*
X117198600Y-92966000D03*
X155501800Y-111000000D03*
X124920200Y-95302800D03*
X159261000Y-92102400D03*
X176634600Y-63375000D03*
X146408600Y-100078000D03*
X158092600Y-75897200D03*
X144122600Y-68709000D03*
X145494200Y-90451400D03*
X144630600Y-100840000D03*
X161547000Y-88698800D03*
X132718000Y-109399800D03*
X153774600Y-76075000D03*
X162537600Y-63756000D03*
X148567600Y-87403400D03*
X173459600Y-96217200D03*
X163375800Y-105005600D03*
X133073600Y-108764800D03*
X145265600Y-100840000D03*
X100434600Y-94337600D03*
X171881800Y-100711000D03*
X162918600Y-111000000D03*
X139566400Y-105386600D03*
X126596600Y-100459000D03*
X176660000Y-75821000D03*
X110416800Y-94337600D03*
X171148200Y-72112600D03*
X175364600Y-90299000D03*
X171173600Y-96217200D03*
X160708800Y-88698800D03*
X171148200Y-67794600D03*
X154181000Y-111003200D03*
X151615600Y-93855000D03*
X108562600Y-82552000D03*
X148440600Y-98173000D03*
X175999600Y-90299000D03*
X147424600Y-100078000D03*
X159692800Y-77522800D03*
X118637200Y-89283000D03*
X151564800Y-76608400D03*
X171935600Y-96217200D03*
X144402000Y-111000000D03*
X140195997Y-106021600D03*
X161369200Y-74144600D03*
X124920200Y-96064800D03*
X161369200Y-77522800D03*
X135486600Y-101602000D03*
X143055800Y-111000000D03*
X159616600Y-111000000D03*
X147424600Y-99316000D03*
X124615400Y-102084600D03*
X137137600Y-108206000D03*
X106429000Y-79908400D03*
X129136600Y-100459000D03*
X131600400Y-95760000D03*
X153774600Y-98046000D03*
X147602400Y-109831600D03*
X152758600Y-92966000D03*
X162207400Y-77522800D03*
X160277000Y-111000000D03*
X139880600Y-91493000D03*
X121939932Y-68709000D03*
X124920200Y-92254800D03*
X124920200Y-94540800D03*
X128120600Y-100459000D03*
X156314600Y-95125000D03*
X132260800Y-95760000D03*
X162899101Y-71572339D03*
X121948400Y-92966000D03*
X172824600Y-87251000D03*
X122786600Y-68709000D03*
X170441398Y-64996202D03*
X131854400Y-111025400D03*
X156314600Y-101983000D03*
X172672200Y-67794600D03*
X163375800Y-107120150D03*
X111051800Y-76583000D03*
X162131200Y-74144600D03*
X161775600Y-92102400D03*
X140480600Y-93293000D03*
X108562600Y-81917000D03*
X151539400Y-111003200D03*
X171910200Y-67794600D03*
X124920200Y-93778800D03*
X121928100Y-101221000D03*
X156162200Y-111000000D03*
X110493000Y-81129600D03*
X165204600Y-79300800D03*
X173434200Y-67794600D03*
X114912600Y-110898400D03*
X121538369Y-95608000D03*
X133200600Y-111025400D03*
X177396600Y-62654000D03*
X109197600Y-82552000D03*
X113693400Y-70233000D03*
X108562600Y-83187000D03*
X143995600Y-100840000D03*
X165478500Y-71655400D03*
X108256600Y-91465400D03*
X133810200Y-108764800D03*
X148897800Y-111003200D03*
X175999600Y-89537000D03*
X109578600Y-76583000D03*
X129898600Y-100459000D03*
X142725600Y-100840000D03*
X138534600Y-68709000D03*
X156314600Y-96649000D03*
X156314600Y-94363000D03*
X152199800Y-111000000D03*
X131600400Y-95099600D03*
X145316400Y-85320600D03*
X149710600Y-93855000D03*
X152834800Y-68709000D03*
X150218600Y-111000000D03*
X143716200Y-111000000D03*
X130660600Y-100459000D03*
X139296600Y-68709000D03*
X172182241Y-91804105D03*
X171910200Y-72112600D03*
X104498600Y-78996000D03*
X108229400Y-92278200D03*
X141455600Y-100840000D03*
X112414759Y-74199554D03*
X156314600Y-100459000D03*
X174729600Y-75821000D03*
X145062400Y-111000000D03*
X147602400Y-111003200D03*
X160099200Y-92102400D03*
X161531565Y-101830235D03*
X159870600Y-82961001D03*
X143360600Y-100840000D03*
X160607200Y-74144600D03*
X114557000Y-68709000D03*
X109197600Y-83187000D03*
X149558200Y-111000000D03*
X124920200Y-97588800D03*
X171935600Y-73222202D03*
X171907200Y-101600000D03*
X137772600Y-68709000D03*
X156314600Y-98935000D03*
X141328600Y-76497200D03*
X142090600Y-100840000D03*
X169395600Y-91073603D03*
X175999600Y-75821000D03*
X137442400Y-100332000D03*
X173434200Y-72112600D03*
X161239200Y-68224400D03*
X176634600Y-62654000D03*
X152860200Y-111000000D03*
X133861000Y-111025400D03*
X153012600Y-98046000D03*
X177142600Y-64137000D03*
X162258200Y-111000000D03*
X148440600Y-98935000D03*
X158956200Y-111000000D03*
X112906000Y-109323600D03*
X163375800Y-107825000D03*
X172697600Y-73222202D03*
X150726600Y-79834200D03*
X175364600Y-75821000D03*
X153774600Y-99570000D03*
X132972000Y-95099600D03*
X153520600Y-111000000D03*
X165712600Y-98935000D03*
X132514800Y-111025400D03*
X135334200Y-92813600D03*
X153012600Y-98808000D03*
X135994600Y-100332000D03*
X121093266Y-68709000D03*
X172542200Y-75996800D03*
X174729600Y-90299000D03*
X132260800Y-95099600D03*
X124920200Y-96826800D03*
X170172283Y-79364861D03*
X133429200Y-109399800D03*
X140861003Y-105386600D03*
X163680600Y-79275400D03*
X163375800Y-106415300D03*
X115420600Y-68709000D03*
X156314600Y-98173000D03*
X113693400Y-68709000D03*
X172697600Y-96217200D03*
%TO.N,+5V*%
X134480600Y-89693000D03*
X127561800Y-90527600D03*
X144097200Y-90451400D03*
X130178000Y-91111800D03*
X128120600Y-91162600D03*
X112779000Y-86362000D03*
X128628600Y-90553000D03*
X130686000Y-90502200D03*
X129670000Y-90502200D03*
X129136600Y-91162600D03*
X132372400Y-89718400D03*
X135496600Y-89693000D03*
X133439200Y-89743800D03*
%TO.N,+3V3*%
X143487600Y-85279400D03*
X166220600Y-83949000D03*
X170815000Y-77419200D03*
X138102800Y-111025400D03*
X168354200Y-62740000D03*
X141379400Y-111025400D03*
X136807400Y-111025400D03*
X138763200Y-111025400D03*
X156898800Y-87378000D03*
X136147000Y-111025400D03*
X115420600Y-70893400D03*
X165636400Y-64772000D03*
X139423600Y-111025400D03*
X135588200Y-104650000D03*
X169421000Y-101652800D03*
X148999400Y-72163400D03*
X169421000Y-73179400D03*
X165277800Y-87985600D03*
X145316400Y-87082800D03*
X164515800Y-87985600D03*
X115420600Y-70233000D03*
X145316400Y-78843600D03*
X170132200Y-72468200D03*
X166246000Y-79005200D03*
X166042800Y-87985600D03*
X165478500Y-69039200D03*
X168659000Y-72468200D03*
X169395600Y-72468200D03*
X166474600Y-100535200D03*
X171300600Y-90857800D03*
X171935600Y-63146400D03*
X167832318Y-97429315D03*
X135486600Y-111025400D03*
X116169900Y-70893400D03*
X168659000Y-101678200D03*
X137467800Y-111025400D03*
X142363100Y-79791178D03*
X163452000Y-83771200D03*
X140084000Y-111025400D03*
X170081400Y-88063800D03*
X140719000Y-111025400D03*
X162537600Y-62765400D03*
X165230000Y-85828600D03*
X115420600Y-69547200D03*
X151564800Y-79250000D03*
X167354000Y-93575600D03*
X162156600Y-81078800D03*
X116919200Y-70893400D03*
%TO.N,/MCU/Buttons/Buttons.BTN1*%
X123218400Y-78538800D03*
X145316400Y-79656400D03*
%TO.N,/USB_PD/UVP-OVP/Vin*%
X113058400Y-104142000D03*
X114125200Y-104142000D03*
X114633200Y-104650000D03*
X122075400Y-106072400D03*
X113591800Y-104650000D03*
X120322800Y-110644400D03*
X116411200Y-106555000D03*
X122776600Y-103532400D03*
X120145000Y-103507000D03*
%TO.N,Net-(Q3-S)*%
X115598400Y-99011200D03*
X109451600Y-84736400D03*
X105156000Y-88773000D03*
X109451600Y-84050600D03*
X116258800Y-99011200D03*
X123802600Y-97842800D03*
X116919200Y-99011200D03*
X116919200Y-98350800D03*
X104505997Y-88773000D03*
X113414000Y-93067600D03*
X116258800Y-98350800D03*
X104165400Y-89331800D03*
X115598400Y-98350800D03*
X119766869Y-95039167D03*
X104825800Y-89331800D03*
X108740400Y-84050600D03*
X108740400Y-84736400D03*
%TO.N,/MCU/ESP32S3/I2C1.SDA*%
X163807600Y-74752200D03*
X124117000Y-76887800D03*
%TO.N,+12V*%
X157406800Y-93372400D03*
X169595800Y-75615800D03*
X175364600Y-102262400D03*
X176050400Y-73763600D03*
X175364600Y-101500400D03*
X168808400Y-74777600D03*
X169595800Y-74752200D03*
X169395600Y-90273600D03*
X153749200Y-93245400D03*
X159667400Y-95023400D03*
X159667400Y-95887000D03*
X168024000Y-104192800D03*
X159667400Y-99239800D03*
X165433200Y-105005600D03*
X169395600Y-89486200D03*
X175364600Y-87784400D03*
X164645800Y-105005600D03*
X159667400Y-94210600D03*
X176075800Y-87098600D03*
X159667400Y-100967000D03*
X175364600Y-87098600D03*
X164645800Y-104243600D03*
X168808400Y-75615800D03*
X176152000Y-102262400D03*
X159667400Y-100103400D03*
X168808400Y-76454000D03*
X168608200Y-90273600D03*
X176152000Y-101475000D03*
X168608200Y-89511600D03*
X167236600Y-104218200D03*
X159667400Y-101779800D03*
X159667400Y-97563400D03*
X175339200Y-73763600D03*
X175339200Y-73077800D03*
X176050400Y-73077800D03*
X165433200Y-104218200D03*
X168024000Y-104980200D03*
X167236600Y-104980200D03*
X169595800Y-76428600D03*
X159667400Y-98376200D03*
X159667400Y-93347000D03*
X159667400Y-96699800D03*
X176075800Y-87784400D03*
%TO.N,/MCU/ESP32S3/I2C1.SCL*%
X163680600Y-77776800D03*
X136629600Y-75770200D03*
%TO.N,/MCU/5V WS2812 and Servo/5V Data{slash}PWM*%
X145011600Y-93042200D03*
X170386200Y-104142000D03*
%TO.N,/MCU/CH340 prog/UART_PROG.RST*%
X111610600Y-69267800D03*
X120348200Y-72087200D03*
%TO.N,/MCU/CH340 prog/UART_PROG.BOOT*%
X110518400Y-72265000D03*
X139220400Y-87413000D03*
%TO.N,/USB_PD/VBUS*%
X139880800Y-100001800D03*
X143817800Y-97385600D03*
X128273000Y-104726200D03*
X144148000Y-96801400D03*
X144529000Y-97385600D03*
X148085000Y-96979200D03*
X146180000Y-95023400D03*
X143462200Y-96776000D03*
X127942800Y-105310400D03*
X106784600Y-94337600D03*
X118709900Y-99722400D03*
X140490400Y-98985800D03*
X144478200Y-96166400D03*
X140490400Y-99671600D03*
X147602400Y-94998000D03*
X128654000Y-105310400D03*
X129339800Y-105310400D03*
X118036800Y-99722400D03*
X118113000Y-97385600D03*
X145214800Y-97385600D03*
X132057600Y-102592600D03*
X104651000Y-72112600D03*
X126876000Y-104726200D03*
X143411400Y-95556800D03*
X150743591Y-102635454D03*
X144097200Y-95582200D03*
X140490400Y-100332000D03*
X143767000Y-96166400D03*
X146535600Y-94413800D03*
X127257000Y-105310400D03*
X143081200Y-96166400D03*
X145824400Y-94413800D03*
X104651000Y-74855800D03*
X147246800Y-94388400D03*
X131473400Y-102262400D03*
X144859200Y-96776000D03*
X131448000Y-102948200D03*
X118062200Y-101322600D03*
X131448000Y-101551200D03*
X128984200Y-104700800D03*
X139880800Y-99341400D03*
X118735300Y-101322600D03*
X119383000Y-99722400D03*
X118748000Y-97385600D03*
X119408400Y-101322600D03*
X132057600Y-101195600D03*
X143132000Y-97385600D03*
X146916600Y-94998000D03*
X119383000Y-97385600D03*
X132057600Y-101881400D03*
X100510800Y-79961200D03*
X118646400Y-95785400D03*
X127587200Y-104700800D03*
X119383000Y-95785400D03*
X105537000Y-79908400D03*
X144808400Y-95556800D03*
X145164000Y-96166400D03*
%TO.N,/MCU/ESP32S3/I2C2.SDA*%
X155920900Y-80494600D03*
X123218400Y-75871800D03*
%TO.N,/MCU/ESP32S3/VSPI.CS*%
X154536600Y-84457000D03*
X128603200Y-82552000D03*
%TO.N,/MCU/ESP32S3/Hbridge2.IN1*%
X167960600Y-85217000D03*
X133632400Y-88493000D03*
%TO.N,/MCU/ESP32S3/VSPI.MISO*%
X131439533Y-84660200D03*
X148262800Y-85473000D03*
%TO.N,/MCU/ESP32S3/I2C2.SCL*%
X120297400Y-75871800D03*
X151564800Y-80494600D03*
%TO.N,/MCU/CH340 prog/UART_PROG.TX*%
X116182600Y-74551000D03*
X132413200Y-74551000D03*
%TO.N,/MCU/ESP32S3/Hbridge1.IN1*%
X136972500Y-71947500D03*
X167989000Y-70639400D03*
%TO.N,/MCU/ESP32S3/Hbridge3.IN2*%
X140489673Y-85533400D03*
X132819600Y-84660200D03*
X162690000Y-94972600D03*
X141557200Y-90451400D03*
%TO.N,/MCU/ESP32S3/Hbridge2.IN2*%
X157457600Y-83212400D03*
X137112200Y-84660200D03*
%TO.N,/MCU/ESP32S3/VSPI.MOSI*%
X128603200Y-84660200D03*
X151564800Y-84304600D03*
%TO.N,/MCU/ESP32S3/Hbridge3.IN1*%
X145316400Y-83466400D03*
X154028600Y-89486200D03*
X168044332Y-99539532D03*
X134275866Y-84660200D03*
%TO.N,/MCU/CH340 prog/UART_PROG.RX*%
X115217400Y-73535000D03*
X135359600Y-73382820D03*
%TO.N,/MCU/ESP32S3/VSPI.SCK*%
X150828200Y-89486200D03*
X129898600Y-88521000D03*
%TO.N,/MCU/ESP32S3/Hbridge1.IN2*%
X133708600Y-71604600D03*
X159921400Y-70156800D03*
%TO.N,/MCU/POWER SECTION/DRV1/IN22*%
X164934100Y-67066900D03*
X167989000Y-69318600D03*
%TO.N,/MCU/POWER SECTION/DRV2/IN22*%
X162156600Y-84787200D03*
X167960600Y-83921600D03*
%TO.N,Net-(U9-A0)*%
X167834865Y-65911265D03*
X165636400Y-62740000D03*
%TO.N,Net-(U10-A0)*%
X164503750Y-81086450D03*
X169341800Y-81105972D03*
%TO.N,Net-(U9-A1)*%
X168118588Y-67058000D03*
X165636400Y-63724385D03*
%TO.N,Net-(U10-A1)*%
X164503750Y-82120200D03*
X168224200Y-81127600D03*
%TO.N,Net-(U24-ISEN)*%
X178580600Y-96993000D03*
X174628000Y-94718600D03*
X175491600Y-94718600D03*
X176680600Y-97693000D03*
X177380600Y-97693000D03*
X178080600Y-97493000D03*
X175948800Y-94159800D03*
X175034400Y-94159800D03*
%TO.N,Net-(U27-ISEN)*%
X176888600Y-69293000D03*
X175110600Y-65838800D03*
X174729600Y-66473800D03*
X178412600Y-69293000D03*
X177650600Y-69293000D03*
X179174600Y-69293000D03*
X175491600Y-66473800D03*
X175872600Y-65838800D03*
%TO.N,Net-(U30-ISEN)*%
X176634600Y-83314000D03*
X178158600Y-83314000D03*
X175929600Y-79554800D03*
X178920600Y-83314000D03*
X177396600Y-83314000D03*
X175110600Y-79554800D03*
X174602600Y-80189800D03*
X175491600Y-80189800D03*
%TD*%
D23*
%TO.N,Net-(U9-A0)*%
X167834865Y-64100265D02*
X166474600Y-62740000D01*
X167834865Y-65911265D02*
X167834865Y-64100265D01*
X166474600Y-62740000D02*
X165560200Y-62740000D01*
D24*
%TO.N,Net-(U10-A0)*%
X168709800Y-79580200D02*
X165992000Y-79580200D01*
X169341800Y-80212200D02*
X168709800Y-79580200D01*
X169341800Y-81105972D02*
X169341800Y-80212200D01*
D23*
%TO.N,Net-(U10-A1)*%
X166017400Y-82120200D02*
X164518800Y-82120200D01*
X167010000Y-81127600D02*
X166017400Y-82120200D01*
X168224200Y-81127600D02*
X167010000Y-81127600D01*
%TO.N,/MCU/POWER SECTION/DRV2/IN22*%
X166931800Y-84787200D02*
X162156600Y-84787200D01*
X167797400Y-83921600D02*
X166931800Y-84787200D01*
X167960600Y-83921600D02*
X167797400Y-83921600D01*
%TO.N,/MCU/ESP32S3/Hbridge2.IN1*%
X133685800Y-88546400D02*
X133632400Y-88493000D01*
X157229000Y-88546400D02*
X133685800Y-88546400D01*
X166079000Y-87098600D02*
X158676800Y-87098600D01*
X167960600Y-85217000D02*
X166079000Y-87098600D01*
X158676800Y-87098600D02*
X157229000Y-88546400D01*
%TO.N,/MCU/ESP32S3/Hbridge3.IN2*%
X163347400Y-94315200D02*
X162690000Y-94972600D01*
X163347400Y-91922600D02*
X163347400Y-94315200D01*
X162476200Y-91051400D02*
X163347400Y-91922600D01*
X141557200Y-90451400D02*
X142157200Y-91051400D01*
X142157200Y-91051400D02*
X162476200Y-91051400D01*
%TO.N,Net-(J3-SHIELD)*%
X106611175Y-90778838D02*
X102411175Y-90778838D01*
X106611175Y-82118838D02*
X102411175Y-82118838D01*
%TO.N,+3V3*%
X167354000Y-93575600D02*
X167709600Y-93931200D01*
X167709600Y-93931200D02*
X168557400Y-93931200D01*
X167832318Y-97429315D02*
X168462885Y-97429315D01*
X168462885Y-97429315D02*
X168481200Y-97411000D01*
X166474600Y-100535200D02*
X168557400Y-100535200D01*
%TO.N,/MCU/Buttons/Buttons.BTN1*%
X143538400Y-78691200D02*
X135740600Y-78691200D01*
X134343600Y-80088200D02*
X124031200Y-80088200D01*
X135740600Y-78691200D02*
X134343600Y-80088200D01*
X144503600Y-79656400D02*
X143538400Y-78691200D01*
X145316400Y-79656400D02*
X144503600Y-79656400D01*
X123218400Y-79275400D02*
X123218400Y-78538800D01*
X124031200Y-80088200D02*
X123218400Y-79275400D01*
%TO.N,Net-(Q3-S)*%
X123294600Y-98350800D02*
X120475200Y-98350800D01*
X120500600Y-95772898D02*
X120500600Y-98325400D01*
X123802600Y-97842800D02*
X123294600Y-98350800D01*
X119766869Y-95039167D02*
X120500600Y-95772898D01*
X120500600Y-98325400D02*
X120475200Y-98350800D01*
X120475200Y-98350800D02*
X116919200Y-98350800D01*
%TO.N,/MCU/ESP32S3/I2C1.SDA*%
X125711980Y-75292820D02*
X124117000Y-76887800D01*
X163805600Y-74754200D02*
X135327314Y-74754200D01*
X134158914Y-75922600D02*
X130541117Y-75922600D01*
X129911337Y-75292820D02*
X125711980Y-75292820D01*
X163807600Y-74752200D02*
X163805600Y-74754200D01*
X130541117Y-75922600D02*
X129911337Y-75292820D01*
X135327314Y-74754200D02*
X134158914Y-75922600D01*
%TO.N,+12V*%
X153749200Y-93245400D02*
X153993600Y-93001000D01*
X153993600Y-93001000D02*
X157035400Y-93001000D01*
X157035400Y-93001000D02*
X157406800Y-93372400D01*
%TO.N,/MCU/ESP32S3/I2C1.SCL*%
X157102000Y-77167200D02*
X157610000Y-76659200D01*
X162613800Y-76659200D02*
X163731400Y-77776800D01*
X152631600Y-75897200D02*
X153901600Y-77167200D01*
X153901600Y-77167200D02*
X157102000Y-77167200D01*
X136782000Y-75897200D02*
X152631600Y-75897200D01*
X157610000Y-76659200D02*
X162613800Y-76659200D01*
X136655000Y-75770200D02*
X136782000Y-75897200D01*
D25*
%TO.N,/MCU/5V WS2812 and Servo/5V Data{slash}PWM*%
X150802800Y-93093000D02*
X145062400Y-93093000D01*
X157330600Y-91899200D02*
X151996600Y-91899200D01*
X151996600Y-91899200D02*
X150802800Y-93093000D01*
X158549800Y-93118400D02*
X157330600Y-91899200D01*
X158549800Y-101881400D02*
X158549800Y-93118400D01*
X160175400Y-103507000D02*
X158549800Y-101881400D01*
X169751200Y-103507000D02*
X160175400Y-103507000D01*
X170386200Y-104142000D02*
X169751200Y-103507000D01*
X145062400Y-93093000D02*
X145011600Y-93042200D01*
D23*
%TO.N,/MCU/CH340 prog/UART_PROG.RST*%
X112321800Y-72087200D02*
X120348200Y-72087200D01*
X111610600Y-69267800D02*
X111610600Y-71376000D01*
X111610600Y-71376000D02*
X112321800Y-72087200D01*
%TO.N,/MCU/CH340 prog/UART_PROG.BOOT*%
X116843000Y-77700600D02*
X115293600Y-76151200D01*
X116843000Y-83491800D02*
X116843000Y-77700600D01*
X139220400Y-87413000D02*
X138880600Y-87073200D01*
X129898600Y-85904800D02*
X119256000Y-85904800D01*
X131067000Y-87073200D02*
X129898600Y-85904800D01*
X115293600Y-76151200D02*
X112169400Y-76151200D01*
X110518400Y-74500200D02*
X110518400Y-72265000D01*
X138880600Y-87073200D02*
X131067000Y-87073200D01*
X119256000Y-85904800D02*
X116843000Y-83491800D01*
X112169400Y-76151200D02*
X110518400Y-74500200D01*
%TO.N,/USB_PD/VBUS*%
X150743591Y-102635454D02*
X150752000Y-102627045D01*
X149634400Y-96979200D02*
X148085000Y-96979200D01*
X150752000Y-98096800D02*
X149634400Y-96979200D01*
X150752000Y-102627045D02*
X150752000Y-98096800D01*
%TO.N,/MCU/ESP32S3/I2C2.SDA*%
X149075600Y-78259400D02*
X148237400Y-77421200D01*
X154396900Y-80431100D02*
X152225200Y-78259400D01*
X125377400Y-79326200D02*
X123243800Y-77192600D01*
X148237400Y-77421200D02*
X133429200Y-77421200D01*
X152225200Y-78259400D02*
X149075600Y-78259400D01*
X131524200Y-79326200D02*
X125377400Y-79326200D01*
X123243800Y-77192600D02*
X123243800Y-75998800D01*
X123243800Y-75998800D02*
X123396200Y-75846400D01*
X133429200Y-77421200D02*
X131524200Y-79326200D01*
X155920900Y-80431100D02*
X154396900Y-80431100D01*
%TO.N,/MCU/ESP32S3/VSPI.CS*%
X129390600Y-81663000D02*
X152657000Y-81663000D01*
X128501600Y-82552000D02*
X129390600Y-81663000D01*
X152657000Y-81663000D02*
X154536600Y-83542600D01*
X154536600Y-83542600D02*
X154536600Y-84457000D01*
%TO.N,/MCU/ESP32S3/VSPI.MISO*%
X131930600Y-86158800D02*
X131439533Y-85667733D01*
X148262800Y-85473000D02*
X147577000Y-86158800D01*
X131439533Y-85667733D02*
X131439533Y-84660200D01*
X147577000Y-86158800D02*
X131930600Y-86158800D01*
%TO.N,/MCU/ESP32S3/I2C2.SCL*%
X151564800Y-80494600D02*
X151183800Y-80875600D01*
X122329400Y-80875600D02*
X120297400Y-78843600D01*
X120297400Y-78843600D02*
X120297400Y-75871800D01*
X151183800Y-80875600D02*
X122329400Y-80875600D01*
%TO.N,/MCU/CH340 prog/UART_PROG.TX*%
X132362400Y-74601800D02*
X132413200Y-74551000D01*
X116233400Y-74601800D02*
X132362400Y-74601800D01*
X116182600Y-74551000D02*
X116233400Y-74601800D01*
%TO.N,/MCU/ESP32S3/Hbridge1.IN1*%
X150040800Y-73357200D02*
X150879000Y-72519000D01*
X167989000Y-71487200D02*
X167989000Y-70639400D01*
X150879000Y-72519000D02*
X166957200Y-72519000D01*
X138382200Y-73357200D02*
X150040800Y-73357200D01*
X136972500Y-71947500D02*
X138382200Y-73357200D01*
X166957200Y-72519000D02*
X167989000Y-71487200D01*
%TO.N,/MCU/ESP32S3/Hbridge3.IN2*%
X140429273Y-85473000D02*
X140489673Y-85533400D01*
X133632400Y-85473000D02*
X140429273Y-85473000D01*
X132819600Y-84660200D02*
X133632400Y-85473000D01*
%TO.N,/MCU/ESP32S3/Hbridge2.IN2*%
X137112200Y-84660200D02*
X137417000Y-84355400D01*
X149075600Y-84355400D02*
X150091600Y-85371400D01*
X157432200Y-83237800D02*
X157457600Y-83212400D01*
X157432200Y-84939600D02*
X157432200Y-83237800D01*
X157000400Y-85371400D02*
X157432200Y-84939600D01*
X137417000Y-84355400D02*
X149075600Y-84355400D01*
X150091600Y-85371400D02*
X157000400Y-85371400D01*
%TO.N,/MCU/ESP32S3/VSPI.MOSI*%
X130736800Y-82552000D02*
X128628600Y-84660200D01*
X128628600Y-84660200D02*
X128628600Y-84711000D01*
X151387000Y-84304600D02*
X151387000Y-84126800D01*
X151387000Y-84126800D02*
X149812200Y-82552000D01*
X149812200Y-82552000D02*
X130736800Y-82552000D01*
%TO.N,/MCU/ESP32S3/Hbridge3.IN1*%
X166754000Y-98249200D02*
X168044332Y-99539532D01*
X154028600Y-89486200D02*
X154079400Y-89435400D01*
X134750000Y-83466400D02*
X134275866Y-83940534D01*
X145316400Y-83466400D02*
X134750000Y-83466400D01*
X154079400Y-89435400D02*
X163426600Y-89435400D01*
X166754000Y-92762800D02*
X166754000Y-98249200D01*
X134275866Y-83940534D02*
X134275866Y-84660200D01*
X163426600Y-89435400D02*
X166754000Y-92762800D01*
%TO.N,/MCU/CH340 prog/UART_PROG.RX*%
X115293600Y-73458800D02*
X115217400Y-73535000D01*
X135283620Y-73458800D02*
X115293600Y-73458800D01*
X135359600Y-73382820D02*
X135283620Y-73458800D01*
%TO.N,/MCU/ESP32S3/VSPI.SCK*%
X138712400Y-89587800D02*
X137823400Y-90476800D01*
X137823400Y-90476800D02*
X131854400Y-90476800D01*
X131854400Y-90476800D02*
X129898600Y-88521000D01*
X150660000Y-89587800D02*
X138712400Y-89587800D01*
X150828200Y-89419600D02*
X150660000Y-89587800D01*
%TO.N,/MCU/ESP32S3/Hbridge1.IN2*%
X159921400Y-70156800D02*
X159769000Y-70004400D01*
X159769000Y-70029800D02*
X135283400Y-70029800D01*
X135283400Y-70029800D02*
X133708600Y-71604600D01*
%TO.N,/MCU/POWER SECTION/DRV1/IN22*%
X167287400Y-69318600D02*
X167989000Y-69318600D01*
X164934100Y-67066900D02*
X165035700Y-67066900D01*
X165035700Y-67066900D02*
X167287400Y-69318600D01*
%TO.N,Net-(U10-A0)*%
X165992000Y-79580200D02*
X164503750Y-81068450D01*
X164503750Y-81068450D02*
X164503750Y-81086450D01*
%TO.N,Net-(U9-A1)*%
X166373000Y-64645000D02*
X165712600Y-63984600D01*
X165712600Y-63984600D02*
X165712600Y-63647000D01*
X168074800Y-67058000D02*
X167363600Y-67058000D01*
X167363600Y-67058000D02*
X166373000Y-66067400D01*
X166373000Y-66067400D02*
X166373000Y-64645000D01*
%TD*%
%TA.AperFunction,Conductor*%
%TO.N,+3V3*%
G36*
X170046277Y-67890485D02*
G01*
X170066919Y-67907119D01*
X170467432Y-68307632D01*
X170500917Y-68368955D01*
X170503751Y-68395313D01*
X170503751Y-71597901D01*
X170484745Y-71663872D01*
X170422409Y-71763079D01*
X170362833Y-71933337D01*
X170362830Y-71933350D01*
X170342635Y-72112596D01*
X170342635Y-72112603D01*
X170362830Y-72291849D01*
X170362831Y-72291854D01*
X170422411Y-72462122D01*
X170519594Y-72616787D01*
X170538600Y-72682759D01*
X170538600Y-72722200D01*
X171110963Y-73294563D01*
X171144448Y-73355886D01*
X171146502Y-73368360D01*
X171150230Y-73401449D01*
X171150231Y-73401454D01*
X171209810Y-73571723D01*
X171209811Y-73571724D01*
X171305784Y-73724464D01*
X171433338Y-73852018D01*
X171586078Y-73947991D01*
X171756345Y-74007570D01*
X171789439Y-74011298D01*
X171853850Y-74038362D01*
X171863237Y-74046837D01*
X171899281Y-74082881D01*
X171932766Y-74144204D01*
X171935600Y-74170562D01*
X171935600Y-75422036D01*
X171916049Y-75488617D01*
X171916089Y-75488642D01*
X171916001Y-75488781D01*
X171915915Y-75489075D01*
X171915119Y-75490185D01*
X171816411Y-75647276D01*
X171756831Y-75817545D01*
X171756830Y-75817550D01*
X171736635Y-75996796D01*
X171736635Y-75996803D01*
X171756830Y-76176049D01*
X171756831Y-76176054D01*
X171816411Y-76346323D01*
X171916089Y-76504958D01*
X171913561Y-76506545D01*
X171934953Y-76558913D01*
X171935600Y-76571563D01*
X171935600Y-80036838D01*
X171915915Y-80103877D01*
X171899281Y-80124519D01*
X170818000Y-81205799D01*
X170818000Y-81744672D01*
X170798315Y-81811711D01*
X170768312Y-81843938D01*
X170646703Y-81934975D01*
X170560457Y-82050184D01*
X170560453Y-82050191D01*
X170510159Y-82185037D01*
X170503752Y-82244636D01*
X170503751Y-82244655D01*
X170503751Y-85640390D01*
X170503752Y-85640396D01*
X170510159Y-85700003D01*
X170560453Y-85834848D01*
X170560457Y-85834855D01*
X170629609Y-85927229D01*
X170646705Y-85950066D01*
X170736143Y-86017019D01*
X170768311Y-86041100D01*
X170810182Y-86097034D01*
X170818000Y-86140367D01*
X170818000Y-87936800D01*
X171696081Y-88814881D01*
X171729566Y-88876204D01*
X171732400Y-88902562D01*
X171732400Y-91072818D01*
X171712715Y-91139857D01*
X171684076Y-91168259D01*
X171685423Y-91169948D01*
X171679976Y-91174291D01*
X171552425Y-91301842D01*
X171456452Y-91454581D01*
X171396872Y-91624850D01*
X171396871Y-91624855D01*
X171376676Y-91804101D01*
X171376676Y-91804108D01*
X171396871Y-91983354D01*
X171396872Y-91983359D01*
X171456452Y-92153628D01*
X171552425Y-92306367D01*
X171679978Y-92433920D01*
X171685425Y-92438264D01*
X171683463Y-92440723D01*
X171720586Y-92482567D01*
X171732400Y-92535391D01*
X171732400Y-93676638D01*
X171712715Y-93743677D01*
X171696081Y-93764319D01*
X170487800Y-94972599D01*
X170487800Y-95768312D01*
X170468794Y-95834284D01*
X170447809Y-95867681D01*
X170388233Y-96037937D01*
X170388230Y-96037950D01*
X170368035Y-96217196D01*
X170368035Y-96217203D01*
X170388230Y-96396449D01*
X170388231Y-96396454D01*
X170447809Y-96566718D01*
X170450115Y-96571504D01*
X170462400Y-96625317D01*
X170462400Y-100176489D01*
X170443394Y-100242461D01*
X170368609Y-100361481D01*
X170309033Y-100531737D01*
X170309030Y-100531750D01*
X170288835Y-100710996D01*
X170288835Y-100711003D01*
X170309030Y-100890249D01*
X170309031Y-100890254D01*
X170368611Y-101060522D01*
X170443394Y-101179538D01*
X170462400Y-101245510D01*
X170462400Y-102113000D01*
X170442715Y-102180039D01*
X170389911Y-102225794D01*
X170338400Y-102237000D01*
X168376600Y-102237000D01*
X168309561Y-102217315D01*
X168263806Y-102164511D01*
X168252600Y-102113000D01*
X168252600Y-100402730D01*
X168272285Y-100335691D01*
X168325089Y-100289936D01*
X168335637Y-100285691D01*
X168393854Y-100265321D01*
X168546594Y-100169348D01*
X168674148Y-100041794D01*
X168770121Y-99889054D01*
X168829700Y-99718787D01*
X168844352Y-99588747D01*
X168849897Y-99539535D01*
X168849897Y-99539528D01*
X168829701Y-99360282D01*
X168829700Y-99360277D01*
X168770120Y-99190008D01*
X168674147Y-99037269D01*
X168546594Y-98909716D01*
X168393852Y-98813741D01*
X168335644Y-98793373D01*
X168278869Y-98752651D01*
X168253122Y-98687698D01*
X168252600Y-98676332D01*
X168252600Y-93601562D01*
X168272285Y-93534523D01*
X168288919Y-93513881D01*
X169308481Y-92494319D01*
X169369804Y-92460834D01*
X169396162Y-92458000D01*
X170132200Y-92458000D01*
X170284600Y-92305600D01*
X170284600Y-89232200D01*
X169929000Y-88876600D01*
X169927232Y-88874832D01*
X169903270Y-88860697D01*
X169897861Y-88856383D01*
X169745123Y-88760411D01*
X169574854Y-88700831D01*
X169574849Y-88700830D01*
X169395604Y-88680635D01*
X169395596Y-88680635D01*
X169216350Y-88700830D01*
X169216337Y-88700833D01*
X169046078Y-88760410D01*
X169046077Y-88760410D01*
X169039064Y-88764817D01*
X168971827Y-88783812D01*
X168932144Y-88776860D01*
X168787462Y-88726233D01*
X168787449Y-88726230D01*
X168608204Y-88706035D01*
X168608196Y-88706035D01*
X168428950Y-88726230D01*
X168428945Y-88726231D01*
X168258676Y-88785811D01*
X168144436Y-88857594D01*
X168078464Y-88876600D01*
X164439600Y-88876600D01*
X164372561Y-88856915D01*
X164326806Y-88804111D01*
X164315600Y-88752600D01*
X164315600Y-87823100D01*
X164335285Y-87756061D01*
X164388089Y-87710306D01*
X164439600Y-87699100D01*
X165992331Y-87699100D01*
X165992347Y-87699101D01*
X165999943Y-87699101D01*
X166158054Y-87699101D01*
X166158057Y-87699101D01*
X166310785Y-87658177D01*
X166360904Y-87629239D01*
X166447716Y-87579120D01*
X166559520Y-87467316D01*
X166559520Y-87467314D01*
X166569728Y-87457107D01*
X166569730Y-87457104D01*
X166739515Y-87287319D01*
X166800838Y-87253834D01*
X166827196Y-87251000D01*
X169141600Y-87251000D01*
X169141600Y-82027736D01*
X169161285Y-81960697D01*
X169214089Y-81914942D01*
X169279484Y-81904516D01*
X169341797Y-81911537D01*
X169341800Y-81911537D01*
X169341804Y-81911537D01*
X169521049Y-81891341D01*
X169521052Y-81891340D01*
X169521055Y-81891340D01*
X169691322Y-81831761D01*
X169844062Y-81735788D01*
X169971616Y-81608234D01*
X170067589Y-81455494D01*
X170127168Y-81285227D01*
X170129368Y-81265705D01*
X170147365Y-81105975D01*
X170147365Y-81105968D01*
X170127169Y-80926722D01*
X170127168Y-80926717D01*
X170068441Y-80758886D01*
X170067589Y-80756450D01*
X169971616Y-80603710D01*
X169953619Y-80585713D01*
X169920134Y-80524390D01*
X169917300Y-80498032D01*
X169917300Y-80481461D01*
X169936985Y-80414422D01*
X169953614Y-80393785D01*
X170146891Y-80200508D01*
X170208210Y-80167026D01*
X170220679Y-80164973D01*
X170287919Y-80157396D01*
X170351532Y-80150230D01*
X170351535Y-80150229D01*
X170351538Y-80150229D01*
X170521805Y-80090650D01*
X170674545Y-79994677D01*
X170802099Y-79867123D01*
X170898072Y-79714383D01*
X170957651Y-79544116D01*
X170957652Y-79544110D01*
X170977848Y-79364864D01*
X170977848Y-79364857D01*
X170957652Y-79185611D01*
X170957651Y-79185606D01*
X170926347Y-79096145D01*
X170898072Y-79015339D01*
X170802099Y-78862599D01*
X170674545Y-78735045D01*
X170674543Y-78735043D01*
X170596627Y-78686085D01*
X170550337Y-78633750D01*
X170538600Y-78581092D01*
X170538600Y-74525600D01*
X170132200Y-74119200D01*
X170128719Y-74119200D01*
X170062747Y-74100194D01*
X169945323Y-74026411D01*
X169775054Y-73966831D01*
X169775049Y-73966830D01*
X169595804Y-73946635D01*
X169595796Y-73946635D01*
X169416550Y-73966830D01*
X169416537Y-73966833D01*
X169246278Y-74026410D01*
X169246277Y-74026410D01*
X169239264Y-74030817D01*
X169172027Y-74049812D01*
X169132344Y-74042860D01*
X168987662Y-73992233D01*
X168987650Y-73992230D01*
X168832170Y-73974712D01*
X168767756Y-73947645D01*
X168758373Y-73939173D01*
X168365119Y-73545919D01*
X168331634Y-73484596D01*
X168328800Y-73458238D01*
X168328800Y-72047998D01*
X168348485Y-71980959D01*
X168365119Y-71960317D01*
X168406936Y-71918500D01*
X168469520Y-71855916D01*
X168548577Y-71718984D01*
X168589501Y-71566257D01*
X168589501Y-71408142D01*
X168589501Y-71400547D01*
X168589500Y-71400529D01*
X168589500Y-71221812D01*
X168609185Y-71154773D01*
X168616555Y-71144497D01*
X168618810Y-71141667D01*
X168618816Y-71141662D01*
X168714789Y-70988922D01*
X168774368Y-70818655D01*
X168794565Y-70639400D01*
X168774368Y-70460145D01*
X168714789Y-70289878D01*
X168618816Y-70137138D01*
X168548359Y-70066681D01*
X168514874Y-70005358D01*
X168519858Y-69935666D01*
X168548359Y-69891319D01*
X168561501Y-69878177D01*
X168618816Y-69820862D01*
X168714789Y-69668122D01*
X168774368Y-69497855D01*
X168794565Y-69318600D01*
X168774368Y-69139345D01*
X168714789Y-68969078D01*
X168618816Y-68816338D01*
X168491262Y-68688784D01*
X168386827Y-68623163D01*
X168340537Y-68570829D01*
X168328800Y-68518170D01*
X168328800Y-68430162D01*
X168348485Y-68363123D01*
X168365119Y-68342481D01*
X168800481Y-67907119D01*
X168861804Y-67873634D01*
X168888162Y-67870800D01*
X169979238Y-67870800D01*
X170046277Y-67890485D01*
G37*
%TD.AperFunction*%
%TD*%
%TA.AperFunction,Conductor*%
%TO.N,Net-(J3-SHIELD)*%
G36*
X107713937Y-81682685D02*
G01*
X107759692Y-81735489D01*
X107770118Y-81800884D01*
X107757035Y-81916997D01*
X107757035Y-81917003D01*
X107777230Y-82096251D01*
X107793641Y-82143148D01*
X107800600Y-82184103D01*
X107800600Y-82284892D01*
X107793642Y-82325846D01*
X107777232Y-82372742D01*
X107777230Y-82372750D01*
X107757035Y-82551996D01*
X107757035Y-82552003D01*
X107777230Y-82731251D01*
X107793641Y-82778148D01*
X107800600Y-82819103D01*
X107800600Y-82919892D01*
X107793642Y-82960846D01*
X107777232Y-83007742D01*
X107777230Y-83007750D01*
X107757035Y-83186996D01*
X107757035Y-83187003D01*
X107777230Y-83366251D01*
X107793641Y-83413148D01*
X107800600Y-83454103D01*
X107800600Y-89145928D01*
X107780915Y-89212967D01*
X107742573Y-89250921D01*
X107659237Y-89303285D01*
X107659235Y-89303286D01*
X107531680Y-89430841D01*
X107435707Y-89583580D01*
X107376127Y-89753849D01*
X107376126Y-89753854D01*
X107355931Y-89933100D01*
X107355931Y-89933107D01*
X107376126Y-90112353D01*
X107376127Y-90112358D01*
X107435708Y-90282629D01*
X107458201Y-90318427D01*
X107477201Y-90385663D01*
X107471964Y-90415569D01*
X107472781Y-90415756D01*
X107471231Y-90422546D01*
X107451035Y-90601796D01*
X107451035Y-90601803D01*
X107471230Y-90781049D01*
X107471233Y-90781062D01*
X107530810Y-90951321D01*
X107541058Y-90967632D01*
X107560056Y-91034869D01*
X107541058Y-91099568D01*
X107530814Y-91115871D01*
X107529888Y-91117796D01*
X107528958Y-91118825D01*
X107527108Y-91121771D01*
X107526592Y-91121446D01*
X107483068Y-91169658D01*
X107418165Y-91188000D01*
X100170100Y-91188000D01*
X100103061Y-91168315D01*
X100057306Y-91115511D01*
X100046100Y-91064000D01*
X100046100Y-89331796D01*
X103359835Y-89331796D01*
X103359835Y-89331803D01*
X103380030Y-89511049D01*
X103380031Y-89511054D01*
X103439611Y-89681323D01*
X103485186Y-89753854D01*
X103535584Y-89834062D01*
X103663138Y-89961616D01*
X103815878Y-90057589D01*
X103865976Y-90075119D01*
X103986145Y-90117168D01*
X103986150Y-90117169D01*
X104165396Y-90137365D01*
X104165400Y-90137365D01*
X104165404Y-90137365D01*
X104344646Y-90117169D01*
X104344645Y-90117169D01*
X104344655Y-90117168D01*
X104454647Y-90078679D01*
X104524424Y-90075119D01*
X104536546Y-90078677D01*
X104646545Y-90117168D01*
X104646551Y-90117168D01*
X104646553Y-90117169D01*
X104825796Y-90137365D01*
X104825800Y-90137365D01*
X104825804Y-90137365D01*
X105005049Y-90117169D01*
X105005052Y-90117168D01*
X105005055Y-90117168D01*
X105175322Y-90057589D01*
X105328062Y-89961616D01*
X105455616Y-89834062D01*
X105503984Y-89757083D01*
X105556314Y-89710796D01*
X105625368Y-89700147D01*
X105642345Y-89704712D01*
X105642562Y-89703903D01*
X105650411Y-89706006D01*
X105650413Y-89706007D01*
X105752273Y-89733300D01*
X105752275Y-89733300D01*
X105857725Y-89733300D01*
X105857727Y-89733300D01*
X105959587Y-89706007D01*
X106050913Y-89653280D01*
X106125480Y-89578713D01*
X106178207Y-89487387D01*
X106205500Y-89385527D01*
X106205500Y-89280073D01*
X106178207Y-89178213D01*
X106125480Y-89086887D01*
X106050913Y-89012320D01*
X106012013Y-88989861D01*
X105963798Y-88939295D01*
X105950576Y-88870688D01*
X105950785Y-88868669D01*
X105961565Y-88773000D01*
X105953563Y-88701984D01*
X105941369Y-88593750D01*
X105941368Y-88593745D01*
X105881788Y-88423476D01*
X105785815Y-88270737D01*
X105658262Y-88143184D01*
X105505523Y-88047211D01*
X105335254Y-87987631D01*
X105335249Y-87987630D01*
X105156004Y-87967435D01*
X105155996Y-87967435D01*
X104976746Y-87987631D01*
X104976745Y-87987631D01*
X104871951Y-88024299D01*
X104802172Y-88027860D01*
X104790045Y-88024299D01*
X104685250Y-87987631D01*
X104506001Y-87967435D01*
X104505993Y-87967435D01*
X104326747Y-87987630D01*
X104326742Y-87987631D01*
X104156473Y-88047211D01*
X104003734Y-88143184D01*
X103876181Y-88270737D01*
X103780207Y-88423478D01*
X103720627Y-88593749D01*
X103718569Y-88612018D01*
X103691500Y-88676431D01*
X103668144Y-88697094D01*
X103668582Y-88697643D01*
X103663135Y-88701986D01*
X103535584Y-88829537D01*
X103439611Y-88982276D01*
X103380031Y-89152545D01*
X103380030Y-89152550D01*
X103359835Y-89331796D01*
X100046100Y-89331796D01*
X100046100Y-83500073D01*
X105404500Y-83500073D01*
X105404500Y-83605527D01*
X105431793Y-83707387D01*
X105484520Y-83798713D01*
X105559087Y-83873280D01*
X105650413Y-83926007D01*
X105752273Y-83953300D01*
X105752275Y-83953300D01*
X105857725Y-83953300D01*
X105857727Y-83953300D01*
X105959587Y-83926007D01*
X106050913Y-83873280D01*
X106125480Y-83798713D01*
X106178207Y-83707387D01*
X106205500Y-83605527D01*
X106205500Y-83500073D01*
X106178207Y-83398213D01*
X106125480Y-83306887D01*
X106050913Y-83232320D01*
X105972416Y-83187000D01*
X105959589Y-83179594D01*
X105959588Y-83179593D01*
X105959587Y-83179593D01*
X105857727Y-83152300D01*
X105752273Y-83152300D01*
X105650413Y-83179593D01*
X105650410Y-83179594D01*
X105559085Y-83232321D01*
X105484521Y-83306885D01*
X105431794Y-83398210D01*
X105431793Y-83398213D01*
X105404500Y-83500073D01*
X100046100Y-83500073D01*
X100046100Y-81787000D01*
X100065785Y-81719961D01*
X100118589Y-81674206D01*
X100170100Y-81663000D01*
X107646898Y-81663000D01*
X107713937Y-81682685D01*
G37*
%TD.AperFunction*%
%TD*%
%TA.AperFunction,Conductor*%
%TO.N,GND*%
G36*
X171363099Y-62374185D02*
G01*
X171408854Y-62426989D01*
X171418798Y-62496147D01*
X171389773Y-62559703D01*
X171383741Y-62566181D01*
X171305784Y-62644137D01*
X171209811Y-62796876D01*
X171150231Y-62967145D01*
X171150230Y-62967150D01*
X171130035Y-63146396D01*
X171130035Y-63146403D01*
X171150230Y-63325649D01*
X171150231Y-63325654D01*
X171209811Y-63495923D01*
X171268509Y-63589339D01*
X171305784Y-63648662D01*
X171433338Y-63776216D01*
X171586078Y-63872189D01*
X171756345Y-63931768D01*
X171756350Y-63931769D01*
X171935596Y-63951965D01*
X171935600Y-63951965D01*
X171935604Y-63951965D01*
X172114849Y-63931769D01*
X172114852Y-63931768D01*
X172114855Y-63931768D01*
X172285122Y-63872189D01*
X172437862Y-63776216D01*
X172565416Y-63648662D01*
X172661389Y-63495922D01*
X172720968Y-63325655D01*
X172741165Y-63146400D01*
X172736919Y-63108716D01*
X172720969Y-62967150D01*
X172720968Y-62967145D01*
X172661389Y-62796878D01*
X172565416Y-62644138D01*
X172487459Y-62566181D01*
X172453974Y-62504858D01*
X172458958Y-62435166D01*
X172500830Y-62379233D01*
X172566294Y-62354816D01*
X172575140Y-62354500D01*
X188921100Y-62354500D01*
X188988139Y-62374185D01*
X189033894Y-62426989D01*
X189045100Y-62478500D01*
X189045100Y-111229500D01*
X189025415Y-111296539D01*
X188972611Y-111342294D01*
X188921100Y-111353500D01*
X174803088Y-111353500D01*
X174736049Y-111333815D01*
X174690294Y-111281011D01*
X174680350Y-111211853D01*
X174709375Y-111148297D01*
X174739156Y-111123251D01*
X174854919Y-111053600D01*
X175139837Y-110837011D01*
X175399668Y-110590886D01*
X175631365Y-110318111D01*
X175832211Y-110021885D01*
X175999853Y-109705680D01*
X176132324Y-109373203D01*
X176228071Y-109028352D01*
X176285972Y-108675171D01*
X176305348Y-108317800D01*
X176287404Y-107986849D01*
X180591441Y-107986849D01*
X180591441Y-110062584D01*
X180591442Y-110062590D01*
X180597849Y-110122197D01*
X180648143Y-110257042D01*
X180648147Y-110257049D01*
X180734393Y-110372258D01*
X180734396Y-110372261D01*
X180849605Y-110458507D01*
X180849612Y-110458511D01*
X180984458Y-110508805D01*
X180984457Y-110508805D01*
X180991385Y-110509549D01*
X181044068Y-110515214D01*
X185099813Y-110515213D01*
X185159424Y-110508805D01*
X185294272Y-110458510D01*
X185409487Y-110372260D01*
X185495737Y-110257045D01*
X185546032Y-110122197D01*
X185552441Y-110062587D01*
X185552441Y-110042200D01*
X186274200Y-110042200D01*
X188274200Y-110042200D01*
X188274200Y-108042200D01*
X186274200Y-108042200D01*
X186274200Y-110042200D01*
X185552441Y-110042200D01*
X185552440Y-107986842D01*
X185546032Y-107927231D01*
X185495737Y-107792383D01*
X185495736Y-107792382D01*
X185495734Y-107792378D01*
X185409488Y-107677169D01*
X185409485Y-107677166D01*
X185294276Y-107590920D01*
X185294269Y-107590916D01*
X185159423Y-107540622D01*
X185159424Y-107540622D01*
X185099824Y-107534215D01*
X185099822Y-107534214D01*
X185099814Y-107534214D01*
X185099805Y-107534214D01*
X181044070Y-107534214D01*
X181044064Y-107534215D01*
X180984457Y-107540622D01*
X180849612Y-107590916D01*
X180849605Y-107590920D01*
X180734396Y-107677166D01*
X180734393Y-107677169D01*
X180648147Y-107792378D01*
X180648143Y-107792385D01*
X180597849Y-107927231D01*
X180594280Y-107960431D01*
X180591442Y-107986837D01*
X180591441Y-107986849D01*
X176287404Y-107986849D01*
X176285972Y-107960429D01*
X176280529Y-107927231D01*
X176228073Y-107607260D01*
X176228072Y-107607259D01*
X176228071Y-107607248D01*
X176132324Y-107262397D01*
X175999853Y-106929920D01*
X175832211Y-106613715D01*
X175631365Y-106317489D01*
X175631361Y-106317484D01*
X175631358Y-106317480D01*
X175399668Y-106044714D01*
X175139837Y-105798589D01*
X175139830Y-105798583D01*
X175139827Y-105798581D01*
X175035959Y-105719623D01*
X174854919Y-105582000D01*
X174548253Y-105397485D01*
X174548252Y-105397484D01*
X174548248Y-105397482D01*
X174548244Y-105397480D01*
X174223447Y-105247214D01*
X174223441Y-105247211D01*
X174223435Y-105247209D01*
X174053854Y-105190070D01*
X173884273Y-105132931D01*
X173534744Y-105055994D01*
X173178949Y-105017300D01*
X173178948Y-105017300D01*
X172821052Y-105017300D01*
X172821050Y-105017300D01*
X172465255Y-105055994D01*
X172115726Y-105132931D01*
X171859970Y-105219106D01*
X171776565Y-105247209D01*
X171776563Y-105247210D01*
X171776552Y-105247214D01*
X171451755Y-105397480D01*
X171451751Y-105397482D01*
X171310514Y-105482462D01*
X171145081Y-105582000D01*
X171108228Y-105610015D01*
X170860172Y-105798581D01*
X170860163Y-105798589D01*
X170600331Y-106044714D01*
X170368641Y-106317480D01*
X170368634Y-106317490D01*
X170167790Y-106613713D01*
X170167784Y-106613722D01*
X170000151Y-106929911D01*
X170000142Y-106929929D01*
X169867674Y-107262400D01*
X169867672Y-107262407D01*
X169771932Y-107607234D01*
X169771926Y-107607260D01*
X169714029Y-107960414D01*
X169714028Y-107960431D01*
X169694652Y-108317797D01*
X169694652Y-108317802D01*
X169714028Y-108675168D01*
X169714029Y-108675185D01*
X169771926Y-109028339D01*
X169771932Y-109028365D01*
X169867672Y-109373192D01*
X169867674Y-109373199D01*
X170000142Y-109705670D01*
X170000151Y-109705688D01*
X170167784Y-110021877D01*
X170167787Y-110021882D01*
X170167789Y-110021885D01*
X170327231Y-110257045D01*
X170368634Y-110318109D01*
X170368641Y-110318119D01*
X170600331Y-110590885D01*
X170600332Y-110590886D01*
X170860163Y-110837011D01*
X171145081Y-111053600D01*
X171260842Y-111123251D01*
X171308135Y-111174679D01*
X171320118Y-111243514D01*
X171292983Y-111307899D01*
X171235346Y-111347393D01*
X171196912Y-111353500D01*
X168478200Y-111353500D01*
X168411161Y-111333815D01*
X168365406Y-111281011D01*
X168354200Y-111229500D01*
X168354200Y-105786662D01*
X168373885Y-105719623D01*
X168412226Y-105681669D01*
X168526262Y-105610016D01*
X168653816Y-105482462D01*
X168749789Y-105329722D01*
X168809368Y-105159455D01*
X168809369Y-105159449D01*
X168829565Y-104980203D01*
X168829565Y-104980196D01*
X168809369Y-104800950D01*
X168809366Y-104800937D01*
X168748662Y-104627455D01*
X168745100Y-104557676D01*
X168748662Y-104545545D01*
X168809366Y-104372062D01*
X168809369Y-104372050D01*
X168821136Y-104267616D01*
X168848202Y-104203202D01*
X168905797Y-104163647D01*
X168944356Y-104157500D01*
X169430392Y-104157500D01*
X169497431Y-104177185D01*
X169518073Y-104193819D01*
X169564477Y-104240223D01*
X169597962Y-104301546D01*
X169600015Y-104314012D01*
X169600830Y-104321246D01*
X169600832Y-104321255D01*
X169660410Y-104491521D01*
X169692331Y-104542322D01*
X169756384Y-104644262D01*
X169883938Y-104771816D01*
X170036678Y-104867789D01*
X170206945Y-104927368D01*
X170206950Y-104927369D01*
X170386196Y-104947565D01*
X170386200Y-104947565D01*
X170386204Y-104947565D01*
X170565449Y-104927369D01*
X170565452Y-104927368D01*
X170565455Y-104927368D01*
X170735722Y-104867789D01*
X170888462Y-104771816D01*
X171016016Y-104644262D01*
X171111989Y-104491522D01*
X171171568Y-104321255D01*
X171180698Y-104240223D01*
X171191765Y-104142003D01*
X171191765Y-104141996D01*
X171171569Y-103962750D01*
X171171568Y-103962745D01*
X171152205Y-103907409D01*
X180591441Y-103907409D01*
X180591441Y-104142019D01*
X180606995Y-104240223D01*
X180628142Y-104373741D01*
X180700638Y-104596864D01*
X180724789Y-104644262D01*
X180804623Y-104800945D01*
X180807153Y-104805909D01*
X180945045Y-104995703D01*
X180945049Y-104995708D01*
X181110946Y-105161605D01*
X181110951Y-105161609D01*
X181276499Y-105281885D01*
X181300749Y-105299504D01*
X181493037Y-105397480D01*
X181509790Y-105406016D01*
X181621351Y-105442264D01*
X181732915Y-105478513D01*
X181964636Y-105515214D01*
X181964637Y-105515214D01*
X184179245Y-105515214D01*
X184179246Y-105515214D01*
X184410967Y-105478513D01*
X184634094Y-105406015D01*
X184843133Y-105299504D01*
X185032937Y-105161604D01*
X185198831Y-104995710D01*
X185336731Y-104805906D01*
X185443242Y-104596867D01*
X185515740Y-104373740D01*
X185552441Y-104142019D01*
X185552441Y-103907409D01*
X185515740Y-103675688D01*
X185443242Y-103452561D01*
X185336731Y-103243522D01*
X185226885Y-103092331D01*
X185198836Y-103053724D01*
X185198832Y-103053719D01*
X185032935Y-102887822D01*
X185032930Y-102887818D01*
X184843136Y-102749926D01*
X184843135Y-102749925D01*
X184843133Y-102749924D01*
X184716916Y-102685613D01*
X184634091Y-102643411D01*
X184410968Y-102570915D01*
X184268478Y-102548347D01*
X184179246Y-102534214D01*
X181964636Y-102534214D01*
X181887395Y-102546447D01*
X181732913Y-102570915D01*
X181509790Y-102643411D01*
X181300745Y-102749926D01*
X181110951Y-102887818D01*
X181110946Y-102887822D01*
X180945049Y-103053719D01*
X180945045Y-103053724D01*
X180807153Y-103243518D01*
X180700638Y-103452563D01*
X180628142Y-103675686D01*
X180609644Y-103792478D01*
X180591441Y-103907409D01*
X171152205Y-103907409D01*
X171111988Y-103792476D01*
X171038605Y-103675688D01*
X171016016Y-103639738D01*
X170888462Y-103512184D01*
X170778247Y-103442931D01*
X170735721Y-103416210D01*
X170565455Y-103356632D01*
X170565446Y-103356630D01*
X170558212Y-103355815D01*
X170493800Y-103328744D01*
X170484423Y-103320277D01*
X170165874Y-103001727D01*
X170165871Y-103001724D01*
X170117796Y-102969602D01*
X170072991Y-102915990D01*
X170064284Y-102846665D01*
X170094438Y-102783638D01*
X170153881Y-102746918D01*
X170186687Y-102742500D01*
X170338390Y-102742500D01*
X170338400Y-102742500D01*
X170445856Y-102730947D01*
X170497367Y-102719741D01*
X170531597Y-102708347D01*
X170599897Y-102685616D01*
X170599901Y-102685613D01*
X170599904Y-102685613D01*
X170720943Y-102607825D01*
X170773747Y-102562070D01*
X170867967Y-102453336D01*
X170927738Y-102322459D01*
X170947423Y-102255420D01*
X170947424Y-102255416D01*
X170967900Y-102113000D01*
X170967900Y-101500396D01*
X174559035Y-101500396D01*
X174559035Y-101500403D01*
X174579230Y-101679649D01*
X174579233Y-101679662D01*
X174635494Y-101840445D01*
X174639056Y-101910224D01*
X174635494Y-101922355D01*
X174579233Y-102083137D01*
X174579230Y-102083150D01*
X174559035Y-102262396D01*
X174559035Y-102262403D01*
X174579230Y-102441649D01*
X174579231Y-102441654D01*
X174638811Y-102611923D01*
X174658598Y-102643413D01*
X174734784Y-102764662D01*
X174862338Y-102892216D01*
X174900174Y-102915990D01*
X175007615Y-102983500D01*
X175015078Y-102988189D01*
X175185339Y-103047766D01*
X175185345Y-103047768D01*
X175185350Y-103047769D01*
X175364596Y-103067965D01*
X175364600Y-103067965D01*
X175364604Y-103067965D01*
X175543849Y-103047769D01*
X175543851Y-103047768D01*
X175543855Y-103047768D01*
X175543858Y-103047766D01*
X175543862Y-103047766D01*
X175717345Y-102987062D01*
X175787124Y-102983500D01*
X175799255Y-102987062D01*
X175972737Y-103047766D01*
X175972743Y-103047767D01*
X175972745Y-103047768D01*
X175972746Y-103047768D01*
X175972750Y-103047769D01*
X176151996Y-103067965D01*
X176152000Y-103067965D01*
X176152004Y-103067965D01*
X176331249Y-103047769D01*
X176331252Y-103047768D01*
X176331255Y-103047768D01*
X176501522Y-102988189D01*
X176654262Y-102892216D01*
X176781816Y-102764662D01*
X176877789Y-102611922D01*
X176937368Y-102441655D01*
X176944934Y-102374504D01*
X176957565Y-102262403D01*
X176957565Y-102262396D01*
X176937369Y-102083150D01*
X176937366Y-102083137D01*
X176876662Y-101909655D01*
X176873100Y-101839876D01*
X176876662Y-101827745D01*
X176937366Y-101654262D01*
X176937369Y-101654249D01*
X176957565Y-101475003D01*
X176957565Y-101474996D01*
X176937369Y-101295750D01*
X176937368Y-101295745D01*
X176919790Y-101245510D01*
X176877789Y-101125478D01*
X176865284Y-101105577D01*
X176838582Y-101063080D01*
X176781816Y-100972738D01*
X176654262Y-100845184D01*
X176624710Y-100826615D01*
X176501523Y-100749211D01*
X176331254Y-100689631D01*
X176331249Y-100689630D01*
X176152004Y-100669435D01*
X176151996Y-100669435D01*
X175972750Y-100689630D01*
X175972737Y-100689633D01*
X175802478Y-100749210D01*
X175802477Y-100749210D01*
X175795464Y-100753617D01*
X175728227Y-100772612D01*
X175688544Y-100765660D01*
X175543862Y-100715033D01*
X175543849Y-100715030D01*
X175364604Y-100694835D01*
X175364596Y-100694835D01*
X175185350Y-100715030D01*
X175185345Y-100715031D01*
X175015076Y-100774611D01*
X174862337Y-100870584D01*
X174734784Y-100998137D01*
X174638811Y-101150876D01*
X174579231Y-101321145D01*
X174579230Y-101321150D01*
X174559035Y-101500396D01*
X170967900Y-101500396D01*
X170967900Y-101245510D01*
X170948144Y-101105571D01*
X170929138Y-101039599D01*
X170910586Y-100998138D01*
X170871414Y-100910596D01*
X170846272Y-100870584D01*
X170834361Y-100851629D01*
X170822316Y-100826615D01*
X170809590Y-100790247D01*
X170803411Y-100763180D01*
X170799096Y-100724870D01*
X170799097Y-100697112D01*
X170803412Y-100658817D01*
X170809589Y-100631751D01*
X170822317Y-100595377D01*
X170834358Y-100570373D01*
X170871413Y-100511403D01*
X170929138Y-100382400D01*
X170948144Y-100316428D01*
X170967900Y-100176489D01*
X170967900Y-96625317D01*
X170955221Y-96512811D01*
X170942936Y-96458998D01*
X170940330Y-96451553D01*
X170939861Y-96442399D01*
X170888791Y-96296450D01*
X170882612Y-96269378D01*
X170878297Y-96231079D01*
X170878297Y-96203313D01*
X170882612Y-96165016D01*
X170888790Y-96137948D01*
X170914024Y-96065834D01*
X170917876Y-96056153D01*
X170954538Y-95974223D01*
X170973544Y-95908251D01*
X170993300Y-95768312D01*
X170993300Y-95233346D01*
X171012985Y-95166307D01*
X171029619Y-95145665D01*
X171760922Y-94414363D01*
X173716100Y-94414363D01*
X173716100Y-95708640D01*
X173718997Y-95762688D01*
X173718997Y-95762689D01*
X173721829Y-95789022D01*
X173721832Y-95789049D01*
X173730485Y-95842445D01*
X173730485Y-95842447D01*
X173755032Y-95908257D01*
X173780768Y-95977257D01*
X173814253Y-96038580D01*
X173900477Y-96153761D01*
X173900481Y-96153765D01*
X173900486Y-96153771D01*
X175176031Y-97429315D01*
X176367839Y-98621123D01*
X176367855Y-98621137D01*
X176367862Y-98621144D01*
X176408080Y-98657271D01*
X176408092Y-98657281D01*
X176408100Y-98657288D01*
X176428742Y-98673922D01*
X176472626Y-98705567D01*
X176603503Y-98765338D01*
X176670542Y-98785023D01*
X176670546Y-98785024D01*
X176812962Y-98805500D01*
X176812965Y-98805500D01*
X178361240Y-98805500D01*
X178371386Y-98804955D01*
X178415278Y-98802603D01*
X178415286Y-98802602D01*
X178415288Y-98802602D01*
X178415289Y-98802602D01*
X178422282Y-98801849D01*
X178441636Y-98799769D01*
X178441646Y-98799767D01*
X178441649Y-98799767D01*
X178451248Y-98798211D01*
X178495048Y-98791114D01*
X178629857Y-98740832D01*
X178691180Y-98707347D01*
X178806361Y-98621123D01*
X179749723Y-97677761D01*
X179785888Y-97637500D01*
X179802522Y-97616858D01*
X179834167Y-97572974D01*
X179893938Y-97442097D01*
X179913623Y-97375058D01*
X179913624Y-97375054D01*
X179934100Y-97232638D01*
X179934100Y-96192362D01*
X179931203Y-96138322D01*
X179931162Y-96137944D01*
X179928370Y-96111977D01*
X179928367Y-96111950D01*
X179919714Y-96058554D01*
X179919714Y-96058552D01*
X179888260Y-95974223D01*
X179869432Y-95923743D01*
X179835947Y-95862420D01*
X179749723Y-95747239D01*
X179749718Y-95747234D01*
X179749713Y-95747228D01*
X177155376Y-93152892D01*
X177155370Y-93152886D01*
X177155361Y-93152877D01*
X177155337Y-93152855D01*
X177115119Y-93116728D01*
X177115107Y-93116718D01*
X177094456Y-93100076D01*
X177050574Y-93068433D01*
X176919700Y-93008663D01*
X176852655Y-92988976D01*
X176805182Y-92982150D01*
X176710238Y-92968500D01*
X175161962Y-92968500D01*
X175161960Y-92968500D01*
X175107911Y-92971397D01*
X175107910Y-92971397D01*
X175081577Y-92974229D01*
X175081550Y-92974232D01*
X175028154Y-92982885D01*
X175028152Y-92982885D01*
X174893347Y-93033166D01*
X174832022Y-93066651D01*
X174716840Y-93152876D01*
X174716828Y-93152886D01*
X173900492Y-93969223D01*
X173900455Y-93969262D01*
X173864328Y-94009480D01*
X173864318Y-94009492D01*
X173847676Y-94030143D01*
X173816033Y-94074025D01*
X173756263Y-94204899D01*
X173736576Y-94271944D01*
X173716100Y-94414363D01*
X171760922Y-94414363D01*
X172053523Y-94121762D01*
X172089688Y-94081500D01*
X172106322Y-94060858D01*
X172137967Y-94016974D01*
X172197738Y-93886097D01*
X172217423Y-93819058D01*
X172217424Y-93819054D01*
X172237900Y-93676638D01*
X172237900Y-92535391D01*
X172234948Y-92508663D01*
X172225715Y-92425075D01*
X172225714Y-92425071D01*
X172225713Y-92425062D01*
X172213899Y-92372238D01*
X172213896Y-92372229D01*
X172177921Y-92267217D01*
X172150938Y-92226291D01*
X172098723Y-92147093D01*
X172068666Y-92113214D01*
X172063781Y-92102839D01*
X172037420Y-92076478D01*
X171960018Y-91999076D01*
X171942710Y-91977371D01*
X171922207Y-91944741D01*
X171910159Y-91919724D01*
X171897431Y-91883350D01*
X171891252Y-91856280D01*
X171886937Y-91817975D01*
X171886938Y-91790216D01*
X171891251Y-91751934D01*
X171897427Y-91724866D01*
X171910160Y-91688478D01*
X171913308Y-91681941D01*
X180581441Y-91681941D01*
X180581441Y-93757676D01*
X180581442Y-93757682D01*
X180587849Y-93817289D01*
X180638143Y-93952134D01*
X180638147Y-93952141D01*
X180724393Y-94067350D01*
X180724396Y-94067353D01*
X180839605Y-94153599D01*
X180839612Y-94153603D01*
X180974458Y-94203897D01*
X180974457Y-94203897D01*
X180981385Y-94204641D01*
X181034068Y-94210306D01*
X185089813Y-94210305D01*
X185149424Y-94203897D01*
X185284272Y-94153602D01*
X185399487Y-94067352D01*
X185485737Y-93952137D01*
X185536032Y-93817289D01*
X185542441Y-93757679D01*
X185542440Y-91681934D01*
X185536032Y-91622323D01*
X185499203Y-91523580D01*
X185485738Y-91487477D01*
X185485734Y-91487470D01*
X185399488Y-91372261D01*
X185399485Y-91372258D01*
X185284276Y-91286012D01*
X185284269Y-91286008D01*
X185149423Y-91235714D01*
X185149424Y-91235714D01*
X185089824Y-91229307D01*
X185089822Y-91229306D01*
X185089814Y-91229306D01*
X185089805Y-91229306D01*
X181034070Y-91229306D01*
X181034064Y-91229307D01*
X180974457Y-91235714D01*
X180839612Y-91286008D01*
X180839605Y-91286012D01*
X180724396Y-91372258D01*
X180724393Y-91372261D01*
X180638147Y-91487470D01*
X180638143Y-91487477D01*
X180587849Y-91622323D01*
X180586934Y-91630839D01*
X180581442Y-91681929D01*
X180581441Y-91681941D01*
X171913308Y-91681941D01*
X171922202Y-91663472D01*
X171942711Y-91630832D01*
X171960015Y-91609134D01*
X172037418Y-91531733D01*
X172037417Y-91531732D01*
X172042059Y-91527091D01*
X172045718Y-91523580D01*
X172053643Y-91516278D01*
X172053649Y-91516269D01*
X172056343Y-91513193D01*
X172061965Y-91507185D01*
X172063633Y-91505516D01*
X172066682Y-91501531D01*
X172066538Y-91501415D01*
X172077818Y-91487477D01*
X172137967Y-91413154D01*
X172197738Y-91282277D01*
X172217423Y-91215238D01*
X172217424Y-91215234D01*
X172237900Y-91072818D01*
X172237900Y-88902562D01*
X172235003Y-88848522D01*
X172232169Y-88822164D01*
X172223514Y-88768752D01*
X172173232Y-88633943D01*
X172139747Y-88572620D01*
X172053523Y-88457439D01*
X172053518Y-88457434D01*
X172053513Y-88457428D01*
X171359819Y-87763734D01*
X171326334Y-87702411D01*
X171323500Y-87676053D01*
X171323500Y-87098596D01*
X174559035Y-87098596D01*
X174559035Y-87098603D01*
X174579231Y-87277853D01*
X174579231Y-87277854D01*
X174622162Y-87400547D01*
X174625723Y-87470325D01*
X174622162Y-87482453D01*
X174579231Y-87605145D01*
X174579231Y-87605146D01*
X174559035Y-87784396D01*
X174559035Y-87784403D01*
X174579230Y-87963649D01*
X174579231Y-87963654D01*
X174638811Y-88133923D01*
X174734784Y-88286662D01*
X174862338Y-88414216D01*
X174931127Y-88457439D01*
X175008998Y-88506369D01*
X175015078Y-88510189D01*
X175185339Y-88569766D01*
X175185345Y-88569768D01*
X175185350Y-88569769D01*
X175364596Y-88589965D01*
X175364600Y-88589965D01*
X175364604Y-88589965D01*
X175543849Y-88569769D01*
X175543851Y-88569768D01*
X175543855Y-88569768D01*
X175543858Y-88569766D01*
X175543862Y-88569766D01*
X175679245Y-88522393D01*
X175749023Y-88518830D01*
X175761155Y-88522393D01*
X175896537Y-88569766D01*
X175896543Y-88569767D01*
X175896545Y-88569768D01*
X175896546Y-88569768D01*
X175896550Y-88569769D01*
X176075796Y-88589965D01*
X176075800Y-88589965D01*
X176075804Y-88589965D01*
X176255049Y-88569769D01*
X176255052Y-88569768D01*
X176255055Y-88569768D01*
X176425322Y-88510189D01*
X176578062Y-88414216D01*
X176705616Y-88286662D01*
X176801589Y-88133922D01*
X176861168Y-87963655D01*
X176881365Y-87784400D01*
X176869157Y-87676053D01*
X176861169Y-87605153D01*
X176861169Y-87605151D01*
X176861168Y-87605149D01*
X176861168Y-87605145D01*
X176860243Y-87602501D01*
X180581441Y-87602501D01*
X180581441Y-87837110D01*
X180618142Y-88068833D01*
X180690638Y-88291956D01*
X180797153Y-88501001D01*
X180935045Y-88690795D01*
X180935049Y-88690800D01*
X181100946Y-88856697D01*
X181100951Y-88856701D01*
X181266499Y-88976977D01*
X181290749Y-88994596D01*
X181499788Y-89101107D01*
X181499790Y-89101108D01*
X181611351Y-89137356D01*
X181722915Y-89173605D01*
X181954636Y-89210306D01*
X181954637Y-89210306D01*
X184169245Y-89210306D01*
X184169246Y-89210306D01*
X184400967Y-89173605D01*
X184624094Y-89101107D01*
X184833133Y-88994596D01*
X185022937Y-88856696D01*
X185188831Y-88690802D01*
X185326731Y-88500998D01*
X185433242Y-88291959D01*
X185505740Y-88068832D01*
X185542441Y-87837111D01*
X185542441Y-87602501D01*
X185505740Y-87370780D01*
X185433242Y-87147653D01*
X185326731Y-86938614D01*
X185189026Y-86749078D01*
X185188836Y-86748816D01*
X185188832Y-86748811D01*
X185022935Y-86582914D01*
X185022930Y-86582910D01*
X184833136Y-86445018D01*
X184833135Y-86445017D01*
X184833133Y-86445016D01*
X184728613Y-86391760D01*
X184624091Y-86338503D01*
X184400968Y-86266007D01*
X184285106Y-86247656D01*
X184169246Y-86229306D01*
X181954636Y-86229306D01*
X181877395Y-86241539D01*
X181722913Y-86266007D01*
X181499790Y-86338503D01*
X181290745Y-86445018D01*
X181100951Y-86582910D01*
X181100946Y-86582914D01*
X180935049Y-86748811D01*
X180935045Y-86748816D01*
X180797153Y-86938610D01*
X180690638Y-87147655D01*
X180618142Y-87370778D01*
X180581441Y-87602501D01*
X176860243Y-87602501D01*
X176818235Y-87482452D01*
X176814675Y-87412676D01*
X176818231Y-87400559D01*
X176861168Y-87277855D01*
X176868097Y-87216359D01*
X176881365Y-87098603D01*
X176881365Y-87098596D01*
X176861169Y-86919350D01*
X176861168Y-86919345D01*
X176801588Y-86749076D01*
X176705615Y-86596337D01*
X176578062Y-86468784D01*
X176425323Y-86372811D01*
X176255054Y-86313231D01*
X176255049Y-86313230D01*
X176075804Y-86293035D01*
X176075796Y-86293035D01*
X175896550Y-86313230D01*
X175896545Y-86313231D01*
X175761155Y-86360607D01*
X175691376Y-86364168D01*
X175679245Y-86360607D01*
X175543854Y-86313231D01*
X175543849Y-86313230D01*
X175364604Y-86293035D01*
X175364596Y-86293035D01*
X175185350Y-86313230D01*
X175185345Y-86313231D01*
X175015076Y-86372811D01*
X174862337Y-86468784D01*
X174734784Y-86596337D01*
X174638811Y-86749076D01*
X174579231Y-86919345D01*
X174579230Y-86919350D01*
X174559035Y-87098596D01*
X171323500Y-87098596D01*
X171323500Y-86140362D01*
X171315469Y-86050624D01*
X171315469Y-86050622D01*
X171307651Y-86007285D01*
X171283812Y-85920386D01*
X171283811Y-85920385D01*
X171283811Y-85920383D01*
X171214858Y-85794102D01*
X171214857Y-85794100D01*
X171214855Y-85794097D01*
X171172992Y-85738174D01*
X171172978Y-85738158D01*
X171071258Y-85636436D01*
X171071252Y-85636431D01*
X171071249Y-85636428D01*
X171058937Y-85627211D01*
X171017068Y-85571276D01*
X171009251Y-85527946D01*
X171009251Y-82357090D01*
X171028936Y-82290051D01*
X171058939Y-82257824D01*
X171071250Y-82248609D01*
X171138293Y-82188386D01*
X171168296Y-82156159D01*
X171223567Y-82085008D01*
X171283338Y-81954131D01*
X171303023Y-81887092D01*
X171303024Y-81887088D01*
X171323500Y-81744672D01*
X171323500Y-81466546D01*
X171343185Y-81399507D01*
X171359819Y-81378865D01*
X171690141Y-81048543D01*
X172256723Y-80481962D01*
X172292888Y-80441700D01*
X172309522Y-80421058D01*
X172341167Y-80377174D01*
X172400938Y-80246297D01*
X172417362Y-80190363D01*
X173716100Y-80190363D01*
X173716100Y-81484640D01*
X173718997Y-81538688D01*
X173718997Y-81538689D01*
X173721829Y-81565022D01*
X173721832Y-81565049D01*
X173730485Y-81618445D01*
X173730485Y-81618447D01*
X173756121Y-81687177D01*
X173780768Y-81753257D01*
X173814253Y-81814580D01*
X173900477Y-81929761D01*
X173900481Y-81929765D01*
X173900486Y-81929771D01*
X175146991Y-83176275D01*
X176367839Y-84397123D01*
X176367855Y-84397137D01*
X176367862Y-84397144D01*
X176408080Y-84433271D01*
X176408092Y-84433281D01*
X176408100Y-84433288D01*
X176428742Y-84449922D01*
X176472626Y-84481567D01*
X176603503Y-84541338D01*
X176670542Y-84561023D01*
X176670546Y-84561024D01*
X176812962Y-84581500D01*
X176812965Y-84581500D01*
X178869240Y-84581500D01*
X178879386Y-84580955D01*
X178923278Y-84578603D01*
X178923286Y-84578602D01*
X178923288Y-84578602D01*
X178923289Y-84578602D01*
X178930282Y-84577849D01*
X178949636Y-84575769D01*
X178949646Y-84575767D01*
X178949649Y-84575767D01*
X178959248Y-84574211D01*
X179003048Y-84567114D01*
X179137857Y-84516832D01*
X179199180Y-84483347D01*
X179314361Y-84397123D01*
X179749723Y-83961761D01*
X179785888Y-83921500D01*
X179802522Y-83900858D01*
X179834167Y-83856974D01*
X179893938Y-83726097D01*
X179913623Y-83659058D01*
X179913624Y-83659054D01*
X179934100Y-83516638D01*
X179934100Y-81968362D01*
X179931203Y-81914322D01*
X179931057Y-81912968D01*
X179928370Y-81887977D01*
X179928367Y-81887950D01*
X179919714Y-81834554D01*
X179919714Y-81834552D01*
X179886189Y-81744670D01*
X179869432Y-81699743D01*
X179835947Y-81638420D01*
X179749723Y-81523239D01*
X179749718Y-81523234D01*
X179749713Y-81523228D01*
X178663518Y-80437033D01*
X180581441Y-80437033D01*
X180581441Y-82512768D01*
X180581442Y-82512774D01*
X180587849Y-82572381D01*
X180638143Y-82707226D01*
X180638147Y-82707233D01*
X180724393Y-82822442D01*
X180724396Y-82822445D01*
X180839605Y-82908691D01*
X180839612Y-82908695D01*
X180974458Y-82958989D01*
X180974457Y-82958989D01*
X180981385Y-82959733D01*
X181034068Y-82965398D01*
X185089813Y-82965397D01*
X185149424Y-82958989D01*
X185284272Y-82908694D01*
X185399487Y-82822444D01*
X185485737Y-82707229D01*
X185536032Y-82572381D01*
X185542441Y-82512771D01*
X185542440Y-80437026D01*
X185536032Y-80377415D01*
X185487129Y-80246300D01*
X185485738Y-80242569D01*
X185485734Y-80242562D01*
X185399488Y-80127353D01*
X185399485Y-80127350D01*
X185284276Y-80041104D01*
X185284269Y-80041100D01*
X185149423Y-79990806D01*
X185149424Y-79990806D01*
X185089824Y-79984399D01*
X185089822Y-79984398D01*
X185089814Y-79984398D01*
X185089805Y-79984398D01*
X181034070Y-79984398D01*
X181034064Y-79984399D01*
X180974457Y-79990806D01*
X180839612Y-80041100D01*
X180839605Y-80041104D01*
X180724396Y-80127350D01*
X180724393Y-80127353D01*
X180638147Y-80242562D01*
X180638143Y-80242569D01*
X180587849Y-80377415D01*
X180581442Y-80437014D01*
X180581442Y-80437021D01*
X180581441Y-80437033D01*
X178663518Y-80437033D01*
X177155376Y-78928892D01*
X177155361Y-78928877D01*
X177155337Y-78928855D01*
X177115119Y-78892728D01*
X177115107Y-78892718D01*
X177094456Y-78876076D01*
X177050574Y-78844433D01*
X176919700Y-78784663D01*
X176852655Y-78764976D01*
X176804384Y-78758036D01*
X176710238Y-78744500D01*
X175161962Y-78744500D01*
X175161960Y-78744500D01*
X175107911Y-78747397D01*
X175107910Y-78747397D01*
X175081595Y-78750227D01*
X175081555Y-78750232D01*
X175038426Y-78757220D01*
X175032479Y-78758036D01*
X174931350Y-78769430D01*
X174761078Y-78829010D01*
X174608337Y-78924984D01*
X174480784Y-79052537D01*
X174384812Y-79205275D01*
X174384811Y-79205276D01*
X174364216Y-79264133D01*
X174334856Y-79310858D01*
X173900492Y-79745223D01*
X173900455Y-79745262D01*
X173864328Y-79785480D01*
X173864318Y-79785492D01*
X173847676Y-79806143D01*
X173816033Y-79850025D01*
X173756263Y-79980899D01*
X173738585Y-80041104D01*
X173736577Y-80047942D01*
X173736576Y-80047946D01*
X173717697Y-80179258D01*
X173716100Y-80190363D01*
X172417362Y-80190363D01*
X172420623Y-80179258D01*
X172420624Y-80179254D01*
X172441100Y-80036838D01*
X172441100Y-76571563D01*
X172440440Y-76545742D01*
X172439793Y-76533092D01*
X172437815Y-76507337D01*
X172402915Y-76367754D01*
X172398764Y-76357593D01*
X180581441Y-76357593D01*
X180581441Y-76592202D01*
X180618142Y-76823925D01*
X180690638Y-77047048D01*
X180737659Y-77139330D01*
X180788631Y-77239369D01*
X180797153Y-77256093D01*
X180935045Y-77445887D01*
X180935049Y-77445892D01*
X181100946Y-77611789D01*
X181100951Y-77611793D01*
X181122737Y-77627621D01*
X181290749Y-77749688D01*
X181499788Y-77856199D01*
X181499790Y-77856200D01*
X181611351Y-77892448D01*
X181722915Y-77928697D01*
X181954636Y-77965398D01*
X181954637Y-77965398D01*
X184169245Y-77965398D01*
X184169246Y-77965398D01*
X184400967Y-77928697D01*
X184624094Y-77856199D01*
X184833133Y-77749688D01*
X185022937Y-77611788D01*
X185188831Y-77445894D01*
X185326731Y-77256090D01*
X185433242Y-77047051D01*
X185505740Y-76823924D01*
X185542441Y-76592203D01*
X185542441Y-76357593D01*
X185505740Y-76125872D01*
X185459289Y-75982911D01*
X185433243Y-75902747D01*
X185415535Y-75867994D01*
X185326731Y-75693706D01*
X185232823Y-75564452D01*
X185188836Y-75503908D01*
X185188832Y-75503903D01*
X185022935Y-75338006D01*
X185022930Y-75338002D01*
X184833136Y-75200110D01*
X184833135Y-75200109D01*
X184833133Y-75200108D01*
X184728613Y-75146852D01*
X184624091Y-75093595D01*
X184400968Y-75021099D01*
X184285106Y-75002748D01*
X184169246Y-74984398D01*
X181954636Y-74984398D01*
X181877395Y-74996631D01*
X181722913Y-75021099D01*
X181499790Y-75093595D01*
X181290745Y-75200110D01*
X181100951Y-75338002D01*
X181100946Y-75338006D01*
X180935049Y-75503903D01*
X180935045Y-75503908D01*
X180797153Y-75693702D01*
X180690638Y-75902747D01*
X180618142Y-76125870D01*
X180581441Y-76357593D01*
X172398764Y-76357593D01*
X172371227Y-76290181D01*
X172370026Y-76289203D01*
X172358929Y-76269365D01*
X172344107Y-76236014D01*
X172344105Y-76236011D01*
X172344103Y-76236006D01*
X172282166Y-76137437D01*
X172270118Y-76112419D01*
X172257390Y-76076045D01*
X172251211Y-76048975D01*
X172246896Y-76010670D01*
X172246897Y-75982911D01*
X172251210Y-75944629D01*
X172257388Y-75917558D01*
X172270117Y-75881178D01*
X172282162Y-75856167D01*
X172339321Y-75765201D01*
X172341690Y-75761577D01*
X172341842Y-75761352D01*
X172341834Y-75761347D01*
X172342133Y-75760837D01*
X172344117Y-75757570D01*
X172358414Y-75734820D01*
X172366554Y-75715245D01*
X172378517Y-75692824D01*
X172380831Y-75684555D01*
X172389367Y-75670896D01*
X172401070Y-75631039D01*
X172401071Y-75631040D01*
X172420622Y-75564459D01*
X172420624Y-75564452D01*
X172441100Y-75422036D01*
X172441100Y-74170562D01*
X172438203Y-74116522D01*
X172437837Y-74113122D01*
X172435370Y-74090177D01*
X172435367Y-74090150D01*
X172426714Y-74036754D01*
X172426714Y-74036752D01*
X172376432Y-73901943D01*
X172342947Y-73840620D01*
X172256723Y-73725439D01*
X172256718Y-73725434D01*
X172256714Y-73725429D01*
X172220697Y-73689413D01*
X172220679Y-73689395D01*
X172201988Y-73671633D01*
X172192601Y-73663158D01*
X172192590Y-73663148D01*
X172173031Y-73646375D01*
X172049668Y-73572330D01*
X172049666Y-73572329D01*
X171985255Y-73545265D01*
X171985254Y-73545265D01*
X171984721Y-73545041D01*
X171981887Y-73544387D01*
X171913414Y-73526539D01*
X171903736Y-73523590D01*
X171819980Y-73494283D01*
X171794962Y-73482234D01*
X171762332Y-73461731D01*
X171740623Y-73444419D01*
X171713382Y-73417178D01*
X171696069Y-73395468D01*
X171675566Y-73362837D01*
X171663518Y-73337821D01*
X171648683Y-73295425D01*
X171643548Y-73275305D01*
X171643528Y-73275309D01*
X171643463Y-73274972D01*
X171643372Y-73274615D01*
X171643231Y-73273755D01*
X171640040Y-73257046D01*
X171638398Y-73248444D01*
X171638397Y-73248443D01*
X171638396Y-73248434D01*
X171588114Y-73113625D01*
X171568550Y-73077796D01*
X174533635Y-73077796D01*
X174533635Y-73077803D01*
X174553831Y-73257053D01*
X174553831Y-73257054D01*
X174596762Y-73379747D01*
X174600323Y-73449525D01*
X174596762Y-73461653D01*
X174553831Y-73584345D01*
X174553831Y-73584346D01*
X174533635Y-73763596D01*
X174533635Y-73763603D01*
X174553830Y-73942849D01*
X174553831Y-73942854D01*
X174613411Y-74113123D01*
X174709384Y-74265862D01*
X174836938Y-74393416D01*
X174892102Y-74428078D01*
X174983598Y-74485569D01*
X174989678Y-74489389D01*
X175159939Y-74548966D01*
X175159945Y-74548968D01*
X175159950Y-74548969D01*
X175339196Y-74569165D01*
X175339200Y-74569165D01*
X175339204Y-74569165D01*
X175518449Y-74548969D01*
X175518451Y-74548968D01*
X175518455Y-74548968D01*
X175518458Y-74548966D01*
X175518462Y-74548966D01*
X175653845Y-74501593D01*
X175723623Y-74498030D01*
X175735755Y-74501593D01*
X175871137Y-74548966D01*
X175871143Y-74548967D01*
X175871145Y-74548968D01*
X175871146Y-74548968D01*
X175871150Y-74548969D01*
X176050396Y-74569165D01*
X176050400Y-74569165D01*
X176050404Y-74569165D01*
X176229649Y-74548969D01*
X176229652Y-74548968D01*
X176229655Y-74548968D01*
X176399922Y-74489389D01*
X176552662Y-74393416D01*
X176680216Y-74265862D01*
X176776189Y-74113122D01*
X176835768Y-73942855D01*
X176840218Y-73903361D01*
X176855965Y-73763603D01*
X176855965Y-73763596D01*
X176835769Y-73584353D01*
X176835769Y-73584351D01*
X176835768Y-73584349D01*
X176835768Y-73584345D01*
X176792835Y-73461652D01*
X176789275Y-73391876D01*
X176792831Y-73379759D01*
X176835768Y-73257055D01*
X176836739Y-73248434D01*
X176855965Y-73077803D01*
X176855965Y-73077796D01*
X176835769Y-72898550D01*
X176835768Y-72898545D01*
X176831979Y-72887716D01*
X176776189Y-72728278D01*
X176680216Y-72575538D01*
X176552662Y-72447984D01*
X176539865Y-72439943D01*
X176399923Y-72352011D01*
X176229654Y-72292431D01*
X176229649Y-72292430D01*
X176050404Y-72272235D01*
X176050396Y-72272235D01*
X175871150Y-72292430D01*
X175871145Y-72292431D01*
X175735755Y-72339807D01*
X175665976Y-72343368D01*
X175653845Y-72339807D01*
X175518454Y-72292431D01*
X175518449Y-72292430D01*
X175339204Y-72272235D01*
X175339196Y-72272235D01*
X175159950Y-72292430D01*
X175159945Y-72292431D01*
X174989676Y-72352011D01*
X174836937Y-72447984D01*
X174709384Y-72575537D01*
X174613411Y-72728276D01*
X174553831Y-72898545D01*
X174553830Y-72898550D01*
X174533635Y-73077796D01*
X171568550Y-73077796D01*
X171554629Y-73052302D01*
X171468405Y-72937121D01*
X171468400Y-72937116D01*
X171468395Y-72937110D01*
X171019241Y-72487957D01*
X170993737Y-72450923D01*
X170988824Y-72439943D01*
X170947612Y-72347844D01*
X170932750Y-72324192D01*
X170920748Y-72295212D01*
X170919869Y-72295520D01*
X170869048Y-72150284D01*
X170861781Y-72129516D01*
X170855603Y-72074685D01*
X170857211Y-72060411D01*
X170863387Y-72033354D01*
X170876116Y-71996979D01*
X170888158Y-71971973D01*
X170912764Y-71932815D01*
X170970489Y-71803813D01*
X170989495Y-71737842D01*
X171000201Y-71662006D01*
X171009250Y-71597914D01*
X171009251Y-71597900D01*
X171009251Y-68395310D01*
X171006353Y-68341262D01*
X171006353Y-68341261D01*
X171003521Y-68314928D01*
X171003518Y-68314901D01*
X170994865Y-68261505D01*
X170994865Y-68261503D01*
X170944584Y-68126698D01*
X170944583Y-68126694D01*
X170911098Y-68065371D01*
X170824874Y-67950190D01*
X170824869Y-67950185D01*
X170824864Y-67950179D01*
X170424376Y-67549692D01*
X170424361Y-67549677D01*
X170424337Y-67549655D01*
X170384119Y-67513528D01*
X170384107Y-67513518D01*
X170363456Y-67496876D01*
X170319574Y-67465233D01*
X170188700Y-67405463D01*
X170121655Y-67385776D01*
X170074182Y-67378950D01*
X169979238Y-67365300D01*
X169028285Y-67365300D01*
X168961246Y-67345615D01*
X168915491Y-67292811D01*
X168905065Y-67227417D01*
X168924153Y-67058003D01*
X168924153Y-67057996D01*
X168903957Y-66878750D01*
X168903956Y-66878745D01*
X168844376Y-66708476D01*
X168748403Y-66555737D01*
X168620850Y-66428184D01*
X168620845Y-66428180D01*
X168606576Y-66419214D01*
X168560286Y-66366879D01*
X168549639Y-66297825D01*
X168558718Y-66267487D01*
X168558354Y-66267360D01*
X168620233Y-66090519D01*
X168620234Y-66090514D01*
X168634222Y-65966363D01*
X173843100Y-65966363D01*
X173843100Y-67260640D01*
X173845997Y-67314688D01*
X173845997Y-67314689D01*
X173848829Y-67341022D01*
X173848832Y-67341049D01*
X173857485Y-67394445D01*
X173857485Y-67394447D01*
X173901901Y-67513528D01*
X173907768Y-67529257D01*
X173941253Y-67590580D01*
X174027477Y-67705761D01*
X174027481Y-67705765D01*
X174027486Y-67705771D01*
X175271600Y-68949884D01*
X176494839Y-70173123D01*
X176494855Y-70173137D01*
X176494862Y-70173144D01*
X176535080Y-70209271D01*
X176535092Y-70209281D01*
X176535100Y-70209288D01*
X176555742Y-70225922D01*
X176599626Y-70257567D01*
X176730503Y-70317338D01*
X176797542Y-70337023D01*
X176797546Y-70337024D01*
X176939962Y-70357500D01*
X176939965Y-70357500D01*
X178996240Y-70357500D01*
X179006386Y-70356955D01*
X179050278Y-70354603D01*
X179050286Y-70354602D01*
X179050288Y-70354602D01*
X179050289Y-70354602D01*
X179057282Y-70353849D01*
X179076636Y-70351769D01*
X179076646Y-70351767D01*
X179076649Y-70351767D01*
X179086248Y-70350211D01*
X179130048Y-70343114D01*
X179264857Y-70292832D01*
X179326180Y-70259347D01*
X179441361Y-70173123D01*
X179876723Y-69737761D01*
X179912888Y-69697500D01*
X179929522Y-69676858D01*
X179961167Y-69632974D01*
X180020938Y-69502097D01*
X180040623Y-69435058D01*
X180040624Y-69435054D01*
X180061100Y-69292638D01*
X180061100Y-69192125D01*
X180581441Y-69192125D01*
X180581441Y-71267860D01*
X180581442Y-71267866D01*
X180587849Y-71327473D01*
X180638143Y-71462318D01*
X180638147Y-71462325D01*
X180724393Y-71577534D01*
X180724396Y-71577537D01*
X180839605Y-71663783D01*
X180839612Y-71663787D01*
X180974458Y-71714081D01*
X180974457Y-71714081D01*
X180981385Y-71714825D01*
X181034068Y-71720490D01*
X185089813Y-71720489D01*
X185149424Y-71714081D01*
X185284272Y-71663786D01*
X185399487Y-71577536D01*
X185485737Y-71462321D01*
X185536032Y-71327473D01*
X185542441Y-71267863D01*
X185542440Y-69192118D01*
X185536032Y-69132507D01*
X185518990Y-69086816D01*
X185485738Y-68997661D01*
X185485734Y-68997654D01*
X185399488Y-68882445D01*
X185399485Y-68882442D01*
X185284276Y-68796196D01*
X185284269Y-68796192D01*
X185149423Y-68745898D01*
X185149424Y-68745898D01*
X185089824Y-68739491D01*
X185089822Y-68739490D01*
X185089814Y-68739490D01*
X185089805Y-68739490D01*
X181034070Y-68739490D01*
X181034064Y-68739491D01*
X180974457Y-68745898D01*
X180839612Y-68796192D01*
X180839605Y-68796196D01*
X180724396Y-68882442D01*
X180724393Y-68882445D01*
X180638147Y-68997654D01*
X180638143Y-68997661D01*
X180587849Y-69132507D01*
X180581442Y-69192106D01*
X180581442Y-69192113D01*
X180581441Y-69192125D01*
X180061100Y-69192125D01*
X180061100Y-67744362D01*
X180058203Y-67690322D01*
X180055369Y-67663964D01*
X180046714Y-67610552D01*
X179996432Y-67475743D01*
X179962947Y-67414420D01*
X179876723Y-67299239D01*
X179876718Y-67299234D01*
X179876713Y-67299228D01*
X177690169Y-65112685D01*
X180581441Y-65112685D01*
X180581441Y-65347295D01*
X180591214Y-65408999D01*
X180618142Y-65579017D01*
X180690638Y-65802140D01*
X180797153Y-66011185D01*
X180935045Y-66200979D01*
X180935049Y-66200984D01*
X181100944Y-66366879D01*
X181100951Y-66366885D01*
X181266499Y-66487161D01*
X181290749Y-66504780D01*
X181499788Y-66611291D01*
X181499790Y-66611292D01*
X181611351Y-66647540D01*
X181722915Y-66683789D01*
X181954636Y-66720490D01*
X181954637Y-66720490D01*
X184169245Y-66720490D01*
X184169246Y-66720490D01*
X184400967Y-66683789D01*
X184624094Y-66611291D01*
X184833133Y-66504780D01*
X185022937Y-66366880D01*
X185188831Y-66200986D01*
X185326731Y-66011182D01*
X185433242Y-65802143D01*
X185505740Y-65579016D01*
X185542441Y-65347295D01*
X185542441Y-65112685D01*
X185505740Y-64880964D01*
X185436781Y-64668728D01*
X185433243Y-64657839D01*
X185430307Y-64652076D01*
X185326731Y-64448798D01*
X185254224Y-64349000D01*
X185188836Y-64259000D01*
X185188832Y-64258995D01*
X185022935Y-64093098D01*
X185022930Y-64093094D01*
X184833135Y-63955201D01*
X184624091Y-63848687D01*
X184400968Y-63776191D01*
X184285106Y-63757840D01*
X184169246Y-63739490D01*
X181954636Y-63739490D01*
X181877395Y-63751723D01*
X181722913Y-63776191D01*
X181499790Y-63848687D01*
X181290747Y-63955201D01*
X181100951Y-64093094D01*
X181100946Y-64093098D01*
X180935049Y-64258995D01*
X180935045Y-64259000D01*
X180797153Y-64448794D01*
X180690638Y-64657839D01*
X180618142Y-64880962D01*
X180618142Y-64880964D01*
X180581441Y-65112685D01*
X177690169Y-65112685D01*
X177282376Y-64704892D01*
X177282370Y-64704886D01*
X177282361Y-64704877D01*
X177282337Y-64704855D01*
X177242119Y-64668728D01*
X177242107Y-64668718D01*
X177221456Y-64652076D01*
X177177574Y-64620433D01*
X177046700Y-64560663D01*
X176979655Y-64540976D01*
X176932182Y-64534150D01*
X176837238Y-64520500D01*
X175288962Y-64520500D01*
X175288960Y-64520500D01*
X175234911Y-64523397D01*
X175234910Y-64523397D01*
X175208577Y-64526229D01*
X175208550Y-64526232D01*
X175155154Y-64534885D01*
X175155152Y-64534885D01*
X175020347Y-64585166D01*
X174959022Y-64618651D01*
X174843840Y-64704876D01*
X174843828Y-64704886D01*
X174027492Y-65521223D01*
X174027455Y-65521262D01*
X173991328Y-65561480D01*
X173991318Y-65561492D01*
X173974676Y-65582143D01*
X173943033Y-65626025D01*
X173883263Y-65756899D01*
X173863576Y-65823944D01*
X173843100Y-65966363D01*
X168634222Y-65966363D01*
X168640430Y-65911268D01*
X168640430Y-65911261D01*
X168620234Y-65732015D01*
X168620233Y-65732010D01*
X168560654Y-65561743D01*
X168560501Y-65561500D01*
X168464678Y-65408999D01*
X168462415Y-65406161D01*
X168461524Y-65403980D01*
X168460976Y-65403107D01*
X168461129Y-65403010D01*
X168436009Y-65341474D01*
X168435365Y-65328852D01*
X168435365Y-64021208D01*
X168435364Y-64021204D01*
X168417679Y-63955201D01*
X168416812Y-63951965D01*
X168394442Y-63868480D01*
X168370812Y-63827553D01*
X168354200Y-63765553D01*
X168354200Y-63656378D01*
X168373885Y-63589339D01*
X168426689Y-63543584D01*
X168464317Y-63533158D01*
X168533450Y-63525369D01*
X168533453Y-63525368D01*
X168533455Y-63525368D01*
X168703722Y-63465789D01*
X168856462Y-63369816D01*
X168984016Y-63242262D01*
X169079989Y-63089522D01*
X169139568Y-62919255D01*
X169139569Y-62919249D01*
X169159765Y-62740003D01*
X169159765Y-62739996D01*
X169139569Y-62560750D01*
X169139568Y-62560745D01*
X169125120Y-62519455D01*
X169121559Y-62449676D01*
X169156288Y-62389048D01*
X169218281Y-62356821D01*
X169242162Y-62354500D01*
X171296060Y-62354500D01*
X171363099Y-62374185D01*
G37*
%TD.AperFunction*%
%TA.AperFunction,Conductor*%
G36*
X169042855Y-90998262D02*
G01*
X169216337Y-91058966D01*
X169216343Y-91058967D01*
X169216345Y-91058968D01*
X169216346Y-91058968D01*
X169216350Y-91058969D01*
X169395596Y-91079165D01*
X169395600Y-91079165D01*
X169395604Y-91079165D01*
X169574849Y-91058969D01*
X169574850Y-91058968D01*
X169574855Y-91058968D01*
X169614144Y-91045219D01*
X169683922Y-91041657D01*
X169744550Y-91076385D01*
X169776778Y-91138378D01*
X169779100Y-91162261D01*
X169779100Y-91828500D01*
X169759415Y-91895539D01*
X169706611Y-91941294D01*
X169655100Y-91952500D01*
X169396160Y-91952500D01*
X169342111Y-91955397D01*
X169342110Y-91955397D01*
X169315777Y-91958229D01*
X169315750Y-91958232D01*
X169262354Y-91966885D01*
X169262352Y-91966885D01*
X169127547Y-92017166D01*
X169066222Y-92050651D01*
X168951040Y-92136876D01*
X168951028Y-92136886D01*
X168565881Y-92522034D01*
X168504558Y-92555519D01*
X168434866Y-92550535D01*
X168378933Y-92508663D01*
X168354516Y-92443199D01*
X168354200Y-92434353D01*
X168354200Y-91189302D01*
X168373885Y-91122263D01*
X168426689Y-91076508D01*
X168492084Y-91066082D01*
X168608197Y-91079165D01*
X168608200Y-91079165D01*
X168608204Y-91079165D01*
X168787449Y-91058969D01*
X168787451Y-91058968D01*
X168787455Y-91058968D01*
X168787458Y-91058966D01*
X168787462Y-91058966D01*
X168960945Y-90998262D01*
X169030724Y-90994700D01*
X169042855Y-90998262D01*
G37*
%TD.AperFunction*%
%TA.AperFunction,Conductor*%
G36*
X169271854Y-77163339D02*
G01*
X169416537Y-77213966D01*
X169416543Y-77213967D01*
X169416545Y-77213968D01*
X169416546Y-77213968D01*
X169416550Y-77213969D01*
X169595796Y-77234165D01*
X169595800Y-77234165D01*
X169595804Y-77234165D01*
X169775049Y-77213969D01*
X169775051Y-77213968D01*
X169775055Y-77213968D01*
X169775058Y-77213966D01*
X169775062Y-77213966D01*
X169856856Y-77185345D01*
X169926634Y-77181782D01*
X169987262Y-77216511D01*
X170019490Y-77278504D01*
X170021031Y-77316268D01*
X170009435Y-77419194D01*
X170009435Y-77419203D01*
X170029630Y-77598447D01*
X170029990Y-77600023D01*
X170033100Y-77627621D01*
X170033100Y-78581092D01*
X170045206Y-78691063D01*
X170056946Y-78743732D01*
X170086056Y-78829010D01*
X170092680Y-78848414D01*
X170171696Y-78968655D01*
X170171698Y-78968658D01*
X170171700Y-78968660D01*
X170217977Y-79020980D01*
X170217989Y-79020993D01*
X170218005Y-79021008D01*
X170327680Y-79114101D01*
X170327681Y-79114102D01*
X170345550Y-79125330D01*
X170367258Y-79142642D01*
X170394499Y-79169883D01*
X170411811Y-79191591D01*
X170432316Y-79224224D01*
X170444372Y-79249262D01*
X170445760Y-79253232D01*
X170457092Y-79285619D01*
X170463270Y-79312688D01*
X170467584Y-79350977D01*
X170467584Y-79378743D01*
X170463270Y-79417033D01*
X170457092Y-79444104D01*
X170444364Y-79480479D01*
X170432315Y-79505497D01*
X170411812Y-79538127D01*
X170394500Y-79559836D01*
X170367258Y-79587078D01*
X170345549Y-79604390D01*
X170312919Y-79624893D01*
X170287901Y-79636942D01*
X170251529Y-79649669D01*
X170224461Y-79655847D01*
X170164083Y-79662650D01*
X170138554Y-79666189D01*
X170126076Y-79668243D01*
X170100769Y-79673075D01*
X170100757Y-79673078D01*
X169965953Y-79723357D01*
X169965946Y-79723360D01*
X169906589Y-79755771D01*
X169905115Y-79756541D01*
X169904628Y-79756841D01*
X169873800Y-79779919D01*
X169808335Y-79804334D01*
X169740063Y-79789481D01*
X169711811Y-79768331D01*
X169063167Y-79119687D01*
X169063165Y-79119685D01*
X168997550Y-79081802D01*
X168931936Y-79043919D01*
X168846324Y-79020980D01*
X168785566Y-79004700D01*
X168478200Y-79004700D01*
X168411161Y-78985015D01*
X168365406Y-78932211D01*
X168354200Y-78880700D01*
X168354200Y-77317922D01*
X168373885Y-77250883D01*
X168426689Y-77205128D01*
X168495847Y-77195184D01*
X168519155Y-77200881D01*
X168629137Y-77239366D01*
X168629143Y-77239367D01*
X168629145Y-77239368D01*
X168629146Y-77239368D01*
X168629150Y-77239369D01*
X168808396Y-77259565D01*
X168808400Y-77259565D01*
X168808404Y-77259565D01*
X168987649Y-77239369D01*
X168987651Y-77239368D01*
X168987655Y-77239368D01*
X168987658Y-77239366D01*
X168987662Y-77239366D01*
X169038700Y-77221506D01*
X169157922Y-77179789D01*
X169164925Y-77175388D01*
X169232159Y-77156386D01*
X169271854Y-77163339D01*
G37*
%TD.AperFunction*%
%TD*%
%TA.AperFunction,Conductor*%
%TO.N,Net-(U30-ISEN)*%
G36*
X176777277Y-79269685D02*
G01*
X176797919Y-79286319D01*
X179392281Y-81880681D01*
X179425766Y-81942004D01*
X179428600Y-81968362D01*
X179428600Y-83516638D01*
X179408915Y-83583677D01*
X179392281Y-83604319D01*
X178956919Y-84039681D01*
X178895596Y-84073166D01*
X178869238Y-84076000D01*
X176812962Y-84076000D01*
X176745923Y-84056315D01*
X176725281Y-84039681D01*
X174257919Y-81572319D01*
X174224434Y-81510996D01*
X174221600Y-81484638D01*
X174221600Y-80190362D01*
X174241285Y-80123323D01*
X174257919Y-80102681D01*
X175074281Y-79286319D01*
X175135604Y-79252834D01*
X175161962Y-79250000D01*
X176710238Y-79250000D01*
X176777277Y-79269685D01*
G37*
%TD.AperFunction*%
%TD*%
%TA.AperFunction,Conductor*%
%TO.N,Net-(U27-ISEN)*%
G36*
X176904277Y-65045685D02*
G01*
X176924919Y-65062319D01*
X179519281Y-67656681D01*
X179552766Y-67718004D01*
X179555600Y-67744362D01*
X179555600Y-69292638D01*
X179535915Y-69359677D01*
X179519281Y-69380319D01*
X179083919Y-69815681D01*
X179022596Y-69849166D01*
X178996238Y-69852000D01*
X176939962Y-69852000D01*
X176872923Y-69832315D01*
X176852281Y-69815681D01*
X174384919Y-67348319D01*
X174351434Y-67286996D01*
X174348600Y-67260638D01*
X174348600Y-65966362D01*
X174368285Y-65899323D01*
X174384919Y-65878681D01*
X175201281Y-65062319D01*
X175262604Y-65028834D01*
X175288962Y-65026000D01*
X176837238Y-65026000D01*
X176904277Y-65045685D01*
G37*
%TD.AperFunction*%
%TD*%
%TA.AperFunction,Conductor*%
%TO.N,Net-(U24-ISEN)*%
G36*
X176777277Y-93493685D02*
G01*
X176797919Y-93510319D01*
X179392281Y-96104681D01*
X179425766Y-96166004D01*
X179428600Y-96192362D01*
X179428600Y-97232638D01*
X179408915Y-97299677D01*
X179392281Y-97320319D01*
X178448919Y-98263681D01*
X178387596Y-98297166D01*
X178361238Y-98300000D01*
X176812962Y-98300000D01*
X176745923Y-98280315D01*
X176725281Y-98263681D01*
X174257919Y-95796319D01*
X174224434Y-95734996D01*
X174221600Y-95708638D01*
X174221600Y-94414362D01*
X174241285Y-94347323D01*
X174257919Y-94326681D01*
X175074281Y-93510319D01*
X175135604Y-93476834D01*
X175161962Y-93474000D01*
X176710238Y-93474000D01*
X176777277Y-93493685D01*
G37*
%TD.AperFunction*%
%TD*%
%TA.AperFunction,Conductor*%
%TO.N,/USB_PD/UVP-OVP/Vin*%
G36*
X125015639Y-103044085D02*
G01*
X125061394Y-103096889D01*
X125072600Y-103148400D01*
X125072600Y-111229500D01*
X125052915Y-111296539D01*
X125000111Y-111342294D01*
X124948600Y-111353500D01*
X117528808Y-111353500D01*
X117461769Y-111333815D01*
X117416014Y-111281011D01*
X117406070Y-111211853D01*
X117411766Y-111188545D01*
X117450568Y-111077654D01*
X117450569Y-111077649D01*
X117470765Y-110898403D01*
X117470765Y-110898396D01*
X117450569Y-110719150D01*
X117450568Y-110719145D01*
X117444324Y-110701302D01*
X117390989Y-110548878D01*
X117295016Y-110396138D01*
X117167462Y-110268584D01*
X117014723Y-110172611D01*
X116844454Y-110113031D01*
X116844449Y-110113030D01*
X116665204Y-110092835D01*
X116665196Y-110092835D01*
X116485950Y-110113030D01*
X116485945Y-110113031D01*
X116315676Y-110172611D01*
X116162937Y-110268584D01*
X116035384Y-110396137D01*
X115939409Y-110548880D01*
X115905941Y-110644526D01*
X115865220Y-110701302D01*
X115800267Y-110727049D01*
X115731705Y-110713593D01*
X115681302Y-110665205D01*
X115671859Y-110644526D01*
X115638390Y-110548880D01*
X115638389Y-110548878D01*
X115542416Y-110396138D01*
X115414862Y-110268584D01*
X115262123Y-110172611D01*
X115091854Y-110113031D01*
X115091849Y-110113030D01*
X114912604Y-110092835D01*
X114912596Y-110092835D01*
X114733350Y-110113030D01*
X114733345Y-110113031D01*
X114563076Y-110172611D01*
X114410337Y-110268584D01*
X114282784Y-110396137D01*
X114186811Y-110548876D01*
X114127231Y-110719145D01*
X114127230Y-110719150D01*
X114107035Y-110898396D01*
X114107035Y-110898403D01*
X114127230Y-111077649D01*
X114127231Y-111077654D01*
X114166034Y-111188545D01*
X114169595Y-111258324D01*
X114134866Y-111318952D01*
X114072873Y-111351179D01*
X114048992Y-111353500D01*
X112750600Y-111353500D01*
X112683561Y-111333815D01*
X112637806Y-111281011D01*
X112626600Y-111229500D01*
X112626600Y-110236440D01*
X112646285Y-110169401D01*
X112699089Y-110123646D01*
X112764483Y-110113220D01*
X112802583Y-110117512D01*
X112905997Y-110129165D01*
X112906000Y-110129165D01*
X112906004Y-110129165D01*
X113085249Y-110108969D01*
X113085252Y-110108968D01*
X113085255Y-110108968D01*
X113255522Y-110049389D01*
X113408262Y-109953416D01*
X113535816Y-109825862D01*
X113631789Y-109673122D01*
X113691368Y-109502855D01*
X113711565Y-109323600D01*
X113691368Y-109144345D01*
X113631789Y-108974078D01*
X113535816Y-108821338D01*
X113408262Y-108693784D01*
X113255523Y-108597811D01*
X113085254Y-108538231D01*
X113085249Y-108538230D01*
X112906004Y-108518035D01*
X112905996Y-108518035D01*
X112764483Y-108533979D01*
X112695661Y-108521924D01*
X112644282Y-108474575D01*
X112626600Y-108410759D01*
X112626600Y-105070932D01*
X112640116Y-105014637D01*
X112679164Y-104938001D01*
X112679165Y-104937997D01*
X112679168Y-104937992D01*
X112752153Y-104713368D01*
X112789100Y-104480097D01*
X112789100Y-104243902D01*
X112752153Y-104010631D01*
X112679165Y-103786000D01*
X112640115Y-103709360D01*
X112626600Y-103653066D01*
X112626600Y-103148400D01*
X112646285Y-103081361D01*
X112699089Y-103035606D01*
X112750600Y-103024400D01*
X124948600Y-103024400D01*
X125015639Y-103044085D01*
G37*
%TD.AperFunction*%
%TD*%
M02*
