M48
; DRILL file {KiCad 8.0.4} date 2025-02-12T15:13:01+0100
; FORMAT={-:-/ absolute / inch / decimal}
; #@! TF.CreationDate,2025-02-12T15:13:01+01:00
; #@! TF.GenerationSoftware,Kicad,Pcbnew,8.0.4
; #@! TF.FileFunction,Plated,1,4,PTH
FMAT,2
INCH
; #@! TA.AperFunction,Plated,PTH,ComponentDrill
T1C0.0079
; #@! TA.AperFunction,Plated,PTH,ViaDrill
T2C0.0118
; #@! TA.AperFunction,Plated,PTH,ComponentDrill
T3C0.0118
; #@! TA.AperFunction,Plated,PTH,ComponentDrill
T4C0.0130
; #@! TA.AperFunction,Plated,PTH,ComponentDrill
T5C0.0394
; #@! TA.AperFunction,Plated,PTH,ComponentDrill
T6C0.0520
; #@! TA.AperFunction,Plated,PTH,ComponentDrill
T7C0.1260
%
G90
G05
T1
X5.0222Y-3.0155
X5.0222Y-3.0706
X5.0497Y-2.9879
X5.0497Y-3.043
X5.0497Y-3.0981
X5.0773Y-3.0155
X5.0773Y-3.0706
X5.1048Y-2.9879
X5.1048Y-3.043
X5.1048Y-3.0981
X5.1324Y-3.0155
X5.1324Y-3.0706
T2
X3.9541Y-3.7141
X3.9571Y-3.1481
X3.9971Y-3.1111
X4.0411Y-2.8391
X4.0741Y-3.7141
X4.103Y-3.527
X4.1141Y-3.1101
X4.1201Y-2.8391
X4.1201Y-2.9471
X4.123Y-3.47
X4.1291Y-3.7141
X4.137Y-3.528
X4.1448Y-3.4918
X4.155Y-3.146
X4.1901Y-3.0801
X4.1901Y-3.146
X4.2041Y-3.7141
X4.2583Y-3.5407
X4.26Y-3.208
X4.26Y-3.241
X4.26Y-3.276
X4.261Y-3.641
X4.2621Y-3.575
X4.2621Y-3.609
X4.278Y-3.341
X4.2811Y-3.3091
X4.301Y-3.208
X4.301Y-3.241
X4.301Y-3.276
X4.31Y-3.341
X4.3141Y-3.0151
X4.316Y-3.31
X4.3471Y-3.7141
X4.3501Y-3.1941
X4.3511Y-2.8451
X4.3721Y-3.0151
X4.3941Y-2.7271
X4.4258Y-2.9212
X4.4401Y-3.4001
X4.4451Y-4.3041
X4.4511Y-4.1001
X4.4651Y-3.6641
X4.4721Y-4.1201
X4.4761Y-2.703
X4.4761Y-2.7651
X4.4931Y-4.1001
X4.5001Y-3.5901
X4.5101Y-2.703
X4.5131Y-4.1201
X4.5241Y-4.3661
X4.5361Y-2.8951
X4.5441Y-2.703
X4.5441Y-3.6601
X4.546Y-2.75
X4.546Y-2.786
X4.551Y-3.898
X4.566Y-3.87
X4.5741Y-2.9351
X4.58Y-2.786
X4.582Y-3.898
X4.5831Y-4.1951
X4.5931Y-4.3661
X4.599Y-3.87
X4.613Y-2.786
X4.613Y-3.898
X4.6141Y-3.6601
X4.6331Y-3.7641
X4.6471Y-3.923
X4.6481Y-3.9891
X4.6501Y-3.8341
X4.6708Y-3.5151
X4.677Y-3.7711
X4.687Y-3.834
X4.689Y-3.922
X4.689Y-3.988
X4.7152Y-3.7417
X4.716Y-3.777
X4.719Y-3.817
X4.728Y-3.917
X4.7301Y-4.0751
X4.735Y-2.786
X4.7361Y-2.9871
X4.7371Y-4.3561
X4.7381Y-2.8381
X4.742Y-2.703
X4.7631Y-3.6601
X4.766Y-3.916
X4.7753Y-2.703
X4.785Y-3.7641
X4.7877Y-3.4486
X4.8003Y-3.9851
X4.8011Y-3.6601
X4.8061Y-4.1761
X4.8087Y-2.703
X4.8337Y-4.0761
X4.842Y-2.703
X4.8511Y-2.9871
X4.8511Y-3.0921
X4.8741Y-3.8521
X4.8865Y-3.0271
X4.9061Y-4.0191
X4.92Y-3.636
X4.92Y-3.696
X4.92Y-3.756
X4.92Y-3.816
X4.984Y-4.146
X4.9841Y-3.9551
X5.0037Y-4.1171
X5.0141Y-3.9551
X5.0277Y-4.146
X5.0441Y-3.9551
X5.0488Y-4.1171
X5.0631Y-3.2501
X5.0631Y-3.3331
X5.0713Y-4.146
X5.0841Y-3.9551
X5.094Y-4.1171
X5.1141Y-3.4851
X5.1141Y-3.9551
X5.115Y-4.146
X5.1441Y-3.9551
X5.1748Y-3.3331
X5.1751Y-3.9981
X5.177Y-4.03
X5.177Y-4.063
X5.186Y-3.775
X5.189Y-4.371
X5.193Y-3.534
X5.207Y-3.9841
X5.2079Y-4.015
X5.2089Y-4.049
X5.209Y-3.655
X5.21Y-3.747
X5.213Y-4.298
X5.2131Y-2.9351
X5.22Y-4.371
X5.229Y-3.775
X5.2291Y-3.3331
X5.2385Y-3.534
X5.251Y-3.747
X5.252Y-4.371
X5.254Y-3.655
X5.258Y-4.298
X5.2611Y-3.484
X5.2641Y-2.8191
X5.281Y-3.534
X5.284Y-4.371
X5.2865Y-3.3331
X5.295Y-3.654
X5.3235Y-3.534
X5.3291Y-2.8891
X5.3341Y-4.0001
X5.336Y-4.355
X5.3381Y-4.1201
X5.339Y-3.654
X5.3541Y-3.9501
X5.366Y-3.534
X5.372Y-4.373
X5.3791Y-2.9831
X5.3926Y-2.8326
X5.3981Y-3.3331
X5.3991Y-4.265
X5.4111Y-3.9501
X5.423Y-4.373
X5.424Y-2.7335
X5.448Y-2.7
X5.4541Y-3.9491
X5.479Y-4.3722
X5.4811Y-3.4415
X5.486Y-4.178
X5.501Y-2.699
X5.502Y-4.148
X5.503Y-4.265
X5.5071Y-3.6021
X5.5071Y-3.6493
X5.526Y-4.178
X5.526Y-4.3722
X5.5307Y-3.6257
X5.5307Y-3.673
X5.5311Y-3.3675
X5.54Y-4.148
X5.5611Y-3.4181
X5.5641Y-3.0117
X5.573Y-3.976
X5.5731Y-3.5611
X5.6048Y-3.1414
X5.6197Y-3.976
X5.6321Y-4.3701
X5.635Y-3.854
X5.637Y-3.753
X5.6491Y-3.3575
X5.6663Y-3.976
X5.672Y-3.853
X5.6731Y-3.5611
X5.674Y-3.752
X5.6741Y-2.7051
X5.6923Y-4.3701
X5.707Y-3.853
X5.709Y-3.752
X5.7091Y-3.6631
X5.713Y-3.976
X5.7211Y-3.1041
X5.7211Y-3.1361
X5.7211Y-3.2861
X5.7211Y-3.3591
X5.7211Y-3.4285
X5.7281Y-3.5611
X5.7524Y-4.3701
X5.77Y-3.691
X5.771Y-3.728
X5.793Y-3.915
X5.807Y-3.69
X5.808Y-3.727
X5.812Y-4.324
X5.8126Y-4.3701
X5.8301Y-3.8181
X5.8371Y-3.3651
X5.844Y-3.915
X5.8441Y-2.7051
X5.8441Y-3.872
X5.8491Y-3.4411
X5.8661Y-2.8411
X5.8727Y-4.3701
X5.8941Y-3.6951
X5.9329Y-4.3701
X5.9341Y-3.1431
X5.9348Y-4.056
X5.9381Y-3.5231
X5.9671Y-3.0161
X5.9671Y-3.1201
X5.9671Y-3.1691
X5.9671Y-3.2691
X5.9671Y-3.3191
X5.9691Y-3.6951
X5.993Y-4.3701
X6.0171Y-2.7051
X6.0532Y-4.3701
X6.0541Y-2.9951
X6.0571Y-3.93
X6.0576Y-3.8935
X6.058Y-3.857
X6.0641Y-3.5231
X6.0841Y-3.3251
X6.1133Y-4.3701
X6.133Y-3.6437
X6.1386Y-3.1691
X6.158Y-3.689
X6.158Y-3.7349
X6.158Y-3.7807
X6.158Y-3.8266
X6.158Y-3.8724
X6.158Y-3.9183
X6.158Y-3.9641
X6.158Y-4.01
X6.1735Y-4.3701
X6.1771Y-3.4401
X6.1991Y-3.2761
X6.2241Y-2.9881
X6.2337Y-4.3701
X6.2611Y-3.4921
X6.2701Y-3.6261
X6.2738Y-2.9008
X6.286Y-3.729
X6.286Y-3.823
X6.286Y-3.915
X6.286Y-4.006
X6.2861Y-3.686
X6.2861Y-3.778
X6.2861Y-3.87
X6.2861Y-3.961
X6.2871Y-3.053
X6.2931Y-3.4041
X6.2938Y-4.3701
X6.2941Y-3.2662
X6.2961Y-2.7621
X6.3106Y-3.4921
X6.3196Y-3.6261
X6.329Y-2.9195
X6.329Y-3.053
X6.348Y-2.686
X6.354Y-4.3701
X6.3591Y-3.8601
X6.3595Y-4.0091
X6.3601Y-3.4921
X6.3691Y-3.6261
X6.372Y-2.9191
X6.372Y-3.053
X6.3841Y-3.1921
X6.3841Y-3.3381
X6.3991Y-2.4711
X6.3991Y-2.5101
X6.4051Y-3.7391
X6.4128Y-2.8132
X6.4141Y-4.3701
X6.4321Y-4.1341
X6.4321Y-4.1896
X6.4321Y-4.2451
X6.4351Y-3.2981
X6.4441Y-3.0621
X6.4441Y-3.1211
X6.4491Y-2.943
X6.4765Y-3.1924
X6.4765Y-3.2331
X6.4765Y-3.2721
X6.4821Y-4.1021
X6.4821Y-4.1339
X6.483Y-3.464
X6.4935Y-2.6404
X6.5041Y-3.1221
X6.5051Y-3.3791
X6.513Y-3.6996
X6.5149Y-2.7181
X6.5149Y-2.8211
X6.5211Y-2.4701
X6.5211Y-2.5088
X6.5211Y-2.5501
X6.5241Y-3.8951
X6.525Y-3.464
X6.5265Y-4.1021
X6.5265Y-4.1339
X6.5441Y-3.3051
X6.5451Y-3.1104
X6.5541Y-3.9581
X6.5708Y-4.1021
X6.5708Y-4.1339
X6.5887Y-3.6841
X6.6077Y-2.5949
X6.6126Y-3.304
X6.6126Y-3.355
X6.6137Y-2.7291
X6.6137Y-2.7811
X6.6151Y-4.1021
X6.6151Y-4.1339
X6.6159Y-3.9189
X6.6188Y-2.6401
X6.623Y-3.194
X6.6281Y-2.4701
X6.6281Y-2.5031
X6.6381Y-3.5241
X6.6381Y-3.5541
X6.6401Y-2.8531
X6.6401Y-4.0031
X6.646Y-2.944
X6.646Y-2.977
X6.646Y-3.01
X6.667Y-3.1931
X6.6691Y-2.8531
X6.6691Y-3.5231
X6.6691Y-3.5541
X6.6691Y-3.5856
X6.6701Y-4.0021
X6.677Y-2.943
X6.677Y-2.977
X6.677Y-3.009
X6.6961Y-3.4671
X6.6981Y-2.8531
X6.6997Y-3.1246
X6.7081Y-4.1001
X6.7103Y-2.5589
X6.725Y-3.048
X6.7441Y-3.5771
X6.7641Y-3.4351
X6.768Y-4.0
X6.7691Y-2.4861
X6.7691Y-2.8828
X6.7788Y-3.6143
X6.793Y-2.992
X6.7991Y-2.8828
X6.8Y-4.0
X6.8041Y-3.4351
X6.846Y-3.55
X6.854Y-3.484
X6.855Y-2.984
X6.867Y-3.519
X6.873Y-3.172
X6.874Y-2.957
X6.878Y-3.716
X6.882Y-2.602
X6.883Y-2.913
X6.883Y-3.468
X6.8865Y-3.55
X6.891Y-3.745
X6.894Y-3.145
X6.898Y-2.631
X6.9Y-2.982
X6.9005Y-2.886
X6.904Y-4.026
X6.9075Y-3.519
X6.908Y-3.429
X6.909Y-3.716
X6.911Y-3.483
X6.913Y-3.172
X6.915Y-2.602
X6.919Y-2.913
X6.9199Y-3.9989
X6.922Y-2.957
X6.923Y-3.746
X6.927Y-3.55
X6.93Y-3.456
X6.933Y-2.631
X6.936Y-3.145
X6.937Y-2.886
X6.938Y-4.026
X6.941Y-2.984
X6.941Y-3.716
X6.947Y-2.4667
X6.947Y-2.499
X6.949Y-2.602
X6.951Y-3.173
X6.954Y-2.912
X6.956Y-3.999
X6.96Y-3.282
X6.961Y-2.728
X6.969Y-3.843
X6.972Y-4.026
X6.984Y-2.532
X6.9841Y-2.4667
X6.9841Y-2.499
X6.99Y-3.282
X6.9933Y-2.728
X7.0Y-3.849
X7.002Y-3.819
X7.023Y-3.282
X7.0257Y-2.728
X7.033Y-3.821
X7.036Y-3.788
X7.042Y-2.699
X7.045Y-3.253
X7.057Y-3.282
X7.06Y-2.738
T3
X3.9963Y-3.3245
X3.9963Y-3.482
X4.075Y-3.3245
X4.075Y-3.482
X6.758Y-3.8216
T4
X6.758Y-2.7027
X6.758Y-2.7539
X6.758Y-2.8051
X6.758Y-3.2536
X6.758Y-3.3048
X6.758Y-3.356
X6.758Y-3.8728
X6.758Y-3.924
X6.8092Y-2.7027
X6.8092Y-2.7539
X6.8092Y-2.8051
X6.8092Y-3.2536
X6.8092Y-3.3048
X6.8092Y-3.356
X6.8092Y-3.8216
X6.8092Y-3.8728
X6.8092Y-3.924
T6
X7.2072Y-2.5681
X7.2072Y-2.765
X7.2072Y-3.0108
X7.2072Y-3.2077
X7.2072Y-3.4535
X7.2072Y-3.6504
X7.2076Y-3.8986
X7.2076Y-4.0955
X7.2076Y-4.2923
T7
X4.0551Y-2.5716
X4.0551Y-4.2645
X6.2205Y-2.5716
X6.811Y-4.2645
T5
G00X4.0266Y-3.2328
M15
G01X4.0148Y-3.2328
M16
G05
G00X4.0266Y-3.5737
M15
G01X4.0148Y-3.5737
M16
G05
G00X4.1978Y-3.2328
M15
G01X4.1742Y-3.2328
M16
G05
G00X4.1978Y-3.5737
M15
G01X4.1742Y-3.5737
M16
G05
G00X4.224Y-3.8843
M15
G01X4.224Y-3.9631
M16
G05
G00X4.3027Y-4.1087
M15
G01X4.3814Y-4.1087
M16
G05
G00X4.4681Y-3.8745
M15
G01X4.4681Y-3.9729
M16
G05
M30
